<svg xmlns="http://www.w3.org/2000/svg" xmlns:xlink="http://www.w3.org/1999/xlink" width="2000" height="1000">
  <defs/>
  <g>
    <path stroke="none" fill="#cc3333" d="M1641.6 307.55 Q1637.95 308.45 1636.6 308.05 L1636.1 308.05 Q1638.1 307.4 1636.35 305.8 1636.1 305.55 1636.1 305.05 L1639.1 304.55 1640.1 302.5 1642.35 304.3 1642.1 304.55 Q1642.8 305.15 1642.2 306.15 L1641.6 307.55 M1440.4 488.5 L1440.15 488.25 1442.4 486.45 1446.1 487.75 1446.4 489 1446.65 491.2 1445.6 491.85 1446.4 492 1445.9 492 1440.9 491.5 1440.3 490.1 Q1439.7 489.1 1440.4 488.5 M1621.25 305.9 Q1619.5 307.5 1621.5 308.15 L1621 308.15 1616 307.65 1615.4 306.25 Q1614.8 305.25 1615.5 304.65 L1615.25 304.4 Q1616.3 303.45 1617.5 302.6 L1618.5 304.65 1621.5 305.15 1621.25 305.9 M1922 820.75 Q1923.55 818.35 1927.5 818.75 L1932.5 820.75 1935 824.25 Q1937.3 825.5 1938.8 827.85 L1939.5 829.25 1941 830.25 1941 830.75 Q1929.9 828.05 1922.4 820.85 L1922 820.75 M1954.35 823.6 L1956.55 819.95 1961.35 817.5 Q1965.3 816.75 1967 819 L1966.65 819.15 Q1959.8 826.95 1948.95 830.65 L1948.9 830.15 1950.35 829 Q1950.5 828.25 1950.9 827.55 1952.2 825.05 1954.35 823.6"/>
  </g>
</svg>