<svg xmlns="http://www.w3.org/2000/svg" xmlns:xlink="http://www.w3.org/1999/xlink" witdh="2000" height="1000">
  <defs/>
  <g>
    <path stroke="none" fill="#000001" d="M1711 21 L1710.95 21.5 Q1702.8 22.75 1697 21 L1696 21 1689 21 1688.95 21.5 1678 22 1677 22 1676 22 1675.95 22.5 1667 23 1666 23 1662 23 1661.95 23.5 1654 24 1653.05 24.15 Q1623.55 32.55 1589 36 L1588.95 36.5 1580 37 1579 37 1542 37 1541 37.05 Q1536.25 37.75 1534 36 L1533 36 1531 36 1530 36.05 Q1525.25 36.75 1523 35 L1522 35 1521 35 1520 35.05 Q1513.8 35.75 1510 34 L1509 34 1508.95 34.5 1501 35 1500 35.1 1482 36 1481.9 36.5 Q1460.55 40.55 1441 46 L1441 47 1440.95 47.5 1431 48 1430 48 1429 48 1428.9 48.5 Q1421.75 49.75 1417 48 1398.4 46.6 1380.25 43.55 1362.3 40.5 1346.05 47.15 1313.1 60.65 1283 47 L1282 47.05 Q1277.25 47.75 1275 46 1262.25 43.6 1252 47.95 1231.95 56.45 1214.65 68 1189.7 84.7 1167 104 L1166 104 1154 104 1153.8 104.6 Q1147.3 108.3 1138 109 L1137.95 109.5 Q1129.8 110.75 1124 109 L1123.15 108.75 Q1121.35 107.65 1118 108 L1117 108.05 Q1111.8 108.75 1109 107 L1108 107 Q1096.9 106.6 1087 105 L1086 105.05 Q1076.25 105.75 1069 104 L1068 103.95 1041 103 1040.95 103.5 Q1029.25 104.75 1020 103 L1019 103 1013 103 1012 103.05 Q1005.75 103.75 1002 102 L1001 102 1000 102 999 102.05 Q993.3 102.75 990 101 970 99.5 952 96.1 921.6 90.4 895.65 81.05 829.35 57.2 769 28 L768 28 760 28 759.05 28.15 Q746.75 31.7 731 32 L730.95 32.5 722 33 721 33 718 33 717 33.05 Q711.25 33.75 708 32 L697.05 31.45 Q616 23.55 537 13 L536.75 13.7 Q534.8 15.2 531 13 L530 13 528 13 527 13 513 13 512 13 503 13 502 13 501 13 500.95 13.5 Q492.25 14.75 486 13 L485 13.05 465 14 Q465 13.5 464.8 13.35 453.45 6.55 436 6 L435 6.05 Q429.8 6.75 427 5 L426 5 Q386.9 6.1 352 3 L351 3 338 3 337 3.1 Q318.6 6.1 299 8 L298.9 8.5 Q292.75 9.75 289 8 L279.1 7.3 Q246.3 2.45 230 17 L229 17 222 17 221.8 17.6 Q199.9 28.4 173 34 L172.9 34.5 Q167.25 35.75 164 34 L163 34 160 34 159 34 142 34 141 33.95 Q129.9 33.1 123 28 L122 28 114 28 114 28.5 Q103 29 92 29 L91 29 88 29 87.95 29.5 80 30 Q61.5 32.5 49.6 41.8 15.8 68.3 0 113 L0 112 0 0 179 0 358 0 537 0 716 0 895 0 1074 0 1253 0 1432 0 1611 0 1790 0 Q1782.35 5.35 1771.9 7.35 1740.4 13.4 1711 21 M1964 282 L1963 282.05 Q1957.3 282.75 1954 281 L1953 281 1949 281 1948 281.05 Q1942.8 281.75 1940 280 L1939 280 1938 280 1937 280.05 Q1930.8 280.75 1927 279 L1926 279 1925 279.05 Q1917.75 279.75 1913 278 L1912 278 1906 278 1882.05 278.7 Q1868.5 279.45 1860 276 L1861 276 1861 275 1861 274 Q1862.7 273.7 1862.1 271 L1862 270 1862 269 Q1885.5 269 1909 269.5 L1909 270 1911 270 1912 270 1925.95 270.5 1926 271 1937.95 271.5 1938 272 1941 272 1942 272 1951.95 272.5 1952 273 1954 273 1955 273 1964.95 273.5 1965 274 1966 274 1967 274 1975.95 274.5 1976 275 1977 275 1978 275 1990.95 275.5 1991 276 1999 276 2000 276 2000 283 2000 284 1999 284 1990 284 1989 284.05 Q1981.75 284.75 1977 283 L1976 283.05 Q1970.8 283.75 1968 282 L1967 282 1964 282 M2000 44 L1999.1 44.2 Q1976.75 55.75 1947 60 L1946.9 60.5 1936 62 1935 62.1 Q1930.25 63.2 1930 60 1932.65 50.65 1946 50.35 1961.5 50 1974.05 45.1 1986.6 40.1 2000 36 L2000 43 2000 44 M1704 98 L1704 97 1711 97 1712 97 1712 96 1720 96 1721 96 1722 96 1722 95 1731 95 1732 95 1733.6 95.2 Q1734.1 99.15 1728 103 L1727.95 103.5 1713 105 Q1693.7 107.7 1677.5 114.2 1662.3 120.3 1643 123 L1642.95 123.5 1633 124 1632 124 1631.9 124.5 Q1624.25 125.75 1619 124 L1618 124 1617 124 1604 124 1603.1 124.2 Q1580.3 134.3 1554 141 L1553.95 141.5 1543 142 1542 142 1535 142 1534 142 1500 142 1499 142.05 Q1478.6 144.6 1463 152 L1462 152 Q1455.65 152.15 1451 154 L1450.95 154.5 1442 155 1441.05 155.2 Q1437.6 156.6 1432 156 1430.75 158.3 1428 158.3 1423.3 158.3 1421.15 159.7 1392.9 178.4 1351 183 L1351 183.5 Q1339 184 1327 184 L1326.05 184.15 Q1319.35 186.35 1311 187 L1310.95 187.5 1303 188 1302.05 188.15 Q1297.45 189.45 1291 189 L1290.9 189.5 Q1284.25 190.75 1280 189 L1279 189 1277 189 1276 189.05 Q1271.25 189.75 1269 188 L1268 188 Q1239.8 189.25 1210 189 1210 189.5 1209.8 189.6 1191.7 198.7 1168 202 L1167.85 202.55 Q1144.85 211.35 1119 217 L1118.8 217.6 Q1114.3 219.85 1112 224 1111.85 238.15 1125 238.95 L1126 239 1143 239 1144 239 Q1166.75 234.25 1190 230.1 L1191 230 1216 230 1217 230 Q1227.85 229.35 1232.75 222.8 L1233 222 Q1231.2 213.7 1235.25 217.75 L1236 218 Q1250.65 232.35 1280 232.95 L1289 233 1289 232 1298 232 1299 232 1299.55 231.85 Q1301.4 225 1298 218 1302.25 218.4 1305.4 224.8 1305.5 225 1306 225 1305.95 228.5 1306.85 231.05 L1307 232 Q1316.35 240.65 1326.2 248.75 L1327 249 Q1334.95 247.85 1333.6 250.8 L1333 251 Q1332.5 251 1332.4 251.2 1331.7 252.7 1330 253 1331.7 264.95 1343.25 258.4 1348.15 255.65 1355 255 1362.05 249.55 1370.1 245.2 L1371 245 Q1352.4 242.6 1346.2 227.9 L1346 227 Q1355 230.5 1360.75 237.4 1362.95 240.05 1368 240 L1376 240 1377 240 Q1384.55 235.5 1380.75 229.15 1379.45 227 1377.7 226.65 1369.85 225.15 1366 221 1376.05 217.5 1381.75 223.25 L1382 224 Q1386.35 225.65 1393 225.05 L1394 225 Q1400.1 218.6 1407.2 213.25 L1408 213 1408 212 Q1420.1 202.2 1409.7 213.75 1409.5 214 1409 214 L1408.75 214.85 Q1380.85 256.35 1324 269 L1323.8 269.65 Q1298.4 284.9 1269 296 L1268.75 296.75 1265 300 1265 305 1265 306 Q1270.65 316.35 1283.05 319.85 L1284 320 Q1285 320 1285.8 319.6 L1286 319 1285.75 318.35 Q1275.9 311.1 1271 299 1275.3 298.6 1280.45 295.85 1285.9 292.9 1290 289 1298.05 288.55 1305 287.1 L1306 287 Q1314.9 291.6 1319.8 300.1 L1320 301 Q1310.45 312.95 1296.9 320.8 L1296 321 Q1302.75 322.75 1312 322.05 L1313 322 Q1351.6 315.6 1375.95 295.15 1383.65 288.65 1394.6 284.8 1404 281.5 1415 279 L1415 278 Q1425.45 275.45 1438 275.5 L1438 276 1439 276 Q1446.15 277.2 1443.2 282.15 L1443 283 Q1468.75 289.25 1483.25 307 1487.6 312.4 1495.5 315.3 1496.05 315.5 1496 317 1477.65 314.35 1467.7 303.25 1467.5 303 1467 303 L1466 303 1466 304 Q1466 304.5 1466.25 304.7 1473.05 310.45 1475 316 L1474.15 315.75 Q1459.45 306 1449 292 L1448.05 291.9 Q1436.5 289 1426 285 L1425 285 1417 285 Q1404.2 288.7 1393.2 294.4 1361.4 310.9 1337 335 L1337.05 336 Q1337.75 344.75 1336 351 L1336.05 352 Q1336.75 356.75 1335 359 L1334.95 360 Q1334.6 366.6 1331 370 L1332.9 378 1333 379 Q1336 385.5 1334.5 395.95 L1334 396 1334.05 397 Q1334.7 402.15 1332 404 L1331 404 Q1330.65 415.35 1342 415 L1343 415 Q1356.1 414.6 1356.5 401 L1357 401 1357 400 1357 397 Q1358.7 395.7 1358.5 392 L1359 392 1359 391 1359 381 1360 381 1360 380 1360 379 Q1375.55 368.55 1377.95 345 L1378 344 Q1378.3 339.3 1385.05 340.9 L1386 341 Q1399.05 329.6 1407.7 314.3 1409.35 311.35 1414 312 1420.05 316.45 1420.95 326 L1421 327 1421 328 Q1420.95 334.45 1417 337 L1416.9 338 Q1416.5 340 1415 341 L1414.85 341.95 Q1413.6 345.05 1411 347 L1410.8 347.9 Q1410 349.5 1408 350 L1408 353 1408 354 1408 361 1408 362 Q1408.1 372.4 1410.85 380.05 L1411 381 Q1413.45 382.55 1413.05 387 L1413 388 1416.8 395.1 1417 396 Q1427 405.55 1437.75 397.65 L1438 397 1438 396 1438 393 1440.4 389.2 Q1440.5 389 1441 389 L1441 388 1441 377 1441 376 Q1444.25 368.85 1442.55 362.1 L1442 362 1441.5 361.9 Q1441 359 1441 356 1442.05 355.5 1443.05 355.15 L1444 355 1444 354 Q1452.25 349.25 1456.8 340.9 L1457 340 1457 339 1457 336 Q1458.45 331 1462.2 328.25 1462.5 328 1463 328 1468.25 325.25 1477 325.95 L1478 326 1491 326 1492 326 1500 326 1501 326 Q1520.95 319.45 1536.75 309.15 1538.55 308 1541 307.8 1544.55 307.55 1546 305 L1553 305 1554 305 Q1567 296.05 1577.3 284.25 1577.5 284 1578 284 L1578.2 283.4 Q1579.65 282.7 1578 281 L1578 280 1578 279 Q1591.45 274.45 1608 273.05 L1609 273 Q1614.1 267.1 1619.75 261.75 L1620 261 Q1632.2 256.7 1647 255.05 L1648 255 1648 254 1658 254 1659 254 Q1680.3 254.2 1697.05 258.85 L1698 259 Q1705.7 259.8 1712.9 261.45 L1713 262 Q1718.5 261.55 1719.5 265.15 1720 267 1719.6 267.1 1701 271.05 1687 263 L1686 262.95 Q1672.8 261.2 1658 261 L1657.9 261.5 Q1651.8 262.75 1648 261 L1647 261 Q1625.7 261.7 1619 277 L1618.75 277.75 Q1616.8 279.8 1613 280 1607.65 282.65 1601.8 283.6 1591.75 285.25 1586.55 290.55 1571.15 306.15 1548 314.05 1544.35 315.3 1540.9 317.45 1523.9 327.9 1502 334 L1501.95 334.5 1493 335 1492 335 1490 335 1489 335.05 Q1481.75 335.75 1477 334 L1475 334 Q1473 334 1472.5 334.85 1464.35 348.85 1453 359 L1453 361 1453 362 1453.5 362.1 Q1454.95 368.95 1452 372 L1451.8 372.9 1451 374 Q1451.95 377.6 1452 382 L1452 383 1452 384 1452.05 385 Q1452.45 392.9 1449 397 1448.5 397 1448.45 397.15 1445.75 406.25 1436 408 L1436 409 1435.9 409.5 Q1428.25 410.75 1423 409 L1422.05 408.85 Q1409.95 404.55 1405 393 1404.5 393 1404.4 392.8 1400.9 386.1 1400 377 L1399.5 377 Q1399.7 367.3 1398 360 L1397.5 359.95 Q1397 356 1397 352 1398.35 350.35 1399.4 348.2 L1400 348 1400 347 1400 346 Q1404.05 342.05 1406.8 336.9 L1407 336 1407.1 335 Q1407.65 332.35 1405 333 1404.5 333 1404.35 333.25 1398.45 341.95 1388 346 L1387.8 346.9 Q1385.85 350.35 1385 355 L1385.1 356 Q1385.7 358.7 1384 359 L1383.9 360 Q1382.3 367.3 1377 371 1376.5 371 1376.45 371.15 1373.85 378.85 1367 382 L1367 391 1367 392 1367.05 393 Q1367.75 397.75 1366 400 L1366 401 1366 402 Q1366.15 406.6 1363 408 L1362.85 408.95 Q1358.8 419.3 1346 421 L1345.9 421.55 Q1340.8 422.75 1338 421 1333.3 420.75 1330.5 418.65 L1329.3 417.7 Q1320.35 420.35 1311 424 L1310.9 424.5 Q1304.75 425.75 1301 424 L1300.05 423.9 Q1290.25 421.25 1287 412 L1286.5 411.95 Q1286 407 1286 402 L1287 402 1287 401 Q1286.9 394.1 1286 388 L1285.45 387.85 Q1281.9 378.6 1279 369 L1278.5 368.95 Q1278 360.5 1278 352 L1279 352 1279 351 1279 347 Q1281.15 347.65 1281.05 346 L1281 345 1281 344 1281 342 Q1282.7 340.7 1282.5 337 L1283 337 1283 336 1283 329 1282.05 328.85 Q1270.2 324.3 1261 317 L1260.2 316.75 Q1257.9 315.1 1257 312 1256.5 312 1256.4 311.8 1256 311 1256 310 L1255.45 309.8 Q1253.75 305.75 1253 301 1254.45 297.45 1256.35 294.2 L1257 294 1257 293 Q1285.2 281.25 1312.1 268.2 L1313 268 Q1316.8 261.8 1320.75 255.85 L1321 255 Q1314.9 243.1 1300.95 239.15 L1300 239 1299 239.05 Q1289.25 239.75 1282 238 1264.1 235.9 1247.85 232.7 1232.15 229.6 1215 235 L1214.95 235.5 1202 236 1201 236.05 Q1173.3 237.8 1150 244 L1149.95 244.5 1134 244 1133.05 243.85 Q1128.65 242.35 1122 243 L1121 243.05 Q1115.6 243.45 1113 241 L1112.05 240.85 Q1101.15 237.35 1101 223 1115.05 209.05 1139.7 204.3 1148.6 202.6 1157.9 199.75 1184.55 191.55 1212 184 L1212 183 1227 183 1228 183 Q1245.95 181.45 1266 182 L1267 182 1282.95 182.5 1283 183 1288 183 1289 183 1296 183 1297 183 Q1300.65 181.65 1306 181.95 L1307 182 Q1317.95 175.95 1335 176 L1336 176 1336 175 1353 175 1354 175 Q1381.55 172.05 1401.05 161.05 1418.3 151.3 1441.1 147.65 L1449 147 Q1471.75 138.25 1499 134.05 L1500 134 1500 133 Q1518 133 1536 133.5 L1536 134 1537 134 1544 134 1545 134 1545 133 1552 133 1553 133 Q1577.3 126.8 1598.1 117.2 L1599 117 1599 116 1615.95 115.5 1616 116 1634 116 1635 116 Q1667.05 110.05 1695.05 100.15 L1696 100 1696 99 Q1699.25 98.25 1703 98.05 L1704 98 M1635 147 L1650 147 1651 147 Q1663.3 152.2 1674.15 158.8 L1675 159 Q1677.75 160.8 1681.9 161.5 L1682 162 1683 161.95 Q1693.1 160.9 1694 164 L1693.85 164.55 Q1684.8 167.3 1676 165 L1675.15 164.8 Q1664.05 157.9 1650 154 L1649 154 1638 154 Q1618.85 159.4 1606.2 171.2 1593.55 183.05 1577 191 L1576.9 191.5 Q1569.75 192.75 1565 191 1562.9 191.65 1562.15 190.7 1558.75 186.6 1558.7 190 1558.45 205.45 1554 194 L1553.5 193.95 Q1553 189 1553 184 L1554 184 1554 183 1554 182 Q1560.9 178.95 1566.75 185.25 L1567 186 1575 186 1576 186 Q1601 162.5 1634.8 147.6 L1635 147 M1693.95 209.5 L1685 210 1684 210 Q1670.7 209.75 1660 212 L1659.95 212.5 1652 213 Q1631.9 214.9 1614.6 220.7 1606.85 223.3 1604 218 1640.6 208.6 1684 206.05 L1685 206 1685 205 1693.95 205.5 1694 206 Q1695.7 206.3 1694.6 208.8 1694.5 209 1694 209 L1693.95 209.5 M1698.95 222.5 L1699 223 Q1699.5 223.5 1699.95 223.45 1703.25 223.3 1703.05 224.9 1702.4 231.4 1693 230 L1692 230.05 Q1685.25 230.75 1681 229 L1680.1 228.8 Q1676.95 227.1 1672 227 L1671 227 1662 227 1661 227 1651 227 1650.05 227.15 Q1642.6 229.35 1639 225 1648.95 222.45 1660 221.05 L1661 221 1661 220 1668.95 220.5 1669 221 Q1675.95 222.55 1684 222.95 L1685 223 1685 222 1698.95 222.5 M1399 294 Q1412.15 296.9 1418.75 306.15 L1419 307 Q1406.2 303.8 1399.25 294.8 1399 294.5 1399 294 M1380.35 281.35 Q1368.9 284.4 1361.05 292 1360.05 292.95 1359.55 291.8 1359.05 290.5 1359 289 1387 269.5 1427 262.5 L1427 263 Q1418.7 267.7 1408.75 271.85 1396.1 277.1 1380.35 281.35 M1316 281 Q1324 279.15 1327.85 291.05 L1328 292 Q1319.35 289.65 1316.2 281.95 L1316 281 M1302 291 L1301.05 291.15 Q1288.75 295.25 1277 300 L1277.2 300.9 Q1282.2 312.3 1294 317 L1294.9 316.8 Q1306.45 311.45 1312 300 L1311.75 299.15 Q1308 294 1302 291 M1322 273 Q1333.9 275.55 1337.85 286.05 L1338 287 Q1327.55 282.9 1322.2 273.85 L1322 273 M1353 274 Q1362.35 277.4 1353.3 275.55 1353.05 275.5 1353 274 M1355 283 Q1349.95 291.95 1341.05 297.65 1335.9 300.95 1336 293 1341.5 289 1347.8 285.6 1348 285.5 1348 285 1341.8 280.7 1339.15 272.95 L1339 272 Q1342.5 268.9 1344.85 276.05 L1345 277 Q1350.2 279.35 1354.75 282.35 L1355 283 M1362 339 L1362 338 1362 337 Q1374.85 326.85 1385.3 314.25 1385.5 314 1386 314 1380.85 331.35 1366.2 339.4 1366 339.5 1366 340 L1366.05 341 Q1366.75 346.75 1365 350 L1364.85 350.95 Q1363.15 356.65 1361 362 L1360.2 362.25 Q1353.9 367.9 1347 373 L1347.2 373.95 Q1349.9 380.6 1350 390 1350.15 391.65 1349.5 390.25 1345.1 381.45 1342 372 L1356.2 360.25 1357 360 Q1359.55 355.55 1360.9 349.95 L1361 349 1361 348 1361 339 1362 339 M1327.5 344.95 Q1327 339 1327 333 L1328 333 Q1328.3 330.8 1330.65 330 L1332 329.5 1294 331 1293.9 331.95 Q1291.7 340.75 1289 349 L1289 350 1289.05 351 Q1289.7 355.2 1288 357 L1288 358 1288 366 1288 367 Q1293.3 379.2 1295.9 394 L1296 395 Q1296.4 400.9 1296 411 L1296 412 Q1304.35 420.8 1316.1 414.2 L1317 414 Q1321.55 408.05 1323.85 399.95 L1324 399 1324 398 1324 377 1323.75 376.2 Q1321.6 373.45 1322 368 1327.15 359.15 1327.95 346 L1328 345 1327.5 344.95 M1319 352 Q1320.6 357.65 1315.25 366.15 1315 366.5 1315 367 1318.45 372.55 1318.5 381 L1318 381 Q1311.8 375.7 1310.1 366 L1310 365 Q1313.7 358.2 1318.3 352.25 1318.5 352 1319 352 M1440 316 L1441 316.05 Q1452.3 316.7 1456 325 1450.55 324.95 1447.4 322.9 1443.9 320.6 1440 320.75 1430 321 1427 316 L1427 315 1439.95 315.5 1440 316 M1413 369 Q1416 368 1418.8 366.6 L1419 366 Q1429.25 364.75 1434.2 368.75 L1435 369 Q1432.8 373.75 1423.8 372.65 L1414.15 371.15 Q1413.05 370.95 1413 369 M1428.95 356.65 Q1420.2 356.3 1416 353 1425.1 346.1 1433.8 351.35 1434 351.5 1434 352 1438.15 357.05 1428.95 356.65 M1587 232 L1586.85 232.95 Q1573.15 273.15 1531 285 L1530 285 Q1500.5 286.5 1481 278 1488.65 277.35 1494.05 278.85 L1495 279 1502.95 279.5 1503 280 1516 280.25 Q1530.4 280.4 1539.75 275.5 1569.5 260 1587 232 M1595 230 Q1601.35 234.65 1606.3 240.75 1606.5 241 1607 241 L1607.5 261 1607 261 Q1601.35 256.65 1602.95 245 L1603 244 Q1596.7 239.8 1595.1 231 L1595 230 M1551 289 Q1548.5 293 1542.1 293.8 1518 296.9 1493.85 291.65 1484.45 289.55 1479 284 1496.1 286.4 1512 289.9 L1513 290 1520.95 290.5 1521 291 1530 291 Q1534.55 291 1538.3 289.35 1545.9 286 1551 289 M1538 214 Q1531.05 236.55 1505 240.05 1502.1 240.45 1503 237 1525.75 231.25 1537.35 214.25 1537.5 214 1538 214 M1311.35 537 Q1311.6 550.95 1320 556 1328.75 554.75 1328.95 544 L1329 541 Q1335.05 544 1339.75 553.65 1343.7 561.85 1348 570 L1348 582 1348 583 Q1349.75 586.75 1349.05 593 L1349 594 1349.05 595 Q1351.1 612.9 1354 630 L1353.1 630.2 Q1334.05 640.55 1305 641 L1304.85 640.45 Q1296.45 637.05 1294 628 1295.65 628.15 1295.1 625.95 L1295 625 1295 624 1295 612 1294.75 611.2 Q1286.8 602.2 1296 593 L1295.95 592 Q1294.1 568.9 1286 552 1293.6 540.6 1302.45 530.25 1303.95 528.5 1307 528 1311.2 528.45 1311.35 537 M1343 739 L1343 738 1353 738 1354 738 1377 736.05 1378 736 Q1382.95 742 1388.75 747.25 L1389 748 Q1390.75 750.25 1390.05 755 L1390 756 1390 759 1390 760 Q1391.75 763.25 1391.05 769 L1391 770 1391.2 770.95 Q1404.45 802.55 1418 834 L1417.45 834.15 Q1414.2 842.7 1407 847 L1406.1 846.8 Q1386.25 836.75 1364 829 L1363.5 828.95 Q1359.85 794.15 1342 774 L1341.1 773.8 Q1333.85 769.65 1326 766 L1325.75 765.15 Q1323.25 761.2 1324 754 1331.2 744.7 1342.1 739.2 L1343 739 M1890.6 907.65 Q1946.3 891.8 1985.9 859.1 1989 856.5 1992.9 854.8 1996.35 853.3 2000 852 L2000 853 2000 1000 1969 1000 1790 1000 1611 1000 1432 1000 1253 1000 1074 1000 895 1000 716 1000 537 1000 358 1000 179 1000 0 1000 0 999 0 847 Q10.65 869.85 23.05 891.4 32.75 908.25 44.9 922.9 60.15 941.35 80.1 955.3 87.45 960.4 95 958 98.9 955.9 97.65 946.8 94.7 925.3 94 903 L93.5 902.95 Q93 898 93 893 L93 892 Q93.15 851.15 99 821 98.5 821 98.3 821.25 89.85 831.35 85 845 L84.5 845.05 Q84.2 848.65 80 848 L79.9 848.95 Q76.85 861.2 70 869 L69.8 868.1 Q67.85 864.65 68 859 L75.05 839.35 Q75.9 836.9 78.5 835.5 L78 835 Q81.45 825.45 89.5 816 L89 816 88.1 815.8 87 815 Q83.55 819.1 79.4 822.45 75 826 71.5 830.25 62.9 840.6 56 834 59.65 827.25 59.95 822 L60 821 Q71.9 804.95 91.9 801.5 L92 801 Q79.8 797.85 65.2 801.8 57.05 804 59 800 58.75 792.15 70 791.05 L71 791 71 790 80.95 790.5 81 791 Q88.55 790.95 94.05 792.85 L95 793 96 793 97 792 92.35 787.7 Q89.95 785.05 84 781 L92 781 93 781 Q97.45 784.05 101.75 787.3 L102 788 Q105.15 794.35 107.45 801.85 L108 802 Q109.5 793.5 111.45 785.1 L112 785 Q114.3 787.15 118.15 781.85 121.3 777.6 123 781 120.35 786.05 116.5 790 L118 790 Q112.4 792.3 115.05 794.05 L114.05 795.05 Q112.35 796.7 114 797 123.05 792.55 135 791.05 L136 791 137.1 791.8 138 792 138 791 Q144.85 792.6 144.6 794.85 144.35 797.1 154 800 153.4 805 156.75 808.25 L157 809 Q151.2 809.55 144.95 808.1 L144 808 143.9 808.55 Q141.3 809.2 141 807 L141 806.5 Q138.9 809.75 128 806 137.45 814.35 148.25 824.75 L149 825 Q152.55 832.95 154.9 841.05 147.15 842.35 143.5 852 L144 852 156.95 852.5 157 853 158 853.1 Q171.7 855.25 171 867 L170.05 866.85 Q160.45 863.8 155 866 155 866.5 155.25 866.75 161.4 872.6 166 880 L166.15 880.95 Q169.1 889.55 167 894 L166.3 893.75 Q154.15 880.35 141 868 L141.2 868.9 Q147.25 882.55 141 896 L140.8 895.1 Q137.4 888.6 139 880 L138.8 879.1 Q137.1 875.4 134 866 L133.4 866.2 Q120.15 895.65 116 934 114.55 949 118.3 957.3 L120 957 120 956 Q124.95 951.8 120.55 962.85 L120 963 Q123.45 963.8 131.75 957.65 L132 957 Q144.5 954.5 153.15 948.25 153.5 948 154 948 191.6 965.4 243 968.95 L244 969 Q266.5 969 289 969.5 L289 970 Q301.9 973.15 317 973.95 L318 974 338 974 339 974 Q369.45 966.45 394.8 953.6 L395 953 Q406.2 953.3 413.8 957.4 L414 958 425 958 426 958 426 957 461 957 462 957 Q502.6 954.95 536.15 964.5 L540 965 560 965 561 965 Q577.8 963.8 588.75 956.65 L589 956 644.05 959.4 Q650.65 959.65 655.75 956.55 669.65 948.15 685 941 686.65 948.35 688.85 955.05 L689 956 703 956 704 956 Q716.3 952.8 730 951.05 L731 951 731 950 Q742 950 753 950.5 L753 951 754 951 765.95 951.5 766 952 821 958.95 822 959 837 959 838 959 Q845 959.5 850.05 958.15 L851 958 851 957 861.95 957.5 862 958 Q886.35 967.15 913 974.05 940 981 975 980 986.5 980 998 980.5 L998 981 Q1022.45 988.55 1049 993.9 L1050 994 1069 994 1070 994 1104 991.05 1105 991 1117.95 991.5 1118 992 1158 993.95 1159 994 1170 994 1171 994 Q1210.4 990.9 1239.05 977.1 1241.45 975.95 1245 976 L1245 975 1256 975 1257 975 Q1300.65 973.65 1332.6 961.6 1352.2 954.2 1372.85 948.4 1406.05 939 1433 923 1465.5 924 1490.35 931.85 1504.6 936.35 1517.55 942 1545 954 1576.1 962.65 1586.9 965.65 1600 966 1621.65 976.85 1652 978.95 L1653 979 1666.95 979.5 1667 980 1733 982.05 Q1746.45 981.95 1754 977 1758.95 978.3 1762.05 977.15 L1763 977 Q1792.15 961.15 1824.75 948.3 1852.45 937.45 1871.95 917.95 1878.95 910.95 1890.6 907.65 M978.35 238.85 Q980.2 240.3 983 241 983.65 244.85 986.2 246.75 L987 247 987 254 987 255 Q1000 271.5 1011.5 289.35 1012.65 291.15 1011 291 1009.95 296.5 1004 296.95 L1003 297 1002.9 297.5 Q996.75 298.75 993 297 L992 297 983 297 982.85 296.45 Q961.35 289.65 947 276 L946.8 275.1 Q945.55 272.95 945 270 L944.2 269.75 Q937.5 264 928 261 L927.75 261.75 927 262 927 266 927 267 Q928.75 269.75 928.05 275 L928 276 Q935.05 286.45 940.4 298.8 L941 299 Q940.7 306.8 943.75 311.15 L944 312 Q945.75 316.2 946 322 L946 323 946.1 323.95 Q948.55 333.45 950 344 949.5 344 949.35 344.2 945.35 350.85 938 354 L937 354 924 354 923.8 353.4 Q919.8 351.7 915 351 L915 352 915.1 353 Q916 358 912 358 L911 358 899 358 898.85 357.45 Q888.3 354.25 881 348 L880.8 347.1 Q877.45 341.05 876 333 L875.5 333 Q875.65 326.9 874 323 875.7 322.7 875.1 320 L875 319 874.75 318.3 Q867.65 312.9 860 308 L859.8 307.05 Q857.8 302.2 854 299 L853.95 298 Q853.4 288.6 849 283 L848.1 282.8 Q830.6 275.4 820 261 821.5 272.45 827.75 279.25 L828 280 Q826.35 288.25 827.9 295 L828 296 Q837.2 306.8 842.45 321.85 L843 322 Q846 327 844.5 335.9 L844 336 Q843.5 336 843.4 336.2 838.05 348.05 825 352 L824 352 811 352 810.85 351.45 Q803.65 348.85 797 346 796.5 346 796.35 346.2 790.35 356.35 779 361 L778.9 361.55 Q773.8 362.75 771 361 L770.05 360.8 Q762.05 357.45 759 349 L758.5 348.95 Q758 343 758 337 L759 337 Q758.5 333.05 760.35 331.4 762.25 329.8 761.35 327.75 757.5 319.5 750 313.7 717.75 288.8 670 279 L669 279.05 Q664.25 279.75 662 278 L661 278 Q653.75 277.75 648 276 L647 276 644 276 643 276.05 Q636.75 276.75 633 275 L632 275 631 275 630 275.05 Q623.6 275.4 620 273 L619.85 272.45 Q614.55 270.95 608 271 L607.85 270.45 Q567 257 543 227 L542.1 227.2 Q532.85 231.85 523 236 L522.95 236.5 511 238 Q496.7 241.7 486.05 249.45 451.2 274.7 421 305 L421 306 420.75 306.8 Q419.1 309.1 416 310 410.25 314.75 404.9 319.85 396.4 327.95 398 314 401.35 309.85 407.05 308.15 L408 308 Q423 293 437.3 277.25 437.5 277 438 277 L438 276 446.2 269.25 Q446.5 269 447 269 L447 268 Q471.4 243.9 507.4 232.2 511 231 515 231 524.95 224.45 536.8 219.55 L537 219 537 218 Q538.7 216.2 538.5 212 L539 212 Q549.55 212.45 552.05 221.7 553.9 228.6 558.8 233.2 579.45 252.5 609 263 616.95 262.45 611.2 259.6 611 259.5 611 259 L610.45 258.85 Q609.4 256.05 608 254 610.75 253.8 611.75 255.2 L612 256 Q615.3 259.2 619.8 261.4 L620 262 Q625.45 266.05 633.05 267.9 L634 268 Q643.75 267.15 638 260 L639.05 261 645 266 Q649.15 269.85 657 270 L658 270 665.95 270.5 666 271 Q713.15 276.85 742.2 300.75 L743 301 Q748.25 299.75 751.3 296.25 751.5 296 752 296 753.05 288.55 759.05 286.15 L760 286 Q760.55 294.05 756.25 297.3 756 297.5 756 298 755.3 300.7 757 300.95 L758 301 758.65 300.75 Q762.75 294.9 766 298 L765.85 298.95 Q763.4 305.9 757 309 763.3 315.2 770.75 320.35 L771 321 Q781.85 322.65 788.25 328.75 L789 329 Q790 329 790.8 328.6 L791 328 Q791 327.5 790.8 327.35 787.6 325.45 787 321 L787 320 787 319 Q788.5 318 789.4 316.2 789.5 316 790 316 L790 315 790 314 Q795.35 308.35 803.05 305.2 L804 305 Q808.25 308.75 815 309.9 L816 310 Q824.4 315.15 826.9 326.05 L827 327 Q828.75 330.25 827.5 335.9 L827 336 826.75 336.75 822 341 Q828.45 345.35 832.8 337.85 L833 337 Q833 336.5 833.15 336.05 834.9 330.2 833 324 L832.8 323.1 Q816 283.05 769 273 L768 272.95 Q762.25 272.25 759 269 L758.8 268.4 Q752.1 264.9 748 259 L747.1 258.8 Q744.35 257.65 743 255 L742.25 254.75 Q728.85 242.65 718 228 L717.2 227.75 Q714.9 226.1 714 223 L713.8 222.1 Q712 219 709 217 L708.5 216.9 Q708 214 708 211 L712 210.5 712 211 719.25 217.75 720 218 Q733.8 215.3 744.15 209.2 L745 209 Q742 217.05 733.95 219.85 L733 220 Q732.9 221.65 735.05 221.1 L736 221 Q757 213 771 198.5 L771 199 771.75 199.25 Q775.95 203.15 770 206 775.15 213.35 787 213.95 L788 214 798 214 799 214 Q812.45 212.45 824.05 209.15 L825 209 Q828.85 203.35 833.9 204.5 L834 205 Q834.5 216.45 845.75 218.45 853.65 219.85 862 222.05 869.85 224.15 880 224 L895.95 224.5 896 225 Q905 220.3 907.05 225.05 L906.05 226.05 Q905.05 227.05 905 229 911.95 239.55 920.75 248.25 L921 249 Q936 254 948.15 261.75 L949 262 Q951.1 263.9 952.4 266.8 L953 267 Q954.95 269.05 955.85 272.05 L956 273 Q964.75 281.25 975.8 287.4 976 287.5 976 288 982.95 288.55 987.8 291.35 988 291.5 988 292 997.7 293.2 1002.75 289.65 L1003 289 Q1001 275.5 989.85 271.45 986.1 270.1 987 274 L987.6 274.2 Q992.25 283.05 986 278 L985.45 277.9 Q982.6 266.5 981 254 972.65 244.35 962.85 236.4 952.55 227.95 946.05 216.4 932.8 192.75 901 188 L900 188 898 188 898 189 898.95 189.2 Q908.05 192.95 915 199 904.95 199.1 894.6 195.05 884.75 191.25 878 185 L887 185 888 185 890.85 184.55 891 184 890.85 183.45 Q868.6 174.4 844 168 843.5 168 843.25 168.25 838.45 172.7 834 169 L833.8 168.4 Q828.55 165.45 824 162 L823.2 161.75 Q821.55 160.45 819 160 L819 162 819 163 819.2 163.6 Q823.9 166.1 826 171 L825.1 170.8 Q810.5 164.5 804 150 808.15 149.85 809.45 152.8 809.5 153 810 153 812.15 153.65 812.05 152 L812 151 811.75 150.2 Q798.75 133.25 770 132 L769 132.05 Q762.75 132.75 759 131 L758 131 755 131 754 131 Q731.75 131.75 712 130 L711 130 709 130 708 130.05 Q701.25 130.75 697 129 677.6 127.9 661.3 123.05 627.9 113.1 589 108 L588 108.05 Q582.8 108.75 580 107 L579 107 575 107 574 107.05 Q568.25 107.75 565 106 L564 106 561 106 560 106.05 Q553.75 106.75 550 105 L549 105 548 105.05 Q540.25 105.75 535 104 L534 104 531 104 530 104 521 104 520 104.05 Q513.25 104.75 509 103 L508 103 503 103 502.95 103.5 491 104 Q460.25 109.75 434.6 121.3 409.9 132.4 382.75 141.25 L375.7 143.05 Q334.85 148.85 301.8 160.4 300 161 298.65 161.95 287.15 170.05 282 159 322.35 143.35 371.75 135.55 387.95 132.95 401.15 126.25 439.95 106.45 488 96 L488 95 496 95 497 95 515 95 516 95 525 95 526 95 535.95 95.5 536 96 537 96 550.95 96.5 551 97 552 97 562.95 97.5 563 98 570 98 571 98 579.95 98.5 580 99 Q589.35 98.65 596.05 100.85 L597 101 604.95 101.5 605 102 Q644.05 109.95 681.9 119.45 L682 120 Q694.05 119.95 704 121.9 L705 122 Q732.5 122 760 122.5 L760 123 765 123 766 123 774.95 123.5 775 124 Q784.15 125.85 794 126.95 L795 127 Q819.25 147.75 850.7 160.25 859.65 163.85 868.2 166.4 890 173 909.6 180.35 915.85 182.7 920.85 185.25 946.55 198.45 963 221.25 969.2 229.85 976.65 237.35 L978.35 238.85 M1248.1 206 Q1248.05 207.5 1247.75 207.55 L1217 212 1216.95 212.5 1209 213 1208 213.05 Q1181.5 217 1160 226 L1159.9 226.5 Q1152.25 227.75 1147 226 L1146 226.05 Q1138.1 226.45 1135 222 L1136 222 1137 222 1137 221 Q1146.5 221 1155.95 221.5 L1156 222 Q1171.35 218.85 1183.65 213.45 1187 212 1190.9 211.4 1213.75 207.75 1238 205 L1238 204 1245.95 204.5 1246 205 Q1248.15 204.4 1248.1 206 M800 234.9 L801 235 801 234 Q809.4 232.1 810.5 237 L810 237 Q811.5 248 822 249.9 L823 250 Q831.9 269.6 853.05 276.85 L854 277 859.35 284.75 860 285 Q864.05 308.45 882.4 318.15 883.05 318.5 883 320 884.75 324.75 884.05 332 L884 333 884.1 333.95 Q888.35 352.15 907 351 907.05 349.5 906.35 348.4 894.4 329.1 887 305 L886.2 304.75 Q875.5 296.5 869 284 L868.85 283.05 Q867.3 277.2 867 270 L866.5 269.95 Q866 264.5 866 259 L865.05 258.85 Q840.7 249.3 834 222 827.55 216.8 816.9 219.6 788.9 226.85 765 217 L764.75 217.65 Q751.15 227.15 732 231 736 242.85 748.1 236.2 L749 236 749 235 756.95 235.5 757 236 Q767.55 245.45 777.5 255.5 L778.8 256.4 Q784.35 259 779 262 782.05 270.9 791.65 274 805.5 278.5 816.4 286.45 L817 286 Q820.95 278.95 816.65 271.1 813.55 265.45 813.9 257 L814 252 Q804.6 243.35 791.95 238.2 L791 238 Q792.35 233.35 800 234.9 M895 234 L894 234.05 Q888.25 234.75 885 233 L884 233 883 233.05 Q877.25 233.75 874 232 L873 231.9 850 227 849.05 227.15 Q848.05 227.5 847 228 L847 232 847 233 Q850.45 244.05 861.05 247.85 L862 248 Q869 249 874.8 251.4 L875 252 Q879.2 251.25 879.55 253.25 880.4 258.45 874 263 L874 264 874 271 874 272 Q876.9 288.1 888.15 295.75 L889 296 Q900.25 294.15 898.55 299.85 L898 300 897 300 Q898.1 311.4 900.85 321.05 L901 322 Q907.65 332.85 916.1 341.9 919.25 345.25 925 346 L934 346 935 346 Q942.05 346.05 940.5 338.1 L940 338 939.45 337.85 Q936.85 331.15 936 323 L935.5 322.95 Q935 319 935 315 L935 314 935 305 934.45 304.85 Q930.15 293.35 923 285 L922.2 284.75 Q917.4 280.6 918 271 L918 270 917.5 269.95 Q917 266 917 262 L916.5 261.9 Q916 259.5 916 257 L916.8 255.9 917 255 916.8 254.1 Q915.05 250.95 911 250 L910.1 249.8 Q905.75 247.75 904 243 903.5 243 903.35 242.75 900 237.5 895 234 M784.05 335.95 L782 334.05 Q773.3 324.85 767 334 L767 336 767 337 Q766.5 344 767.85 349.05 L768 350 Q768 350.5 768.25 350.8 775.35 359.95 785 351 L785.2 350.15 791 341 Q787.35 338.65 784.05 335.95 M802 312 Q801.5 312 801.3 312.25 797.55 317.05 793 321 793 321.5 793.25 321.8 801.55 332 816 336 L816.1 336.5 Q821.4 337.4 823 334 L823 333 Q823.55 320.95 817 316 L816.1 315.8 Q810.1 312.9 802 312 M763 251 Q762.5 251 762.4 250.8 758.6 241.9 745 243 751.7 258.8 768.4 263.65 772.35 264.8 770.55 260.65 769.7 258.75 768 257 L767.2 256.75 Q764.4 254.6 763 251 M927 470 L934.95 470.5 935 471 Q937.65 481.9 948.05 484.85 L949 485 965.95 485.5 966 486 Q970.5 488.5 975.1 490.8 L976 491 Q977.2 494.8 979.75 497.25 L980 498 986.1 500.8 987 501 Q1018.8 540.2 1064.8 565.4 L1065 566 Q1068.95 565.5 1071.1 566.8 L1072 567 Q1098.6 582.9 1100.95 623 L1101 624 Q1096.5 625.5 1091 625.95 L1090 626 1089.95 626.5 1082 627 1081 627.1 Q1072.95 628.95 1063 629 1062.5 627.05 1061.45 625.65 1046.9 606.1 1023.35 595.25 998.95 584.05 972 575 L971.9 574 Q968.35 551.65 948 546 L947.85 545.05 Q942.5 531.5 933 522 L932 522.05 Q915.2 523.2 901 527 L900.75 526.35 Q867.1 502.45 834 478 L833.5 477.95 Q833 474 833 470 L834 470 834 469 834 466 Q838.05 456.55 845.2 450.25 L846 450 Q863.35 457.15 885.85 464.45 L886 465 Q897.45 464.5 906.05 466.85 L907 467 918.95 467.5 919 468 Q922.9 468.65 926.05 469.85 L927 470 M670 532 L669.45 532.15 Q663.3 554.8 637 557 637 556.5 636.8 556.4 613.5 544.5 584 539 L583 539.05 Q578.25 539.75 576 538 562 538 548.25 539.95 511.85 545.05 478 541 L477 541.05 Q472.25 541.75 470 540 L469 540 Q451.7 539.7 438 543 L437.75 543.75 Q433.85 547.35 431 552 L430.85 552.55 Q392.4 563.9 344 565 L343.95 565.5 328 565 320.2 560.35 Q308.2 553.3 302 541 340.9 524.4 381.35 509.95 406.5 501 438 499 456.6 489.6 482.05 488.5 492.45 488.05 501.9 490.35 536.2 498.8 573.15 504.1 L586 505 586 504 594 504 595 504 596 504 Q626.1 502.6 646 491 L646.95 491.15 Q671.65 498.35 670 532 M734 683 Q740.3 690.7 757.1 688.65 L768 688 775.95 688.5 776 689 Q783.1 690.4 791 690.95 L792 691 797.75 696.25 798 697 Q827 705 850.8 718.4 L851 719 Q880.5 726.5 910.15 733.35 L916 734 Q927.05 728.55 944 729 L945 729 Q952.45 732.55 957.75 738.25 L958 739 Q1012.75 743.75 1056.05 759.85 L1057 760 1072 760 1073 760 Q1100.7 754.95 1118 767.65 1128.25 775.2 1132 789 1133.75 794.75 1132.5 802.9 L1132 803 1131.9 803.95 Q1128.35 818.85 1115 824 L1109.55 823.85 Q1095.9 817.1 1081.6 812.1 1063.7 805.8 1049.6 796.1 1033.5 785 1009 782 L1008.95 782.5 Q990.25 783.75 974 782 L973 782 967 782 966.95 782.5 950 782 Q946.45 782 944.9 780.2 939.9 774.55 929 777 L928 777 912 777 911 777 Q899.8 777.3 893 782 L882.1 781.3 Q866.45 780.55 852.9 776.3 834.1 770.4 816.25 763.4 784.1 750.9 746 744 L745.35 743.75 Q738.4 734.1 726 730 L725.75 729.25 Q719.75 723.25 717 714 L716.5 713.95 Q716 709 716 704 L717 704 717 703 717 701 Q721.9 688.9 733.1 683.2 L734 683 M521 173 Q523.05 174.45 525.85 175.45 L526 176 Q537.7 187.8 544.9 203.5 546.1 206.1 542.15 206.45 L534 206 533.1 205.8 Q529.25 203.75 528 199 527.5 199 527.35 198.75 524.1 193.9 520 190 L519.2 189.75 Q517.8 188.7 518 186 520.65 187.35 523.85 188.45 L524 189 Q526.15 189.65 526.5 188.1 L527 188 526.9 187 Q525.8 182.2 523 179 522.5 179 522.4 178.8 521.7 177.3 520 177 519.5 177 519.35 176.75 517.45 174.1 515 172 517.65 170.3 520.75 172.35 L521 173 M479 210 Q482.05 206.55 489 206.95 L490 207 490 206 Q502.25 205.5 491.95 208.85 L491 209 490.1 209.2 Q482.7 213.15 472 214 472 214.5 471.8 214.6 469 216 466 217 L465.05 217.15 Q458.9 219.4 452 221 L451.75 221.8 Q449.05 225.05 443 225 418.5 238.5 397.65 255.8 388.05 263.8 387 253 422.3 226.3 468.85 210.55 L469 210 478 210 479 210 M152 202 L152 201 169 199.05 170 199 Q170.5 199 170.75 199.25 179.7 208.2 165 208 L164.9 208.5 Q155.05 210.55 144 211 L143.95 211.5 122 214 121 214 120.95 214.5 112 215 111.9 215.5 99 217 98.95 217.5 91 218 90 218 84 218 84 219 83.85 219.55 Q79.35 220.85 74 221 L73.05 221.15 Q68.2 222.7 62 223 L61.85 223.55 Q58.05 225.05 53 225 L52.9 225.5 46 227 45.85 227.55 Q42.05 229.05 37 229 L36.9 229.5 32 230 31.85 230.55 Q26.95 231.95 21 232 L20.95 232.5 12 233 11.9 233.5 Q6.3 234.8 0 235 L0 234 0 233 0 226 5 226 6 226 6 225 19 224.05 20 224 26.95 223.5 27 223 27 222 40 220.05 41 220 41 219 47 218.05 48 218 48 217 56 216.05 57 216 57 215 65 214.05 66 214 66 213 78 212.05 79 212 79 211 89 210 90 210 90 209 98 209 99 209 100 209 100 208 Q109.05 206.55 119 206 L120 206 121 206 121 205 129 205 130 205 130 204 142 203 143 203 143 202 151 202 152 202 M228 404 Q220.9 424.4 201.65 433.4 196 436 190.15 439.25 L156 458 Q131.65 467.15 104.95 473.9 L104 474 103.85 474.55 Q100.4 475.95 96 476 95.5 476 95.25 476.25 93.7 477.7 90 477 L89.85 477.55 Q85.35 478.85 80 479 L79.95 479.5 73 480 72.95 480.5 62 482 61.95 482.5 55 483 54.95 483.5 47 484 46 484 45.9 484.5 33 486 32.95 486.5 25 487 24 487 23 487 22.95 487.5 14 488 13 488 12.95 488.5 0 490 0 489 0 488 0 481 0 480 6 480 7 480 7 479 16 479 17 479 18 479 19 479 19 478 26 478 27 478 28 478 28 477 41 476.05 42 476 42 475 49 475 50 475 Q52.05 473.5 56 473.95 L57 474 57 473 68 472.05 69 472 69 471 76 471 77 471 77 470 85 469.05 86 469 Q160.1 453.6 210.85 414.8 218.75 408.75 228 404 M111 825 Q110.5 825 110.35 824.8 L105 816 104.9 816.95 Q99.25 838.25 97 863 L97 863.5 Q105.3 858.8 118 853 115.85 844.65 115.1 835.9 114.25 826.05 113 831 L112.85 831.95 Q111.6 835.9 111 825 M125 838 L124.5 838 Q133.4 837.65 136 849 136.5 849 136.7 848.75 141.2 843.7 148 841 L147.75 840.35 Q141.25 835.9 138 830 134.85 832.7 133.6 831 126.15 820.85 113 816 L113.2 816.9 Q122 832.65 122 853 L122.95 853.15 Q130.7 856.2 131 853 L131 852 Q130.75 847.45 125 838 M98.05 882 Q98.75 888.25 97 892 97.35 930.6 107.6 960.45 L107 958 Q107.05 955.85 111 957.55 L111 956 Q113.8 906.3 128.85 868.95 L129 868 Q114.4 880.4 103.25 896.15 103 896.5 103 897 100.25 887.1 107.8 877.85 114.1 870.1 121 863 110.4 867.4 100.3 872.55 96.85 874.35 98 881 L98.05 882 M126 911 Q135.05 907.3 131 900.55 L132 901 Q135.55 903.95 138.35 907.75 138.5 908 139 908 138.85 912.45 140.9 923 L141 924 Q135.5 911.65 126 911.5 L126 911"/>
  </g>
</svg>