<svg xmlns="http://www.w3.org/2000/svg" xmlns:xlink="http://www.w3.org/1999/xlink" width="2000" height="1000">
  <defs/>
  <g>
    <path stroke="none" fill="#000001" d="M674 16 L636 16 Q536.5 16 437 13 369.95 10.95 322 25 L321.05 24.85 Q293.35 16.8 262 14 261.5 14 261.45 14.15 257.2 27 254 26 L254.3 19.4 Q251.6 35.55 250 41 L249.9 40 Q246.85 24.65 232 21 224.45 22.45 218.1 29.8 207.95 41.6 193 44 192.5 44 192.3 44.25 L173 66 172.4 65.8 Q166.5 55.5 165 41 L164.1 40.8 Q152.45 35.05 140 30 L139.05 30.15 111 39 110.75 39.7 Q104.5 45 102 54 103.45 61.55 110.8 67.9 122.6 78.05 125 93 125 93.5 125.25 93.8 133.75 103.75 146 110 L146.5 110.1 Q149.6 127.85 146 142 L145.15 141.75 Q129.65 131.85 104 132 103.5 132 103.35 131.75 80.9 100.1 36 91 L35.05 91.15 Q18.25 96.25 0 100 L0 99 0 0 199 0 398 0 597 0 796 0 995 0 1194 0 1393 0 1592 0 1791 0 1990 0 2000 0 2000 22 2000 23 1895 26.85 Q1798.7 30.15 1701 31.1 1601.5 32 1502 32 L1501.95 31.5 1491 31 1490 31 1393 31 1392.9 30.45 1389 30 1388 30 1343 30 1342.9 29.5 1338 29 1337 29 1292 29 1291.9 28.45 1288 28 1287 28 1241 28 1240.9 27.45 1237 27 1236 27 1190 27 1189.9 26.45 1186 26 1185 26 1139 26 1138.9 25.45 1135 25 1134 25 1089 25 1088.9 24.5 1084 24 1083 24 1038 24 1037.9 23.45 1034 23 1033 23 987 23 986.9 22.45 983 22 982 22 936 22 935.9 21.45 932 21 931 21 885 21 884.9 20.45 881 20 880 20 835 20 834.9 19.5 830 19 829 19 784 19 783.9 18.45 780 18 779 18 733 18 732.9 17.45 729 17 728 17 679 17 678.9 16.5 674 16 M1999 350 L2000 350 2000 365 2000 366 1954 366 Q1930.5 366 1907.45 369.25 1878.7 373.3 1881 350 L1999 350 M18.25 709.55 L19.15 709.55 19.15 708.55 Q23.4 704.8 25.05 698.5 L25.15 697.55 27.9 695.3 28.15 694.55 Q30.35 693.75 33.05 693.1 L33.15 692.55 34.15 692.4 46.2 691.45 48.8 691.5 49.25 691.5 49.7 691.55 50.15 691.55 50.25 691.55 52.65 691.75 54.15 692 54.25 692.55 55.25 692.55 60.15 693.05 60.25 693.55 Q65.65 689.6 72.1 692 L72.25 692.55 76.15 693 76.25 693.55 Q82.05 694.75 86.6 696.7 89.8 698.1 90.25 695.55 94.75 698.05 97.6 702.3 97.75 702.55 98.25 702.55 99.95 702.85 99.35 705.55 L99.25 706.55 Q101.65 709.65 104.75 712.05 L104.75 712.5 Q104.9 714.7 103.25 714.55 L103 715.3 102.25 715.55 102 716.35 Q99.75 719 97.25 716.55 L96.3 716.7 Q95.25 717.05 94.25 717.55 L94.1 718.1 Q91.05 719.25 90.25 717.55 89.8 716.55 89.2 716.05 L89.1 716.1 Q88.75 715.75 88.3 715.65 L88.3 715.6 Q87 715.25 85.2 716.5 83.7 717.55 79.25 716.55 L79.05 717.45 78.25 718.55 78.25 719.55 Q84.65 722.65 90.4 726.3 L91.15 726.55 91.25 726.55 Q91.6 730.75 93.05 733.65 L93.25 734.55 Q94.95 735.35 94.35 738.55 L94.25 739.55 96.15 739.55 96.25 739.55 97 739.55 151.95 734.5 152 734 Q221.75 763.75 303 781.9 L304 782 342.05 771.15 343 771 Q396.5 817.05 461.4 852.9 491.5 869.5 528.55 878.85 559.75 886.75 591 893 603.3 902.2 614.75 912.3 L615 913 Q710.1 908.55 805 907.2 839.8 906.7 866.95 914.75 945.45 938.05 1024.9 958.45 1044.2 963.45 1063 957 1073.35 959.15 1080.2 964.75 L1081 965 Q1157.65 942.1 1243.8 927.7 1328.15 913.6 1417.85 902.9 1502.75 892.75 1588.65 880.45 1605.5 878 1617.55 868.7 1650.9 842.9 1693.85 828.6 1718.65 820.35 1738.75 829.55 1772.8 845.15 1813 841 1837.1 811.6 1852.8 773.95 L1853 773 Q1865.05 765.05 1875.75 755.7 L1876 755 Q1951.4 744.4 1999.2 706.25 L2000 706 2000 801 2000 1000 1990 1000 1791 1000 1592 1000 1393 1000 1194 1000 995 1000 796 1000 597 1000 398 1000 199 1000 0 1000 0 934 0 735 Q5.05 736.9 8.65 736.15 L8.65 736.95 9.75 736.95 Q8.1 734.6 8.15 730.55 L8.15 729.55 15.4 721.8 Q15.65 721.55 16.15 721.55 L16.25 721.5 16.25 720.55 16.25 719.55 Q17.9 719.7 17.75 717.55 L18.15 717.55 18.15 716.55 18.15 715.55 18.95 714.45 19.15 713.55 19 713.55 18.7 713.45 Q18.25 711.55 18.25 709.55 M1629 350 Q1691.25 347.75 1745.65 355.45 1746 355.5 1746 358 1741.55 371.1 1718.75 369.2 1679.5 366 1640.05 367.55 1624.4 368.15 1629 350 M1469 156 Q1483.45 160.55 1504 159.05 L1505 159 Q1511.45 236.55 1516.95 315 L1517 316 Q1490.2 316.2 1470.95 323.85 L1470 324 Q1468.25 241.75 1469 157 L1469 156 M1483 417 Q1450.2 483.7 1411.6 543.7 1404.4 554.9 1393.5 560.05 L1392 559 Q1389.85 541.15 1367.65 541.55 L1366 537 Q1354.05 536.4 1348.25 527.85 1348 527.5 1348 527 1394.75 474.25 1441 421 1445.2 416.2 1449 411 1462.85 416.65 1483 416.5 L1483 417 M1077.75 695.85 Q1082.7 700.8 1096 700.5 L1096 700 1104.8 683.9 1105 683 Q1126.45 665.5 1147.05 657.15 L1148 657 Q1158.5 663.95 1166.2 657.25 1166.5 657 1167 657 1172.4 647.2 1170.05 632 L1170 631 Q1176.15 624.6 1180.8 616.85 L1181 616 Q1176.85 604.5 1187.95 588.65 1197.05 575.55 1198 559 1190.2 544.4 1207.15 532.25 1207.5 532 1208 532 L1238.9 539.45 1239 540 Q1244.1 569.85 1252.45 596.85 L1253 597 Q1275 592.3 1292.85 598.45 L1293 599 Q1296.8 613.45 1312.8 614.45 1313 614.5 1313 618 L1313 621 Q1317.85 630.15 1332.35 631.45 L1334 636 Q1341.25 639.25 1348 639.5 L1348 640 Q1363.1 673.4 1376.85 708.05 L1377 709 Q1346.7 733.7 1324.25 766.15 1324 766.5 1324 767 1230.65 764.35 1137.3 754.1 1093.8 749.3 1060.9 761.45 1014.2 778.65 968 798 879 787.45 789.85 778.5 698.15 769.3 615.75 749.8 592.7 744.3 569.8 736.6 509.7 716.3 453 693 456 684.5 457.9 675 L458 674 Q534.95 651.45 611.75 628.2 L695 603 Q775.05 627.2 872 616.9 877.7 616.3 878 621 883.65 630.7 879.2 641.1 L879 642 Q875.45 645.95 872.65 650.8 L872 651 Q868.5 663.5 869 680 L869 681 Q878.5 689.95 886 690.5 L886 690 Q892.8 678.65 914 679.85 921.8 680.3 923 674 924.5 652.95 939 650.1 L940 650 949.25 641.25 Q949.5 641 950 641 L992.05 657.85 993 658 1004.85 689.05 1005 690 Q1021 702.65 1031.35 717.75 L1032 718 Q1045.7 712.25 1061.05 717.85 L1062 718 Q1071.75 707.55 1069.85 695.8 1073.6 696.8 1078.05 696.6 L1077.75 695.85 M1095.2 683.75 L1094.9 684.65 1094.9 683.6 1095.2 683.75 M1577.05 605.15 L1578 605 Q1598.35 635.65 1633.1 650.4 1640.6 653.6 1647.05 652.25 1666.65 648.15 1676 634 L1658.35 631.9 Q1653.55 631.4 1660 630 1677.3 622.3 1661 621.55 L1662 621 Q1669.8 612.25 1667.3 609.75 1667 609.45 1663.6 607.8 L1662 608 Q1659.8 605.4 1674 599.55 L1673 599 Q1659.95 597.15 1670.95 588.4 1671.8 587.75 1670 590 1675.6 585.15 1676.5 572.05 L1677 572 Q1684.05 581.65 1686 592.5 L1686 592 Q1702.65 598.6 1685.05 599.5 L1685 600 Q1704.55 609.2 1689 607.5 L1689 608 Q1688.3 613.9 1696 620.25 L1694 622 Q1677.05 623.9 1694.85 629.45 L1695 630 Q1690.75 631.95 1678.95 634.9 L1678 635 Q1683.35 646.65 1692.75 654.3 L1693 655 Q1742.95 667.55 1785.2 684.05 L1787 684 Q1756.1 711.1 1698 715.95 L1697 716 Q1661.6 755.6 1601.95 770.9 L1601 771 Q1593.65 752.85 1592.05 734 L1592 733 Q1605 711.5 1611.5 689 L1611 689 Q1595.9 687.1 1590.6 675.2 L1590 675 Q1564.7 659.8 1520 663.95 L1519 664 Q1503.9 648.6 1485.25 636.65 1485 636.5 1485 636 1498.05 624.95 1515.75 640.3 L1516 641 Q1533.85 639.85 1545.15 632.25 L1546 632 Q1556.25 613.25 1577.05 605.15 M318 233 L317 233.05 Q307.05 233.55 299 236 298.5 236 298.35 236.25 L278 266 Q278 266.5 277.8 266.55 265.45 271.75 261 254 280.85 241.85 293.35 222.25 293.5 222 294 222 314.95 216.5 331.95 217.5 L332 218 Q331.15 226.9 322.85 232.75 L322 233 321.9 232.45 318 232 318 233 M415.2 407.3 Q426.1 418.25 450.05 417.2 L464 418 Q466.2 445.3 472.1 470.4 L472 472 Q499.95 470.45 521.2 453.25 L522 453 Q546.55 464.45 566.75 480.3 L567 481 Q506.4 519.9 441.5 554.95 378.65 588.85 314.7 624.5 313.3 625.3 313 627 226.1 632.8 145 624.75 132.45 623.55 125 617 124.3 591.7 127.5 569.05 L128 569 Q140.4 563.45 132.55 543 123.1 518.4 113 496 128.45 491.85 148.05 496.9 L149 497 Q161.4 509.1 174.25 520.75 L175 521 Q185.5 521.5 193.1 524.8 L194 525 Q200.1 510.45 207.75 500.8 L208 500 234 500.95 235 501 Q247.2 494.2 257.2 485.25 L258 485 Q264.3 461.3 276.35 443.25 276.5 443 277 443 294.1 436.1 306.8 442.4 307 442.5 307 443 335.05 431.55 360.75 407.75 L361 407 Q386.5 412.4 406.25 405.75 L405.5 407.55 Q410.4 407.7 415.2 407.3 M106.4 297.8 L107.15 297.8 Q111.2 307.4 124.95 308.1 139.7 308.8 152 313 168 308.85 186 306.1 L187 306 Q203.3 295.35 214.35 279.25 214.5 279 215 279 224.45 284.55 232.75 296.15 L233 297 Q218.7 305.2 203.2 312.4 203 312.5 203 313 203.1 329.6 190.25 338.35 190 338.5 190 339 195 348.05 188.75 353.75 L188 354 Q177.2 353.8 169.9 350.2 L169 350 Q151.1 351.9 147.15 363.05 147 363.5 147 364 140.4 374.85 125.2 367.6 125 367.5 125 367 120.1 351.9 103.9 343.2 L103 343 Q103.25 326.85 96.75 320.25 L96 320 Q89.45 329.2 81.95 327.15 L81 327 Q72.9 333.65 72.5 350 L72 350 Q60.65 348.35 53.25 337.85 L53 337 Q60.65 324.7 61.45 307.05 L63 307 Q67.35 312.9 74.75 305.75 L75 305 Q90.45 306.3 96.2 297.8 L97.4 297.8 97.4 298.4 Q101.9 298 106.4 298.2 L106.4 297.8 M57 431.95 L56 432 Q41.75 442.75 26.85 452.75 L26 453 Q12.4 449.1 0.9 443.2 L0 443 0 442 0 416 Q11.65 417.35 17.75 424.2 L18 425 Q23.9 425.9 30.2 430.75 L31 431 Q49.75 415.15 76.85 424.45 L77 425 Q68.85 430.4 57 431.95 M71 488 Q68.45 519.5 46.8 536.75 L46 537 Q44 554.5 44.95 570 L45 571 Q50.05 579.95 59.8 584.4 L60 585 Q70.4 605.6 67.05 640 L67 641 Q75.2 653.1 69.7 668.4 67.25 669 65.25 669.75 L65 670.5 64.25 671.2 Q54.1 665.6 49.55 654.15 49.5 654 49 654 24.95 643.35 0.95 651.85 L0 652 0 651 0 498 Q13.45 504.7 29 503.5 L30 506 Q53.75 500.7 70.2 488.25 70.5 488 71 488 M53.15 722.55 L53.05 722.55 52.75 722.6 Q52.45 725.25 50.25 725.55 L50 726.3 Q48.85 727.4 48 727.35 46.9 727.3 46.25 725.55 L46.15 725.55 46.15 724.55 45.75 724.55 Q45.95 728.75 44.25 730.55 L44.05 731.4 41.25 735.55 41.25 736.55 46.45 737.25 Q48.7 737.9 50.3 739.35 52.3 739.45 53.35 738.65 L52.85 737.95 Q52.15 737.05 52.05 735.55 51.95 734.3 50.15 732.55 L53 725.5 53.15 724.55 53.25 724.55 53.25 723.55 53.25 722.55 53.15 722.55 M90.15 737.55 L89.35 737.3 Q85.4 733.8 86.15 730.55 L86.15 730.1 Q83.1 730.5 81.25 732.55 L81.25 732.45 81.15 732.55 81 732 Q76.2 730.7 74.15 729.55 L74.05 729.05 Q69.1 728.1 68.15 723.55 L67.95 723.5 Q66.9 723.55 65.1 726.45 64.75 727.05 64.8 727.5 65.05 731.25 63.85 733.35 62.95 734.9 61.25 735.55 L65.95 736.95 66.65 736.95 66.85 737.2 67.3 737.3 67.65 737.4 Q70.05 738.1 70.9 740.25 72.7 741.15 75.05 741.85 L76 742 93.15 740 93.15 740.55 93.25 740.55 93.25 739.55 93.15 739.55 92.25 739.65 91.4 739.75 Q89.75 739.7 90.25 737.65 L90.15 737.55 M18.65 734.45 L17.25 734.55 17.25 735.55 19.65 735.75 21.15 736 21.25 736.55 21.85 736.95 23.5 736.95 Q28.7 739.15 30.9 737.25 30.25 734.9 30.6 731.6 L30.65 731.05 Q28.15 730.05 30.15 725.55 L30.15 725.2 Q28.15 728.1 25.25 730.55 L25.15 730.55 24.4 730.75 Q22.6 731.9 20.25 732.55 L20.25 733.55 20.1 734.1 18.65 734.45"/>
    <path stroke="none" fill="#010102" d="M1069.85 695.8 L1069.6 695.7 1069.6 694.45 Q1069.5 688.6 1068.05 682.7 L1067.5 682.6 Q1066.6 686.7 1061.55 687.1 L1061.5 687.6 Q1059.6 692.25 1054.7 690.2 L1054.5 689.6 Q1052.8 687.85 1054.95 685.15 L1055 684.6 Q1055.2 680.3 1056.5 676.6 L1052.45 676.1 Q1050.8 675.55 1049.75 674.35 1049.5 674.1 1049.5 673.6 1046.5 672.65 1043.2 676.35 L1042.5 676.6 Q1041.4 671.95 1045 667.25 1045.5 666.6 1045.95 666.3 L1050 663.1 1050.7 662.2 Q1051.45 660.65 1050.5 659.6 1044.1 659.7 1049.7 657.05 L1052.45 655.3 Q1054.15 653.65 1053.5 651.6 1056.6 648.35 1052.45 649.15 L1049.6 649.9 1048.5 650.1 1048.5 649.6 Q1050.65 647.35 1052.45 644.75 L1053.3 643.45 1053.5 642.6 Q1056.5 640.6 1058.8 638 1059.65 637 1057.5 637.6 1051.55 637.6 1055.35 636.15 L1055.5 635.6 Q1059.85 634.45 1062.25 631.4 L1062.5 630.6 Q1056.45 630.35 1060.7 626.85 L1061.5 626.6 Q1057.95 623.65 1063.35 621.25 L1068.95 618.5 1070.5 617.6 1070.9 615.85 Q1071.9 611.4 1073.9 607.8 L1074.5 607.6 Q1077.3 612.35 1079.35 617.65 L1079.5 618.6 Q1083.2 621.9 1088.1 624.4 1088.5 624.6 1088.1 625.4 L1087.5 625.6 Q1082.95 625.5 1087 629.15 1087.5 629.6 1087.2 630.5 L1086.5 631.6 Q1085.75 632.85 1089.55 634.45 1092.45 635.65 1094.5 637.6 1089.3 636.9 1087 638.6 L1087.5 638.6 Q1088.95 640.15 1091.35 641.05 L1091.5 641.6 Q1096.55 641.55 1099.25 643.9 L1099.5 644.6 Q1097.5 645.6 1096.5 646.6 L1096.85 647.1 Q1097.8 648.3 1099.5 648.6 1098.95 650.6 1095.6 651.15 1090.35 651.95 1093.5 652.6 1100.2 652.15 1098.1 656.85 1098 657.1 1098.6 657.3 L1100.5 657.6 Q1102.65 660.35 1097.55 660.6 1097.05 660.6 1096.5 661.6 1100.45 663.6 1102.95 667.3 L1104 668.9 Q1106.75 673.5 1103.5 674.6 1099.7 672.6 1096.1 675 L1095.5 674.6 1094.5 673.6 Q1089.5 672.2 1093.45 677.6 1094.55 679.1 1096.5 679.6 L1097 684.6 1096.5 684.6 1095.2 683.75 1094.9 683.6 Q1091.35 681.45 1087.4 679.8 L1086.5 679.6 Q1086.05 683.05 1088.35 688.65 L1088.5 689.6 Q1081.3 688.8 1078.15 683.85 1078 683.6 1077.5 683.6 1076 682.15 1076.25 687.6 1076.45 692.3 1077.75 695.85 L1078.05 696.6 Q1073.6 696.8 1069.85 695.8 M1087.8 694.65 L1087.65 694.7 1087.65 694.6 1087.8 694.65"/>
    <path stroke="none" fill="#010102" fill-opacity="0.996078431372549" d="M406.25 405.75 L406.3 405.6 Q408.2 399.75 405.85 393.1 L405.3 392.95 Q404.4 398.55 398.3 398.8 396.8 398.85 397.25 400.75 396.3 397.35 393.55 395.6 393.3 395.45 393.3 394.95 392.05 396.15 390.4 396.65 387.75 397.5 384.15 396.55 383.8 396.45 383.25 396.85 L381.3 397.95 Q380.15 393.3 384.4 391.15 L385.3 390.95 Q387.3 385.95 388.8 380.95 L388.3 380.95 Q384.55 384.2 379.25 385.8 L378.3 385.95 Q377.05 381.7 380.5 377.1 381.35 376 383.05 375.3 386.85 373.85 385.3 370.95 378.9 371.05 384.5 368.4 389.3 366.2 388.3 362.95 392.25 358.8 384.4 361.25 L383.3 361.45 383.3 360.95 Q386 358.15 388.1 354.8 L388.3 353.95 390.4 352.4 393.6 349.35 Q394.45 348.35 392.3 348.95 L390.4 348.9 Q387.1 348.65 390.15 347.5 L390.3 346.95 390.4 346.95 Q394.7 345.75 397.05 342.75 L397.3 341.95 Q391.25 341.7 395.5 338.2 L396.3 337.95 Q392.75 335 398.15 332.6 401.8 330.95 405.3 328.95 405.85 323.5 408.1 319.8 L408.3 318.95 Q413.3 328.95 420.05 337.15 L420.3 337.95 Q416.8 338.95 419.5 342.55 419.8 342.95 419.3 343.95 L422.4 346.45 424.8 348.65 427.55 351.6 Q428.45 352.6 426.3 351.95 L425.85 351.8 Q423.75 351.1 422.4 351.3 421.4 351.4 420.8 351.95 L421.3 351.95 422.4 353.1 428.1 358.7 432.05 362.25 432.3 362.95 429.3 362.35 422.4 361.1 422.3 361.05 421.3 360.95 422.4 361.6 Q427.35 364.55 431.3 368.45 L433.05 370.2 433.3 370.95 432.05 370.6 426.3 369.45 426.3 369.95 Q430.5 373.45 434.3 377.5 L437.4 381 439 382.95 440.1 384.35 Q441.7 386.45 439.3 387.95 L437.5 387.3 437.15 387.2 436.8 387.15 Q432.9 386.55 431.8 391.85 L431.3 391.95 Q427.15 387.7 422.4 388.85 L422.25 388.85 421.3 388.95 422.4 391.8 Q423.85 396.6 422.4 401.15 L422.3 401.45 422.3 400.95 Q421.95 397.3 417.4 396.95 L416.8 396.6 Q415.6 395.65 415.3 393.95 412.45 396.8 414.45 403.2 L415.15 406.45 415.25 407.3 415.2 407.3 Q410.4 407.7 405.5 407.55 L406.25 405.75"/>
    <path stroke="none" fill="#020203" d="M97.4 297.8 L97.4 295.65 97.4 294.65 Q93.6 295.8 93.4 291.65 L92.45 291.8 Q88.25 293 85.4 295.65 L84.9 295.55 Q84.05 290.35 80.4 292.65 80.55 294.3 78.35 294.15 L77.9 294.15 Q76.9 291.65 73.4 291.65 72.4 293.15 70.4 293.65 66.3 294.75 67.3 291.95 L67.4 291.65 Q65.95 290.6 65.4 287.65 69.1 286.85 71.15 284.45 L71.4 283.65 Q73.35 283.6 74.55 282.9 74.9 282.65 75.4 282.65 75.7 280.95 77.2 280.25 L77.4 279.65 Q81.1 278.35 84.5 276.85 L85.4 276.65 86.2 276.4 Q88.1 274.9 84.4 273.65 84.4 272.65 84.7 271.75 L84.9 271.15 Q82.35 269.25 81.4 265.65 87.2 262.05 84.55 254.6 84.4 254.15 84.4 253.65 87.15 249.85 90.4 247.15 L90.4 247.65 Q94.25 246.65 89.75 244.8 89.4 244.65 89.4 243.65 L89.4 242.65 Q93.75 241.6 90.9 239.1 L90 237.85 89.4 237.65 Q88.6 229.45 87.45 221.65 L87.4 220.65 Q91.55 224.5 96.15 227.95 L96.4 228.65 Q100.15 228.9 101.25 231.7 L101.4 232.65 Q98.25 235.45 101.4 234.75 L102.4 234.65 112.9 244.65 112.4 244.65 Q109.05 247.6 115 250.45 115.4 250.65 115 251.45 L114.4 251.65 Q108.9 252.5 114.4 254.65 117.65 255.9 118.4 259.65 117 263.25 113.6 265.05 L113.4 265.65 Q115.45 268.1 119.15 269.4 123.2 270.8 122.4 272.65 118.6 274.35 123.15 277.1 126.55 279.15 125.4 281.65 130.45 286.1 136.5 289.45 L136.85 289.6 137.4 289.65 136.85 289.85 Q131.75 291.35 124.4 290.5 117.1 289.6 112.4 290.65 111.75 295.85 106.4 294.65 L106.4 295.65 106.4 297.8 106.4 298.2 Q101.9 298 97.4 298.4 L97.4 297.8"/>
    <path stroke="none" fill="#545a68" d="M53.15 724.55 L53.15 723.55 53.15 722.55 53.25 722.55 53.25 723.55 53.25 724.55 53.15 724.55"/>
    <path stroke="none" fill="#535761" d="M48 727.35 Q46.85 727.4 46.15 725.55 L46.25 725.55 Q46.9 727.3 48 727.35"/>
    <path stroke="none" fill="#6f717d" d="M19 713.55 L18.6 713.45 Q18.15 711.55 18.15 709.55 L18.25 709.55 Q18.25 711.55 18.7 713.45 L19 713.55"/>
    <path stroke="none" fill="#3e424b" d="M16.15 721.55 L16.15 720.55 16.15 719.55 16.25 719.55 Q17.8 719.65 17.65 717.55 L17.75 717.55 Q17.9 719.7 16.25 719.55 L16.25 720.55 16.25 721.5 16.15 721.55"/>
    <path stroke="none" fill="#4b4b53" d="M90.15 737.55 L90.25 737.65 Q89.75 739.7 91.4 739.75 89.6 739.8 90.15 737.55"/>
    <path stroke="none" fill="#48484d" d="M93.15 739.55 L93.25 739.55 93.25 740.55 93.15 740.55 93.15 740 93.15 739.55"/>
    <path stroke="none" fill="#26262b" d="M729 17 L732.9 17.45 733 18 732 18.1 Q729.3 18.7 729 17 M830 19 L834.9 19.5 835 20 834 20.1 Q830.8 20.7 830 19 M932 21 L935.9 21.45 936 22 935 22.1 Q932.3 22.7 932 21 M983 22 L986.9 22.45 987 23 986 23.1 Q983.3 23.7 983 22 M1084 24 L1088.9 24.5 1089 25 1088 25.1 Q1084.8 25.7 1084 24 M1186 26 L1189.9 26.45 1190 27 1189 27.1 Q1186.3 27.7 1186 26 M1237 27 L1240.9 27.45 1241 28 1240 28.1 Q1237.3 28.7 1237 27 M1338 29 L1342.9 29.5 1343 30 1342 30.1 Q1338.8 30.7 1338 29"/>
    <path stroke="none" fill="#25252a" d="M780 18 L783.9 18.45 784 19 783 19.1 Q780.3 19.7 780 18 M1034 23 L1037.9 23.45 1038 24 1037 24.1 Q1034.3 24.7 1034 23 M1288 28 L1291.9 28.45 1292 29 1291 29.1 Q1288.3 29.7 1288 28 M1491 31 L1501.95 31.5 1502 32 1501 32.05 Q1494.75 32.75 1491 31"/>
    <path stroke="none" fill="#27272c" d="M881 20 L884.9 20.45 885 21 884 21.1 Q881.3 21.7 881 20 M1135 25 L1138.9 25.45 1139 26 1138 26.1 Q1135.3 26.7 1135 25 M1389 30 L1392.9 30.45 1393 31 1392 31.1 Q1389.3 31.7 1389 30"/>
    <path stroke="none" fill="#262627" d="M674 16 L678.9 16.5 679 17 678 17.1 Q674.8 17.7 674 16"/>
    <path stroke="none" fill="#252529" d="M322 233 L321 233 318 233 318 232 321.9 232.45 322 233"/>
  </g>
</svg>