<svg xmlns="http://www.w3.org/2000/svg" xmlns:xlink="http://www.w3.org/1999/xlink" width="2000" height="1000">
  <defs/>
  <g>
    <path stroke="none" fill="#000001" d="M1982 555 L1982 20 18 20 18 555 118 555 118 565 18 565 18 985 1982 985 1982 565 1882 565 1882 555 1982 555 M1832 540 L1782 540 1782 631 1762 631 1762 488 1782 488 1782 523.45 1781.9 523.45 1781.9 529.95 1782.15 529.95 1782.15 530 1832 530 1832 540 M1722 675 L1722 665 1822 665 1822 675 1722 675 M1682 530 L1682 540 1632 540 1632 530 1682 530 M1832 585 L1862 585 1862 595 1832 595 1832 585 M2000 1000 L0 1000 0 0 2000 0 2000 1000 M218 488 L238 488 238 631 218 631 218 540 168 540 168 530 218 530 218 488 M318 530 L368 530 368 540 318 540 318 530 M278 675 L178 675 178 665 278 665 278 675 M168 595 L138 595 138 585 168 585 168 595"/>
  </g>
</svg>