<svg xmlns="http://www.w3.org/2000/svg" xmlns:xlink="http://www.w3.org/1999/xlink" width="2000" height="1000">
  <defs/>
  <g>
    <path stroke="none" fill="#000001" d="M1969 17 L1968.5 16.9 Q1967.3 11.65 1961 12 L1960 12 1957.5 12.5 Q1945.1 8.35 1930 8 L1929.1 7.8 1921 4 1920 3.95 Q1910.65 2.95 1900 5 L1899.95 5.5 1892 6 1891.05 6.1 1879 9 1878.9 8.5 Q1864.85 6.2 1849 7 L1848 7 1837 7 1836.05 7.1 Q1825.8 9.8 1820 17 L1819.95 17.5 1812 18 Q1811.5 18 1811.3 18.25 1802.25 28.25 1789 34 L1788.9 34.5 Q1781.75 35.75 1777 34 L1776 34 1775 34 1768 34 1767 34.1 Q1760 35.5 1755 39 L1754.9 39.5 Q1748.25 40.75 1744 39 L1743.75 38.15 Q1742.95 37.05 1741 37 L1740 36.95 Q1735.8 36.75 1734 34 L1733 34 1729 34 1728.95 34.5 1718 35 1717.2 35.25 Q1709.5 41.45 1699 40 L1698.05 39.85 Q1695.15 38.85 1691 39 1690.5 39 1690.3 39.25 1685.7 44.7 1679 48 L1679 48.5 Q1666.5 49 1654 49 L1653.5 49.1 Q1653.2 50.65 1651 50 L1650.9 50.55 Q1645.8 51.75 1643 50 L1642.3 49.75 Q1637.05 43.45 1629 40 L1628.1 39.8 Q1623.9 37.6 1622 33 L1621.9 32.45 Q1618.45 31.55 1616 30 L1615 29.95 Q1610.35 29.7 1607 28 L1606 28 1599 28 Q1598.5 28 1598.3 28.25 1591.7 37.2 1577 38 L1576.75 38.75 Q1569.5 45.65 1561 40 L1560 40.05 Q1555.25 40.3 1552 39 L1551.75 39.75 1551 40 1551 40.5 Q1537 41 1523 41 L1522.1 41.2 1517 43 1516.9 43.5 Q1511.9 44.65 1510 42 L1509.85 41.45 Q1504.1 39.4 1499 37 L1498 37 Q1493.3 36.75 1491 34 L1490.05 33.8 Q1486.6 32.4 1481 33 L1480.85 33.55 Q1474.95 35.4 1470 38 L1469.95 38.5 1453 38 1452 37.95 Q1441.75 37.25 1435 33 L1434 33.05 Q1429.25 33.75 1427 32 L1426 32.1 1418 33 1417.95 33.5 1409 34 Q1408.5 34 1408.25 34.25 1395.7 46.25 1377 52 L1376.95 52.5 1366 53 1365 53 1364.9 53.55 Q1356.3 55.65 1355 50 L1354.25 49.75 Q1354 49.5 1354 49 1353.5 49 1353.3 48.75 1351.25 46.3 1350 43 L1349.85 42.45 Q1343.5 40 1336 39 L1335 39.05 Q1323.75 39.75 1315 38 L1314 37.9 Q1303.2 35.75 1294 32 L1293.05 31.9 Q1289.45 31.05 1288 28 L1287.85 28.55 Q1282.45 30.1 1283 25 L1282.75 24.2 Q1278.75 19.25 1268 21 L1267.4 21.2 Q1265 25.55 1258 25 L1257.95 25.5 1243 25 1242.25 24.75 Q1239.75 22.25 1235 22 L1234 21.9 Q1229.45 21.05 1228 17 L1227.75 16.3 Q1221.2 10.8 1211 9 L1210 9 1186 9 1185.15 9.25 Q1183.95 9.95 1182 10 L1181.9 10.5 Q1174.75 11.75 1170 10 L1169 10.05 Q1151.25 11.25 1138 8 1138 7.5 1137.8 7.4 L1136 7 1135 7 1110 7 Q1109.5 7 1109.35 7.25 1106.2 11.65 1099 12 L1099 12.5 Q1059.75 13.75 1023 12 L1022.45 11.85 Q1021.55 9.45 1018 10 L1017 10.05 992 9 991.05 8.85 Q979.3 4.95 966 9 L965.95 9.5 956 10 955.2 10.25 Q952.1 12.6 946 12 L945.95 12.5 Q937.8 13.75 932 12 L931 12 927 12 927 12.5 Q900 13 873 13 L872 13 871.9 13.5 Q864.75 14.75 860 13 L859 13 Q853 13 849 11 L848 11 840 11 839 11 838.95 11.5 Q823.75 12.75 811 11 L810 11 Q806.5 10.95 805 9 L804 9 Q777.25 8.25 753 10 L752.75 10.7 Q748.35 14.35 745 19 L744.05 19.15 Q734.05 22.05 723 24 L722.8 24.85 Q718.6 31.65 709 33 L708.95 33.5 Q702.75 34.25 700 31 L699 31 Q693.95 31.05 691 29 L690 29 679 29 678.05 29.15 Q671.85 30.85 666 33 L666 33.5 Q648 34 630 34 L629.45 34.1 Q626.55 45.55 616 49 L615.95 49.5 599 49 598.25 48.75 Q594.05 44.45 588 42 L587.15 41.8 Q583.45 39.55 578 39 L577.15 38.75 Q570.55 34.3 564 38 L563.95 38.5 555 39 554.1 39.2 Q549.4 41.85 545 45 L544.95 45.5 533 46 Q532.5 46 532.25 46.25 531 47.5 529 48 L528.95 48.5 513 48 512.2 47.75 Q509.45 45.6 505 45 L504 45 Q498.5 45 496 42 L495.05 41.85 Q481.9 37.6 469 33 L468.05 33.15 Q462.5 35 459 39 L458.95 39.5 446 40 445.2 40.25 440 44 439.9 44.55 Q434.8 45.75 432 44 L431.2 43.75 Q425.6 38.9 415 39 L414.75 38.3 Q410.2 34.3 403 33 L402.45 32.85 Q399.35 24.65 387 26 383.55 22.95 377 23.35 361.9 24.25 347 22 346.5 22 346.35 22.25 343.35 26.85 337 28 L336 27.9 Q324.45 26.05 319 18 316 17.5 313.55 16.05 307.8 12.7 303 8 L302 8 289 8 288.1 8.2 Q277.05 13.55 262 10 L261 10.05 Q255.75 10.75 253 9 252.5 9 252.15 8.8 247.45 6.05 239 7 L238 7 229 7 228 6.95 Q214.8 5.8 207 10 L206.95 10.5 Q195.25 11.75 186 10 L185 10 184 10 177 10 Q133.75 11.75 88 12.6 58.8 13.2 38 7 L37.05 7.15 Q22.45 12.95 0 11 L0 10 0 0 179 0 358 0 537 0 716 0 895 0 1074 0 1253 0 1432 0 1611 0 1790 0 1969 0 2000 0 2000 179 2000 358 2000 537 2000 716 2000 895 2000 1000 1821 1000 1642 1000 1463 1000 1284 1000 1105 1000 926 1000 747 1000 568 1000 389 1000 210 1000 31 1000 0 1000 0 821 0 642 0 463 0 284 0 105 0 52 Q10.1 55.3 17.8 51.6 L18 51 Q20.6 44.4 12.05 43.55 8.3 43.2 7 40 11.65 24.15 22 14.5 L22 15 Q24.9 23.6 30.2 27.75 L31 28 Q31 33.55 32.85 39.05 L33 40 Q25.4 43.3 21.5 51 L22 51 Q27.75 55.25 37.95 55.85 47.15 56.4 40.3 62.35 39 63.5 38 65 L38.05 66 Q38.75 74.25 37 80 L36.8 80.85 Q33.95 85.45 33 92 32.5 92 32.35 92.25 27.1 100.1 19 105 L18.9 106 17 117 Q16.5 117 16.45 117.15 13.45 124.95 9 131 7.55 133.05 8.2 136.95 10.1 148.6 5 153 L5 168 5 169 5 242 5 243 5 244 Q5.75 267.75 4 289 L3.75 289.85 2 292 Q2 294 2.45 295.9 L3 296 Q4.75 310.75 4 328 L4 329 4 330 Q5.75 336.75 5.05 346 L5 347 Q5.6 351.95 7.75 355.15 L8 356 Q9.75 363.75 9.05 374 L9 375 Q10.75 393.75 10 415 L10 416 10.05 417 Q10.75 425.75 9 432 13.2 439.3 12.5 445.95 L12 446 12.05 447 Q12.75 451.75 11 454 15.05 458.45 24 457.9 50.15 456.35 69 462 68.5 472 65.55 479.85 L65 480 Q65.9 503.15 91.05 506.5 100.25 507.75 105 513 103.4 518.9 101.1 529 L101 530 101 537 101 538 101.1 538.95 Q104 550 108 560 L108.85 560.25 Q125.15 570.85 139 579 L138.85 579.55 Q117.1 587.1 92 591 L91.95 591.5 79 592 78 592.1 68 593 67.95 593.5 60 594 59.05 594.15 Q58 594.5 57 595 L57 595.5 Q40 596 23 596 L22.05 596.15 Q14.75 598.75 6 600 L6 602 6 603 6.05 604 Q6.75 608.75 5 611 L6.25 636 Q7.75 671.9 7 715 8.75 721.75 7.5 730.95 L7 731 7 771 7 772 7 787 7 788 7.05 789 Q7.75 794.75 6 798 L6 837 6 838 6 853 6 854 6.05 855 Q6.75 860.75 5 864 L5 904 5 905 5 920 5 921 5.05 922 Q5.75 927.75 4 931 L4.1 932 Q5.3 937.85 2 939 L2 943 2 944 2 970 2 971 Q-0.25 982.75 5.8 986.35 6 986.5 6 987 5.3 991.7 7.75 993.35 L8 994 18 994 19 994 Q20.5 993 21.4 991.2 21.5 991 22 991 L22 990 Q62.5 990 103 990.5 L103 991 103.75 991.25 104 992 111.95 992.5 112 993 Q119.5 994 126.9 995.5 L127 996 Q130.2 996.7 131.3 995.25 131.5 995 132 995 L132 994 147.95 994.5 148 995 Q148.75 997.7 153 997.05 L154 997 191 997 192 997 209 997 210 997 211.75 995.75 212 995 212 994 Q242.25 994.75 269.9 992 L270.4 991.2 Q270.5 991 271 991 L276.75 985.75 277 985 277 984 Q308.5 984 340 984.5 L340 985 Q348.35 986.65 359 986.5 L359 987 Q374.5 987 390 987.5 L390 988 390.25 988.75 391 989 449 989 450 989 Q455.6 985.6 464 985.5 L464 986 Q468.8 985.75 471.8 987.4 472 987.5 472 988 L473.1 988.8 474 989 Q527 989 580 989.5 L580 990 Q585.25 990.75 588.1 989.2 L589 989 589 988 618 987 619 987 619 986 Q629.5 986 640 986.5 L640 987 647.95 987.5 648 988 Q649.3 990.7 654 990.05 L655 990 663.95 990.5 664 991 664.75 991.25 665 992 698 992 699 992 Q700 992 700.8 991.6 L701 991 701 990 Q740.5 990 780 990.5 L780 991 Q784.45 989.95 786.75 986.8 L787 986 787 985 Q789.95 983.45 795 983.95 L796 984 Q798.75 984.25 799.75 982.85 L800 982 800 981 819 981 820 981 820 980 828 980 829 980 829 979 863 979 864 979 864 978 Q873.4 966.9 884.2 957.25 L885 957 Q893.05 937.55 905 922.5 L905 923 Q909.75 925.25 913.75 928.3 L914 929 Q912.65 937.85 914.5 948.9 L915 949 Q922.15 937.15 931 927.5 L931 928 Q940.45 930.6 937.85 935.95 936.8 938.15 941 939 948.25 938.65 945.6 943.8 L945 944 944.9 945 Q944.25 947.75 942 949 L942 950 942 957 942 958 Q941.95 961.45 942.5 964.95 944 975 939 978 939.35 990.85 948.2 984.25 L949 984 Q955.4 966.85 966.75 949.85 L967 949 Q966.35 942.25 972.2 937.25 L973 937 982.75 945.3 983 946 Q983.8 952.2 986.75 956.2 L987 957 987.75 957.25 988 958 Q989.75 962.75 989.05 970 L989 971 1011.75 946.75 1012 946 Q1017.85 951.1 1022.05 952.85 L1023 953 Q1030.15 961.3 1038.25 968.75 L1039 969 Q1044.2 987.8 1059.15 996.8 L1060 997 Q1065.65 995.15 1069.75 991.7 L1070 991 1070 990 Q1088 990 1106 990.5 L1106 991 Q1155.75 992.75 1208 992.5 L1208 993 Q1208.5 993 1208.75 993.25 L1209 994 1235 994 1236 994 1327 994 1328 994 Q1345.2 979.7 1366.1 969.2 L1367 969 1367 968 Q1391 968 1415 968.5 L1415 969 Q1424.35 978.5 1439.05 974.15 L1440 974 Q1440.5 974 1440.7 974.25 1443.55 978.05 1439 980 L1438.4 980.2 Q1436.8 983.25 1433 984 1435 991.5 1443.95 992.5 L1444 993 Q1495.25 994.75 1549 994 L1550 994 1550 993 Q1552.95 991.45 1558 991.95 L1559 992 1561 992 1562 992 1595 992 1596 992 1642 992 1643 992 Q1645.45 990.45 1650 990.5 L1650 990 1650 989 1663 989 1664 989 1664 988 Q1692 985.5 1719.95 988.5 L1720 989 Q1736.5 989 1753 989.5 L1753 990 Q1755.2 991.8 1759 992 L1760 992 1768.95 992.5 1769 993 1769.85 993.25 Q1775.85 997.05 1784 994 L1784.2 993.1 Q1789.2 983.95 1786 971 L1785.9 970.45 Q1781.8 969.45 1778 974 L1778 974.5 Q1776.8 970.15 1769 970 L1768.5 970 Q1772.8 962.25 1779 956 1775 956 1772.9 957.9 1766.3 963.7 1761 961 1767.85 955.55 1766.5 949 L1767 949 Q1775.9 947.9 1778.8 940.95 L1779 940 Q1774.25 944.75 1767.5 942 L1768 942 Q1773.85 936.85 1779.55 933.05 L1778 933 Q1770.55 935.65 1774.3 931.25 1774.5 931 1775 931 1781.1 927.6 1781.5 924 L1781 924 Q1774.85 921.35 1783.1 914.85 L1786.05 912.05 1787 911 Q1790.9 915.6 1795.8 924.1 L1796 925 Q1791.6 926.05 1798.4 929.15 1805.1 932.2 1801 936 1793.5 934.25 1801.95 941.05 1805.15 943.65 1803 943 1795.7 940 1793.25 942.25 1793 942.5 1793 943 1798.4 948.1 1805.8 951.4 1806 951.5 1806 952 1799 951.2 1802.35 955.75 1802.5 956 1803 956 1811.7 956.8 1812.5 965 L1812 965 Q1807.55 962.85 1803.05 966.95 L1801.8 966.5 1799 966 Q1801.4 977.8 1794.25 970.75 L1794 970 Q1789.15 965.4 1789.95 974 L1790 975 Q1791.8 977.8 1791.05 983 L1791 984 Q1791.95 1000.5 1811.3 995.05 1816.6 993.6 1819 990 L1819 989 1930 989 1931 989 Q1933.35 976.35 1944.05 972.15 L1945 972 1945 971 1956 971 1957 971 1957 970 1957 959 1958 959 1958 958 1958 956 Q1962.4 949.4 1970.05 946.2 L1971 946 1971 945 1982 945 1983 945 1983.05 944 Q1983.25 941.3 1982 940 L1981.5 939.95 Q1981.05 935.55 1981 931 L1982 931 1982 930 1982 928 Q1984.8 926.25 1985 922 L1985 921 1984.95 920 Q1980.35 887.65 1977 858 L1976.5 857.95 Q1976.05 853 1976 848 L1975.5 847.9 Q1972.55 832 1969 817 L1969 816 1969 808 1969 807 1968.5 807 Q1968 780 1968 753 L1968 752 1967.5 752 Q1967 742 1967 732 L1967 731 1967 730 1967 722 1967 721 1966.5 721 Q1966 700.5 1966 680 L1966.05 679 Q1967.4 654.6 1964 635 1965.75 547.25 1965.35 457 1965 367.5 1966.35 278 1966.6 260.6 1973 248 1971.2 232.35 1976.45 219.15 1976.5 219 1977 219 L1977 40 1977 20 1976 20.1 Q1969.65 21.4 1969 17 M1892 58 Q1899.3 55.85 1907 54.5 L1907 55 Q1908.55 61.95 1911.9 67.1 1915.3 72.35 1915 80 1916.8 85.75 1916.05 94 L1916 95 1916 99 1916 100 1916.05 101 Q1916.75 105.75 1915 108 L1914.8 108.9 Q1911.75 115.75 1909 123 L1908.15 123.2 Q1901.1 127.6 1893 131 L1891.55 131 Q1893.85 122.3 1890 114 1893.5 109.5 1893.95 102 L1894 101 1894 100 1894 93 1895 93 1895 92 Q1898.45 90 1896.75 88.25 L1896 88 1895.5 87.95 Q1895.05 83 1895 78 L1894.9 77.5 Q1885.65 75.35 1887 63 L1891.75 58.75 1892 58 M1887 178 L1887 177 1887 176 Q1895.35 162.35 1912 162.5 L1912 163 Q1913.75 186.25 1912.5 212 L1912 212 Q1904.1 224.6 1892 233 1883.85 238.7 1884 248 L1883.9 248.5 Q1874.6 250.65 1869 256 L1868.85 256.95 Q1866.35 263.85 1863 270 L1861.5 269.85 Q1846.75 278.75 1834 290 1829.25 289.25 1826.85 290.75 1811.25 300.25 1793 307 L1792.75 306.25 1767 281 1766.5 280.95 Q1766 275.5 1766 270 L1767 270 1767 269 Q1779.3 259.3 1791.95 249.95 1794.25 248.25 1799 249 1801.55 245.55 1805.8 243.6 1806 243.5 1806 243 L1806 242 1817 242 1818 242 Q1830 238.5 1837.75 230.75 L1838 230 Q1840.4 228.95 1844 229 L1845 229 Q1853.5 216.05 1869 215.05 L1870 215 Q1879.35 205.35 1885.8 192.9 L1886 192 1886 191 1886 178 1887 178 M1651 146 Q1656.55 145 1654.55 150.85 L1654 151 1653.75 151.8 Q1651 155 1650 160 L1649.2 160.25 Q1615.5 188 1580 214 L1567.95 215.35 Q1544.1 216.8 1527 215 L1526.05 214.85 Q1522.6 213.95 1521 211 L1520.5 210.9 Q1518.15 198.35 1509 193 L1508 192.9 Q1503.95 192.05 1502 189 L1501.75 188.25 Q1497.85 184.7 1497 178 L1496.35 177.75 Q1492.1 171.9 1487 167 L1486.05 166.85 Q1476.25 163.25 1474 152 1477.3 150.75 1478.45 147.15 1478.5 147 1479 147 L1479 146 1499 147 1500 147 1500 146 1531 146 1532 146 1570 146 1571 146 1603 146 1604 146 1650 146 1651 146 M1564 343 Q1565.75 359.25 1565 378 L1565 379 Q1570.45 386.55 1577.75 392.3 L1578 393 Q1579.75 399.25 1578.5 407.95 L1578 408 1577.75 408.75 Q1571.05 416.05 1565 424 L1565 425 1565 449 1565 450 Q1567.3 451.7 1567.9 455 L1568 456 1577.75 464.3 1578 465 1588 465 1589 465 Q1591.15 465.65 1591.5 464.1 L1592 464 1592 463 1604.95 463.5 1605 464 Q1607.35 467.35 1605.2 471.1 L1605 472 1605.05 473 Q1605.75 478.75 1604 482 1602.75 484.75 1600.8 486.8 1588.3 500.3 1578.1 516.05 1573.95 522.45 1568.8 527.85 1549.35 548.35 1529 568 L1528.85 568.55 Q1523.25 570.3 1522 567 L1522.05 566 Q1522.7 561.75 1520 561 L1519.5 560.95 Q1519 551.5 1519 542 L1520 542 1520 541 Q1522 539.5 1522.85 536.95 L1523 536 1523 535 1523 516 1524 516 1524 515 Q1525.4 503.7 1530.8 493.9 L1531 493 1531 492 1531 475 1530 475 Q1526.2 474.8 1526 471 L1525.3 470.75 1520 463 1519.75 462.15 Q1517.25 458.7 1516 454 1515.25 449.75 1516.55 447.7 1522.95 437.95 1516 440 L1515.75 440.65 Q1510 444.35 1510 438 L1511.1 437.2 1512 437 1512 436 Q1515.5 432.5 1519.75 429.65 L1520 429 Q1540.85 423.85 1552.75 409.8 L1553 409 1553 408 1553 383 1552.8 382.1 1552 381 1551.5 380.95 Q1551 374.5 1551 368 L1552 368 1552.8 366.9 1553 366 1553 365 1553 350 1554 350 Q1557.05 344.05 1564 342.5 L1564 343 M1360 539 L1359.85 539.95 Q1353.5 557 1339 566 L1338.45 566.15 Q1333.5 583 1326 597 L1325.1 597.2 Q1320.05 600.05 1318 606 L1317.2 605.75 Q1310.35 600.6 1304 595 L1303.8 594.1 Q1299.1 584.4 1294 575 L1293.05 574.85 Q1283.55 571.45 1276 566 L1275.45 565.85 Q1273.4 558.6 1271 552 L1270.05 551.85 Q1259.45 548.55 1254 540 1261.4 538.4 1269 537.1 L1270 537 1270 536 1277.95 536.5 1278 537 1294 536.5 Q1318.65 537.15 1340.95 535.25 1353.9 534.1 1360 539 M1374 765 L1401 765 1402 765 Q1409.55 760.05 1424.05 760.8 1446.3 761.85 1463.95 761 L1464 760 1464 759 Q1501.5 759 1539 759.5 L1539 760 Q1539.8 763.8 1545 763.5 L1545 764 Q1559.6 769.4 1569.75 779.25 L1570 780 Q1580.4 783.65 1589.15 788.8 L1590 789 1604.95 789.5 1605 790 Q1613.7 792.3 1618.95 798.15 1624.15 803.85 1629 810 1632.25 811.3 1637 811.5 L1637 812 1639 812 1640 812 1640 811 Q1680.5 811 1721 811.5 L1721 812 Q1755.9 808 1777.8 818.4 L1778 819 1841 819 1842 819 1842 818 Q1845 816.45 1850 816.95 L1851 817 Q1861.7 810.5 1867.75 821.6 1868 822 1868.7 822.45 1869.55 823.05 1870 824 1870 838.5 1859.35 842.85 1859 843 1858.6 843.8 1858 845 1857 846 1831.25 847.75 1803 847.55 1713.5 847 1624 847 L1623.1 847.2 Q1617.65 850.15 1611 852 L1610.85 852.55 Q1605.25 854.35 1604 851 1601.85 850.15 1600.6 848.25 1599.25 846.2 1598.1 842.6 1597.35 840.2 1596.95 836.9 1595.6 825.4 1585 831 L1584 831 Q1579.85 831.15 1579 828 L1578.05 827.85 Q1562.3 822.25 1548 815 L1547 815.1 Q1542.1 815.9 1541 813 L1540.9 812.45 Q1529.85 809.7 1523 803 L1522 803 1508 803 1507 803 1474 802 Q1474 801.5 1473.8 801.4 L1472 801 1471 801.05 Q1459.6 802.4 1453 799 L1452.85 798.45 Q1446.55 795.95 1439 795 1439.05 793.5 1438.65 793.45 1425.25 790.25 1409 791 L1408.25 790.75 Q1404.5 786.95 1410 784 L1410.3 782.3 Q1394.05 779.55 1377 783 1376.5 783 1376.35 783.2 1372.3 789.8 1367 795 L1366.05 795.15 1360 796 1359.75 796.65 Q1334.6 813.1 1311 831 1301.9 831.9 1294.4 834.95 1274.8 842.8 1248 844 L1247 844.05 Q1241.3 844.75 1238 843 L1237.5 843 Q1238.7 838.65 1236 835 L1236.55 834.9 1239 825 1239.6 824.8 Q1241.75 820.25 1246 818 1248.65 814.75 1244.1 815.6 1233.25 817.75 1233 810 1236 808 1236.5 803.05 L1237 803 1237 802 1237 801 1241.15 798.2 1242 798 Q1243.95 797.95 1244.75 796.85 L1245 796 1245 795 1271 795 1272 795 Q1276.75 794.75 1279.25 792.25 1279.5 792 1280 792 L1280 791 1288 791 1289 791 Q1319.15 781.15 1344.8 766.6 1345 766.5 1345 766 L1345 765 1373 765 1374 765 M1599 676 Q1605.3 671.8 1615 671.05 L1616 671 Q1617.55 668.55 1619.75 666.7 L1620 666 Q1630.9 664.95 1638.8 660.6 1639 660.5 1639 660 1639.15 648.65 1649.95 647.5 1659.9 646.4 1668 643 1670.6 637.6 1674.75 633.75 L1675 633 Q1680.7 631.2 1685.15 628.25 L1686 628 1686 627 Q1697 627 1708 627.5 L1708 628 Q1717.05 629.45 1723.8 633.35 1724 633.5 1724 634 1725.8 636.8 1725.05 642 L1725 643 Q1730.5 648.5 1736.75 653.3 L1737 654 Q1749.05 652.45 1754.25 657.75 L1755 658 Q1757.5 662.5 1757.95 669 L1758 670 1774.8 680.35 Q1775 680.5 1775 681 1781.45 682.55 1786.8 685.4 L1787 686 Q1788.75 693.25 1788.05 703 L1788 704 1787.85 704.95 Q1786.25 709.25 1780 709 L1779.95 709.5 1771 710 1770.95 710.5 Q1757.75 711.75 1747 710 L1746 710 1745 710 1744.95 710.5 Q1730.25 711.75 1718 710 L1717.85 709.45 1715 709 1714 709.05 Q1702.75 709.75 1694 708 L1693.15 707.75 Q1688.7 704.85 1681 705 L1680 705 Q1661.25 705.75 1645 704 L1644.05 703.9 Q1634.75 701.75 1623 702 L1622.25 701.75 Q1616.8 696.7 1607 696 L1606.75 695.35 Q1602.65 692.35 1598 690 L1597 690 1590 690 1589 690.05 Q1583.8 690.75 1581 689 L1580.45 688.9 Q1580 687 1580 685 1582.85 681.4 1585.35 677.2 1585.5 677 1586 677 L1586 676 1598 676 1599 676 M1794 471 Q1799.3 492.2 1813.2 504.65 1817 508 1821.25 510.65 1833.7 518.3 1845 527 L1853 527 1854 527 Q1863.8 530.75 1869.75 538.2 L1870 539 Q1865.15 545.65 1854.85 551.8 L1854 552 1831 552 1830 552 Q1820 548.6 1817.15 537.95 L1817 537 Q1804.05 531.45 1794.75 522.25 L1794 522 Q1780.6 521.25 1773.85 509.1 1763.55 490.45 1749.95 474.9 1745.6 469.9 1745 461 1755.8 452.8 1769.1 447.2 L1770 447 Q1775.55 444.4 1777.45 450.85 L1778 451 Q1787.85 456.2 1793.45 470.85 L1794 471 M1463 847 Q1461.3 852.3 1455 852.5 L1455 852 Q1448.25 847.7 1444.2 840.85 L1444 840 Q1456.75 827 1452.15 843.05 L1452 844 Q1463.25 841.5 1463.5 847 L1463 847 M1402 840 L1401 840.05 Q1396.55 840.45 1398 835 1408.6 832.1 1416.75 841.2 L1417 842 Q1423.25 839.25 1424.75 841.2 L1425 842 Q1419.75 852.6 1409.65 846.85 1408.7 846.3 1407 846 L1406.05 845.85 Q1402.3 844.75 1402 840 M1526 846 Q1526.3 851.8 1523.05 854.1 1519.85 856.35 1515.8 858.5 1506 863.65 1501 856 1506.45 849.95 1512.25 844.25 1512.5 844 1513 844 1513.55 848 1517.05 848.9 L1518 849 Q1518 848.5 1518.25 848.2 1520.35 845.35 1526 846 M1369.25 849.25 Q1369.5 849 1370 849 1375 850.05 1375.7 855.7 L1376.65 855.25 Q1381 853 1381 857 L1370.8 865.75 1370 866 1369.9 866.5 Q1362.75 867.75 1358 866 L1358 865 1357 864.95 Q1355.3 864.7 1356 862 L1356 861 Q1358.45 860 1361.05 859.15 L1362 859 Q1365.25 857.75 1366.45 854.15 L1367 854 1367 853 1367 852 Q1368 850.5 1369.25 849.25 M1190 138 L1189 138 1179 138 1178 138 1165 138 1164 138 1153 138 1152.15 138.2 Q1138.3 146.8 1128 159 L1127.05 159.15 Q1106.2 166.2 1079 167 L1078.85 166.45 Q1075.15 165.4 1072 164 L1071.75 163.15 Q1061.1 148.4 1049 135 L1048.95 135.5 1041 136 1040 136 Q1026.65 136.15 1016 139 L1015.85 139.95 Q1013.65 147.65 1010 154 L1009.25 153.75 Q998 142.95 985 134 984.5 134 984.45 134.15 980.6 144.6 973 151 L972.05 151.15 Q952.7 158.7 927 160 L926.85 159.45 Q922.25 157.75 919 155 L918.85 154.05 Q916.4 146.6 910 143 L909.05 142.85 Q905.25 141.25 899 142 L898.8 142.6 Q880.3 151.8 860 159 L859.05 158.9 Q828.75 151.8 799 144 L798.15 144.2 Q773.85 158.9 744 168 L743.9 168.5 Q738.25 169.75 735 168 L734.05 167.85 Q723.65 164.85 723 152 L722.5 151.95 Q722 148 722 144 L723 144 Q789.45 120.95 865.95 107.7 896 102.5 929 100 L929 99 937 99 938 99 943 99 944 99 944 98 957 98 958 98 993 98 994 98 1004.95 98.5 1005 99 1018 99 1019 99 1032.95 99.5 1033 100 1043 100 1044 100 1052.95 100.5 1053 101 Q1139.5 104 1212.1 120.55 1240.05 126.95 1265 136 1267.6 143.4 1266.5 153.95 L1266 154 Q1254.75 158.25 1240 159 L1239 159 Q1217.7 147.3 1193.75 138.65 1192 138 1190 138 M1107 388 Q1113.65 349.15 1125.9 315.95 1127.65 311.2 1135 312 L1135 311 1143 311 1144 311 1161 311 1162 311 1180 311 1181 311 1181 310 1189 310 1190 310 1200 310 1201 310 1208 310 1209 310 1227 310 1228 310 1228 309 1235 309 1236 309 1254 309 1255 309 1271 309 1272 309 1286.25 323.75 1287 324 Q1276.65 332.65 1270.2 345.1 L1270 346 Q1271.75 349.25 1271.05 355 L1271 356 1271 363 1271 364 Q1271.3 381.8 1270 397.1 1268.55 414.35 1266 401 L1265.5 400.95 Q1265 395.5 1265 390 L1265 389 1265 375 1264.5 374.95 Q1264 367 1264 359 L1264.05 358 Q1264.75 352.25 1263 349 L1262.75 349.75 Q1250.35 361.35 1239 374 L1238.9 375 Q1235.7 394.2 1235 416 1217.1 459.6 1169.45 474.45 1156.1 478.6 1141 482 L1140.75 482.65 Q1134.05 487.1 1128 492 1127.95 495.5 1128.55 498.9 1130.4 510.3 1126 514 L1126 516 1126 517 Q1127.75 519.8 1127.05 525 L1127 526 1127.05 527 Q1127.95 540.55 1124 535 L1123.5 534.95 Q1123.05 530.5 1123 526 L1123 525 Q1123.8 507.2 1119 495 1092 523.5 1064.6 551.6 1060.65 555.65 1057.5 560.05 1053.4 565.9 1045 567 L1044.95 567.5 1028 568 1027 568 1014 568 1013 568 992 568 991.95 568.5 975 569 974 569 960 569 959 569 939 569 938.95 569.5 922 570 921 570 909 570 908 570 886 570 885.95 570.5 873 571 872.85 571.95 Q869.95 581.45 869 593 L868.45 592.9 Q865.8 582.2 864 571 L863 571 856 571 Q846.15 568.65 846.3 577 L846.4 591 Q846.45 601.45 843 607 841.25 603.25 841.85 597 L842.95 586.25 Q844.75 571.2 834 571 L833.95 571.5 826 572 825 572 812 572 Q810.6 584.6 811.5 598.95 812.5 614 809 624 L808.5 624 Q809.3 605.2 805 592 L804.5 591.95 Q804 587 804 582 L804 578 Q804 576 803 575.1 797.95 570.55 787 572 783.4 564.6 775.85 561.35 775 561 774.7 560.55 739.8 508.7 709 453 704.9 473.9 704.4 499 704.15 512.6 702 501 L701.5 500.95 Q701 494 701 487 L701 486 701 477 700.95 476 Q699.75 457.7 700 438 L699.15 436.9 Q666.15 380.4 632 325 L632 324 Q631.7 315.8 631 308 634.8 302.65 643.05 304.85 L644 305 644 304 656 304 657 304 674 304 675 304 684 304 685 304 713 304 714 304 714 303 727 303 728 303 744 303 745 303 755 303 756 303 Q776.25 300.7 787.8 307.35 788 307.5 788 308 789.75 314.25 788.5 322.95 L788 323 787.8 323.9 Q777.6 344.1 770 367 771.85 382.15 779.15 386.75 L780 387 Q782.95 380.95 788 381.9 L789 382 Q791.75 394.7 792 410 L792 411 Q798.4 416.6 801.45 425.85 L802 426 802 447 802 448 Q816.5 483.5 832.8 517.1 L833 518 Q834.7 517.7 835.4 516.2 L836 516 836 515 836 514 Q837.2 512.2 839.1 511.2 L840 511 840 510 Q843.7 507.7 848.05 506.15 L849 506 Q853.05 501.05 858.8 497.65 L859 497 859 496 861 496 862 496 862 495 870.95 495.5 871 496 Q873.75 495.8 874.75 497.2 L875 498 886.3 484.25 Q886.5 484 887 484 L887 483 Q888.05 482.05 890 482 L891 482 891 481 899.95 481.5 900 482 Q903.7 481.75 904.8 484.1 L905 485 Q909.2 486.3 910.8 490.1 L911 491 Q913.7 491.75 913.05 496 L913 497 Q913.1 499.9 914.75 501.3 L915 502 920 502 921 502 921 501 929.95 501.5 930 502 Q932.75 501.8 933.75 503.2 L934 504 Q941.4 509.1 944.45 518.85 L945 519 Q948.65 518.8 948.95 522 L949 523 Q955.45 527.55 957.85 537.55 958.15 538.85 959.5 540.6 963.2 545.3 973 544 979.1 543.1 979.5 536.05 L980 536 Q981.6 523.9 976.7 518.25 976.5 518 976 518 971.15 525.2 970.75 521.9 970.2 517.3 967 520 961.3 521.2 961.05 517 L961 516 Q967.55 511.05 972.5 505 L972 505 Q964.1 507.6 956.9 510.8 L956 511 Q954.4 510.6 959 506 961.45 503.5 959 501 960.75 496.7 969.05 494.15 972.15 493.15 972 489 967.25 493.75 960.5 491 L961 491 Q966.85 485.85 972.55 482 L971 482 Q963.4 484.6 966.3 481.25 966.5 481 967 481 973.65 477.15 974.5 473 L974 473 Q967.9 470.35 976.1 463.85 977.65 462.65 979.05 461.05 L980 460 Q983.9 464.6 988.8 473.1 L989 474 Q984.6 475.05 991.4 478.15 998.1 481.2 994 485 986.5 483.25 995.05 489.95 L999 493 Q994.45 491.5 985 490.5 L985 491 997.55 501 996 501 Q994.5 506.05 1004.25 510.6 1005.05 510.95 1005.55 512.2 1006.65 514.65 1004 514 999.4 510.45 998.55 516.8 998.55 517 997.6 516.25 995.45 514.55 991 515 994.55 528.65 986.7 519.25 986.5 519 986 519 983.05 514.5 983 521 L983 522 Q983 534 986.45 542.85 L987 543 Q993.6 544.95 1000.85 542.55 L1001 542 Q1004.95 529.45 1009.8 517.9 L1010 517 1010 481 1010 480 Q1025 461.5 1045.05 447.65 1050.15 444.15 1053.45 437.75 1058.15 428.65 1065 421 1089.55 408.55 1106.3 388.25 1106.5 388 1107 388 M651 726 Q644.45 722.7 642.25 728.35 642.05 728.95 640.9 728.15 L639 727 Q635.15 729.45 636 735.15 636.15 736.25 634 734 630.85 727.85 628.25 731.2 628 731.5 628 732 628.1 743.85 629.9 754 L630 755 Q644.3 756.9 654.9 754.5 L655 754 655 753 Q673.75 752.25 689.5 755 L688.7 755.55 687 756 686.75 756.75 684 759 Q684.25 765.25 688.8 767.4 L689 768 Q688.9 769.65 691 769.5 L691 770 Q695.25 770.3 693.55 775.85 L693 776 692.75 776.75 Q686.7 782.7 680 788 678.55 794.45 685 793.5 L685 794 Q690.15 794.35 689.1 801 L689 802 692.75 806.2 693 807 Q694 807.5 694.4 808.3 L694.9 809.55 658 811 657.5 811.1 Q657.15 812.65 655 812 L654.95 812.5 645 813 Q644.5 813 644.35 813.25 642.55 816.05 637 815 L637 816 636.95 816.5 626 817 625 817 618 817 617 817 Q598.45 817.95 585 824 L584.95 824.5 576 825 Q575.5 825 575.3 825.25 572.6 828.6 569 831 L568 831 557 831 Q556.5 831 556.25 831.25 551.2 836.2 543 838 L542.95 838.5 535 839 Q534.5 839 534.15 839.25 531.5 841 529 843 L528 843.05 Q517.5 843.5 510 847 L509.95 847.5 495 848 494 848 493.9 848.5 Q487.25 849.75 483 848 L482 847.9 Q476.1 846.9 471 845 L470 845.1 Q461.6 846.4 458 843 L457.75 842.25 456 841 455.15 840.75 Q451.9 838.6 449 836 L448.25 835.75 Q448 835.5 448 835 447.5 835 447.4 834.8 445.15 829.85 440 828 L439.9 827.45 Q434.75 826.25 432 823 L431.1 822.8 426 820 Q423.55 818.45 422.35 815.85 421.7 814.3 420.6 816 415.55 824.05 416 838.05 L416.4 858 Q416.45 869.45 413 876 L412.5 875.95 Q408.5 843.5 406 810 L405.25 809.75 Q401.3 805.7 396 803 L395 803.05 Q388.25 803.75 384 802 L383.8 801.4 382 801 381 801.05 Q373.25 801.75 368 800 L367.8 799.4 366 799 365 799.1 Q357.1 800.4 354 797 L353 797 Q348.25 796.75 345 795 L344 795.05 Q338.75 795.75 336 794 L335.8 793.4 334 793 333 793.1 Q327.2 794.35 326 791 L325 790.9 Q298.5 786.5 267 787 L266 787.05 Q253.55 788.45 246 785 L245.45 784.85 Q244.55 782.45 241 783 L240 783.05 Q232.25 783.75 227 782 L226 781.9 Q222.35 781.2 219 780 L218.25 779.75 217 778 216 777.95 Q211.1 777.4 210 773 L209.15 772.75 204 769 203.3 768.75 Q200.5 765 198 761 L197.25 760.75 195 758 194.45 757.9 Q194 756 194 754 196.65 752.65 198.35 750.25 198.5 750 199 750 199.5 750 199.7 749.75 203.3 745.15 196 748 L195.8 748.9 Q192.3 755 190 749 L191 749 191 748 Q193.2 747.7 193.5 745.05 L194 745 194 744 Q202.4 735.4 212.75 728.65 L213 728 213 727 229.95 727.5 230 728 Q231.65 729.35 235 729.05 L236 729 244.95 729.5 245 730 Q249.1 731.45 255 731.5 L255 732 255.75 732.25 256 733 278 733 279 733 Q317 733 355 733.5 L355 734 Q355.5 734.5 356.1 734.8 L357 735 Q371 735 385 735.5 L385 736 385.75 736.25 386 737 396.95 737.5 397 738 397.75 738.25 398 739 408.95 739.5 409 740 Q416.85 739.75 412 742 L414 742 417 742 Q420.25 743.3 425 743.5 L425 744 Q434.2 747.75 441.75 753.3 L442 754 Q450.5 754.95 455.25 759.75 L456 760 Q457.9 765.6 463.1 767.8 L464 768 Q463.5 771.95 465.8 773.35 466 773.5 466 774 473.25 779.75 484 781.9 495.3 784.2 501 792 518.35 798.4 531.25 787.45 537.6 782.1 546.15 779.45 553.2 777.2 557 772 L557 771 571 771 572 771 578.75 764.75 579 764 Q586.3 762.8 591.8 759.65 L592 759 592 758 Q595.4 756.4 601 756.95 L602 757 603 756.95 622 755 622.2 754.15 Q627.3 745.3 624 733 L623.75 732.3 Q620.95 729.85 616 735 L616 735.5 Q614.6 731.15 607 731 L606.5 731 Q610.8 723.25 617 717 613 717 610.9 718.9 604.4 724.8 599 722 605.85 716.55 604.5 710 L605 710 Q613.75 708.75 616.8 701.9 L617 701 Q612.25 705.75 605.5 703 L606 703 Q611.85 697.85 617.5 694 L616 694 Q608.4 696.6 611.3 693.25 611.5 693 612 693 618.65 689.15 619.5 685 L619 685 Q612.9 682.35 621.1 675.85 622.65 674.65 624.05 673.05 L625 672 Q628.75 676.75 633.8 685.15 L634 686 Q629.6 687.05 636.4 690.15 643.1 693.2 639 697 631.2 695.75 640.75 702.35 644.15 704.7 641 705 635 700.7 632.8 703.6 632.5 704 633 705 639.4 710.1 641 713 L639 713 Q642.55 718.5 648.9 721.25 651.2 722.25 651 726 M744.4 754.8 Q744 754 744 753 L837 753 838 753 838 752 Q840.2 751.2 842.9 750.55 L843 750 843 749 856.95 749.5 857 750 Q859 751 860.75 752.3 L861 753 Q873 753 885 753.5 L885 754 Q891.9 755.6 901 755.5 L901 756 901.75 756.25 902 757 Q914.5 757 927 757.5 L927 758 927.75 758.25 928 759 Q937.5 759 946.95 759.5 L947 760 Q947.5 760 947.75 760.25 L948 761 962.95 761.5 963 762 Q967.1 763.45 973 763.5 L973 764 Q978.95 765.6 987 765.5 L987 766 Q991.1 767.45 997 767.5 L997 768 Q997.5 768.5 998.1 768.8 L999 769 Q1021 769 1043 769.5 L1043 770 Q1052.85 771.65 1065 771.5 L1065 772 Q1073.85 773.65 1085 773.5 L1085 774 Q1085.5 774.5 1086.1 774.8 L1087 775 1098.95 775.5 1099 776 1099.75 776.25 1100 777 Q1118.5 777 1137 777.5 L1137 778 Q1138.7 780.85 1144 780.05 L1145 780 Q1150.95 781.6 1159 781.5 L1159 782 1159.75 782.25 1160 783 1168.95 783.5 1169 784 Q1181 783.65 1175.25 792.15 1175 792.5 1175 793 1173.6 801.4 1176.75 805.2 L1177 806 1177.75 806.25 Q1182.35 811.15 1184 819 L1183.95 820 Q1182.45 830.45 1174 829 L1173 829.1 Q1166.15 830.35 1164 827 L1163 827.05 Q1157.3 827.75 1154 826 L1153.85 825.45 1151 825 1150 825.05 Q1140.55 826.45 1136 823 L1135 823.05 Q1126.8 823.75 1121 822 L1120.25 821.75 Q1120 821.5 1120 821 L1119 821.05 Q1108.25 821.75 1100 820 L1099.85 819.45 1097 819 1096 819.05 Q1086.75 819.75 1080 818 L1079.8 817.4 1078 817 1077 817.1 Q1068.1 818.45 1064 815 L1063 815.1 Q1057.2 816.35 1056 813 L1055 813.05 Q1044.25 813.75 1036 812 1036 811.5 1035.8 811.4 L1034 811 1033 811 981 811 Q982.15 833.65 980.25 852.15 978.65 867.65 976 856 L975.5 855.95 Q975 850.5 975 845 L975 844 975 836 975 835 Q975.55 821.95 974 811 L973 811 963 811 963 812 Q962.95 824.45 958 832 L958 833 958 846 956.5 845.9 Q955.4 827.6 954 811 L953 811 933 811 932.95 812 Q932.25 823.75 929 833 L929 845 929 846 929.05 847 Q929.75 851.75 928 854 928 857 926.8 859.45 L926.5 859.75 Q922.8 836.7 923 811 L916 811 Q825.75 811.75 738 810 L739.1 809.2 740 809 Q742.25 807.25 742.3 805 742.55 796.95 740 790 L739.2 789.75 Q736.9 788.1 736 785 L738 785 739 785 Q750.2 784.7 753.45 776.15 753.5 776 754 776 L754 775 754 768 753.75 767.25 Q748.65 761.85 745 755 744.5 755 744.4 754.8 M354 354 Q353.5 354 353.4 354.2 350.7 360.2 344 362 L343.8 362.9 Q328.15 392.65 296 406 L295 406 288 406 287.8 406.6 Q279.05 410.55 272 416 L271.95 416.5 Q260.25 417.75 251 416 L251 415.5 Q246.8 416.8 243 419 L243 422 243 423 243 454 243 455 243.5 455 Q241.1 460.6 241 469 240.5 469 240.4 469.2 224.7 504.2 199 529 L198.9 529.5 Q186.85 531.65 186 522 L185.5 521.95 Q185 516 185 510 L186 510 185.8 509.1 Q178.7 496.8 167 489 L166 488.95 Q151.7 487.8 146 478 L145.5 477.95 Q145 473 145 468 L146 468 146 467 146 465 Q147.55 461.05 152 460.1 L153 460 153 459 166 459 167 459 Q168.95 458.95 169.75 457.85 L170 457 Q175.3 454.4 174.8 448.15 L174.25 446.25 Q174 445.5 174.05 445.05 L174.1 444.4 Q172.45 437.85 170 433 L170 433.5 Q162.05 431.95 165 419 165.5 418.5 166.1 418.2 L167 418 Q172.9 410.4 181.15 405.25 181.5 405 182 405 190.45 388.95 202.25 376.25 202.5 376 203 376 202.4 364.9 209.8 361.6 L210 361 210 360 220.95 360.5 221 361 Q234.05 366.45 243.25 375.75 L244 376 Q251.6 374.1 255.35 368.25 255.5 368 256 368 262.3 366.3 271 366.95 L272 367 Q276.8 364.3 283 363.1 L284 363 284 362 299 362 300 362 Q305 361 307.75 357.8 L308 357 Q312.7 356.7 316.85 355.55 L317 355 317 354 328 354 329 354 Q339.9 353.9 348.05 351.15 L349 351 349 350 Q355.75 348.25 354.5 353.9 L354 354 M194 74 Q199.1 74.55 202.1 73.2 L203 73 203 72 Q215 72 227 72.5 L227 73 Q235.75 84.5 229.2 99.1 L229 100 229.05 101 Q229.75 105.75 228 108 L227.8 108.9 Q222.45 120.95 213 129 L212.05 129.1 205 131 205 131.5 Q197.85 131.35 193 133 L192.75 133.75 192 134 192 139 192 140 192.05 141 Q192.75 146.75 191 150 L190.8 150.9 Q185.35 160.35 186 172 185.5 172 185.4 172.2 175.85 191.35 163 207 L162.85 207.95 Q159.9 218.9 155 228 154.5 228 154.2 228.25 L146 235 146 238 146 239 Q147.75 242.75 146.5 248.9 L146 249 145.75 249.7 Q138.85 255.85 139 269 138.5 269 138.35 269.25 133.4 276.85 141 281 L140.4 283.15 118 286 Q118 286.5 117.8 286.6 L109 292 108 292.05 Q90.7 294.3 83 287 L82.25 286.75 Q79.7 284.3 80 279 81.7 278.2 81.5 275 L82 275 82 274 82 271 Q84.95 265.95 85.95 259 L86 258 86 257 86 245 87 245 87 244 Q93.3 238.25 94.9 231 L95 230 Q112.2 220.7 120.8 202.9 L121 202 121 201 121 193 122 193 122 192 Q126.75 184.75 125.05 171 L125 170 Q126.25 167.25 128.25 165.25 128.5 165 129 165 130.15 154.65 135.75 148.75 L136 148 136 147 136 135 137 135 137 134 Q138.7 126.2 140.85 118.95 L141 118 141 117 141 95 142 95 142 94 142 93 142 82 143 82 Q144.7 81.2 144.5 78 L145 78 145 77 162 77 163 77 Q169.1 76.6 174.05 75.15 L175 75 175 74 193 74 194 74 M299 208 L299.5 208 Q295.2 218.7 285 224 L284.5 224.05 Q283.9 235.4 278 241 281.35 242.15 280.5 246.9 L280 247 Q276.65 252.65 271 256.45 262.3 262.3 252 262 L251 262 234 262 233 262.1 Q227.75 263.25 227 260 L228 260 228 259 Q231.65 257.15 229.25 253.85 L229 253 228.5 253 Q228 243 228 233 L229 233 Q233.85 225.85 235.9 216 L236 215 245.75 207.7 246 207 246 206 Q263.5 206 281 206.5 L281 207 282 207 298.95 207.5 299 208 M500 476 Q502.75 477.25 502.95 481 L503 482 Q506.25 487.8 511.75 491.35 L512 492 Q512.3 493.7 515 493.5 L515 494 Q517.55 497.9 519.8 502.1 L520 503 559.95 501.8 Q574 500.95 581 506 L581.45 506.55 Q560.75 531.25 531.4 547.7 527.1 550.1 525.25 554.55 516.75 574.75 502 588 L502 598 502 599 Q503.75 601.8 502.55 606.9 L502 607 501.85 607.95 Q497.6 618.6 488 619 L487.5 618.9 Q486.8 614.75 485 612 L484.75 611.15 Q471.25 591.75 452 578 L451.8 577.1 Q442.3 556.7 428 541 L427.1 540.8 Q423.85 539.15 422 536 422 535.5 421.8 535.45 414.9 532.6 408 530 L407 530.05 Q400.25 530.75 396 529 L395.25 528.75 Q385.55 519.95 379 508 L380 508 380 507 Q384.25 500.3 391.85 502.45 L392 503 439 503 440 503 Q445.45 494.45 453 488.25 454.5 487 457 486.85 461.1 486.6 463 484 L463 483 Q465.7 482.2 466.45 479.1 L467 479 467 478 467 477 Q469.15 470.65 475.05 468.2 L476 468 Q476.95 461.95 482.05 460.15 L483 460 Q483.2 468.8 489.85 471.45 L490 472 Q496 472.45 499.25 475.75 L500 476 M196 971 Q175.5 954 153.25 938.65 153 938.5 153 938 145.45 937.05 140.25 933.65 140 933.5 140 933 L133 933 132 933 Q121.2 925.8 111.25 917.7 111 917.5 111 917 107.35 915.65 102 915.95 L101 916 Q93.9 909.65 82 908.05 L81 908 Q76.6 882.4 77 852 L77 851 Q86.35 840.35 109.8 845 112.05 845.45 116 845 139 867 168.75 882.5 186.95 892.05 200.15 906.85 213.1 921.4 227 935 226.9 941.9 226.05 948 L226 949 Q215.35 963.85 196.95 970.85 L196 971 M730.95 809.85 Q728.6 811.95 729 809 736 805.35 730.95 809.85 M729 800 L728.9 800.5 Q723.25 801.75 720 800 L719.5 799.9 Q719 797 719 794 721.2 781.1 724.85 793.05 L725 794 Q728.75 795.75 729.5 800 L729 800 M707.8 804.4 Q711 814.55 704 809 706.25 799.5 707.8 804.4"/>
  </g>
</svg>