<svg xmlns="http://www.w3.org/2000/svg" xmlns:xlink="http://www.w3.org/1999/xlink" width="2000" height="1000">
  <defs/>
  <g>
    <path stroke="none" fill="#000001" d="M1999.5 20 L0 20 0 0 1999.5 0 1999.5 20 M1878 79 Q1866.55 82.55 1858.25 89.3 1858 89.5 1858 90 1856.4 102.4 1843.25 104.55 1840.1 105.05 1836.25 106.6 L1734 147 Q1730.8 142.2 1726.25 138.7 1726 138.5 1726 138 1734.65 132.7 1735.9 125 L1736 124 Q1732.6 120.1 1734.4 116.2 L1735 116 Q1767.1 109.15 1773.9 77 L1774 76 1793.95 72.5 1794 72 Q1797.25 63.7 1799.45 54.1 L1800 54 Q1804.5 63.55 1805.95 76 L1806 77 Q1821.25 83.85 1837.85 75.7 1845.5 72 1852.5 69.45 1860.95 66.45 1866 61 1888.45 54.85 1910.6 59.7 1913.25 60.3 1914 64 1906.9 63.1 1905.1 70.05 L1905 71 Q1893 73.95 1886.25 82.2 1886 82.5 1886 83 1881.05 82.45 1878.7 79.25 1878.5 79 1878 79 M1710 245 Q1716.75 242.25 1724.05 240.15 L1725 240 Q1734.15 242.35 1736.45 251.9 L1737 252 Q1736.65 258.2 1733.25 261.3 1733 261.5 1733 262 1739.25 276.3 1743.7 292.8 1744.05 293.95 1746 294 1750.6 306.4 1752.9 321 L1753 322 1764.25 333.75 1765 334 Q1765.55 340.45 1767.45 345.85 L1768 346 1768 345 1776.95 345.5 1777 346 1778.8 346.4 Q1779 346.5 1779 347 1780.8 349.8 1779.55 354.9 L1779 355 1778.95 356 Q1777.7 373.2 1775 389 1775.5 389 1775.75 389.25 1795.95 409.05 1808 437 L1809 437 Q1838.3 437.7 1861 445 1861 445.5 1861.25 445.85 1864.55 450.95 1869 455 L1869.5 455 Q1861.45 467.9 1847 475 L1847 476 Q1847 479.5 1851 484 1850.5 484 1850.45 484.15 1847.1 494.55 1837 498 L1836.95 499 Q1835.5 522.5 1832 544 L1832.2 544.85 Q1841.4 559.55 1843 577 L1843.95 577.15 Q1858.95 581.5 1875 585 L1875.85 585.2 Q1881.4 588.65 1885 594 L1884.8 594.85 Q1878.85 605.05 1882 612 1880.95 614.95 1877 615.15 1867.05 615.55 1861 620 L1860.85 620.95 Q1856.7 632.2 1845 636 L1844.5 636 Q1845.95 642.6 1846 648 1846 648.5 1846.25 648.8 L1852 657 1851.9 658 Q1849.25 672.25 1847 687 L1846.75 687.75 Q1842.4 691.9 1839 697 L1839.2 697.6 Q1850.65 702.85 1857 713 L1856.75 713.7 Q1847 722.45 1842 736 L1841.1 735.8 Q1832.75 731.8 1824 728 L1823.5 728 Q1825.75 722.3 1825 718 L1824.05 718.15 Q1815.05 721.1 1811 729 L1811.2 729.9 Q1812.75 733.5 1811 738 1810.5 738 1810.2 738.25 1805 742.45 1794 739 L1793.8 739.9 Q1789.7 747.55 1797 750 L1797.5 750 Q1796.8 759.3 1791 764 L1790.05 764.15 Q1770.65 771.15 1749 776 L1748.95 776.5 1741 777 Q1740.5 777 1740.15 777.25 L1733 782 1727 781.85 Q1723.75 781.7 1722.25 781.85 1706.65 783.85 1706 774 1721.4 757.35 1738.75 742.7 L1739 742 Q1747.05 740.55 1754.05 738.15 L1755 738 Q1781.4 680.4 1812 627.5 L1812 628 Q1819.45 594.95 1824.5 560 L1824 560 Q1804.1 545.9 1786.75 529.25 1786.5 529 1786 529 1808.55 513.05 1818.85 484.95 L1819 484 Q1791.1 446.4 1765.15 407.25 1764.05 405.5 1763.75 403.05 1761.15 380.35 1757 359 1743.35 364.4 1733.9 368.8 L1733 369 Q1729.5 365.05 1725.15 363.55 1725 363.5 1725 363 1716.15 348.85 1708.2 333.9 L1708 333 Q1721.55 321.05 1737.8 311.65 L1738 311 Q1726.25 298.25 1713.75 286.25 L1713 286 Q1711.7 265.8 1710.05 246 L1710 245 M1851 339 Q1873.55 353.95 1891.05 373.5 L1890 374 1878 375.9 1877 376 Q1876.15 384.15 1868.95 385.9 L1868 386 Q1861.6 383.9 1861.05 376 L1861 375 Q1852.9 368.15 1844.25 361.7 1844 361.5 1844 361 L1844 349 1844 348 Q1847.55 344 1850.35 339.2 1850.5 339 1851 339 M1583.8 118.25 L1583 118 Q1572.2 130.65 1563.25 119.8 1563 119.5 1563 119 1569.25 114.3 1576.15 110.2 L1577 110 Q1589.65 114.35 1598.75 122.3 L1599 123 Q1591.85 125.05 1583.8 118.25 M1582 136 Q1591 144.95 1607.95 146.7 L1619 148 Q1614.75 158.85 1618.75 165.15 L1619 166 Q1599.3 177.8 1582.85 192.95 1581.35 194.35 1580 196 1573.15 198.15 1564 198 L1563 198 Q1558.1 206.15 1552.2 203.6 1552 203.5 1552 203 1542.7 206.25 1536.5 218.25 1534.7 221.75 1533 226 1537.8 233.75 1542.75 241.15 L1543 242 Q1540.2 246.65 1536.25 250.25 1536 250.5 1536 251 L1536 266 1536 267 Q1531.85 270.3 1529.55 275.8 1529.5 276 1529 276 1500.25 283.75 1477 296.95 L1475 298 Q1455.5 288.25 1438 299.5 L1438 299 Q1430.55 300.95 1430.95 295 L1431 294 Q1442.3 289.8 1446.65 278.25 1448 274.5 1451 272 L1466.2 283.75 1467 284 Q1473.3 284.7 1480.1 281.2 L1481 281 Q1484.7 273.75 1497 273.35 1513.8 272.8 1527 267 1530.85 250.85 1529.55 236.15 L1528.9 235.25 Q1528.15 234.4 1526 235 1521.15 224.9 1521.2 208 1521.25 204.75 1521.7 203.85 1524.4 198.55 1518 198 1522.4 185.85 1539 181.5 L1539 182 Q1541.8 187.15 1546.8 184.6 L1547 184 Q1550.6 174.1 1552.9 163 L1553 162 Q1567.65 149.65 1581.25 136.25 1581.5 136 1582 136 M1343 147 Q1354.5 138.5 1370.05 134.15 L1371 134 1371 133 1379 133 1380 133 1386 133 1387 133 1387 132 1397.95 132.5 1398 133 Q1398.5 133 1398.55 133.15 1402.85 147.05 1395 159 L1394.85 159.55 Q1373.45 165.45 1366 180 L1366.05 181 Q1367.05 191.45 1363 201 1363 201.5 1363.25 201.7 1369.7 207.3 1379 210 L1378.75 210.85 Q1374.5 216.85 1375 224 1374.5 224 1374.15 224.25 L1357 235 Q1357 234.5 1356.8 234.4 1349.05 230.5 1343 225 L1342.1 225.2 Q1337.35 227.85 1332 230 L1331.3 229.75 1323 220 1322.05 220.1 Q1313.8 222.3 1299 223 L1298.8 223.6 Q1293.15 226.65 1289 231 L1288.15 230.8 Q1283.25 227.75 1279 229 L1278.75 229.75 Q1273.75 234.35 1263 232 L1262.8 231.1 Q1260.55 225.85 1259 216 1271.3 212.85 1282.15 206.2 L1283 206 1300 206.95 1301 207 Q1302.3 198.3 1306.35 192.25 1306.5 192 1307 192 L1307 191 1317 191 1318 191 Q1335.65 174.65 1342.85 147.95 L1343 147 M1298.45 130.15 Q1286.7 144.7 1278 162 L1259.95 166.85 1259 167 Q1250.9 162.75 1243.05 163.5 L1243 164 Q1237.65 166.3 1241.3 176.3 L1242 179 Q1236.2 186.45 1233.15 178.95 L1233 178 Q1235.05 171.7 1235 168 L1235 167 Q1232.95 164.6 1232.1 160.95 L1232 160 Q1234.8 157.75 1239 157.1 L1240 157 Q1243.25 152.25 1250 151.1 L1251 151 Q1252.6 157.4 1256.3 161.75 1256.5 162 1257 162 1269 159 1277.2 152.25 L1278 152 Q1279.6 145.6 1282.75 140.85 L1283 140 Q1288.4 138.8 1290.85 129.95 1293.05 122.05 1301 120 1303.4 124 1298.45 130.15 M1338 263 Q1350.8 256.9 1346.3 267.25 1346 268 1344 267.9 1338.9 267.6 1338 263 M1554 224 Q1565.7 216.15 1568.5 230 L1568 230 Q1555.35 237.05 1554.05 225 L1554 224 M1538 359 Q1547.25 376.05 1545.5 393.95 L1545 394 Q1549 400.5 1553.35 406.75 1553.5 407 1554 407 1558.3 416.15 1553.8 419.75 L1553 420 Q1547.5 419.2 1545.6 422.8 L1545 423 Q1542 440.5 1536.55 455.85 L1536 456 Q1527.5 452.45 1521 456.5 L1521 456 Q1507.4 446.6 1497.65 433.25 1497.5 433 1497 433 1481.75 436.55 1461 434.05 L1460 434 Q1449 450 1432.85 460.75 L1432 461 Q1431.5 466 1430.15 470.05 1430 470.5 1430 471 1426.45 477.45 1419.2 480.45 1419 480.5 1419 481 1422.3 494.75 1424.4 514.05 1424.9 518.9 1423 517 1410.65 518.2 1409.05 530 L1409 531 Q1398.2 536.7 1388.8 543.75 L1388 544 Q1379.9 538.6 1374.15 537.65 L1372 537 Q1367.3 532.7 1364.2 526.9 L1364 526 Q1388.9 505.4 1407.35 478.25 1407.5 478 1408 478 1414.9 476.45 1420.35 468.25 1420.5 468 1421 468 1422.95 459.45 1423.95 450 L1424 449 Q1417.2 439.3 1426.2 432.25 1426.5 432 1427 432 1429.3 439.15 1436.05 441.85 L1437 442 Q1443.6 430.6 1454.8 423.65 L1455 423 1478.95 419.5 1479 419 Q1485.05 413.55 1489.5 405.85 1489.95 405.05 1491.1 405.15 1493.15 405.4 1493 407 1501.6 406.1 1503.45 398.1 L1504 398 Q1508.9 404.25 1515.05 405.85 L1516 406 Q1517.6 396.65 1511.2 385.85 L1511 385 1516.8 373.9 1517 373 Q1526.35 365.35 1537.1 359.2 L1538 359 M1473 461 Q1492.35 457.95 1509.1 465.8 L1510 466 Q1488.7 474.2 1478.75 492.95 1474.8 500.3 1464 500 1460.25 499.8 1461.45 503.85 L1462 504 Q1464.55 515.8 1457 521.5 L1457 521 Q1451.6 519.4 1449.2 514.9 L1449 514 Q1453.9 499.4 1461.75 487.85 L1462 487 Q1461.2 482.35 1461 477 L1461 476 Q1466.4 468.45 1472.3 461.25 1472.5 461 1473 461 M1487 591 Q1497.2 591.8 1503.2 596.75 L1504 597 Q1500.4 608.4 1492.25 615.3 1492 615.5 1492 616 1485.2 613.8 1480.25 609.7 1480 609.5 1480 609 L1486.85 591.95 1487 591 M1346 443 Q1347.55 443 1347.95 442.35 1355.65 430.15 1367 422 1371.6 427.9 1373.35 436.15 1375.65 446.8 1369 449 1368.2 446.8 1368.6 444.1 1369.9 435.5 1365 433 1364.05 432.5 1363.8 432.8 1356.05 440.55 1350 450 L1350 450.5 Q1342.2 448 1339 454 L1339 454.5 1323 453 Q1318.9 452.9 1317.55 455.8 L1317 457 Q1319.5 458.65 1318 463 L1318.5 463 Q1311.45 467.95 1303 472 L1303.05 470.5 Q1273.7 475.2 1258 495 L1258 495.5 1247 490 Q1246.5 490 1246.45 489.8 1243.85 483.65 1237 482 1222.15 483.1 1210.7 487.1 1198.7 491.25 1192 500 L1191.05 500.15 Q1183.9 502.9 1177 506 L1177.2 506.85 Q1181.35 513.65 1184 522 L1183 521.95 Q1171.25 521.25 1165 526 L1165.95 526.15 Q1176.65 529.8 1189 532 L1189.2 532.9 Q1191.75 538.25 1192 546 1191.5 546 1191.45 546.15 1188.5 554 1186 562 1185.5 562 1185.4 562.2 1183.4 566.9 1177 563 L1176.15 563.25 Q1171.95 565.95 1168 574 L1167.85 574.55 Q1160.05 577.05 1153 575 1152.5 575 1152.25 575.25 1148.9 578.9 1144 581 L1143.25 580.75 Q1136.9 574.6 1134 565 1133.5 565 1133.35 565.25 1130.95 568.85 1134 577 1130.35 582.35 1124.1 585.2 1105.1 593.85 1083 587 L1082.75 586.25 Q1075.6 579.4 1075 566 L1075.85 565.75 Q1083.35 560.7 1074 555 L1073.9 554.05 Q1071.05 542.6 1081 548 L1081.5 548 Q1079.9 539.05 1069 534 1069 533.5 1068.8 533.35 1064.65 530.9 1064 537 L1063.5 537 Q1063.95 550.05 1051 554 L1050.05 553.9 Q1040.1 551.4 1035 544 1026.85 544 1021.35 536.5 1015.35 528.35 1010 529 L1009.35 529.2 Q1005.75 535.1 1004 542 1001.2 544.2 1000.1 540.95 997.75 533.75 994 533 992.55 533 991.5 532.3 979.95 524.1 968 511 L967.95 510.5 Q952.25 509.25 938 507 L937.1 507.2 Q930.5 511 925 516 919.3 518.65 911.05 516.9 890.95 512.55 879 500 878.5 500 878.2 500.25 872.4 505.05 865 501 864.45 493.85 857.95 495.75 852 497.45 845.55 499.65 833.1 503.9 827 494 L826 494.05 Q821.25 494.75 819 493 L818.2 492.75 Q810.55 487 806 478 794.25 479.25 783.85 481.1 778.95 481.95 775.7 484.1 766.5 490.2 764 481 773.4 476.9 782.1 472.2 L783 472 783 471 796.95 471.5 797 472 Q808 474 818.05 476.85 L819 477 835.75 494.25 836 495 Q842.6 492.1 846.5 487 L846 487 Q846.85 474.85 856.85 471.55 L857 471 Q864.35 473.65 872.9 475.5 L873 476 883.35 491.75 Q883.5 492 884 492 889.9 491.2 895.3 485.25 895.5 485 896 485 911.95 487.6 919.4 503.8 L920 504 Q927.55 502.55 936.15 497.2 L937 497 937 496 945.95 496.5 946 497 947 497.05 Q959.2 497.8 968 502 968 501.5 968.1 501.5 978.45 499.65 988 504 L988.6 504.2 Q990.65 508.35 992 513 L992.2 513.65 Q995.1 515.3 1000 514 1000.95 512.95 1000.1 511.55 999.3 510.2 1001.3 508.4 1009.3 501.1 1008 494 L1008.95 494.15 1025 499 Q1025 498.5 1025.15 498.05 1028.5 488 1032 478 1042.4 474.15 1053.7 477.15 1062.5 479.55 1065 475 1066 473.5 1067.4 472.6 1075 467.5 1086 466 L1085.9 465 1080 436 1080.95 435.85 Q1086.3 433.75 1091 431 L1092 431.05 1109 434 Q1109.5 434 1109.65 434.25 1115.6 443.4 1123 451 1124.8 449.8 1126.2 448.2 1133.9 439.35 1145 439 1145.5 439 1145.6 439.2 1149.4 447.75 1143 453 L1143.1 454 Q1144.8 464.15 1152 464 1153 462 1154 462 1167.6 461.95 1182 468 L1182.25 468.75 1188 475 Q1188 474.5 1188.15 474.45 1196.85 471.3 1200 463 L1200.95 463.15 Q1207.5 465 1216 465 1216 464.5 1216.25 464.35 1220.9 461.1 1225 462 L1225.2 462.9 Q1230.4 472.05 1245 472 L1245.75 471.75 Q1250.45 466.95 1255 467 1255.3 468.7 1256.8 468.3 1267.65 465.15 1283 461 L1283.85 461.2 Q1287.55 463.4 1293 464 L1293.1 463.05 Q1295 455.5 1300 451 L1301 450.95 Q1306 450.5 1309 452 L1309.75 451.75 Q1317.9 443.15 1336 448 L1336.55 447.85 Q1338.85 441.3 1346 443 M1609 518 L1610 518 1615 518 Q1618.3 519.55 1624.25 518.75 L1630.75 518 1656 518 Q1659.8 519.75 1666 519.05 L1667 519 1672 519 1673 519 1680.95 519.5 1681 520 1681.9 520.2 Q1691.05 524.5 1700 529 L1701 528.95 Q1705.9 528.4 1710 531 L1710.55 531.15 Q1713.5 541.1 1707 547 L1706.75 546.3 Q1699.7 540.4 1694 546 1693.05 546.5 1693.05 546.55 1695.85 553 1692 559 L1689.5 559.1 Q1681.25 554.25 1676 541 L1675.1 540.8 Q1662.8 535.2 1652 533 L1651.15 533.2 Q1647.45 535.45 1643 537 L1643 537.5 1627 537 1626 537.05 Q1619.8 537.75 1616 536 L1615 536 Q1603.85 535.65 1598 530 L1597 529.9 Q1593.85 529.4 1592 535 L1592 535.5 Q1584.25 533.75 1584 524 L1586.8 519.85 1587 519 1587 518 1592.9 518 1595 518 1609 518 M1390.45 589.95 Q1392.4 588.9 1393 586 1413.55 574.05 1437.05 565.15 L1438 565 Q1443.55 567.45 1448.15 570.75 L1449 571 Q1447.45 604.45 1431.7 623.75 L1431 624 Q1424.65 624.2 1422.05 633.75 1418.9 645.4 1413.45 654.85 1412.65 656.15 1411 656 1417.4 659.6 1424.6 662.9 1427 664 1429 666 1435.2 662.8 1440.3 669.75 L1441 670 Q1436.1 674.6 1430.8 678.75 L1430 679 Q1435.25 685.7 1441.25 691.75 L1442 692 Q1443.25 698.3 1443.95 705 L1444 706 Q1453.55 717.45 1464.25 727.75 L1465 728 Q1462.25 735.25 1458.25 741.15 1458 741.5 1458 742 1476.5 750.5 1488.75 765.2 L1489 766 Q1488.15 769.15 1484.7 774.85 1483.65 776.65 1484 780 1466.35 786.85 1446 790.9 L1445 791 1444.9 791.5 Q1436.8 792.75 1431 791 L1430 791 1412 792 1411.9 791 Q1409.65 778.65 1409 769 L1409.05 768.5 1422 768 Q1422 768.5 1422.15 768.55 1426 770 1430 771 L1430.15 771.95 Q1431.9 778.5 1439 774 1438.95 772.05 1437.8 771.4 1423.55 764 1407 759 L1406.9 758 Q1404.9 749.1 1404 739 L1404.6 738.8 1412 724 1411.25 723.75 Q1405.8 718.7 1400 714 L1400 713 Q1399.6 697.6 1409 692 L1408.8 691.15 Q1399.55 675.95 1391 660 L1391 659 Q1391.65 645.65 1394 634 1394 633.5 1394.15 633.45 1402.1 630.6 1403 626 1402.95 624.05 1401.85 623.25 1392.3 616.7 1383 610 L1382.95 609 1381 593 Q1386.8 591.9 1390.45 589.95 M1341 615 Q1349.5 603.2 1360 615 1361.75 617 1360 619 1355.95 628 1343 628 L1342 628 Q1340.45 623 1340.95 616 L1341 615 M1543 632 Q1548.9 643.55 1555.75 654.15 L1556 655 1587.05 663.85 1588 664 Q1591.65 673.9 1596.4 682.8 1596.5 683 1597 683 1639.75 679.25 1684 672.1 L1685 672 Q1702.95 656.95 1714.4 635.2 L1715 635 1731.15 645.75 1732 646 Q1728.4 658.8 1720.8 665.65 1719.95 666.4 1720 668 1725.2 671.35 1720.2 673.45 1720 673.5 1720 674 L1709.25 681.35 Q1709 681.5 1709 682 1708.6 687.35 1702.5 691.25 1700.2 692.75 1701 697 1704.45 702.3 1700.85 704.75 L1700 705 Q1676.45 716.15 1654 711.1 L1653 711 Q1646.6 722.1 1636.8 729.75 L1636 730 Q1629.55 727.3 1625 734.5 L1625 734 Q1619.2 726.35 1605.1 725.4 L1600 725.2 Q1590.05 724.95 1585 720 1584.2 713.3 1573 712.05 L1572 712 Q1542.15 682.85 1523.2 642.9 L1523 642 Q1532.8 637.35 1542.1 632.2 L1543 632 M1912 502 Q1921.35 505.8 1913.9 509.8 L1913 510 Q1917.4 524.15 1913.2 533.1 L1913 534 Q1913.55 538.05 1918.75 542.3 L1919 543 Q1914.6 546.6 1906 546.05 L1905 546 1893.2 539.6 1893 539 Q1898.35 533.5 1896.1 523 L1896 522 Q1900 508.5 1909.95 502.65 L1912 502 M1750 790 Q1758.75 783.7 1768.05 786.85 L1769 787 Q1773.85 788.8 1770.25 791.35 1770 791.5 1770 792 1763.7 802.05 1756.85 806.75 L1756 807 Q1749.05 802.95 1749.95 791 L1750 790 M1830 758 Q1844.1 751.75 1860.6 758.55 1864.75 760.25 1866.2 763.35 1866.95 764.95 1866 766 1862.8 772.45 1853.4 768.45 1841.9 763.55 1830.35 759.15 1830 759 1830 758 M1708 795 Q1714.9 797.4 1713.45 803.35 1712.95 805.5 1714 808 1708.8 812.3 1702.85 815.8 L1702 816 Q1691.25 815.75 1685.25 810.7 1685 810.5 1685 810 1687.45 804.45 1691.25 800.25 1691.5 800 1692 800 1699.85 804.35 1702.8 795.6 1703 795 1705 795 L1708 795 M1671 810 Q1667.65 822.1 1658.1 821.6 1657.05 821.5 1656 820 1661.2 813.2 1670.05 810.15 L1671 810 M1622 836 Q1622.45 844.5 1620.5 855.9 L1620 856 Q1618.1 860.6 1613.15 862.45 1613 862.5 1613 863 1604.5 863 1601.5 868 L1602 868 Q1604 877.35 1595.95 881.05 L1596.35 882.95 Q1596.55 884.05 1597 885 1592.45 888.6 1583.25 882.65 1583 882.5 1583 882 1572.05 884.45 1571.05 877 L1571 876 Q1570.5 869 1576 868 1580.25 867.25 1582.3 858.3 1584.3 849.8 1587 841 1599.35 834 1612.9 837.45 L1613 838 Q1618.6 838.2 1621.2 836.25 L1622 836 M1492 843 Q1499.35 844.3 1510 842.1 L1511 842 Q1519.65 855.35 1534.8 862.4 L1535 863 Q1533.05 869.55 1526.15 871.45 1526 871.5 1526 872 L1507 872 1506 872 Q1501.35 874.8 1497.25 878.3 1497 878.5 1497 879 1469.9 883.7 1450.2 871.65 L1450 871 Q1446 863.9 1439.25 854.8 1439 854.5 1439 854 1446.7 847.2 1461.15 850.3 1469 852 1477 853 1486.35 850.4 1491.35 843.25 1491.5 843 1492 843 M1399 847 L1392.7 854.75 1392 855 1383 855.95 1382 856 1381.9 856.55 Q1376.8 857.75 1374 856 L1373 856.05 Q1369.7 856.25 1370 853 1371.95 846.45 1376.75 842.7 L1377 842 Q1389.75 842.25 1398.8 846.4 1399 846.5 1399 847 M2000 1000 L0 1000 0 980 2000 980 2000 1000 M974 256 Q971.7 262.65 972.9 268 L973 269 Q977.7 276.8 987.05 279.85 L988 280 Q985.75 287.25 983.15 294.05 983 294.5 983 295 977.95 297.45 975.2 302.15 L975 303 Q977.9 313.1 971.7 317.3 L972.5 319.45 Q972.65 319.9 972 322 973.1 327.6 968 327.05 L967 327 Q950.4 324.65 934 325.95 L933 326 932.85 326.55 Q927.2 328.3 926 325 L927 325 927.2 324.15 Q930.45 318.95 935 315 L934.05 314.8 Q922.5 310 907 309 L906.45 308.85 Q904.35 303.6 902 299 L901.05 299.15 Q894.5 301 892 307 L891.1 307.2 Q887.3 309.3 883 311 L882.75 311.7 Q878.5 314.9 882 320 L881.85 320.95 Q878.65 329.65 871 331 L871 331.5 Q865.25 326.25 860 320 860 319.5 860.25 319.35 866.45 314.95 869 307 L869 306.5 Q856.45 306.05 853 297 848.75 297.75 848.75 302 848.8 315.3 839 318 L838.8 318.9 833 332 832.95 332.5 Q824.9 333.65 823 328 L822 328.05 Q812.25 329.25 805 333 L804.45 332.85 Q796.05 310.45 776 300 L775.85 299.05 Q772.3 287.7 768 277 L767.1 276.8 Q760 273 755 267 769.1 252.1 781.35 235.25 781.5 235 782 235 792.85 236.65 800.15 241.75 L801 242 Q804.85 233.35 817 233 L818 233 Q823.15 240.35 831.8 244.4 832 244.5 832 245 834.15 251.9 840.1 254.8 L841 255 Q842.25 263.75 846.35 269.75 L847 270 856.8 264.65 857 264 Q860.1 254.05 860 245 L860 244 866.25 237.25 Q866.5 237 867 237 L885 237.95 886 238 889.45 248.85 890 249 Q910.6 252.8 925 241.25 L928.2 238.85 931 239 Q933.8 245.65 942.9 246.85 L946 247 Q948.6 248.95 949.5 252.9 L950 253 Q959.15 256.35 969 258 L969.4 257.2 Q969.5 257 970 257 971.35 248.65 973.85 255.05 L974 256 M982 342 Q977.4 347.9 967.2 349.4 961.25 350.25 954.15 349.5 L953.65 348.1 953 347 957.75 342.75 958 342 Q970.9 337.55 981.85 341.45 L982 342 M654 454 Q654 467.15 644.75 475.75 L644 476 Q650.45 484.6 652.9 497 L653 498 Q686.7 486.8 710.75 505.3 L711 506 Q702.9 508 692.85 502.2 L692 502 Q680 505.55 667 507.9 L666 508 665 508.05 Q659.25 508.75 656 507 L655 507 Q646.35 507.15 644 501 644.75 494.75 642.2 491.65 634.85 482.7 632 474 632 473.5 632.2 473.4 638.8 469.7 646 463 L646.05 462 Q646.25 459.75 643 456 641.1 453.55 637.85 454.45 629.7 456.7 626 449 632.15 448.15 637.05 446.15 L638 446 Q647.5 448 653.75 453.3 L654 454 M777 507 Q779.35 513.25 767 513.05 764 513 763 510 770 504.25 776.1 506.8 L777 507 M750 497 Q751.6 504.9 741.95 505.25 738.15 505.4 736 503 743.4 496.9 749.35 495.2 749.95 495.05 750 497 M782 789 Q787.6 783.6 795.1 780.2 L796 780 Q795.25 788.75 782 789.5 L782 789 M901 683 L913 685.5 913 685 Q918.6 676.1 927.15 670.25 927.5 670 928 670 933.2 671.95 938.35 664.25 938.5 664 939 664 942.75 667.25 945.35 671.8 945.5 672 946 672 947.75 677.2 948.5 683.95 L949 684 Q956.45 687.05 960.75 693.15 L961 694 Q953.75 698.25 951.85 707.95 949.95 717.95 947 727 940.55 731.55 935.25 737.25 935 737.5 935 738 L922 737 921 737 Q908.55 743.55 896.85 750.8 L896 751 Q884.25 751.25 881.15 742.95 L881 742 Q876.25 736.75 865.95 739.85 L865 740 Q858.15 749.15 853.55 760.85 L853 761 Q856 763.7 854.2 768.1 L854 769 850.2 777.1 850 778 Q843.95 780.8 844 785 L844 786 Q849.65 788.8 848.15 794.05 848 794.5 848 795 839.8 799.3 836.65 806.9 L836 809 Q839.25 814.25 839.5 817 L839 817 Q835.05 822.05 826 822 L825 822 824.95 822.5 814 823 Q810.75 824.25 810.65 827.05 810.25 837.95 803 836 L802.4 836.2 Q798.4 843.4 796 852 785.65 853.15 775.25 855.25 743.5 861.65 723 847 L723.05 846 Q723.8 836.8 723 831 L722.95 830.5 Q707.25 829.25 694 826 L693.85 825.05 Q690 815 687 804 L694.75 796.75 695 796 Q709.5 799.7 716.2 794.25 L717 794 Q722.25 801.5 730.1 797.2 L731 797 Q735.6 797.9 738.75 800.3 L739 801 746 801 747 801 Q761.55 805.45 765.45 820.9 L766 821 Q774.8 818.25 781.05 820.8 L782 821 Q791.55 814.55 806 813.05 L807 813 Q808.7 806.2 810.85 799.95 L811 799 Q815.35 794.35 821 793.1 L822 793 Q823.6 784.35 821.1 774.95 L821 774 820.5 773.95 Q820 769 820 764 L820 763 820 755 853.75 724.75 854 724 Q866.05 723.45 873.15 727.8 L874 728 Q882.05 700.55 900.25 683.25 900.5 683 901 683 M1008 670 Q1012.4 661.7 1018.15 671.9 1019.7 674.65 1016 676 1011.8 678.4 1008.2 670.9 L1008 670 M381 89 Q391.95 94.1 399.3 102.75 L400 103 Q400.3 111.3 398.15 117.05 L398 118 Q419.95 121.55 432.5 134 L432 134 Q427.35 138.5 427.95 144 L428 145 Q418.5 152 409.8 159.75 L409 160 Q409 174.45 406.15 182.05 406 182.5 406 183 404.1 184 406.2 185.75 L407 186 Q425.25 192.2 441.1 200.8 L442 201 Q442.85 215.15 446.5 226 L446 226 Q431.65 229.55 416.95 224.15 L416 224 Q410.75 220.25 406.7 215.25 406.5 215 406 215 406.2 195.3 393.9 188.2 L393 188 Q391.1 184.95 390.5 181 L391 181 Q396.15 176.65 399.4 170.2 399.5 170 400 170 390.9 153.6 383.55 135.15 383.5 135 383 135 374.95 133.55 367.95 131.15 L367 131 Q363.25 114.95 361.45 101.05 361.2 99.3 358 99.4 354.45 99.55 353 97 365.85 92.35 380.05 89.1 L381 89 M432 171 Q439.6 166.45 440.3 178.9 L441 184 Q433.25 181.25 432.05 172 L432 171 M451 368 Q459.3 373.4 468.3 371.05 468.5 371 469.1 371.9 L470 373 Q478.05 372.8 480.1 383.8 481.5 391 484.8 398.2 488.25 405.7 482 411 488.7 412.3 487.55 416.9 L487 417 Q477.05 414.45 473.15 410.95 L471 411 Q467.75 416.95 473.9 418.45 L474 419 Q494.4 426.1 512.65 434.65 519.95 438.05 526 442 525.5 451.6 535.3 456.4 537.4 457.45 535 461 536.25 467.55 543.2 462.25 L544 462 Q545.9 472.1 553.15 476.75 L554 477 Q556 483.5 556 492 L556 493 Q558.1 498.45 563.1 500.8 L564 501 Q570.85 498.05 574.75 502.25 L575 503 Q575.65 508.35 575.95 514 L576 515 Q557.25 531.25 528 536.9 L527 537 Q525.85 523.65 514.95 520.15 L514 520 Q509.65 516.55 511.9 506 L512 505 Q508.25 498.75 505.2 491.9 L505 491 496.15 487.55 Q496 487.5 496 487 484.85 485.35 480.25 490.25 480 490.5 480 491 477.6 495.3 478.5 499 L478 499 Q470.6 506.05 462 506.5 L462 506 Q459 499.6 453.15 501.45 453 501.5 453 502 446.6 506.6 443.55 514.85 L443 515 Q450.7 521.8 451.5 535 L451 535 Q448.55 530.9 447.15 525.95 L447 525 Q441 523 437.65 518.25 L437 518 Q442.6 505.6 450.3 495.25 450.5 495 451 495 L467.15 495.95 468 495 Q460.45 491.35 463.8 485.85 L464 485 Q457.9 485.45 450.85 489.8 L450 490 Q446.8 464.65 434.9 443.05 427.8 430.2 425.2 417.95 424.9 416.4 427 417 434.4 414.05 424.2 408.6 424 408.5 424 408 436.7 386.7 451 367.5 L451 368 M515 386 Q519.15 378.65 525.2 373.25 L526 373 Q526.15 380.2 534.5 384.1 541.55 387.45 543 397 558.95 394.95 563.5 403 L563 403 Q555.8 402.6 551.8 405.75 L551 406 Q536.4 400.1 521.75 394.65 516 392.5 515 386 M204 119 Q216.05 118.45 222.75 123.35 L223 124 Q217.6 127.35 209 128.9 L208 129 204.2 119.9 204 119 M223 138 L238 138 237.9 139 Q237.7 141.7 235 142 226.2 146.5 223.15 138.95 L223 138 M169 121 Q174.8 123.3 181 121.5 L181 122 Q190.25 131.75 194.45 146.85 L195 147 230 151.95 231 152 Q232.35 164.15 237.35 172.8 237.5 173 238 173 243.2 172.6 245.9 165.55 248.7 158.2 256 156 264.6 157.1 264.95 151 L265 150 Q258.7 141.8 248.75 137.55 246.45 136.55 247 133 251.05 130.55 258.65 133.2 266.15 135.85 270 141 270.35 147.65 277.75 152.35 L278 153 Q278.4 158.9 275.6 164.8 275.5 165 275 165 272.7 161.4 263.8 164.4 262 165 260 165 253.9 167.4 249.75 171.75 L249 172 Q247.5 180 242 183.5 L242 183 Q237.35 179.1 231.75 173.25 L231 173 Q229.6 164.9 223.85 161.25 L223 161 Q217.15 164.6 214.55 155.15 214.5 155 214 155 186.65 151.85 170.75 137.25 170.5 137 170 137 161.3 139.3 154 138.1 L153 138 Q149.05 131.95 147.1 123.95 L147 123 Q123.4 130.3 93.1 124.5 L93 124 Q88.55 119.95 87.1 113 L87 112 Q78.75 108.75 72.25 103.7 72 103.5 72 103 76.25 95.75 78.85 86.95 L79 86 Q89.1 83.1 87.1 73 L87 72 Q95.65 66.65 108.05 66 114.2 65.7 115 61 122.05 61.45 127.85 63.45 L128 64 Q130.1 70.4 130.95 78 L131 79 Q141.2 82.3 143.5 93.9 L144 94 Q155.15 95.55 150.5 102 L151 102 Q154.25 107.25 159 107.95 L160 108 Q166.35 112.15 168.45 120.9 L169 121 M114 395 Q115.5 395 116.5 394.3 124.4 388.9 135 381 L135.9 381.2 Q145.4 385.6 156 389 L175.75 379.5 Q186.4 374.4 193 366 L192.45 365.9 Q189.8 355.75 198 347 196.1 345.9 197.1 343.45 206.05 321.05 220 303 L221 302.9 Q224.8 302.3 228 301 228 300.5 228.25 300.35 232.85 296.95 231 290 231 289.5 231.15 289.45 240.95 285.95 247 279 L247 278.5 Q257.25 280.25 261 289 256.05 304.05 251.7 319.9 246.3 339.7 257 350 L256.95 351 Q256.5 355.5 251 360 L250.1 359.8 Q240.5 354.3 234 355 234.65 357.15 233.9 357.9 230.6 361.1 230.1 368.9 228.6 393.1 211.25 403.45 202.65 408.6 200 415 L200.05 416 Q201.5 429.5 190 435 L189.8 435.9 Q182.45 452.45 171 465 170.5 465 170.4 464.8 166.1 456.6 158 465 L158 465.5 Q150.6 459.9 152 450 L151.85 449.05 Q150.5 444.5 145 444 143.3 442.35 142.6 443.8 136.45 456.45 134 473 L133.05 473.15 Q128.65 474.6 127 479 L127.15 479.95 Q129.45 487.6 138 494 L137.75 494.8 Q132.45 501.05 133 509 133.5 509.5 134.1 509.65 135.5 510 135.6 510.4 138.05 519.25 140 531 153.7 534.3 170 534.3 187.25 534.25 197 541 L196.1 541.2 Q188.2 545.2 180 549 L179 549 Q166.85 549.35 156 551 155.5 551 155.4 551.2 153.5 555.5 151 559 153.05 561.95 151.9 566.75 149.3 577.8 150.8 591.8 156.05 640.95 178 675 L178.2 675.85 Q179.5 678.05 178 681 192 703 205.15 725.5 208.2 730.8 212.7 734 L243 756 242 756.55 Q248.2 770.8 259 781 L258.8 781.9 Q257.95 783.95 258 787 L258.2 787.85 Q262.8 795.7 274 797 L273.8 797.9 Q269.2 807.2 265 817 L264.1 816.8 Q244.1 805.95 225 799 218.05 788.95 212.1 777.95 195.1 746.4 160 733 160 732.5 160.25 732.25 164.7 727.7 161 724 L160.2 723.75 Q137.7 706.75 112 688 112 680.5 110.5 673.3 102.55 635.95 89 603 L88.05 602.85 Q81.9 600.6 82 597 L82.2 596.1 Q86.1 587.95 80 577 L80.95 576.85 Q88.6 574.1 94 569 L93.5 561.95 Q92.85 551.15 84 549 L83.5 549 Q86.55 537.55 87 523 86.5 523 86.35 522.75 82.55 517.1 83 512 85.15 512.65 85.8 511.4 L86 511 Q84.75 494.25 77.05 482.95 75.45 480.55 72.9 480.4 63.6 479.9 62 473 65.7 465.7 77 466.05 81.15 466.15 84 465 89.1 459.2 94.95 459.5 L95 460 Q98.65 465.65 102.75 460.8 L103 460 Q105.95 452.45 106.95 443 L107 442 Q112.2 438.2 116.75 433.75 L117 433 Q115.6 426.35 112.15 416.95 L112 416 111.5 415.95 Q111 411.5 111 407 L112 407 111.9 406 Q110.6 398.1 114 395 M215 519 Q210.25 522.75 203.95 524.85 L203 525 Q197.8 523.2 192.15 521.55 192 521.5 192 521 202.05 515.6 214.9 518.5 L215 519 M295.65 527 L302 527 303 527 308 527 Q311.3 528.55 317.25 527.75 L323.75 527 346.7 527 Q347.4 531.35 350 534 348.5 538.5 344.2 540.4 344 540.5 344 541 L325 542 324 542 323 542.05 Q318.25 542.75 316 541 L315 540.95 287.95 540 283 540 282.95 541 Q282.05 554.55 277 564 L276.2 563.75 264 555 263.85 555.55 Q253.05 558.85 250 552 258.2 541.2 265.35 529.2 265.5 529 266 529 L266 528 274 528 275 528 285 528 286 528 287.95 527.7 295.65 527 M252 651 Q281.25 665.75 306.2 684.75 L307 685 Q328.8 684.3 347.25 682 L363.9 680.1 Q371.4 679.4 381 680 405.65 664.2 420.35 643.25 420.5 643 421 643 L444.05 649.85 445 650 Q437.55 674.55 434.85 697.2 434.55 699.9 433 701 411 714 388.85 721.65 387.4 722.15 388 720 359 733 331.9 747.8 L331 748 Q317.45 721.05 286.15 711.55 286 711.5 286 711 281.85 709.55 279 710.5 L279 710 Q269.2 686.8 245.75 676.35 245.05 676.05 245.25 674.85 245.65 672.85 242 669 247.35 660.85 251.8 651.9 L252 651 M616 445 Q610.9 446.05 601.9 441.2 L601 441 Q596.65 434.3 591.25 428.75 L591 428 Q595.65 418.9 603 413.5 L603 414 Q600.6 418.1 600.5 424 L601 424 Q610.7 435.3 616.5 445 L616 445 M643 432 Q639.15 433.3 639.95 425 L640 424 Q644.75 415.85 647.15 425.45 648.5 431 643 432 M544 582 Q550.5 574 563.95 572.65 L574 572 Q580.2 562.7 594 561.05 L595 561 602.4 574.8 Q602.5 575 603 575 596.25 586.75 584.85 593.8 L584 594 602.3 615.75 603 616 Q607.45 636.5 605.6 655.15 605.5 656 606.95 657.1 L608 658 Q610.65 659.75 609.15 665.05 L609 666 Q601.45 674.45 594.65 683.75 L594 684 Q588.45 676.2 581 675.5 L581 676 Q576.5 677.55 576.05 682 L576 683 Q567.55 692.05 558.75 700.75 L558 701 Q560.25 705.2 561.85 710.05 L562 711 Q573.65 715.4 583.8 721.35 L584 722 Q579.9 730.85 579.05 738 L579 739 Q587.35 741.25 583.55 748.8 582.85 750.15 585 751 587.4 757.4 578 755.5 L578 756 Q579.5 764.5 583.75 770.2 L584 771 Q576.4 774.4 569.85 778.75 L569 779 Q567.2 788.7 564.15 797.05 564 797.5 564 798 559.25 796.75 554 796.05 L553 796 Q544.85 783.65 538.7 768.5 538.5 768 537 768 L531 768 530.9 768.5 Q523.75 769.75 519 768 L518.1 767.8 Q513.1 765.4 509 762 L528.75 737.8 529 737 Q524.95 722.65 528.35 712.45 528.5 712 530 712 529.45 705.5 521.5 702 L522 702 Q522 687.75 537 693.5 L537 693 Q541.1 691.45 539.2 687.9 L539 687 Q531.35 673.65 529.15 660.8 529 660 530 659 529 656 523.2 652.65 L523 652 538.2 638.25 Q538.5 638 539 638 544.6 640.4 548.3 644.75 L549 645 Q553.05 654.4 553.6 662.05 553.75 664.25 552 665 552.5 673.4 558.05 672.1 L559 672 Q565.45 669.45 566.9 662 L567 661 Q574.9 654.9 584.1 650.2 L585 650 Q580.75 632.25 576.1 614.95 L576 614 557.9 606.2 557 606 Q553.45 592.55 544.7 584.4 543.9 583.65 544 582 M372 541 Q363.95 538.55 357.2 534.65 L357 534 Q361.95 533.45 363.7 527.9 365.95 520.65 372 525 377.2 530.8 372.6 540.8 L372 541 M468 514 Q475.4 509.35 469.7 516.3 L468.5 515.35 Q468 515 468 514 M633 601 Q628.25 609.25 620.25 614.35 620 614.5 620 615 615.25 607.25 612.15 597.95 L612 597 Q619.4 589.05 629.65 598.4 L633 601 M502 786 Q511.5 783.75 521.75 790.35 L522 791 Q516 795 508.95 797.85 L508 798 Q504.65 792.85 502.2 786.95 L502 786"/>
  </g>
</svg>