<svg xmlns="http://www.w3.org/2000/svg" xmlns:xlink="http://www.w3.org/1999/xlink" width="2000" height="1000">
  <defs/>
  <g>
    <path stroke="none" fill="#000001" d="M1965.95 158.5 Q1969.9 129.75 1959.5 103.55 1957.4 99.95 1954.85 96.7 1948.05 88.1 1939 82 L1955 62 1943 47 1943.95 23.45 1941.05 25.4 Q1929.75 33.35 1916.7 38 1894 45.8 1870 45 1863.75 38.5 1856.25 33.4 1835.8 19.35 1811.2 16.25 1792.2 14.1 1773.15 16.55 1750.15 19.95 1726.95 19.55 L1683.9 18.7 1635.9 20.25 1592.05 24.9 Q1559.1 27.8 1526.2 26.85 1499.4 26.05 1472.95 22.6 1433.35 17.7 1394 11 1377.45 36.75 1372 67 L1371 33 Q1357.85 59.85 1347 88 L1344.85 56.35 1306 95 1213 78 Q1233.8 67.4 1253.55 55.4 1286.4 35.3 1317 12 L1294.9 11.7 Q1276.55 11.5 1258 11.6 1232.2 11.75 1206.35 12.65 1166.3 14.65 1126.25 14.4 1061.35 14.05 997 7 L992.9 9.55 Q984.45 14.4 974.75 14.35 936 14.2 898 22 891.05 17.85 883.6 14.95 869.15 9.4 853.6 9.5 834.45 9.65 818 19 L788 17 810 40 773 83 704 14 684.5 15.15 Q660.05 17.4 636.45 24.25 625.95 27.2 615.3 28.45 604.9 29.85 594.35 28.95 571.9 27.45 550.25 21 532.5 15.7 514.6 19.9 495.35 24.35 475.6 25.95 L472.35 21.9 Q467.25 15.9 461 11 L424.65 13.55 Q384.6 16.85 345 23 334.25 15.55 321.55 12.15 306.55 8 291.3 10.1 258.9 14.7 226.6 8.05 224.55 12.2 221.7 15.85 218.3 20.35 213.9 24 207.55 29.1 200 32 L198.3 30.25 Q193.4 25 191 18 L177 9 Q161.75 12.65 146.15 14.3 107.2 18.5 68.05 19.45 43.9 20 24 33 34.8 71.75 34.5 110.65 L30 108.5 Q23.45 137.1 20.9 166.3 17.25 207.7 16.9 249.15 16.35 313.4 14.4 377.65 12.85 429.1 16.75 480.4 19.15 512.3 18.3 544.35 17.5 574.3 19.5 604.4 20.7 621.95 24.15 639.3 26 648.7 30.25 657.4 34.6 666.3 41.35 673.65 49.8 682.8 61.25 687.35 84.55 696.45 107.4 706.5 145.8 723.45 187 731 L155 747 188 780 Q181.35 782.95 174.2 783.9 164.65 785.15 155.2 783.15 145.1 780.95 136.25 775.4 115.9 762.65 96.8 747.75 57.55 717.1 10 702 L10.05 708.4 10.3 740 Q10.45 762.1 10.95 784.2 11.65 813.2 9.4 842.3 5.65 891.7 11 941 36.3 963.25 69.55 969 85.1 971.75 101.05 971.55 128.1 971.2 154.9 968.15 201.7 963.4 248.7 961.9 283.2 960.5 317.6 964.45 359.15 969.05 399.75 978.7 419.65 983.35 440.3 982.8 L620.3 975.45 Q704.65 972.9 788.2 982.6 822.15 986.5 856.2 986.5 918.95 986.5 981.3 978.1 1047.55 969.2 1113.1 981.7 1176.15 993.7 1237.55 974.7 1275.4 962.8 1314.8 964.3 1331.75 965.45 1348.45 963.5 1379.65 960.25 1411.3 963.75 1434.05 966.6 1456.65 970.5 L1495.2 976.15 Q1508.75 977.85 1522.2 975.55 1539.15 972.85 1556.35 973.15 1573.6 973.5 1590.3 977.3 1606.45 980.8 1622.6 981.7 1636.65 982.35 1649.4 976.8 1668.2 968.7 1680 952 1700.9 945.7 1722.35 941.85 1772.25 933.2 1822.45 939.7 L1931.6 953.3 Q1938.65 954 1945.55 952.35 1952.4 950.9 1958.25 947.35 1963.35 944.3 1967.4 940 1971.85 935.35 1974.85 929.45 1977.7 923.8 1978.95 917.6 1981.75 903.55 1981.85 889.5 1982.15 849.4 1984.65 809.35 1987.4 765 1982 721 L1976.3 720.1 Q1956.55 717 1936.45 717.6 1916.6 718.35 1897.15 722.5 1887.45 724.4 1878.35 728.25 1870.3 731.6 1863.45 736.65 1857.3 741.25 1855.35 748.55 1853.3 756.4 1850.35 763.65 1847.9 769.75 1842.95 774.05 1831.15 784.15 1815.35 781.85 1821.85 774.9 1826.65 766.6 1834.6 752.75 1837 737 1834.65 734.1 1831.7 731.9 1824.25 726.45 1815 724 L1820.85 722 Q1841.3 714.5 1859 702 1867.45 703.35 1876.05 703.4 1886.65 703.5 1897 702 1907.5 700.5 1917.5 697.45 1930.75 693.4 1941.3 684.65 1957.25 671.35 1967.9 653.25 1983.45 626.75 1989.95 596.55 L1988.5 595 Q1986.25 592.7 1983.4 591.05 1977.9 587.75 1972 586 L1981 566 Q1984.05 565.4 1986.65 563.75 L1989 562 1988.8 546 1988.15 489.9 1987.45 433.7 Q1987.1 403.9 1986.4 374.25 1985.75 345.1 1983.25 316.1 1980.85 288.05 1973.1 261.1 1966.05 236.5 1964.25 211 1962.4 184.65 1965.95 158.5 M1657 288 Q1652.05 316.6 1639.6 344.3 1630.4 364.8 1626 387 1614.3 387.65 1603.3 383.55 1613.35 336.7 1642.3 300.15 1647.95 293 1655.45 287.85 L1657 288 M1582 593 Q1586.6 596.85 1589.65 602.25 1594.95 611.4 1595 622 L1608.95 630.6 1597 643 Q1591.55 641.45 1587.25 637.9 1578.25 630.3 1574.55 619.15 L1574 619 1570 587 1582 571 1582 593 M1834 577 Q1836.6 576.65 1839.1 575.9 L1846.05 573.9 1849.55 572.25 1852.95 570.45 Q1848.9 562 1841.8 556 1828.5 544.8 1813.45 536.6 1788.85 522.65 1761.3 515.7 1734.35 508.7 1706.7 512.9 L1650.3 521.05 1643 522 1663.6 503.1 Q1694.65 499.55 1725.95 501.6 1758.35 503.7 1788.95 515.1 1810.6 523.05 1829.3 536.5 1841.1 545 1852.4 554.1 1867.25 566 1881 579 1869.8 586.8 1856.9 590.65 1832.4 597.85 1807.05 594.4 L1833.75 577.65 1834 577 M2000 1000 L0 1000 0 0 2000 0 2000 1000 M1152.35 118.45 L1166 114 1205.6 164.95 1202 167.7 1198.3 170.3 Q1174.15 187.15 1146.35 196.65 1119.9 205.5 1094.35 216.45 1088.4 219.1 1082.8 222.7 L1082.15 222 1083.4 213.05 1079.3 214 1076.35 214.7 Q1067.8 216 1059.15 214.55 L1051 213 1041 141 1050.85 140.15 1060.6 139.15 Q1104.45 133.9 1146.65 120.35 L1152.35 118.45 M987.5 200.7 Q956.85 195.25 927.85 183.35 902.85 173.05 881.65 155.8 L874.1 149.45 902 97 912.35 100.55 Q950.15 113.4 986.7 129.6 L995 202 987.5 200.7 M1051 360 L1076 384 1076 420 1064.95 416.7 1053.75 414 Q1038.8 410.7 1023.55 410.3 993.75 409.55 967.65 423.75 955.65 430.2 946 440 L930.1 440.35 Q925.75 440.4 921.55 439.45 907.25 436.7 893.95 430.7 L881 425 928 407 916.35 397.85 904.5 388.95 Q892.4 380.25 879.05 373.4 L897.65 376.5 915.65 379.25 Q934.5 381.85 953.4 383.5 L960 384 960 382 963.75 379.3 974 383 956 361 1018 385 998.7 352.25 1051 375 1051 360 M1146 347 Q1155.15 364.5 1157.6 383.85 1162.4 422.3 1152 460 1154.3 465.05 1154.95 470.5 1156.45 483.75 1155 497 1168.5 516.5 1170.85 539.9 1173.2 562.9 1153 573 L1151 556 1152.55 554.2 Q1155.6 550.9 1157.75 547.05 1159.5 543.95 1160.45 540.45 L1159.8 539.1 Q1158.65 537.25 1156.45 536.7 1154.6 536.3 1153 537.2 1145.7 541.2 1143 549 1138.3 539.1 1130.75 531.1 1123.4 523.25 1114 518 L1107 490 1101.25 490.85 Q1099.7 491.25 1098.3 492 L1093.45 494.95 1093.4 497 Q1093.25 503.85 1095.25 510.4 L1097 516 1095.05 519.8 Q1092.8 524.35 1093.85 529.35 1095.25 535.75 1098.35 541.9 L1098.25 542.55 1096.6 543.2 Q1095.5 543.7 1094.6 544.5 1093.8 545.1 1093.45 546.05 1092.95 547.2 1092.75 548.45 L1092.65 550 Q1099.75 554.5 1097.8 562.5 1095.75 570.8 1087.3 565.2 1075.35 557.25 1071 543 L1082 527 Q1080.5 522.4 1077 518.9 1073.55 515.55 1068.75 515.15 1055.2 514.9 1047.45 526.95 L1043 503 Q1032 505 1021.8 509.35 1012.45 513.35 1004 519 L1043 482 1040.35 481.35 Q1035.15 480.05 1029.8 479.75 L1021 480 1046.95 461.45 Q1018.75 470.65 995.1 488.6 992.2 484.15 989.8 479.5 986.65 473.35 984 467 970.35 466.75 957.25 463.7 L951.05 462.4 955 443 Q975.35 429.35 999.25 424.2 1037.45 416 1072.65 431.75 1076.4 433.4 1078.6 436.95 1084.5 410.65 1087 384 L1093 420 1118.7 358.35 Q1112.9 387.05 1117.15 415.85 1119.35 430.8 1124.65 445 1127.7 442.6 1129.1 438.85 1131.25 433 1130.55 426.85 L1129 413 1141.95 422.6 Q1148.05 403.7 1148.3 383.8 1148.5 365.25 1146 347 M865 487 Q866.65 481.15 872.35 479.4 L874 479 Q875.15 482.5 873.3 485.5 871.15 489.05 866.9 488.9 L865 487 M879.3 496.1 L885 489 Q910.55 503.3 938.2 513.2 L946 516 944.95 519.6 Q944.15 522.35 942.9 524.8 L939.25 530.85 937.5 533.05 936.45 533.95 Q938.1 536.8 940.45 539 943.95 542.35 948.5 544.05 954.3 546.1 960.65 546.2 965.5 546.25 970 545 L975 566 Q966.05 570.75 960 578.85 948.15 594.65 943.15 613.75 941.05 621.8 940 630 928.9 615.5 921.3 598.9 915.1 585.35 911.8 570.75 L911 567 Q908.5 567.9 905.45 568.1 L897.85 567.8 Q894.75 567.2 891.9 566.15 888.85 565 886.25 563.6 883.5 562 881 560 L884 573 Q881.2 574.45 878 575 L869.5 575.3 864 574.15 Q861.5 573.4 859.3 572.15 857.05 570.8 855 569 L826 589 Q824.35 578.6 827.7 568.65 831.55 557.1 839.7 548.1 846.8 540.25 856 535 865.1 514.05 879.3 496.1 M796 704 Q796.4 725.2 806 744 847.9 762.7 867.6 803.45 873.7 816.05 875 830 851.6 810.4 840 782 L785.05 771.4 772.6 747.2 772 747 Q776.2 712 767 678 791.2 662.7 823.2 665.6 L834 665 Q842.45 653.35 848 640 L858 677 895 688 865 722 Q854.95 713.6 846.7 703.25 L846 703 842 687 Q825.5 685.35 809 687 801.8 693.1 797.7 701.5 L796.55 703.95 796 704 M914 741 L944 719 Q966.75 732.25 988.85 746.75 1013.2 762.55 1040.9 770.2 1070.85 778.4 1099.7 768.25 1105.65 766.15 1111 763 L1138 764 1133.2 768.9 1126.25 775.2 1121 779.25 1120 780 1112.4 807 1108 788 1095 806 1093.4 791.05 Q1077.8 792.6 1062.2 790.85 1038.6 787.8 1018.3 775.25 983.7 753.9 944.6 743.9 929.6 739.95 914 741 M1137 582 Q1160.5 585.75 1182.25 595.65 L1185 597 1189 624 1180 607 1170 623 Q1154.95 610.2 1137.7 600.4 1135.55 599.15 1133.95 597.45 1121.3 583.8 1118.3 564.7 1115.15 544.8 1106 527 1130 539.6 1134.2 571 1134.95 576.55 1137 582 M1126.65 507 L1139 508 1126 490 1126.65 507 M1095.15 668.4 Q1067.05 663.6 1038.6 665.4 1017.6 665.85 997 668 L981 657 Q979.75 649.7 981.25 642.45 982.65 635.6 986.9 630.1 995.15 619.4 1007.9 614.8 L1013 613 1045.6 638.95 Q1071.7 639.5 1096.95 645.4 1104.95 647.25 1112.5 649.95 1125.05 654.25 1136.5 660.65 L1144 665 1156 691 Q1142.7 681.55 1127 676.45 1111.3 671.35 1095.15 668.4 M362 284 Q376.9 306.65 388.4 331.2 399.3 354.55 407 379 L383 381 Q380.45 356.75 373.3 333.55 367.7 315.35 359.3 298.45 355.95 291.6 352 285 L362 284 M168.15 559.7 Q162.6 565.95 158 573 181.05 582.65 201.95 596 174.3 596.6 147.65 590.05 137 587.55 129 580 153.65 558.4 180.3 539.45 203.5 522.9 230.55 514.4 258.85 505.55 288.65 503.8 316.3 502.05 344 504 L367.3 524.8 Q327.65 512.85 286.15 510.2 258.6 509.1 233.1 518.85 207.35 528.75 184.7 544.8 175.55 551.3 168.15 559.7 M416.95 585.6 Q427.05 610.85 413.4 634.3 404.35 649.9 387.1 649.95 398.45 617.05 406 583 L416.95 585.6"/>
  </g>
</svg>