<svg xmlns="http://www.w3.org/2000/svg" xmlns:xlink="http://www.w3.org/1999/xlink" width="2000" height="1000">
  <defs/>
  <g>
    <path stroke="none" fill="#000001" d="M1949 190 L1948 190.1 Q1931.3 193.2 1917.2 194 L1917.85 193.75 Q1932.55 184.55 1947 175 L1946.85 174.05 Q1942.95 162.1 1940 149 L1939.15 148.75 Q1928.35 141.2 1917 134 L1917.05 133 Q1917.6 124.2 1914 120 1912.05 119.5 1911 118.2 1899.5 103.5 1893 84 L1892.45 83.85 Q1890.4 77.55 1898 71 L1897.95 70 Q1896.2 49.25 1883 30 L1882.15 29.8 Q1868.5 21.5 1856 12 L1855.05 12.15 Q1799.55 28 1748 12 L1747.75 12.75 Q1735.85 25.85 1725 40 L1724.05 40.15 Q1697.7 47.2 1670 53 L1669.15 52.75 Q1642.4 35.55 1615 19 L1614 19.05 Q1578.05 24.55 1544 32 L1543 31.9 Q1499.65 23.35 1465 6 L1465 5.5 Q1426.9 19.85 1389 6 L1388.05 6.15 Q1365.1 15.1 1341 23 L1340.05 22.8 Q1328.5 18 1315 15 1315 15.5 1314.8 15.6 1289.85 27.85 1266 41 L1265.75 40.2 Q1257 30.5 1249 20 L1248.15 20.25 Q1233.6 29.6 1216 36 1208.25 34.25 1200.85 33.7 1150.2 29.7 1100 47 L1099.05 46.9 Q1067.8 38.7 1038 29 L1037.75 29.65 1020 42 1019.75 41.2 1002 20 1001.15 20.25 Q992.45 26 982 30 L981.05 29.85 Q922.9 8.5 861 29 L860.1 28.8 Q845.5 22 828 18 L827.05 18.15 Q803 27 779 36 L778.1 35.8 Q758.1 25.4 734 19 L733.8 19.65 Q722.6 26.6 711 33 L710.15 32.75 Q697.95 25.05 685 18 L684.1 18.2 Q675.95 22.4 667 26 L666 25.95 Q648.9 23.6 633 20 L632.15 20.2 Q624.45 24.95 620 33 L620 33.5 Q611.95 31.45 602 21 L601.05 21.15 Q565.4 31.85 538 18 L537.1 18.2 Q524.75 25.3 510 30 L509.1 29.8 Q494.25 23.25 479 17 L478.05 17.15 Q448.85 26.9 429 18 L429 17.5 Q411.4 18.5 390 26 L389.1 25.8 Q366.4 15.1 347 23 L347 23.5 Q331.15 18.8 316 8 L315.05 7.85 Q307.4 4.75 301 12 L300 12 Q285.85 12.5 275 0 L474 0 673 0 872 0 1071 0 1270 0 1469 0 1668 0 1867 0 2000 0 2000 199 2000 398 2000 597 2000 796 2000.05 995 2000 1000 1801 1000 1602 1000 1518 1000 Q1518 999.5 1518.25 999.2 1522.8 993.8 1528 989 1555.4 991.55 1579.2 984.75 1594 980.5 1609 980.5 1668.85 980.5 1732 963 1732.5 963 1732.75 963.25 1744 974.5 1757 984 L1757.85 983.75 Q1765.15 979.15 1774 976 L1774 975.5 Q1788.25 985.75 1809 990 L1809.95 989.85 Q1832.85 980.85 1854 970 L1854.55 969.85 Q1858.2 959.2 1862 949 L1862 948.5 1879 948 Q1883.65 949.2 1881.65 945.85 1872.25 930.35 1876 920 1888.6 911.95 1878.4 895.75 1863.85 872.7 1870 852 L1869.8 851.1 Q1865.4 841.6 1857 831 1857 830.5 1857.25 830.3 1865.75 823.25 1873 815 1870.95 810.5 1868.35 806.4 1857.5 789.3 1871 785 1872 784 1872.25 782.85 1875.35 769.6 1868 751 1868 750.5 1868.25 750.2 1876.95 739.75 1875 728 1872.95 726.5 1873.15 725.5 1878.85 700.8 1894 674 L1893.9 673.05 Q1887.7 647.8 1881 623 L1881.65 622.75 1893 607 Q1892.5 607 1892.4 606.8 1884.8 592.7 1877 579 L1877.5 578.95 Q1881 555 1887 529 L1887.7 528.75 Q1892.35 523.35 1898 519 1898 518.5 1898.25 518.3 1903.9 513.8 1909 523 L1909.55 524 Q1918.1 516.05 1922 493 L1921.75 492.3 1888 464 1887.1 464.2 Q1870.9 473.15 1862 466 L1861.75 465.2 Q1850.65 452.35 1826 453 L1825.8 452.1 Q1820.6 440.9 1817 428 L1817.65 427.75 Q1829.75 409.75 1843 393 L1843.95 392.85 Q1860.95 385.95 1877 383 L1877.9 383.2 Q1889.6 388.9 1901 395 1908.4 391.9 1913.55 386.6 1929.45 370.2 1949 367 L1949 367.5 Q1956.4 356.9 1960 342 L1960.95 341.85 Q1971.3 337.8 1981 333 L1980.85 332.05 Q1977.65 323.3 1975 314 L1974.25 313.75 1947 286 1946 285.9 Q1932.95 283.1 1922 278 L1922.95 277.9 Q1934.95 274.95 1945 270 L1945.5 270 Q1946.1 249.05 1964 246 L1964.55 245.85 Q1968 235.3 1962 219 L1962.2 218.1 Q1966.45 209.95 1970 201 L1969.1 200.8 Q1959.25 195.25 1949 190 M1853 146 Q1857.2 139.7 1860.8 132.9 L1861 132 Q1878.1 152.4 1901.5 166 L1901 166 Q1895.05 174.55 1883.95 177.85 L1883 178 Q1871.3 170.7 1858.2 164.6 1858 164.5 1858 164 1853.95 157.05 1853.05 147 L1853 146 M1771 239 Q1784.75 263.25 1809.8 276.4 1810 276.5 1810 277 1820.8 273.8 1831.05 270.15 L1832 270 Q1841.75 277.75 1850.25 286.75 L1851 287 Q1848.55 307.55 1833.9 315.8 L1833 316 Q1830.75 320.85 1835.75 327.2 L1836 328 Q1822.25 339.25 1809.25 351.25 1809 351.5 1809 352 1788.9 346.55 1769.15 340.55 1769 340.5 1769 340 1757.9 328.6 1748.65 315.25 1748.5 315 1748 315 1735.1 320.6 1722.9 326.8 L1722 327 1706.6 298.2 Q1706.5 298 1706 298 1683.15 308.15 1661.9 319.8 L1661 320 Q1642.45 317.6 1625.95 313.15 L1625 313 Q1618.95 295.6 1616.05 275 L1616 274 1639.75 250.75 1640 250 Q1688.85 237.5 1738.4 243.6 1746.05 244.5 1754.95 242.8 1763.15 241.15 1771 239 M1923 236 Q1914.85 240.85 1908.7 247.75 L1908 248 Q1896.5 223.05 1875.25 207.65 1875 207.5 1875 207 1899.2 214.3 1913.3 231.75 1913.5 232 1914 232 1923.2 226.45 1923 235 L1923 236 M1891 294 Q1898.9 298.7 1907.55 307.5 1909.35 309.35 1911 308 1916.3 311 1911.75 324.8 L1913 326 Q1929 326.8 1925.2 334.1 L1925 335 Q1899.45 352.7 1875.2 343.5 1871 341.95 1870 337 1876.1 311.6 1890.3 294.25 1890.5 294 1891 294 M1474.2 98.15 L1474 99 Q1460.25 107.7 1449 108.5 L1449 108 Q1447.35 86.4 1430.9 93.8 L1430 94 Q1421.05 91.9 1411.85 85.25 L1411 85 Q1406.8 96.75 1395.15 101.45 1395 101.5 1395 102 1394.2 125.15 1387.7 132.75 1387.5 133 1387 133 1381.35 122.45 1365 127.5 L1365 127 1359.5 96.1 1359 96 1331.25 78.65 Q1331 78.5 1331 78 1356.15 70.15 1370.75 51.8 L1371 51 Q1386.75 54.25 1400.05 59.8 L1401 60 Q1413.9 53.9 1427.1 48.2 L1428 48 Q1456.55 60.45 1485.8 72.45 1486 72.5 1486 73 1482.05 85.1 1474.2 98.15 M1479 140 Q1477.85 155.8 1473.15 173.05 1473 173.5 1473 174 L1462.2 149.9 1462 149 Q1470.4 144.85 1478.15 140.2 L1479 140 M1373 166 Q1391.35 174.2 1380.2 201.05 L1380 202 Q1375.75 185.25 1373.05 167 L1373 166 M1437 235 Q1430.6 249.35 1416.2 240.65 L1416 240 Q1422 220.5 1426.9 199.95 L1427 199 Q1437.6 216.8 1437.5 235 L1437 235 M1303 626 Q1330.45 627.55 1351.1 641.4 1352 642 1352 644 1349.5 651.5 1346.2 658.1 L1346 659 Q1350.6 670.4 1355.8 681.1 L1356 682 Q1346.65 697.65 1338.2 714.1 L1338 715 Q1350.3 729.75 1363.25 743.75 L1364 744 Q1335.4 759.9 1305.9 774.8 L1305 775 Q1290 771 1275.95 766.15 L1275 766 Q1267.65 747.35 1261.15 727.95 L1261 727 1269.85 699.95 1270 699 Q1266.45 689.55 1261.25 681.85 L1261 681 Q1289.75 661.75 1302.45 626.15 L1303 626 M1604 716 Q1617.7 662.65 1629.5 607.1 L1630 607 Q1640.5 611 1650.1 615.8 L1651 616 Q1640.25 674.75 1623.15 727.05 L1623 728 Q1612.1 723.95 1604.25 716.75 1604 716.5 1604 716 M1544 791 Q1553.25 798.75 1563.15 805.75 L1564 806 Q1513.95 852.5 1463.25 898.3 1463 898.5 1463 899 1455.2 889.3 1449.2 877.9 L1449 877 Q1496.75 834.75 1543.25 791.25 1543.5 791 1544 791 M1723 414 Q1700.5 464 1679.2 515.05 L1679 516 Q1664.95 514.5 1654.2 509.6 1654 509.5 1654 509 1676.7 457.25 1698.8 404.9 L1699 404 Q1711.3 408.2 1722.1 413.8 L1723 414 M1479 982 Q1491.05 995.95 1513.9 999.5 L1514 1000 1432 1000 1233 1000 1034 1000 835 1000 636 1000 437 1000 437 999 Q454.25 988 470.15 998.75 L471 999 Q475.7 989.2 492 990.95 L493 991 Q514.95 975.95 537.15 961.25 537.5 961 538 961 L558.05 967.85 559 968 Q563 978.95 570.05 981.85 L571 982 Q584.05 972.85 601.15 984.75 L602 985 621.05 979.15 622 979 Q634 982.5 645.85 986.45 L646 987 Q689.45 971.45 729.05 986.85 L730 987 Q745.45 977.6 756 978 L757 978 Q766 985.95 781.2 972.25 L782 972 Q794.65 955.5 789.15 938.95 L789 938 Q789.7 929.65 796.75 922.75 L797 922 Q788.9 909.75 778.05 910.5 L778 911 Q768.15 918.6 758.5 917.15 755.75 916.75 752 919 747.75 923.95 743.65 918.25 743.5 918 743 918 734.1 902 719.95 907.8 L719 908 Q708.1 896.7 723.8 889.6 724 889.5 724 889 720.1 886.45 703 889.9 L702 890 Q688.5 882 680.25 868.85 L680 868 Q686.35 857.85 694.25 849.25 694.5 849 695 849 744.15 859.8 794.15 862.1 800.95 862.45 809 861 828 870.45 844 872.5 L844 872 Q849.45 850.35 866.75 865.3 L867 866 Q872.95 863.9 876.8 854.9 L877 854 Q889.9 858.6 903.85 862.45 L904 863 Q910.1 883.45 913.9 906 L914 907 Q900.7 915.2 885.15 921.45 885 921.5 885 922 895.4 929.6 906.15 936.75 L907 937 902.1 961 902 962 Q893.35 971.85 887.2 984.1 L887 985 Q904.1 986.9 924.05 982.1 L925 982 Q961 996 1011 995.7 1066.6 995.4 1117 996.5 L1121 997 Q1136.7 985.2 1164.7 982.6 1181.1 981.1 1195.2 973.5 1201.15 970.3 1204 975 1214.6 993.2 1218.5 973.1 L1219 973 Q1231.9 964.4 1250 961.1 L1251 961 Q1259.8 973.45 1268 972.1 L1269 972 Q1274.45 963.8 1283 969.5 L1283 969 Q1291.05 964.05 1298.2 958.25 1298.5 958 1299 958 1323.05 955.45 1335.75 969.25 L1336 970 Q1349.15 966.95 1360.8 973.4 L1361 974 Q1365.75 979.4 1370.3 974.25 1370.5 974 1371 974 1376.3 969.8 1382.15 966.2 L1383 966 Q1413.5 976 1445.1 989.8 L1446 990 Q1466.3 986.8 1479 981.5 L1479 982 M1381 877 Q1365.7 890.7 1350.75 904.75 L1350 905 Q1330.85 897.9 1318.2 905.35 1318 905.5 1318 906 1312.35 898.65 1302.95 895.15 L1302 895 Q1287.9 904 1278.9 900.2 L1278 900 Q1274.3 912.7 1262.25 904.65 1262 904.5 1262 904 1250.15 905.25 1239.85 912.75 L1239 913 Q1219.6 906.4 1201.9 898.2 L1201 898 Q1193.85 882.65 1187.2 866.9 L1187 866 Q1200.8 860.3 1214.1 854.2 L1215 854 Q1222.6 841.6 1231.75 830.8 L1232 830 Q1249.35 834.65 1265.05 840.85 L1266 841 Q1288.6 829.25 1308 829 L1309 829 Q1312.85 837.45 1321.9 835.5 L1322 835 Q1333.8 830.3 1345.1 825.2 L1346 825 Q1362 834.5 1376.2 845.75 L1377 846 Q1379.6 860.4 1380.95 876 L1381 877 M1043 141 Q994.25 123.75 950.2 101.6 950 101.5 950 101 952.85 90.85 954.9 80 L955 79 Q1008.3 100.75 1061.05 122.8 L1062 123 Q1053.5 132.5 1043.25 140.3 1043 140.5 1043 141 M1113 237 L1133.75 222.65 1134 222 Q1146.75 266.25 1158.85 311.05 L1159 312 1138.25 325.35 Q1138 325.5 1138 326 1124.2 283.35 1113.1 237.95 L1113 237 M981 307 Q968.75 306.75 964.2 315.1 L964 316 Q956.15 318.65 949.85 322.75 L949 323 Q944.8 336.8 942.1 352 L942 353 Q917.7 364.65 908.2 381.1 L908 382 Q910.7 398.45 890 406.55 882.65 409.45 879 405 870.1 399.15 867.55 389.1 L867 389 Q851.95 386.05 844.25 375.8 844 375.5 844 375 848.75 365.75 852.8 355.95 L853 355 Q859.75 350.25 866.75 345.65 L867 345 Q860.5 340 849.2 334.6 L849 334 Q850.05 319.55 853.9 302.95 L854 302 Q871.8 289.95 886.4 292.15 L888 292 Q890.2 303.35 895.75 297.75 L896 297 Q904.85 288.35 912.75 278.8 L913 278 Q941.5 282 968 287.9 L969 288 Q981.7 297.55 981.05 306 L981 307 M846 182 Q862 187.4 869.35 184.45 869.7 184.3 868 184 860.9 175.65 865.8 166.9 L866 166 886.05 159.15 887 159 Q897.5 164 906 165.5 L906 165 Q918 159.05 938.05 168.95 943.4 171.6 950 173 959.35 189.65 969.35 205.8 L970 206 Q961.6 210.6 951 212.9 L950 213 Q937.35 203.25 931.25 203.95 931.05 203.95 932 205 938.2 213.7 931.9 216.8 L931 217 Q903.65 231.65 876 235.9 L875 236 Q860.4 227.5 844.85 238.75 L844 239 Q841.8 219.2 825.95 213.15 L825 213 Q818.8 210.2 818.05 202 L818 201 Q828.7 188.7 845.05 182.15 L846 182 M803 76 Q799.7 88.2 797.1 101 L797 102 Q742.1 119.1 687.95 136.85 L687 137 674.2 115.85 674 115 Q737.1 94.6 802.05 76.15 L803 76 M790 672 Q804.3 678.45 817.05 673.2 L818 673 Q819 684.5 825.75 690.3 L826 691 Q835.15 694.8 843.15 699.8 L844 700 Q852.9 727.6 862.85 754.05 L863 755 Q852.7 769.2 842.65 783.75 L842 784 Q817.9 795.95 800.85 785.25 L800 785 Q787.35 786 773.85 795.75 L773 796 Q765.4 787.6 760.2 776.9 L760 776 Q740.65 777.65 723 780.9 L722 781 706.25 769.65 Q706 769.5 706 769 716.3 753.8 730.1 747.2 L731 747 Q750.4 759.45 739.2 738.9 L739 738 Q745.2 728.6 754.15 731.85 L752 731 Q741 719.55 751.8 701.85 L752 701 789.2 672.25 790 672 M1170 433 Q1158.45 479.95 1144.55 524.85 L1144 525 Q1132.75 520.25 1124.25 507.85 L1124 507 Q1136.05 466.55 1146.45 424.1 L1147 424 Q1157.8 428.65 1169.05 432.85 L1170 433 M1077 631 Q1087.8 637.65 1097.2 645.75 L1098 646 Q1082.25 688.75 1067.15 732.05 1067 732.5 1067 733 1053.25 730.75 1042.2 725.6 1042 725.5 1042 725 L1076.85 631.95 1077 631 M571 181 Q578.65 191.35 586.75 201.2 L587 202 528.65 284.75 528 285 Q515.1 281.95 503.15 277.55 503 277.5 503 277 537.25 229.75 570.75 181.85 L571 181 M365 133.5 Q354.7 137.9 364.25 143 L366.2 143.25 Q358.05 144.05 358 146 357.2 158 376 152.5 L376 153 Q358.65 162.1 355.15 148.95 L355 148 Q353.9 132.4 366.1 131.75 387.25 130.6 365 133.5 M332 146 L331.05 145.85 Q308.5 137 282 132 282 132.5 282.25 132.8 287.3 139.7 293 146 L293.1 147 Q294.65 154 286 160 L285 160.5 Q306.8 157.3 332 146 M342 146 Q314.65 157.65 284.15 166.45 284 166.5 284 167 275.1 196.6 263.2 223.1 L263 224 Q251.4 196.6 244.1 165 L244 164 Q216.4 155.1 190.15 144.55 190 144.5 190 144 216.15 136.15 243.05 129.1 L244 129 259.85 76.95 260 76 Q272.55 99.45 281.45 126.85 L282 127 341.85 145.45 342 146 M524 391 Q543.65 403.85 567.05 412.85 L568 413 Q577.15 437.8 582.45 460.35 582.8 461.8 581 463 570.55 471.55 560.7 460.25 560.5 460 560 460 L556.5 453.25 556.4 454 555.4 454 Q520.3 455 493.4 455 508.7 447.8 527.45 444.2 543.5 441.15 542.45 434.35 529.65 420.9 511.2 411.6 511 411.5 511 411 518.7 403.95 519.8 395.5 520.1 393.1 524 391 M274 0 L273.85 0.55 Q248.65 10.75 234 3 L233.1 3.2 Q222 8.5 214 17 L213 17.1 Q169.55 24.05 128 33 127.5 33 127.3 33.25 104.45 62.95 80 91 L79 91.05 Q69.35 92.45 69 99 L69.5 99 Q69.95 123.55 55 147 L54.1 147.2 Q47 150.5 40 154 67.8 195.65 65.25 249.85 64.5 265.5 60 280 68.8 314.2 78.85 347.05 L79 348 Q72.65 358.15 67.6 369.8 L67 370 Q77.8 390.2 89.75 409.15 L90 410 Q84.1 418.1 76.8 424.75 L76 425 Q80.35 447.65 86.9 473.05 L87 474 Q74.6 490.1 62.65 506.75 L62 507 Q63.5 518 66.85 527.05 L67 528 Q55.95 550.9 54.95 569 54.9 570.65 57 570 66.55 573.55 64.15 580.05 64 580.5 64 581 60.3 587.8 56.25 594.15 56 594.5 56 595 66.6 612.25 58.75 619.75 L58 620 Q61.75 637.85 79.75 656.25 L80 657 Q63.85 674.8 59.8 693.4 59.55 694.45 60 697 62.25 705.25 48.2 711.4 L48 712 Q61.15 723.85 75.75 734.35 L76 735 Q62.45 754.45 49.25 774.15 49 774.5 49 775 55.95 791.55 64.4 806.8 L65 807 58.15 831.05 Q58 831.5 58 832 72.5 845 86.25 858.75 L87 859 Q82.7 868.7 79.15 879.05 79 879.5 79 880 93 899 118.05 906.85 L119 907 Q143.5 935.4 148.9 971.3 149.2 973.2 149 977 143.95 982.55 151.9 980.55 L152 980 169 976.1 170 976 Q182 987 194.75 997.3 L195 998 Q214.3 993.3 232.05 987.15 L233 987 Q245.75 990.25 256.1 995.8 L257 996 Q295.8 984.8 336.65 992.55 345.2 994.2 354.1 992.7 382.45 987.95 409 982 L419.75 999.15 420 1000 398 1000 199 1000 0 1000 0 995 0 796 0 597 0 398 0 199 0 0 199 0 274 0 M267.5 59.5 Q271.4 48.25 274 47.15 270.3 64.8 264 65.5 L264 65 Q262.2 60.3 260.15 58 252.8 49.4 251.6 60.9 250.4 72.35 250 61 252 41.5 254.5 46.5 257 51.45 263.45 60 265.8 61.55 267.5 59.5 M200 144 Q200 144.5 200.2 144.6 224.6 155.4 242.55 157.95 L242.2 157.75 Q227.5 145.7 243 135 L244 134.5 Q225 136.5 200 144 M261 87 L260.85 87.95 Q255 108.5 248 128 L248 128.5 Q255.6 123.6 262 117 L262.05 116.5 Q268.8 115.5 274 126 L275 126.5 Q271.45 109.05 261 87 M183 131 Q177.25 149.05 168.05 148.5 L168 148 Q164.35 131.7 158.55 152.85 L158 153 Q153 145 152.05 133 L152 132 Q156.25 147.1 158.05 143.1 165.25 127.55 169 143 173.8 149.25 178.8 133.6 179.75 130.75 183 131 M250 168 L250.1 169 Q255.6 192.9 263 215 263 214.5 263.15 214.05 271.75 190.25 280 166 279.5 166 279.25 166.25 271.6 173.6 263 180 L262.2 179.75 Q255.7 174.3 250 168 M254 147 L254.2 147.9 Q260.25 158.95 268 155 269.35 152.35 269.3 151.15 268.15 131.95 254 147 M267 245 Q263.9 252.5 248 256.5 L248 256 Q264.1 251.1 262.5 243.1 L262 243 Q250.2 232.3 270 232 251.6 236.45 266.8 244.4 L267 245 M285 432 Q303.6 420.1 327 418.05 L328 418 Q347.2 398 376 401.95 L377 402 Q373.05 414.9 376.3 423.3 L376 425 Q366 438.5 379.25 459.45 382.3 464.3 377 471 373.5 476.95 365.8 470.25 365.5 470 365 470 350.25 450.35 340.8 435.5 340.5 435 341 434 341.6 427.95 331.8 438.85 325.45 445.95 312 443 305.15 447.15 298 450.5 L298 450 Q294.1 438.9 285.25 432.65 285 432.5 285 432 M225 528 Q244.35 538 239.15 556.05 239 556.5 239 557 239.15 566.6 252.8 572.4 253 572.5 253 573 263.35 589.8 244 592.9 L243 593 Q236.7 592.3 233.25 588.75 233 588.5 233 588 225.35 571.15 217.2 554.9 L217 554 Q221 541.5 224.45 528.1 L225 528 M195 677 Q210.65 684.6 210.5 703 L210 703 Q212.75 709.75 218.8 713.35 219 713.5 219 714 221.75 723.25 223.9 733 L224 734 Q212.55 731.45 199.9 725.2 L199 725 Q191.8 717.2 189.1 705 L189 704 Q192.2 691.2 194.5 677.1 L195 677 M320 772 Q327.75 761.9 338 759.5 L338 760 Q349.55 767.2 355.75 760.75 L356 760 Q354.2 743.95 364.75 735.7 L365 735 Q378.3 741.2 377.5 762 L378 762 Q404.6 753.6 421.3 735.25 422.7 733.7 422 730 428.65 730.35 430.95 745 L431 746 Q428.5 753 425.6 759.8 425.5 760 425 760 396.9 779.9 355 785.95 L354 786 320.15 772.55 Q320 772.5 320 772 M513 565 L513 564.5 Q486.9 564.45 475 584 L474.95 585 Q473.15 603.1 484 613 L485 613.05 Q502.6 615.5 517 600 L517.55 599.85 Q523.6 579 513 565 M510 555 Q530.85 559.55 529.5 571.95 L529 572 Q534.55 577.95 535.9 583.05 L536 584 Q532.75 593.75 529.15 603.05 529 603.5 529 604 507.55 619.05 486.9 629.8 L486 630 Q473 614.35 448.15 623.45 448 623.5 448 624 438.45 622.45 431.25 613.8 431 613.5 431 613 436.65 600.65 452 598.1 L453 598 Q471.35 564.35 509.05 555.1 L510 555 M424 688 Q429.1 662.2 431.05 689.2 431.9 700.55 426.1 692.95 424.55 690.9 424 688 M481 665 Q488.65 656.7 481.85 673.75 479.65 679.3 480.7 669.95 L481 665 M378 634 Q375.15 648.15 361 650.9 L360 651 Q352.8 635.2 332.05 632.5 L332 632 Q341.5 615.05 355.6 619.4 356 619.5 356 621 356.95 636.55 379.25 632.45 380.6 632.2 378 634 M593 640 Q584.4 652.8 588.9 673 L589 674 Q573.7 694.2 546.15 702.45 546 702.5 546 703 532.9 698.1 519.15 693.55 519 693.5 519 693 528.15 684.7 532.25 674.75 L532.65 678.15 Q533.1 681.6 533 686 547.35 680.85 563.1 672.2 L564 672 Q565.15 643.15 582.75 630.65 L583 630 Q592.55 625.1 593.5 640 L593 640 M1075 851 L1120.3 911.75 1121 912 Q1114.95 923.45 1107.25 933.2 1107 933.5 1107 934 1074.75 895.25 1046.25 852.85 L1046 852 1074 851.05 1075 851"/>
    <path stroke="none" fill="#000002" d="M426.4 487 Q460.65 495.25 475.9 522 L475.4 522 Q467.25 527.5 462.2 523.25 461.9 523 461.4 523 456.7 516.7 451.65 510.8 451.4 510.5 451.4 510 431.3 506.1 418.2 495.25 417.9 495 417.4 495 407.7 483.2 398.65 470.85 L398.4 470 Q418.95 460.05 426.25 486.05 L426.4 487"/>
  </g>
</svg>