<svg xmlns="http://www.w3.org/2000/svg" xmlns:xlink="http://www.w3.org/1999/xlink" width="2000" height="1000">
  <defs/>
  <g>
    <path stroke="none" fill="#000001" d="M2000 0 L2000 199 2000 398 2000 597 2000 796 2000.05 995 2000 1000 1801 1000 1602 1000 1403 1000 1204 1000 1005 1000 806 1000 607 1000 408 1000 209 1000 10 1000 0 1000 0 801 0 602 0 403 0 204 0 5 0 0 199 0 398 0 597 0 796 0 995 0 1194 0 1393 0 1592 0 1791 0 1990 0 2000 0 M1985.65 283.05 Q1987.4 260.4 1987.35 239 1987.3 146.7 1978 55 1938.2 34.75 1884.05 28.45 L1849.9 25.75 Q1755.15 22.15 1686 52 L1685.1 51.8 Q1644.15 31.35 1604 10 1590.55 10 1577 10.55 1564.55 11.05 1552 14.55 1500.75 28.75 1456 52 L1455.05 51.85 1349 10 1348.05 10.1 Q1284.1 25.1 1221 41 1197.95 34.55 1176 26.95 1162.65 22.3 1147.45 23.95 1083.8 30.85 1040.65 10.8 1031.85 6.7 1022.8 6.15 954.4 1.9 890 15 854.05 1.15 819.65 4.45 726.05 13.55 654 41 L653.75 40.35 616 15 Q604.5 15 594 15.4 518.4 17.9 456.85 35.95 410.8 49.5 364.05 42.7 277.45 30.1 192 16 L191.8 16.6 Q156.6 34.1 123 53 L122 52.95 Q78.25 50.75 36 52 L35.9 53 Q29.6 81.6 25 112 L25.15 112.95 Q42.45 155.55 59 199 41.35 241.85 23.05 284.6 17.05 298.55 14.85 314.4 5.4 381.9 3 454 2.5 463.5 4.8 470.75 11.25 491.25 14.4 513.35 21.8 565.1 15.65 624.15 13.2 648.2 15.1 671.75 20.7 740.35 39 804 L38.75 804.85 Q23.95 827.45 10 851 L10.2 851.9 Q20.95 871.05 31 891 L32 891.05 Q48.3 892.7 62 897 61.5 897 61.35 897.25 36.5 935 11 972 47.05 991.8 97.95 982.6 185.2 966.85 275 979 L275.85 978.75 357 924 Q359.85 925.7 363.65 927 436.85 952.6 512 977 L561 965 Q575.9 961.4 590.85 961.95 662.55 964.45 733.3 980.65 754.5 985.5 775 986.05 816.75 987.15 864 987.8 959.4 989.05 1054.8 995.7 1116.2 999.95 1169.9 991.5 1255.45 978 1340.9 963.3 1353.6 961.15 1366.75 962.15 1428.2 966.9 1486 983 L1486.75 982.75 Q1501.85 968.85 1518 956 L1518.95 956.15 1586 979 Q1586 978.5 1586.15 978.45 1608.9 969.9 1631 961 1684.8 971.7 1742.15 977.5 1835.3 986.95 1933 981 1933 980.5 1933.25 980.2 1945.45 965.95 1957 951 L1956.85 950.05 Q1944.6 910.85 1935 874 1935 873.5 1935.25 873.2 1954.35 851.85 1974 831 L1973.75 830.25 Q1943.75 800.2 1917 767 L1917.9 766.8 Q1954.75 745.75 1992 725 1987.6 697.4 1981.2 669.65 1970.4 622.85 1981.7 578.45 1986.8 558.35 1985.8 538.1 1985 522.55 1985.3 507 1986.15 458.65 1989.55 405.9 1991.15 381.15 1988.05 357.5 1982.95 318.85 1985.65 283.05 M1714 363 L1751.45 455.85 1752 456 Q1761.35 460.65 1772.05 463.85 L1773 464 Q1736.85 472.4 1700 479.9 L1699 480 1682.25 466.7 Q1682 466.5 1682 466 1729.2 437.2 1713.5 363 L1714 363 M1475 176 Q1448.6 203.6 1421.75 230.75 L1421 231 1354.25 126.85 1354 126 Q1313.15 148.15 1273.2 171.35 1273 171.5 1273 172 1255.55 146.95 1240.2 119.9 L1240 119 Q1298.5 102.5 1356.05 85.15 L1357 85 Q1412.8 128.75 1469.55 171.6 L1475 176 M1396 338 Q1385.4 374.4 1371.55 412.85 L1371 413 1310 411.05 1309 411 Q1277.6 441.6 1244.8 470.75 L1244 471 Q1231.4 461.55 1218.25 447.75 L1218 447 Q1280.15 409.65 1341.75 371.6 L1396 338 M1328 614 Q1371.8 657.2 1415.25 700.75 L1416 701 1370.95 717.85 1370 718 Q1347.2 682.3 1325.2 645.85 L1325 645 Q1283.3 654.3 1242.95 664.9 L1242 665 Q1230.75 655.25 1220.25 644.75 1220 644.5 1220 644 1273.5 629 1327.05 614.15 L1328 614 M984 54 L1038.1 78.8 1039 79 Q981.05 95.5 920.95 109.9 L920 110 Q916 96.5 911.15 83.95 L911 83 Q946.65 68.2 983.05 54.15 L984 54 M997 194 L1051.05 176.15 1052 176 Q1031.8 202.8 1010.7 228.75 1010.5 229 1010 229 1003.75 211.75 997.15 194.95 L997 194 M1031 319 Q1041.75 335.25 1051.8 352.15 L1052 353 Q1006.3 382.3 959.2 410.35 959 410.5 959 411 918.1 367.85 880.25 321.8 880 321.5 880 321 888.85 305.85 896.8 289.9 L897 289 965.25 364.75 966 365 Q997.7 341.7 1030.75 319.65 L1031 319 M852 96 L856.9 119 857 120 816.05 118.5 816 118 Q812.35 105.15 808.15 92.95 L808 92 Q830.6 92.9 851.95 95.5 L852 96 M653 133 Q715.8 169.75 778.9 206.15 L780 207 Q751.05 229.05 720.25 249.35 720 249.5 720 250 689.8 214.2 660.7 177.25 660.5 177 660 177 L538.95 214.85 538 215 Q532.4 183.1 528.05 150 L528 149 Q590.85 141.85 652 133.05 L653 133 M679 373 Q656.25 390.25 636 397 L636 394 Q639.1 376.6 640.5 357.05 L641 357 678.05 372.8 679 373 M836 434 Q874.5 488.5 916.75 539.2 L917 540 Q906.95 568.95 897.15 598.05 897 598.5 897 599 867.05 535.45 839.55 469.2 L839 469 Q777.3 506.85 716.4 545.65 705.3 552.75 698 554 716 520 732.4 484.2 732.5 484 733 484 803.45 478.45 835.35 434.25 835.5 434 836 434 M796 586 Q802.85 606.7 806.9 630 L807 631 Q777.1 621.9 748.15 611.55 748 611.5 748 611 772.1 599.1 795.8 586.6 796 586.5 796 586 M1202 505 Q1213.3 516.7 1225.25 527.75 L1226 528 Q1170.05 544.05 1111 556.9 L1110 557 Q1093.25 529.75 1075.25 503.85 1075 503.5 1075 503 L1084.8 484.9 1085 484 1122.75 524.25 1123 525 Q1163.1 516.1 1201.05 505.15 L1202 505 M1110 682 Q1115.1 700.4 1118.9 720 L1119 721 Q1094.75 730.25 1069.95 738.85 L1069 739 Q1021.8 712.2 975.2 684.65 L975 684 994.15 671.25 Q994.5 671 995 671 1029.55 685.45 1062.1 701.8 L1063 702 Q1085.9 691.9 1109.85 682.55 L1110 682 M260 458 L297.8 365.15 Q284.1 436.6 329.15 466.75 L330 467 Q322.8 474.3 314.25 480.35 314 480.5 314 481 L239.1 465.5 239 465 Q249.4 461.9 259.05 458.15 L260 458 M623 668 Q630.65 690.35 637.85 713.05 L638 714 543 720.5 543 720 Q582.8 694.3 622.15 668.25 622.5 668 623 668 M640 875 Q715 850.5 789.65 824.9 795.05 823.05 802 822 785.6 857.6 770.2 894.1 L770 895 640.05 875.5 640 875 M1257 885 Q1201.55 901.55 1147.95 919.85 L1147 920 Q1141 902 1137.1 882 L1137 881 1257 884.5 1257 885"/>
  </g>
</svg>