<svg xmlns="http://www.w3.org/2000/svg" xmlns:xlink="http://www.w3.org/1999/xlink" width="2000" height="1000">
  <defs/>
  <g>
    <path stroke="none" fill="#000001" d="M1962 444 L1962 376 1962 199 1962 20 1960 20 1781 20 1602 20 1423 20 1244 20 1065 20 886 20 707 20 528 20 528 21 528 59 493 59 314 59 135 59 135 58 135 38 134 38 14 38 Q12.55 83.45 18.3 120.3 L21.05 120.75 24 121 Q28.9 127.6 28.65 141 27 230.5 27 320 L27 499 27 678 27 829 Q100.55 844.95 172.1 862.65 L316 898 Q387.95 915.55 462.3 929.5 482.3 933.25 503 934.65 L671 945.8 Q720 949 773 948 L773 908 773 907 952 907 974 907 974 931 974 932 1010 932 1011 932 Q1022.25 924.75 1024.9 909 L1025 908 Q1042.55 903.05 1067.05 903.9 1145.4 906.6 1225 907 L1225 947 1225 948 Q1314.5 948 1404 948.8 1495.15 949.65 1572.85 936.95 1649.05 924.5 1726.1 912.6 1763.75 906.75 1808 908 L1808 923 1808 924 Q1813.8 932.65 1821.75 939.3 L1822 940 1857 940 1858 940 1858 910 1858 909 1979 909 1980 909 1980 817 1980 816 1938 816 1937 816 1937 749 1937 748 1961 748 1962 748 1962 699 1962 698 1938 698 1937 698 1937 639 1937 638 1959 638 1960 638 Q1961.15 549.65 1961 460 L1961 459 Q1962.8 453.25 1962.05 445 L1962 444 M2000 0 L2000 179 2000 358 2000 537 2000 716 2000 895 2000 1000 1821 1000 1642 1000 1463 1000 1284 1000 1105 1000 926 1000 747 1000 568 1000 389 1000 210 1000 31 1000 0 1000 0 821 0 642 0 463 0 284 0 105 0 0 179 0 358 0 537 0 716 0 895 0 1074 0 1253 0 1432 0 1611 0 1790 0 1969 0 2000 0 M1892 125 L1713 125 1588 125 1588 86 1588 85 1767 85 1892 85 1892 124 1892 125 M1687 286 L1619 286 1618 286 1618 238 1618 237 1797 237 1800 237 Q1744.35 261.85 1687.2 285.45 1687 285.5 1687 286 M1773 302 Q1820.7 329.8 1867.15 358.8 L1868 359 1892 359 1893 359 1893 405 1893 406 Q1820.65 386.75 1751.75 368.95 1735.3 364.75 1716.8 362.95 1710.4 359.55 1702.85 356.6 1694.8 353.45 1688.55 352.15 1702.05 343.9 1708.8 328.9 L1709 328 Q1741.7 316.2 1772.1 302.2 L1773 302 M1892 253 Q1894.95 281.75 1893.05 311 L1893 312 1869 312 1868 312 Q1842.85 298.15 1818.2 283.65 L1818 283 Q1855.15 268.65 1891.1 253.2 L1892 253 M1475 85 L1517 85 1518 85 1518 124 1518 125 1476 125 1475 125 Q1475 113 1474.5 101 L1474 101 Q1408.65 125.2 1343.5 148.6 1338.7 150.35 1338.55 145 1338.55 144 1338 143 1403.1 118.6 1468.2 94.5 1474.25 92.25 1475 85 M1568 237 L1568 285 1568 286 1523 286 1522 286 1522 323 1522 324 1476 324 1475 324 1475 216 1475 215 1518 215 1519 215 1519 236 1519 237 1567 237 1568 237 M1668.9 416.75 L1688.65 416.9 1701.45 417.2 Q1716.8 417.8 1731.95 420.1 L1732 421 Q1732.1 422.5 1732.45 424 1732.7 425.2 1733.3 426.3 1734.2 427.95 1735.9 428.25 1745.2 429.85 1754.8 429.3 1762.4 429.05 1769.85 427.55 L1779 425.9 1780.15 425.3 Q1782.1 424.1 1782 422 1789.45 421.45 1796.85 421.7 L1812.45 422.9 1823.25 424.55 1831.1 425.8 Q1849.65 427.2 1868 430 1845.65 441.55 1823 452.3 1799.95 463.2 1776.85 473.45 L1745.5 487.1 1732.65 492.45 Q1712.6 500.7 1692 507 L1669.05 487.5 1646.35 467.7 1624.05 447.5 1602.15 426.8 Q1601.35 426.05 1601.1 425 L1599.9 425 1599.9 411 1668.9 411 1668.9 416.75 1668.9 425 1601.1 425 1668.9 425 1668.9 416.75 M1505 396 L1505 414 1505 415 Q1522.65 433.4 1536.75 450.2 L1537 451 Q1523.45 464.45 1505.8 478.75 L1505 479 1505 502 1505 503 1476 503 1475 503 1475 397 1475 396 1504 396 1505 396 M1527 630 L1690 630 1691 630 Q1625.25 653.8 1558.75 676.35 1516.6 690.6 1477 707 1473.95 658.55 1475 606 L1475 605 1526 605 1527 605 1527 629 1527 630 M1475 769 Q1547.1 786.4 1617.25 805.1 1684.9 823.15 1749.9 843.3 1750.5 843.5 1751 844 1751.95 853.45 1748.25 858.2 1748 858.5 1748 859 1669.95 870.5 1594 884.1 1535.55 894.55 1475 903 L1475 871 1475 870 Q1463.9 857.1 1452.25 844.75 L1452 844 Q1466.7 835.8 1473.8 853.05 L1474 854 1497 854 1498 854 1498 805 1498 804 1476 804 1475 804 1475 770 1475 769 M1559 738 L1691.4 690.3 Q1756.5 666.95 1824 644.95 1850.35 636.35 1887 638 L1887 697 1887 698 1858 698 1857 698 1857 747 1857 748 1886 748 1887 748 1887 816 1887 817 Q1830.75 817.25 1789.7 802.9 1755.9 791.1 1719.95 782.25 1647.95 764.5 1578.1 744.65 1568.2 741.8 1559 738 M1929 472 Q1930.75 504.75 1930 540 L1930 541 Q1848.75 541.75 1770 539.75 1768.3 539.7 1768 538 1831 511.5 1895.2 486.5 1912.7 479.7 1929 472 M1104 282 L1145 282 1146 282 1146 320 1146 321 Q1188.25 319.75 1224.85 325 L1225.4 325.8 1226 326 Q1239.2 323.2 1248.15 316.15 1257.4 308.85 1266.5 307.5 L1266 308 Q1268.6 313.35 1265.25 317.2 1265 317.5 1265 318 1242.65 328.65 1225.5 344 L1226 344 Q1230.5 347.4 1236 342 1240.55 337.55 1246.35 333.95 1254.8 328.8 1266 327 L1266 328 Q1266.65 336.65 1262.25 340.3 1262 340.5 1262 341 1233.15 347.15 1222.2 371.1 L1222 372 Q1136.9 371.05 1046 371.05 L867 371 773 371 773 322 773 321 847 321 848 321 848 283 848 282 885 282 886 282 886 317 886 318 1065 318 1104 318 1104 283 1104 282 M873 467.05 L1009.15 509.6 1145.95 552.2 1225 577 1225 666 1225 667 Q1156.25 646.25 1089.85 623.4 L956.15 577.6 Q889.6 554.85 822.25 532.2 798.7 524.3 773 518 771.75 504.25 771.5 489 L771 489 Q757.3 497.8 742.85 499.85 742.05 499.95 742 498 746.4 486.4 758.9 482.7 766.45 480.45 772 476 758.3 476.8 745.8 483.6 740.45 486.5 742 477 755.65 468.15 772.05 462.15 L773 462 773 444 773 443 Q817.8 443.2 847.8 457.25 860 463 873 467.05 M773 569 Q840.5 591 907.9 613.4 965.85 632.65 1023 653 L908.65 717.35 Q851.1 749.6 794 782 784.1 787.6 774 793 771.5 745.5 772 695 L772 694 Q771.95 682.95 786.15 684.65 L809 686 809 637 809 636 774 636 773 636 773 570 773 569 M1086 675 Q1150.5 694 1212.85 715.45 L1213 716 Q1240.6 705.1 1268 699.5 L1268 700 Q1267.65 709.65 1260.15 712.45 1260 712.5 1260 713 1237.5 714 1226.25 726.25 1226 726.5 1226 727 1241.75 724.75 1256.8 716.6 1262.85 713.35 1269 715 1268.2 722.2 1264.25 726.25 1264 726.5 1264 727 1242.35 731.85 1225.7 742.1 1225.05 742.5 1225 744 L1225 746 Q1214.95 755.55 1193.8 752.1 L1180 751 1180 799 1180 800 1224 800 1225 800 1225 830 1225 831 1046 830.8 Q956.1 830.65 868 831.55 837.65 831.85 808.05 830 L808 829 Q866.45 797.9 923.65 765.35 980.5 732.95 1038.1 701.15 1061.95 687.95 1086 675 M509 189 L509 238 509 239 Q539.15 237.85 563.7 243.45 564 243.5 564 245 L564 247 Q555.45 253.35 538.9 250.8 L528 250 Q529.35 279.15 529.5 310 L530 310 Q547.8 296.8 569.15 292.7 570 292.5 571 293 571 302.05 560.6 306.4 541.85 314.35 528 328 437.95 328.55 355 321.85 313.5 318.5 276.35 309.6 272.35 308.6 268.1 306.8 213.6 283.9 147.8 273.15 137.55 271.45 135 263 162 245 192.2 230.45 252.7 201.2 321.65 179.85 389.4 158.9 456.8 136.4 491.4 124.9 527 114 528.85 151.45 528 188 L528 189 510 189 509 189 M76 129 Q77.25 118.75 92.2 120.4 105.4 121.9 118 121.15 127.6 120.6 133.4 118.15 L133.75 115.95 134 113 Q134.5 109 139 109 L140 109 319 109 381 109 Q315 132.5 247 154.05 179.05 175.55 112 198 93.65 204.15 78 208 75.5 170.5 76 130 L76 129 M77 278 Q140.25 304.25 202.15 331.7 264.25 359.25 326.9 386.2 360.75 400.75 393 417 338.3 451.8 284.3 486.9 264.35 499.85 245 513 L78 513 77 513 77 334 77 278 M262 577 L262 561 262 560 370.7 489.55 478.7 418.6 Q499.95 404.45 526 395 532 412.65 530.85 439.1 529.1 479.6 528 519 L502 519 501 519 501 568 501 569 527 569 528 569 528 672 528 673 Q461.85 649.65 396 626 330.1 602.4 264.5 579.45 262.3 578.7 262 577 M134 679.65 Q213.4 677.6 286.9 681.55 306.9 682.6 322.5 688.65 339.3 695.2 356.95 700.2 426.4 720.1 493.7 742.85 503 746 513.2 747.45 526.6 749.4 539.05 749.8 552.3 750.2 557.5 757.35 558 758 558 759 556.05 762.55 551.95 763.85 L551 764 529 763 528 763 528 897 528 898 383.2 863.1 Q311.75 845.7 239.15 828.45 L94.95 794.25 Q85.9 792.1 78 789 75.55 740.95 76 690 L76 689 Q75.45 676.95 90.15 678.25 L134 679.65"/>
    <path stroke="none" fill="#27272c" d="M1962 444 L1962.05 445 Q1962.8 453.25 1961 459 L1961 458 1961 444 1962 444"/>
    <path fill="none" stroke="#000001" stroke-width="1" stroke-linecap="round" stroke-linejoin="round" d="M1601.1 425 L1599.9 425 1599.9 411 1668.9 411 1668.9 416.75 1668.9 425 1601.1 425"/>
  </g>
</svg>