<svg xmlns="http://www.w3.org/2000/svg" xmlns:xlink="http://www.w3.org/1999/xlink" width="2000" height="1000">
  <defs/>
  <g>
    <path stroke="none" fill="#000001" d="M1782 941.75 L1782 942.75 1783 942.75 1783 940.75 1781 940.75 1781 939.75 1773 939.75 1773 940.75 1772 940.75 1772 938.75 1773 938.75 1773 936.75 1774 936.75 1774 934.75 1775 934.75 1775 933.75 1779 933.75 1779 932.75 1775 932.75 1775 933.75 1774 933.75 1774 927.75 1773 927.75 1773 926.75 1772 926.75 1772 925.75 1771 925.75 1771 926.75 1772 926.75 1772 927.75 1773 927.75 1773 935.75 1772 935.75 1772 938.75 1771 938.75 1771 932.75 1770 932.75 1770 931.75 1769 931.75 1769 930.75 1768 930.75 1768 931.75 1769 931.75 1769 933.75 1770 933.75 1770 942.75 1769 942.75 1769 939.75 1768 939.75 1768 937.75 1767 937.75 1767 936.75 1766 936.75 1766 935.75 1765 935.75 1765 934.75 1762 934.75 1762 935.75 1764 935.75 1764 936.75 1765 936.75 1765 937.75 1766 937.75 1766 938.75 1767 938.75 1767 940.75 1768 940.75 1768 945.75 1766 945.75 1766 946.75 1761 946.75 1761 947.75 1759 947.75 1759 948.75 1757 948.75 1757 947.75 1758 947.75 1758 946.75 1759 946.75 1759 945.75 1760 945.75 1760 942.75 1758 942.75 1758 943.75 1756 943.75 1756 941.75 1755 941.75 1755 940.75 1754 940.75 1754 939.75 1752 939.75 1752 938.75 1748 938.75 1748 934.75 1749 934.75 1749 932.75 1751 932.75 1751 931.75 1752 931.75 1752 929.75 1751 929.75 1751 930.75 1749 930.75 1749 931.75 1748 931.75 1748 932.75 1747 932.75 1747 934.75 1746 934.75 1746 931.75 1745 931.75 1745 929.75 1744 929.75 1744 928.75 1742 928.75 1742 929.75 1743 929.75 1743 930.75 1744 930.75 1744 934.75 1743 934.75 1743 935.75 1741 935.75 1741 936.75 1740 936.75 1740 939.75 1741 939.75 1741 940.75 1744 940.75 1744 941.75 1745 941.75 1745 945.75 1746 945.75 1746 946.75 1747 946.75 1747 948.75 1748 948.75 1748 949.75 1743 949.75 1743 950.75 1742 950.75 1742 951.75 1741 951.75 1741 952.75 1740 952.75 1740 955.75 1741 955.75 1741 956.75 1742 956.75 1742 957.75 1745 957.75 1745 956.75 1746 956.75 1746 954.75 1745 954.75 1745 953.75 1744 953.75 1744 954.75 1745 954.75 1745 956.75 1742 956.75 1742 955.75 1741 955.75 1741 952.75 1742 952.75 1742 951.75 1743 951.75 1743 950.75 1746 950.75 1746 951.75 1747 951.75 1747 952.75 1748 952.75 1748 953.75 1749 953.75 1749 958.75 1748 958.75 1748 959.75 1747 959.75 1747 960.75 1746 960.75 1746 961.75 1745 961.75 1745 962.75 1737 962.75 1737 961.75 1735 961.75 1735 960.75 1733 960.75 1733 959.75 1732 959.75 1732 958.75 1731 958.75 1731 957.75 1730 957.75 1730 956.75 1729 956.75 1729 955.75 1728 955.75 1728 948.75 1727 948.75 1727 946.75 1726 946.75 1726 945.75 1725 945.75 1725 944.75 1724 944.75 1724 943.75 1723 943.75 1723 942.75 1724 942.75 1724 941.75 1725 941.75 1725 940.75 1727 940.75 1727 939.75 1729 939.75 1729 938.75 1731 938.75 1731 937.75 1728 937.75 1728 938.75 1726 938.75 1726 939.75 1724 939.75 1724 937.75 1725 937.75 1725 936.75 1726 936.75 1726 935.75 1727 935.75 1727 934.75 1728 934.75 1728 933.75 1726 933.75 1726 934.75 1725 934.75 1725 935.75 1724 935.75 1724 936.75 1723 936.75 1723 939.75 1722 939.75 1722 937.75 1721 937.75 1721 935.75 1720 935.75 1720 934.75 1718 934.75 1718 935.75 1719 935.75 1719 936.75 1720 936.75 1720 938.75 1721 938.75 1721 940.75 1722 940.75 1722 942.75 1717 942.75 1717 943.75 1715 943.75 1715 944.75 1712 944.75 1712 945.75 1705 945.75 1705 944.75 1703 944.75 1703 942.75 1704 942.75 1704 939.75 1705 939.75 1705 938.75 1706 938.75 1706 936.75 1704 936.75 1704 932.75 1703 932.75 1703 933.75 1702 933.75 1702 935.75 1700 935.75 1700 934.75 1698 934.75 1698 935.75 1699 935.75 1699 936.75 1700 936.75 1700 938.75 1698 938.75 1698 939.75 1697 939.75 1697 940.75 1695 940.75 1695 939.75 1694 939.75 1694 940.75 1692 940.75 1692 939.75 1691 939.75 1691 938.75 1690 938.75 1690 937.75 1689 937.75 1689 936.75 1688 936.75 1688 934.75 1687 934.75 1687 931.75 1688 931.75 1688 932.75 1692 932.75 1692 931.75 1693 931.75 1693 930.75 1694 930.75 1694 927.75 1693 927.75 1693 926.75 1688 926.75 1688 927.75 1687 927.75 1687 928.75 1686 928.75 1686 930.75 1684 930.75 1684 928.75 1683 928.75 1683 925.75 1684 925.75 1684 923.75 1685 923.75 1685 922.75 1686 922.75 1686 916.75 1685 916.75 1685 914.75 1684 914.75 1684 916.75 1685 916.75 1685 922.75 1684 922.75 1684 923.75 1683 923.75 1683 925.75 1682 925.75 1682 928.75 1683 928.75 1683 930.75 1684 930.75 1684 931.75 1686 931.75 1686 935.75 1687 935.75 1687 937.75 1686 937.75 1686 938.75 1685 938.75 1685 939.75 1684 939.75 1684 942.75 1685 942.75 1685 943.75 1686 943.75 1686 944.75 1689 944.75 1689 943.75 1690 943.75 1690 941.75 1689 941.75 1689 940.75 1687 940.75 1687 941.75 1689 941.75 1689 943.75 1686 943.75 1686 942.75 1685 942.75 1685 939.75 1686 939.75 1686 938.75 1687 938.75 1687 937.75 1688 937.75 1688 938.75 1689 938.75 1689 939.75 1690 939.75 1690 940.75 1692 940.75 1692 941.75 1695 941.75 1695 942.75 1696 942.75 1696 944.75 1702 944.75 1702 945.75 1705 945.75 1705 946.75 1707 946.75 1707 947.75 1708 947.75 1708 950.75 1707 950.75 1707 951.75 1704 951.75 1704 950.75 1703 950.75 1703 948.75 1705 948.75 1705 949.75 1706 949.75 1706 948.75 1705 948.75 1705 947.75 1703 947.75 1703 948.75 1702 948.75 1702 950.75 1703 950.75 1703 951.75 1704 951.75 1704 952.75 1707 952.75 1707 951.75 1708 951.75 1708 950.75 1709 950.75 1709 947.75 1708 947.75 1708 946.75 1713 946.75 1713 945.75 1716 945.75 1716 944.75 1718 944.75 1718 943.75 1721 943.75 1721 944.75 1723 944.75 1723 945.75 1724 945.75 1724 946.75 1725 946.75 1725 947.75 1726 947.75 1726 948.75 1727 948.75 1727 954.75 1726 954.75 1726 955.75 1724 955.75 1724 956.75 1720 956.75 1720 954.75 1719 954.75 1719 951.75 1720 951.75 1720 950.75 1723 950.75 1723 951.75 1724 951.75 1724 953.75 1722 953.75 1722 952.75 1721 952.75 1721 953.75 1722 953.75 1722 954.75 1724 954.75 1724 953.75 1725 953.75 1725 951.75 1724 951.75 1724 950.75 1723 950.75 1723 949.75 1720 949.75 1720 950.75 1719 950.75 1719 951.75 1718 951.75 1718 954.75 1719 954.75 1719 956.75 1720 956.75 1720 957.75 1724 957.75 1724 956.75 1726 956.75 1726 955.75 1728 955.75 1728 956.75 1729 956.75 1729 957.75 1730 957.75 1730 958.75 1731 958.75 1731 959.75 1732 959.75 1732 960.75 1733 960.75 1733 961.75 1735 961.75 1735 962.75 1737 962.75 1737 963.75 1745 963.75 1745 962.75 1746 962.75 1746 961.75 1747 961.75 1747 960.75 1748 960.75 1748 962.75 1749 962.75 1749 963.75 1750 963.75 1750 964.75 1754 964.75 1754 963.75 1755 963.75 1755 962.75 1756 962.75 1756 959.75 1755 959.75 1755 958.75 1752 958.75 1752 959.75 1751 959.75 1751 961.75 1752 961.75 1752 962.75 1753 962.75 1753 961.75 1752 961.75 1752 959.75 1755 959.75 1755 962.75 1754 962.75 1754 963.75 1750 963.75 1750 962.75 1749 962.75 1749 960.75 1748 960.75 1748 959.75 1749 959.75 1749 958.75 1751 958.75 1751 957.75 1752 957.75 1752 956.75 1753 956.75 1753 953.75 1754 953.75 1754 952.75 1755 952.75 1755 951.75 1756 951.75 1756 950.75 1758 950.75 1758 949.75 1759 949.75 1759 948.75 1761 948.75 1761 947.75 1766 947.75 1766 948.75 1768 948.75 1768 949.75 1769 949.75 1769 950.75 1770 950.75 1770 955.75 1769 955.75 1769 956.75 1764 956.75 1764 954.75 1763 954.75 1763 951.75 1764 951.75 1764 950.75 1767 950.75 1767 951.75 1768 951.75 1768 953.75 1766 953.75 1766 952.75 1765 952.75 1765 953.75 1766 953.75 1766 954.75 1768 954.75 1768 953.75 1769 953.75 1769 951.75 1768 951.75 1768 950.75 1767 950.75 1767 949.75 1764 949.75 1764 950.75 1763 950.75 1763 951.75 1762 951.75 1762 954.75 1763 954.75 1763 956.75 1764 956.75 1764 957.75 1769 957.75 1769 956.75 1770 956.75 1770 955.75 1771 955.75 1771 950.75 1770 950.75 1770 949.75 1769 949.75 1769 948.75 1768 948.75 1768 946.75 1769 946.75 1769 944.75 1770 944.75 1770 943.75 1771 943.75 1771 942.75 1772 942.75 1772 941.75 1774 941.75 1774 940.75 1781 940.75 1781 941.75 1782 941.75 M1787.4 973.55 L1678.4 973.55 1678.4 904.95 1694 911.8 1694 909.75 1696 909.75 1696 910.75 1697 910.75 1697 911.75 1698 911.75 1698 910.75 1699 910.75 1699 909.75 1700 909.75 1700 908.75 1701 908.75 1701 907.75 1703 907.75 1703 906.75 1706 906.75 1706 904.75 1707 904.75 1707 902.75 1706 902.75 1706 901.75 1705 901.75 1705 900.75 1704 900.75 1704 899.75 1703 899.75 1703 897.75 1704 897.75 1704 898.75 1706 898.75 1706 899.75 1707 899.75 1707 900.75 1708 900.75 1708 901.75 1710 901.75 1710 895.75 1711 895.75 1711 902.75 1712 902.75 1712 903.75 1714 903.75 1714 904.75 1715 904.75 1715 905.75 1716 905.75 1716 908.75 1715 908.75 1715 909.75 1712 909.75 1712 908.75 1711 908.75 1711 911.75 1710 911.75 1710 913.75 1709 913.75 1709 914.75 1708 914.75 1708 916.75 1707 916.75 1707 917.15 Q1719.2 922.05 1731.65 926.45 1738.65 928.95 1743.75 926.75 1746.4 925.55 1748.6 923.75 L1749.7 922.75 1750 922.75 1750 918.75 1749 918.75 1749 917.75 1747 917.75 1747 916.75 1746 916.75 1746 914.75 1747 914.75 1747 913.75 1749 913.75 1749 910.75 1748 910.75 1748 908.75 1749 908.75 1749 909.75 1750 909.75 1750 910.75 1751 910.75 1751 912.75 1753 912.75 1753 911.75 1755 911.75 1755 912.75 1754 912.75 1754 913.75 1753 913.75 1753 915.75 1755 915.75 1755 916.75 1756 916.75 1756 917.75 1758 917.75 1758 916.75 1759 916.75 1759 918.75 1758 918.75 1758 920.45 1759.15 920.4 Q1775 919.5 1787.4 926.3 L1787.4 973.55 M1750 914.75 L1749 914.75 1749 915.75 1750 915.75 1750 914.75 M1710 904.75 L1710 906.75 1712 906.75 1712 904.75 1710 904.75 M43 903.45 L44 903.45 44 902.45 43 902.45 43 901.45 42 901.45 42 902.45 41 902.45 41 903.45 42 903.45 42 904.45 43 904.45 43 903.45 M41 911.45 L42 911.45 42 913.45 40 913.45 40 914.45 42 914.45 42 913.45 43 913.45 43 911.45 42 911.45 42 910.45 41 910.45 41 909.45 38 909.45 38 907.45 37 907.45 37 906.45 39 906.45 39 905.45 37 905.45 37 906.45 36 906.45 36 905.45 35 905.45 35 906.45 34 906.45 34 907.45 35 907.45 35 908.45 34 908.45 34 910.45 35 910.45 35 908.45 36 908.45 36 909.45 38 909.45 38 910.45 37 910.45 37 911.45 36 911.45 36 915.45 37 915.45 37 916.45 38 916.45 38 917.45 39 917.45 39 918.45 41 918.45 41 919.45 43 919.45 43 918.45 41 918.45 41 917.45 39 917.45 39 916.45 38 916.45 38 915.45 37 915.45 37 911.45 38 911.45 38 910.45 41 910.45 41 911.45 M60 918.45 L63 918.45 63 919.45 61 919.45 61 921.45 62 921.45 62 922.45 64 922.45 64 924.45 63 924.45 63 923.45 61 923.45 61 924.45 60 924.45 60 925.45 59 925.45 59 930.45 60 930.45 60 929.45 61 929.45 61 928.45 65 928.45 65 929.45 63 929.45 63 930.45 62 930.45 62 931.45 60 931.45 60 931.95 Q67 933.35 75 933 L76 933 Q86.5 940.5 98.1 946.8 L99 947 110.5 945.2 110.5 962.25 25.5 962.25 25.5 897.75 48.95 897.75 Q48.25 909.85 51.8 922.5 52.3 924.15 53.55 926.45 L57 926.45 57 925.45 58 925.45 58 923.45 57 923.45 57 922.45 56 922.45 56 921.45 55 921.45 55 920.45 54 920.45 54 919.45 55 919.45 55 918.45 56 918.45 56 919.45 58 919.45 58 920.45 59 920.45 59 919.45 60 919.45 60 918.45 M54.1 927.45 L56 931 58 931.55 58 930.45 57 930.45 57 928.45 56 928.45 56 927.45 54.1 927.45 M50 929.45 L50 930.45 51 930.45 51 933.45 52 933.45 52 934.45 54 934.45 54 933.45 52 933.45 52 930.45 51 930.45 51 929.45 50 929.45 50 928.45 47 928.45 47 929.45 46 929.45 46 930.45 45 930.45 45 933.45 46 933.45 46 934.45 49 934.45 49 933.45 50 933.45 50 931.45 49 931.45 49 930.45 48 930.45 48 931.45 49 931.45 49 933.45 46 933.45 46 930.45 47 930.45 47 929.45 50 929.45 M43 924.45 L42 924.45 42 923.45 39 923.45 39 924.45 38 924.45 38 925.45 37 925.45 37 924.45 35 924.45 35 923.45 34 923.45 34 922.45 33 922.45 33 919.45 34 919.45 34 918.45 37 918.45 37 919.45 38 919.45 38 921.45 36 921.45 36 920.45 35 920.45 35 921.45 36 921.45 36 922.45 38 922.45 38 921.45 39 921.45 39 919.45 38 919.45 38 918.45 37 918.45 37 917.45 34 917.45 34 918.45 33 918.45 33 919.45 32 919.45 32 922.45 33 922.45 33 923.45 34 923.45 34 924.45 35 924.45 35 925.45 37 925.45 37 927.45 38 927.45 38 928.45 39 928.45 39 927.45 38 927.45 38 925.45 39 925.45 39 924.45 42 924.45 42 925.45 43 925.45 43 926.45 44 926.45 44 929.45 43 929.45 43 930.45 42 930.45 42 931.45 39 931.45 39 930.45 38 930.45 38 929.45 35 929.45 35 930.45 34 930.45 34 931.45 33 931.45 33 934.45 34 934.45 34 935.45 35 935.45 35 936.45 38 936.45 38 935.45 39 935.45 39 934.45 38 934.45 38 933.45 37 933.45 37 934.45 38 934.45 38 935.45 35 935.45 35 934.45 34 934.45 34 931.45 35 931.45 35 930.45 38 930.45 38 931.45 39 931.45 39 932.45 42 932.45 42 931.45 43 931.45 43 930.45 44 930.45 44 929.45 45 929.45 45 927.45 47 927.45 47 926.45 44 926.45 44 925.45 43 925.45 43 924.45 M42 937.45 L43 937.45 43 936.45 42 936.45 42 935.45 41 935.45 41 936.45 40 936.45 40 937.45 41 937.45 41 938.45 42 938.45 42 937.45 M43 940.45 L43 939.45 42 939.45 42 940.45 41 940.45 41 941.45 42 941.45 42 942.45 43 942.45 43 941.45 44 941.45 44 940.45 43 940.45 M63 938.45 L63 937.45 62 937.45 62 938.45 61 938.45 61 939.45 62 939.45 62 940.45 61 940.45 61 942.45 62 942.45 62 940.45 63 940.45 63 941.45 65 941.45 65 943.45 64 943.45 64 944.45 63 944.45 63 946.45 62 946.45 62 951.45 61 951.45 61 952.45 57 952.45 57 951.45 56 951.45 56 948.45 57 948.45 57 947.45 60 947.45 60 949.45 58 949.45 58 950.45 60 950.45 60 949.45 61 949.45 61 947.45 60 947.45 60 946.45 57 946.45 57 947.45 56 947.45 56 948.45 55 948.45 55 951.45 56 951.45 56 952.45 57 952.45 57 953.45 61 953.45 61 952.45 62 952.45 62 954.45 63 954.45 63 955.45 61 955.45 61 956.45 63 956.45 63 955.45 64 955.45 64 956.45 65 956.45 65 955.45 66 955.45 66 954.45 65 954.45 65 953.45 66 953.45 66 951.45 65 951.45 65 953.45 64 953.45 64 952.45 62 952.45 62 951.45 63 951.45 63 946.45 64 946.45 64 944.45 65 944.45 65 945.45 66 945.45 66 946.45 69 946.45 69 945.45 70 945.45 70 943.45 69 943.45 69 942.45 68 942.45 68 943.45 69 943.45 69 945.45 66 945.45 66 941.45 67 941.45 67 940.45 68 940.45 68 939.45 69 939.45 69 938.45 70 938.45 70 937.45 72 937.45 72 936.45 70 936.45 70 937.45 68 937.45 68 939.45 67 939.45 67 940.45 66 940.45 66 941.45 65 941.45 65 939.45 64 939.45 64 938.45 66 938.45 66 937.45 64 937.45 64 938.45 63 938.45 M69 933.45 L68 933.45 68 934.45 67 934.45 67 935.45 68 935.45 68 936.45 69 936.45 69 935.45 70 935.45 70 934.45 69 934.45 69 933.45 M49 939.45 L48 939.45 48 941.45 49 941.45 49 942.45 52 942.45 52 941.45 53 941.45 53 938.45 52 938.45 52 937.45 51 937.45 51 936.45 47 936.45 47 937.45 46 937.45 46 938.45 45 938.45 45 943.45 46 943.45 46 944.45 47 944.45 47 945.45 45 945.45 45 946.45 44 946.45 44 944.45 43 944.45 43 946.45 44 946.45 44 947.45 43 947.45 43 948.45 44 948.45 44 949.45 45 949.45 45 948.45 46 948.45 46 949.45 48 949.45 48 948.45 46 948.45 46 947.45 47 947.45 47 945.45 49 945.45 49 946.45 54 946.45 54 945.45 55 945.45 55 944.45 56 944.45 56 943.45 57 943.45 57 941.45 58 941.45 58 939.45 59 939.45 59 935.45 58 935.45 58 939.45 57 939.45 57 941.45 56 941.45 56 943.45 55 943.45 55 944.45 54 944.45 54 945.45 49 945.45 49 944.45 47 944.45 47 943.45 46 943.45 46 938.45 47 938.45 47 937.45 51 937.45 51 938.45 52 938.45 52 941.45 49 941.45 49 939.45 M73 939.45 L73 942.45 74 942.45 74 939.45 73 939.45 M74 942.45 L74 943.45 77 943.45 77 942.45 78 942.45 78 941.45 79 941.45 79 938.45 78 938.45 78 937.45 77 937.45 77 936.45 76 936.45 76 935.45 74 935.45 74 936.45 76 936.45 76 937.45 77 937.45 77 938.45 78 938.45 78 941.45 77 941.45 77 942.45 74 942.45 M74 939.45 L76 939.45 76 940.45 77 940.45 77 939.45 76 939.45 76 938.45 74 938.45 74 939.45 M32 926.45 L32 925.45 31 925.45 31 926.45 30 926.45 30 927.45 31 927.45 31 928.45 32 928.45 32 927.45 33 927.45 33 926.45 32 926.45 M34 936.45 L33 936.45 33 935.45 32 935.45 32 936.45 31 936.45 31 937.45 32 937.45 32 938.45 33 938.45 33 937.45 34 937.45 34 936.45 M37 939.45 L37 940.45 38 940.45 38 939.45 39 939.45 39 938.45 38 938.45 38 937.45 37 937.45 37 938.45 36 938.45 36 939.45 37 939.45 M68 952.45 L67 952.45 67 953.45 68 953.45 68 954.45 69 954.45 69 953.45 70 953.45 70 952.45 69 952.45 69 951.45 68 951.45 68 952.45 M76 946.45 L78 946.45 78 947.45 79 947.45 79 946.45 78 946.45 78 945.45 76 945.45 76 946.45 75 946.45 75 947.45 74 947.45 74 948.45 73 948.45 73 946.45 74 946.45 74 945.45 73 945.45 73 946.45 72 946.45 72 947.45 71 947.45 71 946.45 70 946.45 70 947.45 71 947.45 71 948.45 70 948.45 70 949.45 71 949.45 71 950.45 70 950.45 70 951.45 71 951.45 71 950.45 72 950.45 72 951.45 73 951.45 73 952.45 74 952.45 74 951.45 73 951.45 73 949.45 74 949.45 74 950.45 75 950.45 75 951.45 76 951.45 76 952.45 79 952.45 79 951.45 80 951.45 80 950.45 81 950.45 81 951.45 82 951.45 82 952.45 83 952.45 83 955.45 82 955.45 82 956.45 81 956.45 81 955.45 80 955.45 80 956.45 81 956.45 81 957.45 83 957.45 83 956.45 84 956.45 84 957.45 86 957.45 86 956.45 87 956.45 87 955.45 86 955.45 86 956.45 85 956.45 85 955.45 84 955.45 84 953.45 85 953.45 85 952.45 86 952.45 86 951.45 85 951.45 85 952.45 83 952.45 83 951.45 82 951.45 82 948.45 83 948.45 83 947.45 84 947.45 84 946.45 85 946.45 85 944.45 84 944.45 84 946.45 83 946.45 83 947.45 82 947.45 82 948.45 81 948.45 81 949.45 80 949.45 80 950.45 79 950.45 79 951.45 76 951.45 76 950.45 75 950.45 75 947.45 76 947.45 76 946.45 M77 955.45 L78 955.45 78 954.45 77 954.45 77 953.45 76 953.45 76 954.45 75 954.45 75 955.45 76 955.45 76 956.45 77 956.45 77 955.45 M51 949.45 L51 950.45 52 950.45 52 949.45 53 949.45 53 948.45 52 948.45 52 947.45 51 947.45 51 948.45 50 948.45 50 949.45 51 949.45 M102 950.45 L102 949.45 101 949.45 101 948.45 100 948.45 100 949.45 99 949.45 99 950.45 100 950.45 100 951.45 101 951.45 101 950.45 102 950.45 M94 949.45 L95 949.45 95 948.45 94 948.45 94 947.45 93 947.45 93 948.45 92 948.45 92 949.45 93 949.45 93 950.45 94 950.45 94 949.45 M92 952.45 L92 951.45 91 951.45 91 950.45 90 950.45 90 951.45 89 951.45 89 952.45 90 952.45 90 953.45 91 953.45 91 952.45 92 952.45 M86 948.45 L86 949.45 87 949.45 87 948.45 88 948.45 88 947.45 87 947.45 87 946.45 86 946.45 86 947.45 85 947.45 85 948.45 86 948.45"/>
    <path stroke="none" fill="#ad7b05" d="M86 948.45 L85 948.45 85 947.45 86 947.45 86 946.45 87 946.45 87 947.45 88 947.45 88 948.45 87 948.45 87 949.45 86 949.45 86 948.45 87 948.45 87 947.45 86 947.45 86 948.45 M1782 941.75 L1781 941.75 1781 940.75 1774 940.75 1774 941.75 1772 941.75 1772 942.75 1771 942.75 1771 943.75 1770 943.75 1770 944.75 1769 944.75 1769 946.75 1768 946.75 1768 948.75 1769 948.75 1769 949.75 1770 949.75 1770 950.75 1771 950.75 1771 955.75 1770 955.75 1770 956.75 1769 956.75 1769 957.75 1764 957.75 1764 956.75 1763 956.75 1763 954.75 1762 954.75 1762 951.75 1763 951.75 1763 950.75 1764 950.75 1764 949.75 1767 949.75 1767 950.75 1768 950.75 1768 951.75 1769 951.75 1769 953.75 1768 953.75 1768 954.75 1766 954.75 1766 953.75 1765 953.75 1765 952.75 1766 952.75 1766 953.75 1768 953.75 1768 951.75 1767 951.75 1767 950.75 1764 950.75 1764 951.75 1763 951.75 1763 954.75 1764 954.75 1764 956.75 1769 956.75 1769 955.75 1770 955.75 1770 950.75 1769 950.75 1769 949.75 1768 949.75 1768 948.75 1766 948.75 1766 947.75 1761 947.75 1761 948.75 1759 948.75 1759 949.75 1758 949.75 1758 950.75 1756 950.75 1756 951.75 1755 951.75 1755 952.75 1754 952.75 1754 953.75 1753 953.75 1753 956.75 1752 956.75 1752 957.75 1751 957.75 1751 958.75 1749 958.75 1749 959.75 1748 959.75 1748 960.75 1749 960.75 1749 962.75 1750 962.75 1750 963.75 1754 963.75 1754 962.75 1755 962.75 1755 959.75 1752 959.75 1752 961.75 1753 961.75 1753 962.75 1752 962.75 1752 961.75 1751 961.75 1751 959.75 1752 959.75 1752 958.75 1755 958.75 1755 959.75 1756 959.75 1756 962.75 1755 962.75 1755 963.75 1754 963.75 1754 964.75 1750 964.75 1750 963.75 1749 963.75 1749 962.75 1748 962.75 1748 960.75 1747 960.75 1747 961.75 1746 961.75 1746 962.75 1745 962.75 1745 963.75 1737 963.75 1737 962.75 1735 962.75 1735 961.75 1733 961.75 1733 960.75 1732 960.75 1732 959.75 1731 959.75 1731 958.75 1730 958.75 1730 957.75 1729 957.75 1729 956.75 1728 956.75 1728 955.75 1726 955.75 1726 956.75 1724 956.75 1724 957.75 1720 957.75 1720 956.75 1719 956.75 1719 954.75 1718 954.75 1718 951.75 1719 951.75 1719 950.75 1720 950.75 1720 949.75 1723 949.75 1723 950.75 1724 950.75 1724 951.75 1725 951.75 1725 953.75 1724 953.75 1724 954.75 1722 954.75 1722 953.75 1721 953.75 1721 952.75 1722 952.75 1722 953.75 1724 953.75 1724 951.75 1723 951.75 1723 950.75 1720 950.75 1720 951.75 1719 951.75 1719 954.75 1720 954.75 1720 956.75 1724 956.75 1724 955.75 1726 955.75 1726 954.75 1727 954.75 1727 948.75 1726 948.75 1726 947.75 1725 947.75 1725 946.75 1724 946.75 1724 945.75 1723 945.75 1723 944.75 1721 944.75 1721 943.75 1718 943.75 1718 944.75 1716 944.75 1716 945.75 1713 945.75 1713 946.75 1708 946.75 1708 947.75 1709 947.75 1709 950.75 1708 950.75 1708 951.75 1707 951.75 1707 952.75 1704 952.75 1704 951.75 1703 951.75 1703 950.75 1702 950.75 1702 948.75 1703 948.75 1703 947.75 1705 947.75 1705 948.75 1706 948.75 1706 949.75 1705 949.75 1705 948.75 1703 948.75 1703 950.75 1704 950.75 1704 951.75 1707 951.75 1707 950.75 1708 950.75 1708 947.75 1707 947.75 1707 946.75 1705 946.75 1705 945.75 1702 945.75 1702 944.75 1696 944.75 1696 942.75 1695 942.75 1695 941.75 1692 941.75 1692 940.75 1690 940.75 1690 939.75 1689 939.75 1689 938.75 1688 938.75 1688 937.75 1687 937.75 1687 938.75 1686 938.75 1686 939.75 1685 939.75 1685 942.75 1686 942.75 1686 943.75 1689 943.75 1689 941.75 1687 941.75 1687 940.75 1689 940.75 1689 941.75 1690 941.75 1690 943.75 1689 943.75 1689 944.75 1686 944.75 1686 943.75 1685 943.75 1685 942.75 1684 942.75 1684 939.75 1685 939.75 1685 938.75 1686 938.75 1686 937.75 1687 937.75 1687 935.75 1686 935.75 1686 931.75 1684 931.75 1684 930.75 1683 930.75 1683 928.75 1682 928.75 1682 925.75 1683 925.75 1683 923.75 1684 923.75 1684 922.75 1685 922.75 1685 916.75 1684 916.75 1684 914.75 1685 914.75 1685 916.75 1686 916.75 1686 922.75 1685 922.75 1685 923.75 1684 923.75 1684 925.75 1683 925.75 1683 928.75 1684 928.75 1684 930.75 1686 930.75 1686 928.75 1687 928.75 1687 927.75 1688 927.75 1688 926.75 1693 926.75 1693 927.75 1694 927.75 1694 930.75 1693 930.75 1693 931.75 1692 931.75 1692 932.75 1688 932.75 1688 931.75 1687 931.75 1687 934.75 1688 934.75 1688 936.75 1689 936.75 1689 937.75 1690 937.75 1690 938.75 1691 938.75 1691 939.75 1692 939.75 1692 940.75 1694 940.75 1694 939.75 1695 939.75 1695 940.75 1697 940.75 1697 939.75 1698 939.75 1698 938.75 1700 938.75 1700 936.75 1699 936.75 1699 935.75 1698 935.75 1698 934.75 1700 934.75 1700 935.75 1702 935.75 1702 933.75 1703 933.75 1703 932.75 1704 932.75 1704 936.75 1706 936.75 1706 938.75 1705 938.75 1705 939.75 1704 939.75 1704 942.75 1703 942.75 1703 944.75 1705 944.75 1705 945.75 1712 945.75 1712 944.75 1715 944.75 1715 943.75 1717 943.75 1717 942.75 1722 942.75 1722 940.75 1721 940.75 1721 938.75 1720 938.75 1720 936.75 1719 936.75 1719 935.75 1718 935.75 1718 934.75 1720 934.75 1720 935.75 1721 935.75 1721 937.75 1722 937.75 1722 939.75 1723 939.75 1723 936.75 1724 936.75 1724 935.75 1725 935.75 1725 934.75 1726 934.75 1726 933.75 1728 933.75 1728 934.75 1727 934.75 1727 935.75 1726 935.75 1726 936.75 1725 936.75 1725 937.75 1724 937.75 1724 939.75 1726 939.75 1726 938.75 1728 938.75 1728 937.75 1731 937.75 1731 938.75 1729 938.75 1729 939.75 1727 939.75 1727 940.75 1725 940.75 1725 941.75 1724 941.75 1724 942.75 1723 942.75 1723 943.75 1724 943.75 1724 944.75 1725 944.75 1725 945.75 1726 945.75 1726 946.75 1727 946.75 1727 948.75 1728 948.75 1728 955.75 1729 955.75 1729 956.75 1730 956.75 1730 957.75 1731 957.75 1731 958.75 1732 958.75 1732 959.75 1733 959.75 1733 960.75 1735 960.75 1735 961.75 1737 961.75 1737 962.75 1745 962.75 1745 961.75 1746 961.75 1746 960.75 1747 960.75 1747 959.75 1748 959.75 1748 958.75 1749 958.75 1749 953.75 1748 953.75 1748 952.75 1747 952.75 1747 951.75 1746 951.75 1746 950.75 1743 950.75 1743 951.75 1742 951.75 1742 952.75 1741 952.75 1741 955.75 1742 955.75 1742 956.75 1745 956.75 1745 954.75 1744 954.75 1744 953.75 1745 953.75 1745 954.75 1746 954.75 1746 956.75 1745 956.75 1745 957.75 1742 957.75 1742 956.75 1741 956.75 1741 955.75 1740 955.75 1740 952.75 1741 952.75 1741 951.75 1742 951.75 1742 950.75 1743 950.75 1743 949.75 1748 949.75 1748 948.75 1747 948.75 1747 946.75 1746 946.75 1746 945.75 1745 945.75 1745 941.75 1744 941.75 1744 940.75 1741 940.75 1741 939.75 1740 939.75 1740 936.75 1741 936.75 1741 935.75 1743 935.75 1743 934.75 1744 934.75 1744 930.75 1743 930.75 1743 929.75 1742 929.75 1742 928.75 1744 928.75 1744 929.75 1745 929.75 1745 931.75 1746 931.75 1746 934.75 1747 934.75 1747 932.75 1748 932.75 1748 931.75 1749 931.75 1749 930.75 1751 930.75 1751 929.75 1752 929.75 1752 931.75 1751 931.75 1751 932.75 1749 932.75 1749 934.75 1748 934.75 1748 938.75 1752 938.75 1752 939.75 1754 939.75 1754 940.75 1755 940.75 1755 941.75 1756 941.75 1756 943.75 1758 943.75 1758 942.75 1760 942.75 1760 945.75 1759 945.75 1759 946.75 1758 946.75 1758 947.75 1757 947.75 1757 948.75 1759 948.75 1759 947.75 1761 947.75 1761 946.75 1766 946.75 1766 945.75 1768 945.75 1768 940.75 1767 940.75 1767 938.75 1766 938.75 1766 937.75 1765 937.75 1765 936.75 1764 936.75 1764 935.75 1762 935.75 1762 934.75 1765 934.75 1765 935.75 1766 935.75 1766 936.75 1767 936.75 1767 937.75 1768 937.75 1768 939.75 1769 939.75 1769 942.75 1770 942.75 1770 933.75 1769 933.75 1769 931.75 1768 931.75 1768 930.75 1769 930.75 1769 931.75 1770 931.75 1770 932.75 1771 932.75 1771 938.75 1772 938.75 1772 935.75 1773 935.75 1773 927.75 1772 927.75 1772 926.75 1771 926.75 1771 925.75 1772 925.75 1772 926.75 1773 926.75 1773 927.75 1774 927.75 1774 933.75 1775 933.75 1775 932.75 1779 932.75 1779 933.75 1775 933.75 1775 934.75 1774 934.75 1774 936.75 1773 936.75 1773 938.75 1772 938.75 1772 940.75 1773 940.75 1773 939.75 1781 939.75 1781 940.75 1783 940.75 1783 942.75 1782 942.75 1782 941.75 M1687 928.75 L1687 930.75 1688 930.75 1688 931.75 1692 931.75 1692 930.75 1693 930.75 1693 927.75 1688 927.75 1688 928.75 1687 928.75 M1745 936.75 L1744 936.75 1744 937.75 1745 937.75 1745 936.75 M1703 937.75 L1703 938.75 1704 938.75 1704 937.75 1703 937.75 M1755 949.75 L1755 950.75 1756 950.75 1756 949.75 1755 949.75 M1756 949.75 L1757 949.75 1757 948.75 1756 948.75 1756 949.75 M1748 952.75 L1749 952.75 1749 953.75 1750 953.75 1750 957.75 1751 957.75 1751 955.75 1752 955.75 1752 953.75 1753 953.75 1753 951.75 1754 951.75 1754 950.75 1753 950.75 1753 951.75 1748 951.75 1748 952.75 M43 902.45 L44 902.45 44 903.45 43 903.45 43 902.45 42 902.45 42 903.45 43 903.45 43 904.45 42 904.45 42 903.45 41 903.45 41 902.45 42 902.45 42 901.45 43 901.45 43 902.45 M41 911.45 L41 910.45 38 910.45 38 911.45 37 911.45 37 915.45 38 915.45 38 916.45 39 916.45 39 917.45 41 917.45 41 918.45 43 918.45 43 919.45 41 919.45 41 918.45 39 918.45 39 917.45 38 917.45 38 916.45 37 916.45 37 915.45 36 915.45 36 911.45 37 911.45 37 910.45 38 910.45 38 909.45 36 909.45 36 908.45 35 908.45 35 910.45 34 910.45 34 908.45 35 908.45 35 907.45 34 907.45 34 906.45 35 906.45 35 905.45 36 905.45 36 906.45 37 906.45 37 905.45 39 905.45 39 906.45 37 906.45 37 907.45 38 907.45 38 909.45 41 909.45 41 910.45 42 910.45 42 911.45 43 911.45 43 913.45 42 913.45 42 914.45 40 914.45 40 913.45 42 913.45 42 911.45 41 911.45 M43 924.45 L43 925.45 44 925.45 44 926.45 47 926.45 47 927.45 45 927.45 45 929.45 44 929.45 44 930.45 43 930.45 43 931.45 42 931.45 42 932.45 39 932.45 39 931.45 38 931.45 38 930.45 35 930.45 35 931.45 34 931.45 34 934.45 35 934.45 35 935.45 38 935.45 38 934.45 37 934.45 37 933.45 38 933.45 38 934.45 39 934.45 39 935.45 38 935.45 38 936.45 35 936.45 35 935.45 34 935.45 34 934.45 33 934.45 33 931.45 34 931.45 34 930.45 35 930.45 35 929.45 38 929.45 38 930.45 39 930.45 39 931.45 42 931.45 42 930.45 43 930.45 43 929.45 44 929.45 44 926.45 43 926.45 43 925.45 42 925.45 42 924.45 39 924.45 39 925.45 38 925.45 38 927.45 39 927.45 39 928.45 38 928.45 38 927.45 37 927.45 37 925.45 35 925.45 35 924.45 34 924.45 34 923.45 33 923.45 33 922.45 32 922.45 32 919.45 33 919.45 33 918.45 34 918.45 34 917.45 37 917.45 37 918.45 38 918.45 38 919.45 39 919.45 39 921.45 38 921.45 38 922.45 36 922.45 36 921.45 35 921.45 35 920.45 36 920.45 36 921.45 38 921.45 38 919.45 37 919.45 37 918.45 34 918.45 34 919.45 33 919.45 33 922.45 34 922.45 34 923.45 35 923.45 35 924.45 37 924.45 37 925.45 38 925.45 38 924.45 39 924.45 39 923.45 42 923.45 42 924.45 43 924.45 M50 929.45 L47 929.45 47 930.45 46 930.45 46 933.45 49 933.45 49 931.45 48 931.45 48 930.45 49 930.45 49 931.45 50 931.45 50 933.45 49 933.45 49 934.45 46 934.45 46 933.45 45 933.45 45 930.45 46 930.45 46 929.45 47 929.45 47 928.45 50 928.45 50 929.45 51 929.45 51 930.45 52 930.45 52 933.45 54 933.45 54 934.45 52 934.45 52 933.45 51 933.45 51 930.45 50 930.45 50 929.45 M42 936.45 L43 936.45 43 937.45 42 937.45 42 936.45 41 936.45 41 937.45 42 937.45 42 938.45 41 938.45 41 937.45 40 937.45 40 936.45 41 936.45 41 935.45 42 935.45 42 936.45 M43 940.45 L42 940.45 42 939.45 43 939.45 43 940.45 44 940.45 44 941.45 43 941.45 43 942.45 42 942.45 42 941.45 41 941.45 41 940.45 42 940.45 42 941.45 43 941.45 43 940.45 M49 939.45 L49 941.45 52 941.45 52 938.45 51 938.45 51 937.45 47 937.45 47 938.45 46 938.45 46 943.45 47 943.45 47 944.45 49 944.45 49 945.45 54 945.45 54 944.45 55 944.45 55 943.45 56 943.45 56 941.45 57 941.45 57 939.45 58 939.45 58 935.45 59 935.45 59 939.45 58 939.45 58 941.45 57 941.45 57 943.45 56 943.45 56 944.45 55 944.45 55 945.45 54 945.45 54 946.45 49 946.45 49 945.45 47 945.45 47 947.45 46 947.45 46 948.45 48 948.45 48 949.45 46 949.45 46 948.45 45 948.45 45 949.45 44 949.45 44 948.45 43 948.45 43 947.45 44 947.45 44 946.45 43 946.45 43 944.45 44 944.45 44 946.45 45 946.45 45 945.45 47 945.45 47 944.45 46 944.45 46 943.45 45 943.45 45 938.45 46 938.45 46 937.45 47 937.45 47 936.45 51 936.45 51 937.45 52 937.45 52 938.45 53 938.45 53 941.45 52 941.45 52 942.45 49 942.45 49 941.45 48 941.45 48 939.45 49 939.45 M69 933.45 L69 934.45 70 934.45 70 935.45 69 935.45 69 936.45 68 936.45 68 935.45 67 935.45 67 934.45 68 934.45 68 933.45 69 933.45 M63 938.45 L64 938.45 64 937.45 66 937.45 66 938.45 64 938.45 64 939.45 65 939.45 65 941.45 66 941.45 66 940.45 67 940.45 67 939.45 68 939.45 68 937.45 70 937.45 70 936.45 72 936.45 72 937.45 70 937.45 70 938.45 69 938.45 69 939.45 68 939.45 68 940.45 67 940.45 67 941.45 66 941.45 66 945.45 69 945.45 69 943.45 68 943.45 68 942.45 69 942.45 69 943.45 70 943.45 70 945.45 69 945.45 69 946.45 66 946.45 66 945.45 65 945.45 65 944.45 64 944.45 64 946.45 63 946.45 63 951.45 62 951.45 62 952.45 64 952.45 64 953.45 65 953.45 65 951.45 66 951.45 66 953.45 65 953.45 65 954.45 66 954.45 66 955.45 65 955.45 65 956.45 64 956.45 64 955.45 63 955.45 63 956.45 61 956.45 61 955.45 63 955.45 63 954.45 62 954.45 62 952.45 61 952.45 61 953.45 57 953.45 57 952.45 56 952.45 56 951.45 55 951.45 55 948.45 56 948.45 56 947.45 57 947.45 57 946.45 60 946.45 60 947.45 61 947.45 61 949.45 60 949.45 60 950.45 58 950.45 58 949.45 60 949.45 60 947.45 57 947.45 57 948.45 56 948.45 56 951.45 57 951.45 57 952.45 61 952.45 61 951.45 62 951.45 62 946.45 63 946.45 63 944.45 64 944.45 64 943.45 65 943.45 65 941.45 63 941.45 63 940.45 62 940.45 62 942.45 61 942.45 61 940.45 62 940.45 62 939.45 61 939.45 61 938.45 62 938.45 62 937.45 63 937.45 63 938.45 62 938.45 62 939.45 63 939.45 63 938.45 M73 939.45 L74 939.45 74 942.45 73 942.45 73 939.45 M74 939.45 L74 938.45 76 938.45 76 939.45 77 939.45 77 940.45 76 940.45 76 939.45 74 939.45 M74 942.45 L77 942.45 77 941.45 78 941.45 78 938.45 77 938.45 77 937.45 76 937.45 76 936.45 74 936.45 74 935.45 76 935.45 76 936.45 77 936.45 77 937.45 78 937.45 78 938.45 79 938.45 79 941.45 78 941.45 78 942.45 77 942.45 77 943.45 74 943.45 74 942.45 M36 906.45 L35 906.45 35 907.45 36 907.45 36 906.45 M32 926.45 L33 926.45 33 927.45 32 927.45 32 928.45 31 928.45 31 927.45 30 927.45 30 926.45 31 926.45 31 925.45 32 925.45 32 926.45 31 926.45 31 927.45 32 927.45 32 926.45 M34 936.45 L34 937.45 33 937.45 33 938.45 32 938.45 32 937.45 31 937.45 31 936.45 32 936.45 32 935.45 33 935.45 33 936.45 34 936.45 M33 937.45 L33 936.45 32 936.45 32 937.45 33 937.45 M37 939.45 L36 939.45 36 938.45 37 938.45 37 937.45 38 937.45 38 938.45 39 938.45 39 939.45 38 939.45 38 940.45 37 940.45 37 939.45 38 939.45 38 938.45 37 938.45 37 939.45 M76 946.45 L76 947.45 75 947.45 75 950.45 76 950.45 76 951.45 79 951.45 79 950.45 80 950.45 80 949.45 81 949.45 81 948.45 82 948.45 82 947.45 83 947.45 83 946.45 84 946.45 84 944.45 85 944.45 85 946.45 84 946.45 84 947.45 83 947.45 83 948.45 82 948.45 82 951.45 83 951.45 83 952.45 85 952.45 85 951.45 86 951.45 86 952.45 85 952.45 85 953.45 84 953.45 84 955.45 85 955.45 85 956.45 86 956.45 86 955.45 87 955.45 87 956.45 86 956.45 86 957.45 84 957.45 84 956.45 83 956.45 83 957.45 81 957.45 81 956.45 80 956.45 80 955.45 81 955.45 81 956.45 82 956.45 82 955.45 83 955.45 83 952.45 82 952.45 82 951.45 81 951.45 81 950.45 80 950.45 80 951.45 79 951.45 79 952.45 76 952.45 76 951.45 75 951.45 75 950.45 74 950.45 74 949.45 73 949.45 73 951.45 74 951.45 74 952.45 73 952.45 73 951.45 72 951.45 72 950.45 71 950.45 71 951.45 70 951.45 70 950.45 71 950.45 71 949.45 70 949.45 70 948.45 71 948.45 71 947.45 70 947.45 70 946.45 71 946.45 71 947.45 72 947.45 72 946.45 73 946.45 73 945.45 74 945.45 74 946.45 73 946.45 73 948.45 74 948.45 74 947.45 75 947.45 75 946.45 76 946.45 76 945.45 78 945.45 78 946.45 79 946.45 79 947.45 78 947.45 78 946.45 76 946.45 M68 952.45 L68 951.45 69 951.45 69 952.45 70 952.45 70 953.45 69 953.45 69 954.45 68 954.45 68 953.45 67 953.45 67 952.45 68 952.45 68 953.45 69 953.45 69 952.45 68 952.45 M65 954.45 L64 954.45 64 955.45 65 955.45 65 954.45 M77 955.45 L77 956.45 76 956.45 76 955.45 75 955.45 75 954.45 76 954.45 76 953.45 77 953.45 77 954.45 78 954.45 78 955.45 77 955.45 M51 949.45 L52 949.45 52 948.45 51 948.45 51 949.45 50 949.45 50 948.45 51 948.45 51 947.45 52 947.45 52 948.45 53 948.45 53 949.45 52 949.45 52 950.45 51 950.45 51 949.45 M45 947.45 L44 947.45 44 948.45 45 948.45 45 947.45 M102 950.45 L101 950.45 101 951.45 100 951.45 100 950.45 99 950.45 99 949.45 100 949.45 100 948.45 101 948.45 101 949.45 102 949.45 102 950.45 M94 949.45 L94 948.45 95 948.45 95 949.45 94 949.45 94 950.45 93 950.45 93 949.45 92 949.45 92 948.45 93 948.45 93 949.45 94 949.45 M93 948.45 L93 947.45 94 947.45 94 948.45 93 948.45 M92 952.45 L91 952.45 91 953.45 90 953.45 90 952.45 89 952.45 89 951.45 90 951.45 90 950.45 91 950.45 91 951.45 92 951.45 92 952.45 M100 949.45 L100 950.45 101 950.45 101 949.45 100 949.45"/>
    <path stroke="none" fill="#000000" d="M100 949.45 L101 949.45 101 950.45 100 950.45 100 949.45 M1687 928.75 L1688 928.75 1688 927.75 1693 927.75 1693 930.75 1692 930.75 1692 931.75 1688 931.75 1688 930.75 1687 930.75 1687 928.75 M1745 936.75 L1745 937.75 1744 937.75 1744 936.75 1745 936.75 M1703 937.75 L1704 937.75 1704 938.75 1703 938.75 1703 937.75 M1756 949.75 L1756 948.75 1757 948.75 1757 949.75 1756 949.75 1756 950.75 1755 950.75 1755 949.75 1756 949.75 M1748 952.75 L1748 951.75 1753 951.75 1753 950.75 1754 950.75 1754 951.75 1753 951.75 1753 953.75 1752 953.75 1752 955.75 1751 955.75 1751 957.75 1750 957.75 1750 953.75 1749 953.75 1749 952.75 1748 952.75 M43 902.45 L43 903.45 42 903.45 42 902.45 43 902.45 M42 936.45 L42 937.45 41 937.45 41 936.45 42 936.45 M42 940.45 L43 940.45 43 941.45 42 941.45 42 940.45 M63 938.45 L63 939.45 62 939.45 62 938.45 63 938.45 M36 906.45 L36 907.45 35 907.45 35 906.45 36 906.45 M32 926.45 L32 927.45 31 927.45 31 926.45 32 926.45 M33 937.45 L32 937.45 32 936.45 33 936.45 33 937.45 M37 939.45 L37 938.45 38 938.45 38 939.45 37 939.45 M68 952.45 L69 952.45 69 953.45 68 953.45 68 952.45 M65 954.45 L65 955.45 64 955.45 64 954.45 65 954.45 M51 949.45 L51 948.45 52 948.45 52 949.45 51 949.45 M45 947.45 L45 948.45 44 948.45 44 947.45 45 947.45 M94 948.45 L94 949.45 93 949.45 93 948.45 94 948.45 M86 948.45 L86 947.45 87 947.45 87 948.45 86 948.45"/>
  </g>
</svg>