<svg xmlns="http://www.w3.org/2000/svg" xmlns:xlink="http://www.w3.org/1999/xlink" width="2000" height="1000">
  <defs/>
  <g>
    <path stroke="none" fill="#000001" d="M2000 147 L2000 284 2000 463 2000 642 2000 821 2000 980.2 2000 999.35 2000 1000 1999.7 1000 1982.45 1000 1882 1000 1703 1000 1524 1000 1482.35 1000 1345 1000 1166 1000 1166 999 1166 994 Q1182.6 978.1 1210 978 L1211 978 Q1215 971 1221.95 966.4 1224.3 964.8 1224 960 1229.65 957.6 1237.65 961.75 1250.2 968.3 1267.85 970.4 1279.05 971.75 1279 960 1281.05 950.9 1283.05 962 1284.25 968.55 1284 956 L1284 954 1284 953 1284 946 1285 946 1285 945 1285 941 Q1287.1 946.45 1288.85 952.05 L1289 953 Q1294.65 959.9 1303.85 963.45 L1304 964 Q1325.35 954.35 1338.05 941 1339 940 1341 940 L1344 940 Q1353.45 928.95 1363.25 918.25 1363.5 918 1364 918 1369.75 927.75 1371.5 941.95 L1372 942 Q1382.35 948.65 1394.85 953.45 L1395 954 Q1409.45 949.95 1423.05 945.15 L1424 945 Q1429.85 939.35 1434.35 932.25 1434.5 932 1435 932 1452.25 928.75 1467.9 930.1 1469.7 930.3 1469 934 1468.55 946.7 1482.35 946.3 L1483.05 946.25 Q1494.85 945.7 1497 956 L1503 956 1504 956 Q1514.1 956.9 1520.8 960.3 L1523.95 960.1 Q1537.15 959.1 1546 953 L1546 952 1550.9 952.5 1551 953 Q1554.6 960.4 1568 958.1 L1569 958 1575.95 958.5 1576 959 1600 959 1601 959 1608.95 959.5 1609 960 Q1617.45 966.6 1628.15 965.05 1629.75 964.8 1629.7 968 1629.7 971.9 1634 972 1641.65 970.15 1650 969.05 L1651 969 Q1656 963.5 1663.85 960.55 L1664 960 Q1704.25 960.25 1734.85 955.05 1738.45 954.45 1739.4 950.1 1739.5 949.5 1740 949 1753.15 945.45 1758.9 939.85 1767.2 931.7 1776 924 1775.65 909.8 1770.2 900.85 L1770 900 Q1781.3 882.8 1780.9 853 1780.7 837.15 1785.2 826.25 1787.85 819.85 1787.6 812 1786.8 789.7 1777 776 L1777 757 1777 756 1776.5 755.9 Q1776.05 753.5 1776 751 L1777 751 Q1778.3 746.35 1780.4 742.2 L1781 741 Q1774.95 735.6 1774 727 1777.85 713.6 1791.8 707.6 1792 707.5 1792 707 1794.75 693.25 1799.55 681.8 1805.1 668.6 1804 654 1791.8 645.2 1775.15 640.55 1775 640.5 1775 640 1786.3 633.3 1781.8 616.05 1780.25 610.2 1782 606 1807.85 597.6 1828 611.5 L1828 611 Q1834 607.95 1839.5 605.75 L1840.75 605 Q1846.6 600.6 1855 599 1859.1 561.1 1860.5 521 L1860 521 1841 520 1840 520 1839 520.1 Q1836.3 520.7 1836 519 L1834 519 1832.5 518.75 1825 474 1822.25 496.05 1822 498 Q1820.3 496.7 1821 486 L1820.45 485.9 Q1820 484 1820 482 L1820 481 Q1820.6 455.4 1818 433 1819.7 428.75 1819.05 422 L1819 421 1819 420 1819 417 1820 417 Q1820.25 403.75 1821.65 391.05 1822.95 379.15 1805 383 L1804 383.1 Q1801.3 383.7 1801 382 L1800 382 Q1792.45 382.1 1795 372 1799.1 365.25 1810.3 367.55 L1815.95 368.5 1834 370 Q1836.9 348.9 1836 324 L1836 323 1835.5 322.95 Q1835 315 1835 307 L1835.05 299 Q1835.05 297.5 1834.75 297.45 1814.75 294.25 1792 293.7 1784 293.5 1787 281 1806.45 281.8 1826 281.5 L1826 281 Q1830.75 266.75 1830 247 L1830 246 1830 245 1830 241 1831 241 1831 240 1831 214 Q1831.65 179.65 1836.95 147.15 1837.3 145.3 1841 146 1854.6 142.2 1855.95 151 L1856 152 Q1856.55 164.4 1859.25 172.9 1859.85 174.7 1863 174 1871.15 174.15 1875.4 170.45 1879.8 166.65 1880 177 L1903.95 174.4 Q1909.9 173.7 1911.05 176.6 1912.6 180.4 1920.05 179.3 L1924 179 1928 179 1929 179 1929 178 Q1934.3 170.8 1946.25 174.1 1962.05 178.45 1979 176 1983.3 163.8 1985.55 148.2 1985.55 148 1986.65 147.4 1991.95 144.4 2000 147 M1640.9 296.15 L1660.95 294.2 Q1666.15 293.85 1665 299 1666.75 299.8 1666.1 303 L1666 304 1666 314 1666 315 Q1667.7 316.3 1667.1 320 L1667 321 1667 331 1667 332 Q1668.7 333.3 1668.1 337 L1668 338 1668 357 1668 358 1668.1 359 Q1668.75 362.2 1667 363 L1667 370 1667 371 1667.1 372 Q1667.75 375.2 1666 376 L1666.05 377 Q1667.7 389.7 1655 388 1650.8 390.9 1649.95 386.8 1649 382.05 1645.25 382.65 1620.45 386.55 1624 364 L1624 363 1624 357 1623 356.95 1596 356 1595 356 1590 356 1589 356 1563 356 1562 356 1540 356 1539 356 1521 356 1520.95 356.5 1511 357 1510 357 1499 357 1498.95 357.5 1490 358 1489.05 358.15 Q1486.1 359 1482.35 359.1 L1478 359 1478.05 360 Q1478.75 366.25 1477 370 1476.35 378.65 1479.9 382.9 1481.75 385.15 1482.35 388.15 L1482.5 389.05 Q1482.95 392.5 1483 396 1484.75 399.25 1483.5 404.9 L1483 405 1483 418 1483 419 1483.05 420 Q1483.65 424.25 1482.35 426.5 L1482 427 1482 440 1482 441 1482.05 442 Q1482.75 446.75 1481 449 1481 453 1481.5 456.95 L1482 457 1482.35 457 1486.9 457.5 1487 458 1487.5 458.1 Q1489.5 469 1486 480 1489.75 493.25 1490 510 L1490 511 Q1491.7 511.3 1491.1 514 L1491 515 Q1490.5 525.5 1504.2 523.8 L1524.85 521 1525.3 520.9 Q1533.45 518.45 1544 519 L1549.9 519.5 1550 520 1560 520 1561 520 1567.95 520.5 1568 521 1578 521 1579 521 1585.95 521.5 1586 522 1596 522 1597 522 1602.9 522.5 1603 523 1614 523 1615 523 1620.9 523.5 1621 524 Q1633.35 521.3 1634 506.05 L1634.1 505.7 Q1636.9 496.9 1647 496 L1651 496 1652 496 1657.9 496.5 1658 497 Q1670.95 495.5 1671.6 500.2 1672 503 1670.85 505.95 1663.8 523.8 1660 545 1661.75 545.8 1660.55 548.85 L1660 549 1659.75 549.65 Q1648.5 557 1638 565 L1637 565.1 Q1634.3 565.7 1634 564 L1633 564.1 Q1623.45 565.95 1618 572 L1617 572.1 1600 575 1599.75 575.85 Q1592.05 586.55 1573 586 L1572 586.05 Q1567.75 586.7 1566 585 L1565 585 1554 585 1553 585.05 Q1548.75 585.7 1547 584 L1546 584 1535 584 1534 584.05 Q1529.75 584.7 1528 583 L1527 583 Q1518.1 582.9 1512 580 1511.5 580 1511.15 580.25 1501.85 586.35 1487 584 L1487 585 1487.1 586 Q1487.7 588.7 1486 589 L1485.85 589.95 Q1485.3 591.6 1482.35 591.1 L1482 591 1481.95 591.5 1475 592 1474 592 1467 592 1466.9 592.5 1461 593 1460 593 Q1446.15 593.4 1436 590 L1435.25 589.75 1425 581 1424 580.9 Q1416.1 579.4 1409 577 L1408.75 576.15 Q1397.75 559.8 1381 549 L1380 549 Q1370.75 549.25 1361 546 L1360.9 546.55 1357 547 1356 547.05 Q1351.75 547.7 1350 546 1353.85 541.85 1359.05 538.95 L1358.05 537.7 Q1354.3 532.75 1356 522 L1355.5 521.95 Q1354.95 518.5 1355 515 L1354.95 514 Q1352.2 485.8 1347 460 1352.05 453.55 1350.05 440 L1350 439 Q1357.55 430.55 1355.9 411.9 1355 401.5 1355 391 L1354.5 390.9 Q1354 388.5 1354 386 L1353.95 385 Q1350.85 363.65 1351 339 L1350.5 338.95 Q1350 331 1350 323 L1350 322 Q1349.75 307.75 1349 294 L1349 293 1349 289 1350 289 1350 288 1350 271 1350 270 1350 266 1351 266 1351 265 1351 246 1351 245 1351 239 1352 239 1352 238 1352 223 1352 222 1352 216 1353 216 1352.85 215.05 Q1351.25 210.75 1352 204 L1351.5 203.9 Q1351 201 1351 198 L1351 197 1351 185 1351 184 1351 178 Q1352 172 1353.45 166.1 L1354 166 1354 165 1357 165 1358 165 Q1369.05 162.05 1375.75 168.25 L1376 169 1376.1 170 Q1376.7 172.7 1375 173 L1375.05 174 Q1375.8 182.25 1374 188 1374.55 196.25 1387.2 194.75 L1391.85 194.1 Q1409.1 191.6 1430 191.3 1449.75 191.05 1463 195 1465.95 188.45 1465.25 177 1464.5 164.5 1477 168 L1482.35 168.2 1485.95 168.5 1486 169 Q1490.3 199.7 1490 235 L1490 236 Q1491.7 237.75 1491.05 242 L1491 243 1491 262 1491 263 Q1492.75 263.8 1492.1 267 L1492 268 Q1490.4 285.6 1497.9 294.25 1499.45 296 1503 295.85 1505.25 295.8 1511 294 L1511 293 1515.9 293.5 1516 294 Q1535.35 292.55 1556 294.95 L1557 295 1557 294 1561 294 1562 294 Q1580.4 296.45 1596 295.05 L1597 295 1600.9 295.45 1601 296 Q1602.45 298.95 1605.15 297.25 L1606 297 1606 296 1610.9 296.5 1611 297 Q1625.1 298.65 1636.3 296.8 L1640.9 296.15 M1760.8 313.1 Q1758.95 329.55 1759 346.2 1759 392.9 1757.55 439.6 L1756 439.65 1754 439.65 Q1746.15 438.95 1747.4 426.6 1749.05 410.65 1749 394.55 L1749 300 Q1762.5 297.35 1760.8 313.1 M1417 252 L1417.05 253 Q1417.75 263.75 1416 272 L1416 280 1416 281 Q1417.75 283.75 1416.55 288.9 L1416 289 1416 291 1416 292 1416 296 1416 297 Q1417.95 297.05 1418.75 298.15 L1419 299 1420 299 1420 298 1424 298 1425 298 1425 297 1425 295 Q1428.25 295.7 1428.85 293.95 L1429 293 1428.5 292.95 Q1428 289 1428 285 L1428 284 1428 279 1427.5 278.95 Q1427 275 1427 271 L1427 270 1427 269 1426.5 268.95 Q1426.05 261.5 1426 254 L1425.9 253.05 Q1424.7 248.05 1418 249 L1418.1 249.95 Q1418.65 252.15 1417 252 M1922 239 L1921 239.1 Q1918.3 239.7 1918 238 L1917 238 1916 238 1916 241 1916 242 1916 250 1916 251 1916 256 1916 257 Q1917.75 260.25 1917.05 266 L1917 267 1917 270 1917 271 1917 280 1917 281 Q1918.75 281.8 1918.1 285 L1918 286 Q1927.2 288.7 1926.8 273 L1926 249 1926 248 1926 243 1927 243 1926.75 242.2 Q1924.95 240.05 1922 239 M1360 701 Q1369.25 703.25 1379 704.9 L1380 705 Q1391.1 702.1 1398.35 695.35 1402.15 691.85 1405 695 1412.6 704.8 1428 704 L1429 704 Q1434.75 715.2 1432.5 728.9 L1432 729 Q1414.35 734.8 1405.55 749 L1404.7 748.45 Q1402.45 747 1400 746 1388.5 744 1385.6 756.7 1384.45 761.9 1381.5 766.35 1373.65 778.1 1373.4 791 1373.35 792.65 1374 795 1367.25 811.8 1355.65 828.75 L1355 829 Q1335.75 828.25 1327.2 811.9 L1327 811 Q1316.85 816.35 1310.25 825.2 1310 825.5 1310 826 1296.7 830.2 1287.25 838.3 1287 838.5 1287 839 1264.6 844.4 1248 844 1239.8 843.8 1236 849 L1235.75 849.75 1232 853 Q1223.85 859.6 1226 872 L1227.3 878.45 Q1232.5 898.65 1216 895 L1215 895 1212 895 Q1210.55 896.05 1210.2 898.05 L1209.7 899.1 Q1195.65 904.15 1176 903 L1175 903.05 Q1170.25 903.75 1168 902 1162.65 902.35 1159.6 900.15 1153 895.35 1141 900 1141 899.5 1140.8 899.4 1140 899 1139.75 898.6 1135.2 890.3 1134 879 L1133.2 878.75 Q1127.35 874.15 1124 867 1127.05 860.05 1127 850 L1127 849 1127 848 1127 841 1126.95 840 Q1125.8 817.7 1116 804 L1116 803 1116 784 1115.5 783.95 Q1115 778 1115 772 1113.95 771.05 1113.45 775.05 1112.8 780.25 1112.3 778.6 1107 761 1105.8 740.95 1105.5 736 1104.3 731.45 1101.3 720.2 1108 715 1092.7 700.3 1088.1 675 1084.55 655.45 1086 631 1089.8 625.3 1090.95 617 L1091 616 1090.5 615.9 Q1090 613 1090 610 L1090 609 1090 600 1089.5 599.9 Q1089 597 1089 594 L1088.95 593 Q1088.1 581.85 1081 577 L1080.45 576.9 Q1080 575 1080 573 L1081 573 1081 572 1081 568 Q1084.65 556.15 1086.9 543 L1087 542 1086.5 541.9 Q1086 539.5 1086 537 L1087 537 1087 536 1087 529 1087 528 1087 524 1088 524 1088 523 1088 517 Q1093.75 507.5 1093.05 497 L1093 496 1092.5 495.95 Q1091.95 492.5 1092 489 L1092 488 Q1092 472 1090 458 L1089.45 457.9 Q1089 456 1089 454 1089 453 1088.5 452.5 L1087.9 451.7 Q1082.1 435.9 1079 418 1087.45 413.95 1100 414.5 L1100 415 Q1103.5 424.5 1119 421.1 L1120 421 1120 420 1126 420 1127 420 Q1132.7 420.7 1132.5 415 L1133 415 1133 414 1137.9 414.5 1138 415 1146 415 1147 415 1151.9 415.5 1152 416 Q1155.3 417.7 1156.45 421.85 L1157 422 1163 422 1164 422 1167.9 422.45 1168 423 Q1181.6 426.1 1182.5 416.05 L1183 416 1183 415 1196.95 415.5 1197 416 Q1205.8 423.25 1201.85 439.95 L1200.4 445.4 Q1195.6 461.1 1188 473 L1188 476 1188 477 1188 480 1188 481 Q1189.35 521.4 1194.9 552 L1195 553 Q1197.3 557.15 1200.6 560.4 1205.35 565.15 1208.15 571.4 1211.2 578.25 1219 580 1215.3 616.75 1216.4 651.95 1216.5 656 1217.55 660.1 L1220 669 Q1213.5 684.45 1215.15 699 1215.5 701.95 1219 702 1226.4 696.2 1233.25 703.75 L1234 704 Q1237.3 717.7 1248.1 723.8 L1249 724 Q1256.7 721.05 1266.05 724.85 L1267 725 Q1273.15 716.15 1280.75 708.75 L1281 708 Q1304.15 720.85 1331.4 711.05 1334.05 710.1 1340 712 1343.9 713.2 1347 712 1355.85 709.35 1359.4 701.2 1359.5 701 1360 701 M649 197 L649 198 649.1 199 Q649.7 202.7 648 204 L648.05 205 Q648.75 211.25 647 215 L647 216 Q648.7 217.75 648.05 222 L648 223 648 238 648 239 Q649.7 240.3 649.1 244 L649 245 649 265 649 266 Q650.7 266.8 650.1 270 L650 271 650 288 650 289 Q651.7 289.8 651.1 293 L651 294 651.05 295 Q651.75 301.75 650 306 L650 322 650 323 650.05 324 Q650.75 332.75 649 339 645.6 386.1 646 437 646 439 647 439.9 651.55 443.95 650 454 L649.75 454.8 Q635.3 473.3 640 503 L639.75 503.75 Q632.35 510.55 636 520 642.9 520.1 641 521.95 632.9 529.85 638 541 639.2 544.7 638.65 546.25 L637.4 548.4 Q631.1 554.6 624 560 612.75 562.7 603.95 563.45 591.95 564.45 586 571 L585.85 571.95 Q581.8 585.3 564 585 L563.9 585.5 558 586 557 586 548 586 547.9 586.5 542 587 541 587 532 587 531.9 587.5 526 588 525 588 516 588 515.9 588.5 510 589 509 589 500 589 499.9 589.5 494 590 493 590 486 590 485 590.05 Q480.25 590.75 478 589 467.8 589.7 459.95 588.2 L411.8 579.2 Q385.95 574.55 370 561 L370 560.5 Q363.7 561.2 353 559 L352.8 558.4 Q345.6 554.35 340 549 L339.45 548.9 Q339 547 339 545 L340 545 340 544 340 540.95 340 536 340 535 340 532 341 532 341.05 531 Q341.75 526.25 340 524 L339 524.1 Q336.3 524.7 336 523 335.5 523 335.35 522.8 329.15 512.35 329 496 L338 496 339 496 345.95 496.5 346 497 358 497 359 497 365.95 497.5 366 498 Q373.75 498.25 370.45 508.8 368.05 516.5 371.25 523.45 371.5 524 373 524 L379 524 379 523 384 523 385 523 396 523 397 523 397 522 402 522 403 522 413 522 414 522 414 521 420 521 421 521 431 521 432 521 432 520 438 520 439 520 449 520 450 520 450 519 455 519 456 519 457.95 518.95 Q472.1 518.5 478.45 520.65 482.5 522 487 522 L514 522 514 521 521 521 522 521 Q528.7 494.7 526.05 465.1 L525.45 463.7 Q522.15 458.85 523 450 L522.5 449.95 Q522 446 522 442 L522 441 522 413 521.5 412.95 Q521 404 521 395 L522 395 522 394 522 385 Q527.05 387.75 527 382 L527 381 526.5 380.95 Q526 377.5 526 374 L526 373 526 356 525 356 507 356 506 356 472 356 471.95 356.5 461 357 460 357 457.95 357 443 357 442 357 409 357 408.95 357.5 399 358 398 358 381 358 Q374.95 371.45 372.6 388.95 370.65 403.65 364 393 L363 393.05 Q358.25 393.75 356 392 L355 392 344 392 343 392.05 Q338.25 392.75 336 391 335.5 391 335.4 390.8 335 390 335 389 L334.5 388.9 Q334 386.5 334 384 L334 383 334 376 333.5 375.9 Q333 373.5 333 371 L333 370 333 363 332.5 362.9 Q332 360.5 332 358 L332 357 332 350 331.5 349.9 Q331 347.5 331 345 L331 344 331 337 330.5 336.9 Q330 334.5 330 332 L330 331 Q331.65 331.15 331.1 328.95 L331 328 331 327 331 320 332 320 332 319 332 307 Q333.55 302.55 340 302.95 L341 303 341 302 345 302 346 302 Q358.65 304.45 366.1 301.2 L367 301 367 300 371.9 300.5 372 301 Q391.35 299.55 412 301.95 L413 302 413 301 417 301 418 301 Q436.35 303.45 452 302.05 L453 302 456.9 302.45 457 303 457.95 304.35 461.15 304.25 Q461.5 304 462 304 L462 303 466.9 303.5 467 304 Q486.05 302.95 504 303.5 L504 303 Q508.75 288.75 508 269 L508 268 508 267 508 263 509 263 509 262 509 242 509 241 509 236 510 236 510 235 510 220 510 219 510 213 511 213 510.85 212.05 Q509.25 208.25 510 202 510.7 183.2 516.7 168.7 517 168 519 168 532.6 164.2 533.95 173 L534 174 Q534.55 186.4 537.9 194.65 538.75 196.7 543 196 L543 195 548 195 549 195 Q555.65 187.3 565.5 190.5 L569 191.15 Q594.3 194.7 624 194 L631.8 166.5 Q631.95 165.95 633.15 165.25 637.4 162.65 642 165 L645.9 165.45 646 166 Q649.3 173.2 649 184 L649 185 649 197 M921 420 Q916.55 436.55 913.05 454.8 L912.85 455.35 Q907.45 469.45 908 489 L908.05 490 Q908.75 499.75 907 507 L907 517 907 518 Q908.7 518.3 908.1 521 L908 522 Q907.25 526.75 908.8 529.15 L909 530 912.9 530.45 913 531 Q930.15 531 943.85 533 L944.4 533.8 Q945.35 535.65 945 539 944.55 547.05 936 546.85 L919 546 Q918.75 556.3 919 571 L919 572 Q920.75 574.8 920.05 580 L920 581 920 585 920 586 920 609 920 610 Q921.75 612.8 921.05 618 L921 619 921 623 921 624 920.85 639 Q920.65 647.25 919 637 L918.45 636.9 Q918 635 918 633 L918 632 918 629 918 628 Q917.95 620.55 915 616 L915 622 915 623 915.1 624 Q915.7 626.7 914 627 L914 638 914 639 914.1 640 Q914.7 642.7 913 643 912.7 658.2 910.35 671.05 909 678.25 908.85 675.95 908.2 665.55 901 667 L901 675 901 676 901 689 901 690 Q902.75 692.25 902.05 697 L902 698 Q902.6 703.1 901.5 706.2 L901.05 707.5 Q896.9 694.6 895 678 893.3 679.3 893.6 683.05 897.45 728.75 889.45 763.1 889 765 888.6 765.1 887.05 765.4 885 759 L885 760 885.05 761 Q885.75 767.75 884 772 L884 773 884 792 883.4 792.2 Q876.5 805 873 821 L873 828 873 829 873 836 873 837 873.1 838 Q875.6 851.25 874 859 L873.75 859.65 Q862.75 867.25 863 886 860 887 856.9 887.45 L850.85 887.8 Q842.7 887.1 832 890 L831.95 890.5 824 891 823 891 Q805.7 891.3 791 889 L790.05 888.85 Q781.1 886.2 789 882 L790.1 881.25 Q791.7 880.7 789.95 879.4 784.9 875.6 782.6 870.3 778.65 861.05 772 860 L771.85 860.55 Q760.5 864.9 751 854 L747.05 844 Q741.9 830.6 732 822 729.9 824.4 726 824.85 722.75 825.2 717.6 822.8 709.5 819 700 818.75 695.35 818.65 692 816 679.5 823.5 661.95 825.7 651.4 827.05 654 824 654.5 822 653.75 821.3 646.05 814 638.65 801.6 635.75 796.75 632.1 792.85 622.5 782.7 627 770 628.75 766.7 623.1 765.5 613.15 763.35 610 754 611.65 751.15 614.4 750 617.95 748.45 620.05 746.15 622.9 743 613 741 613 737.5 611.75 734.55 608.65 727.3 598.4 725.1 L575.75 720.25 Q566.65 718.35 563 712 566.25 706.75 566.95 699 L567 698 566.45 697.9 Q566 696 566 694 L566 693 566 691 Q574.1 689.6 584 690 L585 690 585 689 590.9 689.5 591 690 608 690 609 690 613 690 614 690 618.9 690.5 619 691 636 691 637 691 641.9 691.5 642 692 660 692 661 692 668.95 692.5 669 693 Q677.7 694.2 681 689.75 681.5 689 683 689 L686.9 689.45 687 690 Q696.25 686.25 702.75 679.75 L703 679 Q715.65 689.85 736.7 693.7 L748.05 695.8 750 696 Q764.9 690.4 778.1 689.55 780.05 689.4 783 689.5 783.5 689.5 784 689 787.9 673.95 780.2 657.9 L780 657 Q788.9 632.2 783.05 601 781.25 591.25 781 580 792 575.5 796.7 563.65 799.1 557.6 805 554 809.4 529.55 811.5 500.05 813.8 467.95 798 450 793.05 430.85 799.65 416.75 800 416 802 416 L802 415 816.95 415.5 817 416 Q818.2 425.3 831 423.1 L832 423 832 422 837 422 838 422 842 422 843 422 Q845.2 413.9 854.05 414.25 863.45 414.55 867.75 418.3 868.55 419 869 420 L879.95 420.5 880 421 Q892 421.7 897.25 418.7 898.5 418 898.95 416 899.3 414.3 901 414 913.85 413.65 920.75 419.3 L921 420 M1146.4 467.2 L1146 468 Q1140.15 462.75 1136 468 L1136 471 1136 472 Q1137.7 472.3 1137.1 475 L1137 476 1137 487 1137 488 1137.1 489 Q1137.7 491.7 1136 492 1139.1 495.55 1146.05 488.95 L1148 487 1147.5 486.95 Q1147 483 1147 479 L1147 478 1147 475 1147 474 1147 471 1147 470 1147 467 Q1146.5 467 1146.4 467.2 M856 467 L855 467 854 467 854 470 854 471 854.05 472 Q854.75 482.25 853 490 854.85 498.7 863 494 L863.4 494.8 Q863.5 495 864 495 L864 494 864 487 864 486 864 483 864 482 864 478 864 477 864 472 865 472 864.85 471.05 Q864.2 468.8 861 469 L860.05 468.85 856 467 M586 255 Q586 253 585.45 252.85 578.55 250.7 575 250 L575 253 575 254 575 257 575 258 575 269 575 270 Q576.7 270.8 576.1 274 L576 275 576 288 576 289 Q575.1 297.45 582 297.95 L583 298 583 297 583 292 584 292 584 291 584 284 584 283 584 280 584 279 584 271 585 271 585 270 585 267 585 266 585 255 586 255 M166 153 Q167.6 172.9 167 190 L167 191 Q168.7 192.75 168.05 197 L168 198 168 213 168 214 Q169.7 215.3 169.1 219 L169 220 169 240 169 241 Q170.7 241.8 170.1 245 L170 246 169.9 250 Q169.55 265.35 172.85 277.05 L173 278 Q187.5 284.1 203.9 282.25 213.35 281.15 213 289 211.1 298.1 196.9 295.45 L192 295 191.9 295.5 187 296 186 296 180 296 179 296 165 296 165 306 165 307 165.05 308 Q165.75 316.75 164 323 163 347.5 167.7 367.6 168 369 170.1 369.45 L175 370 175 369 181 369 182 369 Q189.25 368.55 196 368.95 L197 369 197 368 203.95 368.5 204 369 Q205.65 368.9 205.1 371.05 L205 372 205.1 373 Q205.7 375.7 204 376 L204.1 377 Q205 382.5 199 381 L198.9 381.5 194 382 193 382 187 382 186.9 382.5 182 383 Q181.5 383 181.15 383.25 179.95 383.95 178 384 179.9 399.1 180 416 L180 417 Q181.7 417.3 181.1 420 L181 421 181.05 422 Q183.15 436.5 180 447 L180 479 180 480 180.1 481 Q180.7 484.7 179 486 L179 489 179 490 179 491 179 492 179 496 179 497 178.95 498 Q178.25 503.6 178 497 L178 496 178 495 177.45 494.9 Q177 493 177 491 176 484.5 176 477 L176 475.5 Q171.05 488.05 171.85 506.95 172.35 517.85 164 519 L163.95 519.5 157 520 156 520 145 520 144.9 520.55 141 521 140 521 139 521 140.5 540.95 144.95 602.85 146.1 603.2 158 604 158 603 168 603 169 603 Q190.25 592.75 205.15 576 210.45 570.05 218 571 221.6 576.9 223.5 584 L223 584 Q216.95 595.95 214.1 611 L214 612 214.1 613 Q214.7 615.7 213 616 L213 633 213 634 Q214.7 634.3 214.1 637 L214 638 Q213.95 641.5 214.6 644.1 L214.95 646.05 Q204.9 656.9 204 677 202.35 678.35 200.1 678.1 185.05 676.4 175 684 186.65 687 188.7 696.65 189.05 698.4 191.55 699.8 206.25 707.75 221 716 228.6 727.05 221.65 736.75 L221 737 Q217 741.55 222.75 750.15 L223 751 Q224.7 752.3 223.55 755.85 L223 756 223 757 223 776 Q222.5 776 222.4 776.2 215.5 789 212 805 L212 812 212 813 212 820 212 821 212 822 Q211.9 832.05 215 839 L214.85 839.95 Q211 850.5 198 852 190.95 851 194.3 858.85 195.75 862.2 193.7 862.65 190.8 863.3 191.05 864.8 193.35 878.2 188 886 L188 889 188 890 188.1 891 Q188.7 894.2 187 895 L187 903 187 904 187.1 905 Q187.7 908.2 186 909 184.6 923.9 190.35 932.05 191 933 193 933 L193 932 196 932 197 932 197 931 212 932 213 932 213 931 216.9 931.45 217 932 Q222.7 946.3 231.75 957.4 233.45 959.55 237.85 960.1 239.65 960.35 243 960 L246.9 960.45 247 961 252 961 253 961 253 960 267 960 268 960 283 960 284 960 Q318.75 959.25 350 962.5 L349 964 Q349.3 965.7 352 965.1 L353 965 358 965 359 965 359 964 363 964 364 964 368 964 369 964 369 963 373 963 374 963 Q381.25 960.7 390 960.05 L391 960 391 959 397 959 398 959 404 959 405 959 423 959 424 959 424 958 432 958 433 958 437 958 438 958 Q447.9 960.4 448.5 953.05 L449 953 449 952 453.9 952.5 454 953 Q465.65 957.85 484 956.05 L485 956 502 956 503 956 Q504.45 946.95 514 946.05 L515 946 515 945 518 945 519 945 Q531.4 946.4 531 935 L531 934 531 933 531 930 532 930 532 929 532 925 Q539 923 548 923 L549 923 549 922 553 922 554 922 563 922 564 922 564 921 568 921 569 921 Q578.8 913.55 593.55 920.85 598.3 923.2 604 924 615.65 914.15 632.15 909.5 L636 909 636 908 643 908 644 908 Q660 913 670.3 923.7 672 925.45 673 928 677.05 933.15 686.35 930.05 689.5 928.95 693 929 725.35 946.15 754.15 966.75 L755 967 Q765.2 960.2 776 960.55 L776 962 Q780.5 976 801 975.9 L814.95 976.55 Q829.25 977.8 840.65 982.85 L841.3 983.9 Q842.65 988.35 842 995 843.7 995.8 843.1 999 L843 1000 842 1000 716 1000 537 1000 358 1000 179 1000 0 1000 0 863 0 684 0 540.95 0 505 0 326 0 250 0 147 Q20 142.7 19.4 165 19.25 170.75 21 176 43.85 177.35 67.1 174.9 71 174.5 71 179 L82 179 83 179 Q91.3 178.85 91.5 175.5 L91.95 175.45 Q100.75 174.8 115.75 177.45 123 178.7 122.6 168.95 122.5 166.6 123.75 169.15 125.25 172.25 129 173 L134.9 173.5 135 174 Q146.4 173.35 144.65 160.75 143.5 152.5 146.3 145.5 146.5 145 147.95 145.3 149 145.5 150 146 163.9 143.1 165.9 152 L166 153 M89 233 L88.9 232.5 Q85.3 231.7 85 228 L84 228.1 Q80.8 228.7 80 227 L79 227 78.75 227.85 Q77.95 228.95 76 229 L76 233 76 234 76 236 76 237 Q77.75 239.75 76.55 244.9 L76 245 76 250 76 253 76 254 77.95 274 78 275 Q83.1 279.75 85.85 272.95 L86 272 86 271 86 257 87 257 87 256 87 255 87 254 87 250 87 247 88 247 88 246 88 241 88 240 88 233 89 233 M241 362.4 L241 300.05 Q254.5 297.35 252.8 313.2 251 329.6 251 346.2 L250.95 362.4 250.95 367.75 Q250.65 403.65 249.5 439.6 L248 439.65 246 439.65 Q242.65 439.35 240.95 436.9 L239.95 434.95 239.95 430.4 Q238.9 427.4 239.4 422.4 L239.95 416.55 239.95 420.55 Q240.65 411.7 240.95 402.85 L241 396.05 241 394.6 241 367.75 241 362.4"/>
  </g>
</svg>