<svg xmlns="http://www.w3.org/2000/svg" xmlns:xlink="http://www.w3.org/1999/xlink" width="2000" height="1000">
  <defs/>
  <g>
    <path stroke="none" fill="#000001" d="M64 722 Q71.2 765.55 106.15 792.4 121.75 804.4 140.9 811.05 159.6 817.55 179 818 209.05 845.65 236.55 872.55 L267.7 902.9 Q279.35 913.7 289.15 919.7 298.65 925.5 317.6 933.6 357.25 950.55 385.4 955.65 401.5 958.55 427.8 958.55 450.35 958.55 496.2 948.85 543.1 938.95 618.35 918.05 L770.7 869.95 Q810.6 858.45 852.2 850.35 908.05 839.5 945.95 839.5 984.6 839.5 1034.55 857.75 1079.05 874 1175 921.15 1258.95 962.45 1305.75 974.45 1328.3 980.25 1351.8 982.3 L1399.65 983.85 Q1447.2 983.85 1507.25 969.75 1544.25 961.1 1615.25 938.8 1687.7 916 1721.7 907.8 1780.15 893.7 1824.95 893.7 1847.05 893.7 1861.45 896.15 1878.7 899.1 1896.25 907.1 1914.4 915.4 1939.15 931.95 1962.4 947.45 2000 976 L2000 1000 0 1000 0 0 2000.05 0 2000 214 Q1994.4 210.95 1982.1 196.85 1970.05 183.05 1961.65 170.35 1958.9 166.2 1944.6 141.65 1933.35 122.35 1928.85 117.7 1924.35 113.1 1900.6 100.75 1875.65 87.8 1864 84.8 1830.95 76.25 1731.9 59.25 1601.8 37.45 1523.65 23.65 L1481.2 15.85 1474.05 15.2 1468.45 14.85 Q1461.85 14.85 1442.65 19.55 1416.7 25.9 1394.75 36 1378.4 43.55 1353.2 64.8 L1330.75 84.9 Q1325.05 89.7 1307.15 96.45 1288.6 103.4 1264.4 109.65 1204.5 125.05 1156 125 L1152 125 1152 126 1129 126 1129 125.45 1125 125 1119 125 1119 124.45 1115 124 1110 124 1110 123.45 1106 123 1100 123 1100 122.45 1096 122 1091 122 1091 121.45 1087 121 1086 120.95 967 103 967 102.45 963 102 958 102 Q928.6 97.95 893.5 86.95 878.1 82.1 829.6 64.7 787.95 49.7 759.65 41.85 717.9 30.2 677 25 L677 24.45 673 24 644.05 22.35 618.9 21.25 Q544.15 21.25 477.4 36.75 426.05 48.65 377.3 70.45 L309.6 102.85 Q276.15 119.35 243 136 225.8 117.75 216.75 109.1 204.65 97.55 195.05 91.25 184.6 84.35 173.65 81.3 162.7 78.25 148.45 78.25 91.25 78.25 59.65 111.35 26.15 146.5 29 212 L28 212 28.15 218.95 29 219 29 221 Q29.1 223.15 29.35 225.1 L29.65 227 30 227 Q30.5 228.75 40.45 251.05 50.2 272.8 51.75 275.8 55.05 282.1 71.4 297.35 L87 312 Q87.1 314.15 87.35 316.1 L87.65 318 88 318 Q93.5 320.05 98 325.1 102.1 329.75 103 334 L103.5 342 104 342 104 343 104.5 350 105 350 105 351 Q105.1 352.8 105.35 354.4 L105.65 356 106 356 Q107.7 365.2 115.15 371.3 L120.55 375.35 Q123.25 377.4 124 379 L124 392 Q121.25 397.45 112.4 404.7 102.6 412.7 93 416 L92 416 92.15 431.95 93 432 Q91.85 443.45 87.2 450.6 L84.25 455.25 Q83 457.85 83 461 L83 469 Q83.2 472.7 84.45 482.6 85.55 491.55 85.7 497.85 L79.25 493.8 Q73.25 489.65 70 486 L69.75 491.3 Q69.75 493.65 72 505 72.1 507.15 72.35 509.1 L72.65 511 73 511 Q73.55 512.85 77.15 515.85 80.85 518.95 83 519 L99.05 520.95 115.95 523.65 Q127.8 526.3 142 548.9 146.7 556.4 150.7 564.5 154 571.3 154 572.2 154 573.1 139.05 578.15 122.4 583.75 120.15 584.95 112.5 589.05 104.75 595.45 99.25 599.95 91.2 607.85 83.15 615.75 73.75 636.7 64.15 658 64 669 L63 669 63 674 63 676 62 676 62.15 685.95 63 686 63 716 Q63.1 718.15 63.35 720.1 L63.65 722 64 722 M1812.9 187.95 Q1849.6 179.8 1871 180 1878.3 203.15 1894.75 226.2 1898.95 232.15 1911.6 242.6 1922.9 251.95 1923 253 L1907.95 254.8 1895.5 255.25 Q1891 255.25 1871.6 252 1848.35 248.1 1826.2 242.9 1761.15 227.65 1747 211 1770.05 197.5 1812.9 187.95 M1660 143 Q1660.9 144.1 1661 145 1647.3 151.6 1584.75 179.1 1533.95 201.45 1527.9 205.85 1519.9 211.7 1508.65 217.9 1493.95 226 1488 226 1484 226 1481.35 217.6 1477.35 204.9 1474.95 201.05 1471 194.7 1469.9 193.45 1467.85 191.1 1463 188.5 1442.25 178.6 1411 162 1419.85 142 1439.55 130.9 1459.35 119.7 1486.35 119.7 L1497.8 120.6 1520.15 124 Q1572.45 132.05 1660 143 M1431.95 267.2 Q1437.85 280.9 1438.15 287.15 1438.5 293.6 1443.05 298.7 1445.45 301.45 1462 316 1452.7 331.15 1434.25 338.95 1418.35 345.7 1399.45 345.7 1385.9 345.7 1370.45 343.05 1354.05 340.25 1348.4 336.45 1342.7 333.8 1339.3 331.45 1333.1 327.15 1330.95 319.65 1328.1 309.6 1323.25 289.4 L1319 271 Q1319 259.2 1334.2 238.7 1341.85 228.4 1350 219 1375.05 219.15 1393.35 227.1 1411.2 234.85 1423.15 250.3 1426.55 254.75 1431.95 267.2 M1443 399 L1449 399 1449.5 399 Q1445.25 435.35 1422.4 457.35 1398.05 480.75 1359 481 1358.95 480.6 1351.45 475.05 1343.35 469 1341 464.85 1339.75 462.65 1338.45 457.4 1336.75 450.8 1336.75 445.25 1336.75 432.9 1344.8 419.2 1349.35 411.45 1359 398 L1389.55 401.1 1415 404 Q1415.6 404.4 1416.55 404.75 L1417.55 405.05 Q1418.65 405.05 1419.25 404.65 L1420 404 1426.2 403.9 1430 403 1433.1 402.65 Q1435.25 402.1 1434 402 L1435 402 1438.1 401.65 Q1440.25 401.1 1439 401 L1443 399 M1149 684 L1139.45 682.85 Q1132.95 681.05 1127 675 1139.9 667.75 1161.7 639 1181.5 612.9 1189.6 595.6 1192.8 588.7 1196.85 574.95 1202 557.5 1203.6 552.95 1207.8 541.25 1212.55 535.45 1218.4 528.3 1226.3 528.3 1243.45 528.3 1251.95 531.05 1264.25 535.05 1274.1 547.5 1291.05 568.9 1303.1 588.2 1318 612.15 1318 622 1318 625.95 1310.1 635.85 1301.95 646 1290.5 656.1 1260.7 682.3 1241 681 L1235 681 1235 682 1234 682 1220 682 1220 683 1219 683 1200 683 1200 684 1199 684 1185 684 1185 685 1184 685 1170 685 1164 685 1164 684.5 1149 684 M1706 578 Q1710.7 570.1 1726.85 565.5 1740.3 561.7 1754.45 561.7 1777.85 561.7 1794.3 568.35 1810 574.7 1810 583 1810 585.9 1808.5 591.35 1806.85 597.3 1805.2 599.2 1803.85 600.7 1803 601 L1785.6 608.05 1770.2 614.1 1767.25 615 Q1765.2 615 1755.65 607.4 1744 598.1 1740.2 595.9 1733.35 591.9 1722.55 587.45 1712.6 583.4 1707 582 1706.15 579.15 1706 578 M1878.25 579.55 L1878 577 Q1893.8 571.25 1917.75 565.55 1938.7 560.55 1948 559.5 1940.8 569.55 1922.6 575.4 1906.95 580.4 1890.75 580.4 L1878.25 579.55 M217 289 Q227 280.3 234.65 270.5 249.35 251.45 250.5 230.05 253.9 229.7 264.35 223.45 275.85 216.55 277.85 215.85 L297.85 211.7 Q314.15 208.4 315.15 206.65 325.85 187.85 333.75 181.6 344.65 172.9 364.95 172.1 395.4 170.9 418.65 163 427.35 160.05 437.95 155.15 L456.35 146.5 Q479.9 135.6 502.8 130.65 535.5 123.6 582.85 123.6 651.3 123.6 713.6 132.25 771.5 140.25 816.85 154.65 860.35 168.5 884.65 185.65 909 202.9 909 220 909 230.15 901.8 235.95 897.1 239.75 881.2 246.3 861.45 254.4 848.8 261.55 826.95 273.9 806.3 292.3 768.55 326 749.65 373.35 744.75 385.6 740.15 401.9 737.05 413 736 413 701.65 413 675.05 404.25 656.15 398.05 635.85 385.05 L620.3 374.8 Q611.55 369.05 605.25 365.85 588.2 357.1 570.1 357.1 557.65 357.1 540.35 360.75 L506.85 368.75 Q458.4 380.35 417.35 380.35 388.5 380.35 367.55 373.3 362.5 371.6 334.95 366.15 311.6 361.55 293 358.3 280.6 356.15 255.4 345.45 230 334.65 229 331 227.9 326.95 222.65 313.7 217.7 301.2 217 298 L217 289 M995 388 Q995 371.15 1011.1 361 1024.3 352.7 1039.45 352.7 1086.9 352.7 1086.9 390.55 1086.9 411.65 1077.55 424.4 1067.3 438.4 1048.2 438.4 1021.9 438.4 1008.75 426.5 995 414.05 995 388 M991.3 313.05 Q991.3 324.75 981.3 333 971.3 341.25 957.15 341.25 943 341.25 933 333 923 324.75 923 313.05 923 301.35 933 293.1 943 284.85 957.15 284.85 971.3 284.85 981.3 293.1 991.3 301.35 991.3 313.05 M1035 312.15 Q1035 304.8 1040.8 299.6 1046.55 294.35 1054.7 294.35 1062.85 294.35 1068.65 299.6 1074.4 304.8 1074.4 312.15 1074.4 319.5 1068.65 324.75 1062.85 329.95 1054.7 329.95 1046.55 329.95 1040.8 324.75 1035 319.5 1035 312.15 M1094.3 222.15 Q1097.1 218.3 1101 214 1100.1 212.15 1120.6 211.3 1130.85 210.9 1141.4 210.85 1160.75 210.85 1191.55 216 1222.3 221.1 1236.4 221.1 L1260 220 Q1250.5 225.7 1244.7 244.05 1240 258.95 1240 272 1240 274.55 1242.05 277.8 L1246.85 284.35 Q1254.5 294.55 1256.65 304.45 1259.65 318.2 1262.4 326.95 1263.6 332.35 1263.6 349.7 1263.6 373.25 1257.15 387.45 1248.9 405.6 1231.05 405.6 1212.35 405.6 1199.9 398.6 1187.4 391.6 1177.75 375.7 1174.3 369.95 1170.85 357.25 L1166.8 341.05 Q1165.05 334.9 1152.4 318.75 1145.35 309.75 1125.9 286.75 1107.65 265.2 1100.4 255.65 1089 240.65 1089 236 1089 229.55 1094.3 222.15 M497 450 Q507.7 448.2 523.95 447.3 L543.2 446.65 Q600.65 446.65 644.9 470.65 647.35 472 663.7 482.05 676.2 489.75 680.85 491.3 708.3 500.5 712.75 503.75 715.1 505.45 715.35 507.7 L715.2 513.05 715 525 Q715.1 526.8 715.35 528.4 L715.65 530 716 530 Q717 533.65 717 537 L713 537 713 538 Q684.3 545.6 655.3 562.15 L634.9 574.25 Q624.25 580.5 617.7 583.1 585.35 595.9 542.85 595.9 518.6 595.9 491 591 L491 590.65 486 590 Q481.15 589.55 464.45 583.7 450.25 578.7 445.25 576.45 441.05 574.55 434 564.5 427.2 554.8 424.05 553.85 405.45 548.1 399.3 540.75 393.95 534.35 393.95 520.6 393.95 507.65 403.15 496.2 412.15 485 423.7 483 427.85 482.35 431.25 479.3 435.4 475.55 436 470 446.15 464.5 462.8 458.7 477.65 453.55 486 452 L489.4 451.7 491 451.4 491 451 493 451 496.1 450.65 Q498.25 450.1 497 450 M945.95 533.85 Q940.05 521.65 941 511 946.7 482.85 980.4 482.85 993.35 482.85 1001.05 493.65 1007.9 503.25 1007.9 516.6 1007.9 521.2 1005.65 529.3 1003.5 536.95 1001.65 539.95 1000 542.6 993.3 545.95 987.3 548.95 987 551 L964 551 Q952.75 548.05 945.95 533.85 M860.85 535.25 Q869.7 528.8 875.25 528.8 892.65 528.8 899.2 539.75 902.5 545.3 902.35 551.55 902.35 560.65 899.05 565.55 893.5 573.8 878.45 573.8 861.75 573.8 855.1 564.45 851 558.7 851 549.5 851 542.5 860.85 535.25 M829.8 465.3 Q838.35 473.85 838.35 485.95 838.35 498.05 829.8 506.65 821.25 515.2 809.15 515.2 797.05 515.2 788.5 506.65 779.95 498.05 779.95 485.95 779.95 473.85 788.5 465.3 797.05 456.7 809.15 456.7 821.25 456.7 829.8 465.3 M953 428.3 Q958.5 433.2 958.5 440.2 958.5 447.2 953 452.15 947.5 457.05 939.75 457.05 932 457.05 926.5 452.15 921 447.2 921 440.2 921 433.2 926.5 428.3 932 423.35 939.75 423.35 947.5 423.35 953 428.3 M834.45 381.15 Q833.95 365.25 842.65 354.05 852.15 341.7 868.5 341.7 890.8 341.7 900.35 350.5 910.2 359.6 910.2 381.25 910.2 399.65 902.85 409.2 894.1 420.6 874.35 420.6 855.75 420.6 844.75 408.25 834.95 397.3 834.45 381.15 M374 640 Q379.65 642.15 388.55 648.55 397.6 655.05 398.95 655.6 402.5 657.05 418.95 658.3 437.9 659.65 444.45 661 460.45 664.3 476.5 669 L500.35 676.25 Q525.55 683.55 554.4 683.55 584.6 683.55 600.85 678.2 613.3 674.1 630.5 661.3 649.6 647.05 688.35 636.6 720.15 628 736 628 L746.2 643.2 Q757.25 659.6 761.7 664.9 765.3 669.2 778.3 679.55 790.2 689 796.4 693 809.7 701.65 833.05 708.6 842.85 711.5 846.6 713.25 852.6 716 855 720 855.1 721.8 855.35 723.4 L855.65 725 856 725 Q855.65 729.5 851.45 732.9 846.15 737.3 830.45 744.4 812.15 752.75 806.95 754.35 L797.05 756.5 Q774 762.15 671.2 803.25 614.8 825.8 543.8 846.3 467.7 868.2 440.15 868.2 421 868.2 399.4 861.8 373.35 854.1 354.5 839.65 331 822.1 310.45 805.1 270 771.55 270 763 L274.15 754.35 Q278.8 744.75 280.55 739.8 L285.75 718 Q286.2 714.5 287.1 696.5 288 678.3 288 672 L288.65 671.35 Q289.05 670.8 289.05 669.95 L288.75 669.2 288 668 287 666.95 Q286.5 666.05 287 663 L287.3 660.6 Q286.85 659.7 286 659 L285 657.95 Q284.5 657.05 285 654 L285.65 653.25 Q286.05 652.65 286.05 651.55 L285.75 650.5 285 649 Q284.95 648.1 282.95 644.3 281 640.6 281 638 281 637.35 281.85 637.15 L283 637 292 636.5 292 636 Q302.85 632.8 314.15 620 L321.05 611.6 Q324.05 608 325 608 326.3 608 328.45 611.3 332.1 616.75 334.35 619.3 345.7 632.25 368 639 368.55 639.4 369.65 639.9 L370.95 640.3 374 640 M1121.7 509.8 Q1128.6 509.8 1133.5 515.05 1138.4 520.25 1138.4 527.6 1138.4 534.95 1133.5 540.2 1128.6 545.4 1121.7 545.4 1114.8 545.4 1109.9 540.2 1105 534.95 1105 527.6 1105 520.25 1109.9 515.05 1114.8 509.8 1121.7 509.8 M1012.9 590.85 Q1022.75 579.2 1039.3 579.2 1059.5 579.2 1071.65 587.7 1083.75 596.15 1083.75 610.1 1083.75 631.75 1073.35 643.4 1064.05 653.8 1049.1 653.8 1028.25 653.8 1016.05 642.15 1005.3 631.85 1004.6 616.5 1003.9 601.55 1012.9 590.85 M1155.9 423.55 Q1155.9 430.9 1151.4 439.5 1145.9 450.1 1137.95 450.1 1122.8 450.1 1115.15 442.35 1107.95 435 1107.95 421.2 1107.95 410.1 1115.45 402.35 1122.4 395.15 1131.95 394.35 1141.85 393.5 1148.4 400.35 1155.9 408.2 1155.9 423.55 M914.65 624 Q923.3 632.05 923.3 643.45 923.3 654.85 914.65 662.95 905.95 671 893.65 671 881.35 671 872.7 662.95 864 654.85 864 643.45 864 632.05 872.7 624 881.35 615.9 893.65 615.9 905.95 615.9 914.65 624 M246 546 Q247.45 549 251.4 542.4 255.35 535.75 259.1 526.4 262.85 517 266.65 512.15 281.7 493.1 293 486.5 L293 487 293 504 293 505 292 505 292 510 292.3 512.75 Q292.3 513.95 291.9 514.55 291.2 515.45 291 516 L290 516 290 520 290 521 289 521 289 527 289 529 290.2 529.75 290.95 530.05 Q291.8 530.05 292.35 529.65 L293 529 295 529 Q294 531.4 287.45 536.65 279.75 542.9 271 547 L266 547 266 548 265 548 257 548 257 549 256 549 251 549 251 550 Q248.3 550.6 239.35 557.6 L230 565 Q230.9 564 231 563 L231.65 562.25 Q232.05 561.65 232.05 560.55 L231.75 559.5 231 558 229.85 555.85 Q228.9 553.8 229 552 232.05 553.15 233.7 553.15 L236.9 553 Q240.2 552.35 242 550 L242 549.45 238 549 Q224.4 547.3 211.6 534.45 199.1 521.95 197 509 L202.1 509.5 205 510 Q206.65 511.3 207.25 511.3 L210 511 211 511 Q211.7 511.85 212.6 512.3 L215 512 Q227 512 235.5 519.35 244 526.65 244 537 L243.6 540.4 Q243.6 542.85 244.1 544.2 244.65 545.8 246 546.5 L246 546 M118.2 494 Q113.5 487.2 113.5 475.25 L113.9 464.2 115 438 Q120.35 439.8 123.15 446.5 125.5 452.05 125.5 459.2 125.5 477.85 119 495 L118.2 494 M86.35 498.05 Q87 498.2 87 498.5 L86.05 498.05 86.35 498.05"/>
    <path stroke="none" fill="#43454e" d="M1660 143 Q1662.5 142.95 1662.7 143.45 L1661 145 Q1660.9 144.1 1660 143"/>
    <path stroke="none" fill="#38383f" d="M1443 399 L1443 398 1445.95 398.35 1449 398.65 1449 399 1443 399"/>
    <path stroke="none" fill="#383a41" d="M1435 402 L1435 401 1439 401 Q1440.25 401.1 1438.1 401.65 L1435 402"/>
    <path stroke="none" fill="#32343b" d="M1430 403 L1430 402 1434 402 Q1435.25 402.1 1433.1 402.65 L1430 403"/>
    <path stroke="none" fill="#2d2d34" d="M1415 404 L1420 404 1419.25 404.65 Q1418.65 405.05 1417.55 405.05 L1416.55 404.75 Q1415.6 404.4 1415 404"/>
    <path stroke="none" fill="#22252a" d="M1706 578 Q1706.15 579.15 1707 582 1706.3 581.55 1705.7 580.4 1705 579.15 1705 578 L1706 578"/>
    <path stroke="none" fill="#3a3d45" d="M1152 126 L1152 125 1156 125 Q1157.25 125.1 1155.1 125.65 L1152 126"/>
    <path stroke="none" fill="#3b3b43" d="M1096 122 L1100 122.45 1100 123 1097.6 123.3 1096 122 M1115 124 L1119 124.45 1119 125 1116.6 125.3 Q1115.7 124.85 1115 124"/>
    <path stroke="none" fill="#34343b" d="M1087 121 L1091 121.45 1091 122 1088.6 122.3 Q1087.7 121.85 1087 121 M1106 123 L1110 123.45 1110 124 1107.6 124.3 Q1106.7 123.85 1106 123 M1125 125 L1129 125.45 1129 126 1126.6 126.3 1125 125 M1149 684 L1164 684.5 1164 685 1158.1 685.3 1153.75 684.95 1149 684"/>
    <path stroke="none" fill="#44454e" d="M958 102 L963 102 963 103 960.25 103.3 Q959.65 103.3 958 102"/>
    <path stroke="none" fill="#2a2a30" d="M963 102 L967 102.45 967 103 963 103 963 102"/>
    <path stroke="none" fill="#3d3f47" d="M673 24 L677 24.45 677 25 674.6 25.3 673 24"/>
    <path stroke="none" fill="#42454e" d="M716 530 L715.65 530 715.35 528.4 Q715.1 526.8 715 525 716.3 526.6 716.3 527.25 L716 530"/>
    <path stroke="none" fill="#24262c" d="M713 538 L713 537 717 537 Q718.25 537.1 716.1 537.65 L713 538"/>
    <path stroke="none" fill="#37373e" d="M106 356 L105.65 356 105.35 354.4 Q105.1 352.8 105 351 106.3 352.65 106.3 353.25 L106 356 M1200 684 L1200 683 1219 683 1219 683.5 1200 684 M217 289 L217 298 216.15 297.95 216 289 217 289 M286 659 Q286.85 659.7 287.3 660.6 L287 663 286.45 663 286 659 M856 725 L855.65 725 855.35 723.4 Q855.1 721.8 855 720 856.3 721.65 856.3 722.25 L856 725 M246 546 L246 546.5 Q244.65 545.8 244.1 544.2 243.6 542.85 243.6 540.4 L244 537 Q245.35 540.35 245.5 542.2 L245.5 546 246 546 M238 549 L242 549.45 242 550 239.6 550.3 Q238.7 549.85 238 549 M251 550 L251 549 256 549 256 549.4 254.4 549.7 251 550 M266 548 L266 547 271 547 271 547.4 269.4 547.7 266 548 M289 527 L289 521 290 521 290.3 524.1 Q290.3 525.2 289 527 M290 520 L290 516 291 516 291.3 518.5 Q291.3 519.05 290 520 M292 510 L292 505 293 505 293.3 507.75 292.85 508.9 292 510"/>
    <path stroke="none" fill="#2f3036" d="M1220 683 L1220 682 1234 682 1234 682.5 1220 683"/>
    <path stroke="none" fill="#2f3037" d="M1235 682 L1235 681 1241 681 1241 681.4 1239.1 681.7 1235 682"/>
    <path stroke="none" fill="#36363d" d="M124 392 L124 379 Q125.1 381.2 125.1 386.55 125.1 389.4 124.65 391.25 124.2 393 124 392 M105 350 L104.5 350 104 343 104.9 345.15 105.3 346.6 105 350 M104 342 L103.5 342 103 334 Q104.3 335.75 104.3 338.35 L104 342 M1170 685 L1184 685 1183.95 685.85 1178.2 686.1 Q1172.25 686.1 1170 685 M374 640 L370.95 640.3 369.65 639.9 Q368.55 639.4 368 639 L372.1 639.35 374 639.65 374 640 M292 636 L292 636.5 283 637 283 636 292 636 M257 549 L257 548 265 548 265 548.5 257 549"/>
    <path stroke="none" fill="#35353c" d="M1185 685 L1185 684 1199 684 1199 684.5 1185 685 M293 504 L293 487 Q294.1 490.05 294.1 497.05 L293.8 500.9 293.4 504 293 504"/>
    <path stroke="none" fill="#30323a" d="M29 219 L28.15 218.95 28 212 29 212 29 219"/>
    <path stroke="none" fill="#34353c" d="M30 227 L29.65 227 29.35 225.1 Q29.1 223.15 29 221 L29.9 222.7 30.3 223.95 30 227"/>
    <path stroke="none" fill="#36383f" d="M63 674 L63 669 64 669 64.3 671.75 63.85 672.9 63 674 M88 318 L87.65 318 87.35 316.1 Q87.1 314.15 87 312 L87.9 313.65 88.3 314.95 88 318"/>
    <path stroke="none" fill="#2e3238" d="M210 511 L207.25 511.3 Q206.65 511.3 205 510 L210 510.65 210 511"/>
    <path stroke="none" fill="#2f3239" d="M215 512 L212.6 512.3 Q211.7 511.85 211 511 L215 511.45 215 512"/>
    <path stroke="none" fill="#33333a" d="M486 590 L491 590.65 491 591 488.25 591.3 Q487.6 591.3 486 590 M288 668 L288.75 669.2 289.05 669.95 Q289.05 670.8 288.65 671.35 L288 672 288 668 M231 558 L231.75 559.5 232.05 560.55 Q232.05 561.65 231.65 562.25 L231 563 231 558 M293 529 L292.35 529.65 Q291.8 530.05 290.95 530.05 L290.2 529.75 289 529 293 529"/>
    <path stroke="none" fill="#323239" d="M93 432 L92.15 431.95 92 416 93 416 93 432"/>
    <path stroke="none" fill="#2e3339" d="M83 469 L83 461 83.8 463.6 84.1 465.45 Q84.1 467.25 83.65 468.5 83.2 469.7 83 469"/>
    <path stroke="none" fill="#2d3339" d="M73 511 L72.65 511 72.35 509.1 Q72.1 507.15 72 505 L72.9 506.65 73.3 507.95 73 511"/>
    <path stroke="none" fill="#27272d" d="M63 686 L62.15 685.95 62 676 63 676 63 686"/>
    <path stroke="none" fill="#25272d" d="M64 722 L63.65 722 63.35 720.1 Q63.1 718.15 63 716 L63.9 717.65 64.3 718.95 64 722"/>
    <path stroke="none" fill="#303037" d="M285 649 L285.75 650.5 286.05 651.55 Q286.05 652.65 285.65 653.25 L285 654 285 649"/>
    <path stroke="none" fill="#313138" d="M497 450 Q498.25 450.1 496.1 450.65 L493 451 493 450 497 450"/>
    <path stroke="none" fill="#33333b" d="M491 451 L491 451.4 489.4 451.7 486 452 486 451 491 451"/>
  </g>
</svg>