<svg xmlns="http://www.w3.org/2000/svg" xmlns:xlink="http://www.w3.org/1999/xlink" width="2000" height="1000">
  <defs/>
  <g>
    <path stroke="none" fill="#000001" d="M1948.85 0 L2000 0 2000 159.85 2000 319.65 2000 479.5 2000 639.25 2000 799.1 2000 958.95 2000 1000 1831.15 1000 1662.25 1000 1493.4 1000 1324.5 1000 1155.7 1000 986.75 1000 817.95 1000 649.1 1000 480.2 1000 311.35 1000 142.45 1000 0 1000 0 840.15 0 680.35 0 520.5 0 360.75 0 200.9 0 41.05 0 0 56 0 57 0 58 0 66.85 0 71 0 93 0 98 0 111 0 119 0 134 0 137 0 143 0 146 0 147 0 154 0 157 0 159 0 168.85 0 173 0 182 0 195 0 197 0 200 0 213 0 236 0 256 0 270 0 284 0 299 0 325 0 337.75 0 437.95 0 506.6 0 675.5 0 722.95 0 752.95 0 795.95 0 844.35 0 1013.25 0 1182.1 0 1211.9 0 1256.9 0 1268.9 0 1275.9 0 1301.9 0 1302.9 0 1308.9 0 1310.9 0 1320.9 0 1326.9 0 1346.9 0 1350.9 0 1368.9 0 1369.9 0 1373.9 0 1374.9 0 1392.9 0 1398.9 0 1422.9 0 1441.9 0 1490.3 0 1496.9 0 1519.85 0 1568.9 0 1587.2 0 1609.9 0 1659.2 0 1756.05 0 1785.85 0 1828.05 0 1830.85 0 1842.85 0 1849.85 0 1857.85 0 1875.85 0 1876.85 0 1902.85 0 1914.85 0 1921.85 0 1943.85 0 1947.85 0 1948.85 0 M1921.85 20 L1914.85 20 1902.85 20 1876.85 20 1875.85 20 1857.85 20 1849.85 20 1842.85 20 1830.85 20 1793.1 20 1785.85 20 1721.1 20 1624.25 20 1552.25 20 1455.35 20 1441.9 20 1383.35 20 1374.9 20 1368.9 20 1346.9 20 1326.9 20 1320.9 20 1302.9 20 1301.9 20 1275.9 20 1268.9 20 1256.9 20 1211.9 20 1147.15 20 978.3 20 809.4 20 795.95 20 752.95 20 722.95 20 640.55 20 471.75 20 437.95 20 325 20 302.85 20 299 20 284 20 270 20 256 20 236 20 213 20 200 20 197 20 195 20 182 20 173 20 159 20 157 20 147 20 137 20 134 20 111 20 98 20 93 20 71 20 58 20 58 59.3 56.6 60.7 56.6 89 56.6 171.45 56.6 331.25 56.6 441.45 56.5 441.45 56.5 546.9 56.6 546.9 56.6 555.55 56.6 586.6 56.6 746.4 Q56.6 826.35 55.1 906.25 54.7 928.15 59.4 943.75 L62.3 944.25 Q139.8 947.1 219.8 946.8 304.25 946.45 388.65 946.45 L557.55 946.45 726.4 946.45 895.3 946.45 1064.15 946.45 1233.05 946.45 1401.9 946.45 1570.75 946.45 1739.65 946.45 Q1824.05 946.45 1908.5 948.1 1929.1 948.55 1941.5 942.85 1942 942.4 1942 941.95 1944.1 886.4 1943.8 828.55 1943.4 748.65 1943.4 668.8 L1943.4 508.95 1943.2 508.95 1943.2 491.05 1943.4 491.05 1943.4 415.2 1943.4 255.35 Q1943.4 175.45 1944.45 95.55 1944.55 84.95 1943.85 75.45 L1943.85 20 1921.85 20 M1687.75 171.45 Q1690.75 197.9 1686.35 222.2 L1685.85 222.35 Q1668.55 221.75 1652.3 216.75 1587.5 197.05 1521.55 180.2 1512.55 177.9 1500.95 177.9 1439.35 177.9 1380.25 181.1 1371.55 181.55 1365.05 185.7 1334.2 205.55 1298.55 220.3 1289.9 223.9 1277.4 224.35 1263.9 224.85 1256.65 220.55 1253.35 211.55 1254.1 198.15 1254.75 185.7 1254.75 173.25 1267.05 167.45 1287.75 167.9 1372.2 169.65 1456.6 169.65 1541.05 169.65 1625.5 168.7 1658.9 168.35 1687.75 171.45 M1662.15 278.45 L1619.8 276.8 1450.95 276.8 Q1366.5 276.8 1282.05 277.15 1220.1 277.45 1160.45 274.55 L1160.4 273.2 1160.4 267.85 Q1230.9 268.55 1298.95 265.3 1307.7 264.9 1314.25 260.8 1344.3 241.9 1378 227.1 1389.45 222.1 1406.6 222.2 1470.55 222.55 1532 225.55 L1538.7 226.75 Q1604 244.9 1669.85 262.45 1680.15 265.2 1688.25 270.3 1688.65 270.5 1688.65 271.45 1681.7 280 1662.15 278.45 M1613.05 424.1 L1613.05 412.95 1619.3 412.95 1633.9 412.05 Q1675.85 409.8 1717.95 411.6 L1718.15 412.25 1737.9 430.75 Q1769.7 460.65 1800.95 491.05 L1801.9 491.05 1840.9 491.05 1856.9 491.05 1866.65 491.05 1867.9 491.05 1876.4 491.05 1877.05 491.05 1885.55 491.05 1886.15 491.05 1895.3 491.05 1895.3 509.1 1886.15 509.05 1886.15 509.1 1885.55 509.1 1877.05 509.05 1876.4 509.05 1876.4 509.1 1867.9 509.05 1856.9 508.95 1840.9 508.75 1800.95 508.05 Q1797.3 503.45 1793.05 499.45 L1737.9 447.65 1713.25 424.1 1613.05 424.1 M1518.9 562.5 L1612.25 562.5 1613.2 562.5 1613.2 588.4 1613.2 589.3 1519.85 589.3 1518.9 589.3 1518.9 563.35 1518.9 562.5 M1384.8 657.95 L1342.45 656.05 Q1298.35 655.55 1256.75 658.85 1253.05 659.1 1248.85 661.15 1222.65 673.6 1199.1 689.35 1175.65 705.05 1135.15 698.6 L1133 699.1 Q1131.35 677 1132.1 652.65 L1132.1 651.8 Q1140.6 644.65 1159.55 645.9 L1201.85 647.3 Q1286.3 647.3 1370.75 646.75 1384.65 646.65 1395.75 649.85 1396.2 650 1396.25 651.8 1395.6 658.8 1384.8 657.95 M1300 753.6 Q1217.2 755.15 1132.1 754.6 L1085 753.15 1084.9 751.8 1084.9 745.55 Q1132.3 746.2 1177.25 742.95 1180.9 742.6 1185.1 740.6 1212.8 727.25 1238.25 711.45 1260.65 697.55 1301 699.6 1325.95 700.9 1350.9 700.5 1374.75 700.2 1395.95 703.5 1396.2 703.55 1396.25 705.35 1394.8 712.5 1382.9 711.5 L1342.45 709.8 1301.9 709.8 Q1303.2 733.45 1300.1 752.65 L1300 753.6 M1396.25 776.8 L1489.6 776.8 1490.6 776.8 1490.6 802.7 1490.6 803.55 1397.2 803.55 1396.25 803.55 1396.25 777.65 1396.25 776.8 M1518.9 705.35 L1612.25 705.35 1613.2 705.35 1613.2 731.3 1613.2 732.15 1519.85 732.15 1518.9 732.15 1518.9 706.25 1518.9 705.35 M1707.55 652.65 L1707.55 651.8 1800.95 651.8 1801.9 651.8 1801.9 677.7 1801.9 678.55 1708.5 678.55 1707.55 678.55 1707.55 652.65 M1478.15 912.1 L1453.8 910.9 Q1420.05 911.4 1388.7 909.1 1386.3 908.9 1383.95 908.05 1343.95 869.1 1303.1 831.05 1302.85 830.8 1302.85 830.35 L1134 830.35 1037.75 830.35 1037.75 780.4 1037.75 779.45 Q1049.1 775 1062.7 780.25 1078.25 786.2 1095 791.1 1151.4 807.6 1211.65 820.15 1217.9 821.45 1224.55 821.35 1269.55 820.8 1312.25 822.75 L1313.25 823.25 Q1353.65 862.6 1395.1 901.1 L1395.3 901.8 Q1444.1 901.1 1490.4 904.45 L1490.6 906.25 Q1489.55 913.3 1478.15 912.1 M1047.2 343.75 L953.75 343.75 952.85 343.75 952.85 326.75 952.85 325.9 1046.25 325.9 1047.2 325.9 1047.2 342.9 1047.2 343.75 M1167 394.65 Q1171.75 403.6 1171.4 418.8 1171.15 433.85 1167.95 444.65 1149.3 448.35 1128.6 444.15 1112.05 440.85 1099.9 432 1076.05 414.55 1045.15 404 1035.2 400.6 1020.75 400.75 987.05 401.1 955.8 403.95 947 404.75 940.45 408.8 912 426.1 881.6 441.1 867.4 448.1 844.35 447.65 836.2 447.5 832.1 444.65 828.8 435.2 829.55 421.4 830.2 408.9 830.2 396.45 840.15 390.7 858.55 391.3 900.95 392.85 943.4 392.85 1027.85 392.85 1112.3 392.35 L1166.05 394.15 Q1166.5 394.2 1167 394.65 M743.35 170.5 Q746.65 193.8 744.8 221.4 L744.35 221.4 Q725.7 225.15 705.05 220.9 684.2 216.7 669.75 205.3 646.6 187.15 612.85 180.2 605.2 178.55 597.2 178.5 534.7 177.9 474.6 180.95 471.55 181.1 467.95 182.1 402.55 200.15 337.3 219.3 327.6 222.1 315.1 222.7 314.6 222.8 314.15 222.35 309.45 214.3 310.45 199.95 311.35 187.05 311.35 174.1 319.85 167 338.8 168.2 L381.1 169.65 550.05 169.65 Q634.5 169.65 718.85 169.1 L743.35 170.5 M725.5 267.8 Q783.75 267.2 839.5 270.5 L839.6 272.3 Q839.05 279.35 828.15 278.45 L785.85 276.8 617 276.8 Q532.55 276.8 448.15 277.15 379.95 277.45 314.25 274.3 313.05 274.25 312.35 272.8 311.35 270.5 311.35 267.85 376.95 250.05 441.9 230.6 458.95 225.45 480.25 224.7 L565.1 221.95 Q599.05 221 624.25 227.7 640.35 231.9 651.9 241.05 674.95 259.45 708.85 266.25 716.95 267.85 725.5 267.8 M889.65 484 Q919.75 465.1 953.4 450.35 964.9 445.3 982.05 445.25 1015 445.2 1043.2 449.55 1060.4 452.2 1072.2 461 1096 478.8 1126.8 489.25 1133.8 491.7 1143.4 491.5 1204.95 490.4 1264.05 493.75 L1264.15 495.55 Q1263.5 502.55 1252.7 501.7 L1210.4 500 1041.55 500 Q957.1 500 872.65 500.35 803.05 500.7 735.9 497.75 L735.85 496.4 735.85 491.05 Q806.35 491.75 874.45 488.55 883.2 488.1 889.65 484 M758.3 662.25 Q745.35 654.9 722.65 655.45 662 656.95 603.9 654 L603.75 652.65 603.75 647.3 Q688.2 647.3 772.65 646.9 820.05 646.65 865.1 648.6 865.55 648.7 866 649.1 869.25 659.9 869.45 675 869.6 690.5 865.1 700.05 810.8 704.5 782.8 679.75 771.8 669.95 758.3 662.25 M698.1 709.8 Q650.9 709.8 603.8 708.5 L603.75 707.15 603.75 700.9 Q673.35 700.2 740.5 703.3 744.4 703.5 748.55 705.5 776.35 718.9 801.9 734.8 826.3 750.05 871.8 746.85 L907.45 744.15 Q915.8 743.5 915.1 750 914.5 757 903.65 756.15 L861.3 754.6 Q780 755.15 701.1 752.15 L699.1 752.65 Q697.45 732.85 698.1 710.7 L698.1 709.8 M959.45 777.65 Q964.15 787.1 963.1 802.7 962.25 816.55 962.25 830.35 L793.45 830.35 697.2 830.35 Q656.75 869.75 615.35 908.25 615.1 908.5 615.1 908.9 589.05 911.95 558.5 911.25 L509.55 909.4 Q509.45 909.4 509.45 908.05 L509.45 901.8 602.85 901.8 603.75 901.8 685.65 824.8 685.85 824.1 Q702.55 819.8 725.5 820.85 765.05 822.75 799.85 818.35 808.3 817.2 816.9 814.85 882.15 796.95 946.95 777.85 953.35 775.9 959.45 777.65 M283.95 410.7 L284.95 410.7 386.8 410.7 386.8 411.6 386.8 428.55 385.85 428.55 282.05 428.55 281.85 429.25 Q239.6 469.2 197.15 508.95 L196.25 508.95 129 508.95 121.55 508.95 114.1 508.95 114.05 508.95 106.6 508.95 99.15 508.95 99.15 491.05 106.6 491.05 114.05 491.05 114.1 491.05 121.55 491.05 129 491.05 199.05 491.05 Q199.05 490.65 199.3 490.4 L283.95 410.7 M292.45 677.7 L292.45 678.55 199.05 678.55 198.15 678.55 198.15 652.65 198.15 651.8 291.5 651.8 292.45 651.8 292.45 677.7 M386.8 562.5 L480.2 562.5 481.15 562.5 481.15 588.4 481.15 589.3 387.75 589.3 386.8 589.3 386.8 563.35 386.8 562.5 M386.8 705.35 L480.2 705.35 481.15 705.35 481.15 731.3 481.15 732.15 387.75 732.15 386.8 732.15 386.8 706.25 386.8 705.35 M509.45 776.8 L602.85 776.8 603.75 776.8 603.75 802.7 603.75 803.55 510.4 803.55 509.45 803.55 509.45 777.65 509.45 776.8"/>
  </g>
</svg>