<svg xmlns="http://www.w3.org/2000/svg" xmlns:xlink="http://www.w3.org/1999/xlink" width="2000" height="1000">
  <defs/>
  <g>
    <path stroke="none" fill="#000001" d="M2000 20 L0 20 0 0 2000 0 2000 20 M1953.7 712.95 Q1961.35 715.65 1959.45 717.7 L1958.7 717.95 Q1950.05 713.8 1954.25 721.95 L1952.7 721.9 Q1944.55 720.05 1939.7 715.45 L1939.7 715.95 Q1943.8 727.85 1953.5 734.25 L1953.7 734.9 Q1966.25 739.85 1975.45 748.2 L1975.7 748.9 Q1975.25 751.25 1970.25 750.95 L1970.1 751.8 Q1969.85 753.2 1967.7 750.9 1964.05 747.75 1961.35 748.4 1959.9 748.75 1958.7 746.9 1951.65 743.4 1951.7 746.9 L1951.7 747.9 Q1969.2 760.4 1983.2 775.9 L1982.7 775.9 Q1976.85 771.85 1973.6 773.7 L1972.7 773.9 Q1969.55 766.6 1964.2 766.9 L1964.7 766.9 Q1963.55 773 1958.95 764.35 L1958.2 764.4 1958.7 764.9 Q1958.55 769.7 1954.7 771.4 L1954.7 770.9 Q1952.25 762.35 1948.75 761.45 L1948.7 762.9 Q1947.15 765.35 1942.7 762.45 L1941.7 763.9 Q1951.95 773.75 1960.25 778.95 L1958.7 778.9 Q1951.6 775.35 1956.45 780.15 L1956.7 780.9 Q1976.25 786.4 1989.9 797.65 L1990.1 797.8 Q1981.75 796.1 1975.7 792.9 L1975.3 793.7 Q1975.2 793.9 1974.7 793.9 1968.4 787.95 1969.95 792.5 1970.95 795.45 1967.7 793.9 1962.8 788.6 1962.7 794.9 L1962.7 795.9 Q1966.75 796.4 1967.2 800.85 L1967.7 800.9 Q1985.05 805.1 1995.45 816.15 L1995.7 816.9 Q1994.1 818.7 1998.95 823.65 L1999.7 823.9 1999.7 827.9 1999.7 828.9 Q1998.2 827.9 1997.3 828.3 1990.75 831.2 1984.7 821.9 L1984.55 821.35 Q1981.45 820.4 1984.7 826.9 1984.2 826.9 1983.85 827.15 1981.4 828.6 1986.45 835.6 1982.6 834.05 1979.7 836.9 L1978.9 836.65 Q1972.3 830.85 1967.7 827.9 L1967.8 828.9 Q1970.1 839 1963.7 827.9 L1963.45 827.25 Q1954.7 821.05 1958.7 829.9 L1958.65 830.9 Q1957.65 843.35 1964.7 856.9 L1964.7 857.4 1960.7 854.9 Q1961.35 857.05 1959.9 856.45 1955.4 854.7 1953.7 844.9 L1953 844.65 Q1951.4 842.85 1952.7 851.9 L1952.75 853.45 Q1949.75 847.85 1947.7 839.9 L1947.05 839.65 Q1942.05 832.85 1943.7 840.9 1943.05 846 1941.2 839.05 1940.15 835 1938.5 833.6 L1935.7 838.9 Q1937.15 868 1942.95 893.6 1943.25 894.9 1944.7 895.9 1946 900.1 1948.9 902.65 L1949.7 902.9 Q1978 902.2 1998.75 894.1 L1999.7 893.9 1999.7 894.9 1999.7 999.9 1968.7 999.9 1789.75 999.9 1610.75 999.9 1431.8 999.9 1252.8 999.9 1073.85 999.9 894.85 999.9 715.9 999.9 536.9 999.9 357.95 999.9 178.95 999.9 0 999.9 0 998.9 0 910.9 54.55 910.9 56.5 911.15 Q73.25 911.8 90 911.45 93.15 911.35 95.55 910.25 115.75 911.5 137.95 910.4 L138 909.9 Q145.05 893.95 160.1 886.1 L161 885.9 Q162.7 862.55 159.05 839.9 L159 838.9 Q156.55 847.95 152 853.9 L151.6 853.1 151 852.9 Q148.95 848.7 147 856.4 L147 854.9 147 851.9 Q142.6 857.05 141 858.4 L141 856.9 Q139.8 852.8 137.9 861.9 136.1 870.6 134 865.9 133.7 859.7 131 867.4 L131 866.9 Q134.35 857.05 132.5 847 L132 846.9 Q130.4 845 128.05 851.95 125.35 859.9 124 851.9 120.1 848.9 117.7 856.85 117 859.2 117 855.9 116.55 850.2 112 856.9 L112.3 856 Q113.25 853.2 115 850.9 116.8 845.25 112.85 847.7 L112 847.9 Q108.05 854.5 101.2 858.3 L101 858.75 Q101.25 853.5 106.75 848.65 L107 847.9 Q100.8 850.35 94 856.4 L94 855.9 Q100.3 844.25 110.75 836.6 L111 835.9 Q117.05 833.95 122.1 831.15 L123 830.9 Q128.6 823.55 137.1 819.1 L138 818.9 Q142.45 810.95 145.75 806.75 L146 805.9 Q141.25 804.7 139.2 806.25 139 806.4 139 806.9 133.75 813.65 129 815.4 L129 814.9 Q126.65 807.15 121.7 817.8 119.7 822.15 119 818.9 118.85 812.25 110.75 819.65 L110 819.9 Q108.4 830.9 105.2 825.8 L105 824.9 Q106.5 817.45 100.65 827.3 99.05 830 97 831.9 90.7 827.7 87.6 832.7 L87 832.9 Q87.8 827.2 92.75 820.75 L93 819.9 Q96.85 816.8 97.9 811.9 L98 810.9 Q106.8 807.25 112.75 800.7 L113 799.9 Q109.8 800.85 109.25 793.2 L108.3 794.3 Q105.75 797.2 104 800.9 101.9 803.5 100.95 798.4 L99 798.9 Q94.85 804.95 95.9 799.9 L96 798.9 Q100.35 793.3 105.75 788.65 L106 787.9 Q121.35 781.3 136.15 773.35 138 772.4 139 769.9 145.2 763.25 136.75 770.65 L136 770.9 Q134.85 772.85 131 767.9 L129.8 768.5 Q128.3 769.2 129 771.9 123.05 770.15 121 775.4 L121 774.9 Q120.4 766.85 115.8 776.35 114.45 779.2 115 774.9 116.5 768.95 109.7 774.2 L108.05 774.35 107 774.9 Q99.15 780 106.75 770.7 L107 769.9 Q113.35 767.7 110.7 764.35 109.85 763.3 112 763.9 131.95 763.25 143.75 749.7 L144 748.9 Q142.4 746.15 137.8 749.7 133.2 753.2 137 747.9 133.7 745.8 128.2 751.1 125.75 753.45 128 750.9 130.8 742.75 121.7 750.75 120.7 751.6 119 751.9 123.4 745.35 116 748.4 L116 747.9 Q118.85 743.8 122.75 740.6 L123 739.9 Q144 735.45 154.5 721.95 L153 721.9 Q146 721.95 144 719.45 L143.3 721.05 Q142.7 722.6 141 722.9 135.75 727.4 138 719.45 L137 719.9 Q132.2 725 128.75 720.95 127.3 719.25 126.35 720.45 126 720.9 125 720.9 129.55 716.95 134.75 713.55 L135 712.95 Q144.8 709.25 152.2 703.15 L153 702.95 Q158.45 690.9 161.85 676.9 L162 675.95 Q164.7 686.7 168.8 696 L168.95 696.95 183.7 712.15 183.95 712.95 Q191.1 715.75 194.5 720.95 L192.95 720.9 Q183 716.55 188.5 724.95 L186.95 724.9 Q179 724.6 172.95 718.4 L172.95 718.9 Q177.55 731.35 187.75 738.25 187.95 738.4 187.95 738.9 201.4 744 210.7 753.2 L210.95 753.9 Q208.7 756.95 204 754.85 L205.15 755.6 Q207.3 756.9 204.95 757.9 198.9 750.9 196.6 754.7 L195.95 754.9 Q190.5 749.05 183.95 748.4 L183.95 748.9 Q185.55 753.8 191 754.85 L191.95 754.9 Q204.05 769.85 218.95 781.45 L217.95 781.9 Q210.25 775.8 207.95 779.4 L207.95 778.9 Q203.55 771.45 199.7 774.75 199.45 774.95 199.95 775.9 197.95 776.8 192.95 770.95 192.35 775.85 188.95 775.9 L187.95 775.9 Q186.2 768.15 182 764.45 L181.95 765.9 Q183.35 773.2 177 767.45 L176.25 768.2 175.75 768.35 Q175.55 772.65 180.75 775.3 L180.95 775.9 Q189.65 779.75 195.95 784.9 L195 784.75 190.95 783.9 Q186 782.7 191.75 787.2 L191.95 787.9 Q212.6 793.3 226.7 805.2 L226.95 805.9 Q217.05 801.85 210.95 799.9 L210.45 800.4 209.95 799.9 Q202.2 794.85 202.95 800.9 L202.15 800.5 Q201.95 800.4 201.95 799.9 193.9 796.95 201.3 806.65 L201.95 806.9 Q214.7 811.2 225.1 817.7 L225.95 817.9 Q228.35 821.55 231.7 824.2 L231.95 824.9 Q229.6 826.95 234.55 831.4 240.2 836.55 235.95 837.9 233.25 834.8 228.9 836.75 L227.95 836.9 Q222.95 831.9 217.95 827.9 L218.35 828.7 Q218.45 828.9 218.95 828.9 221.15 837.9 215.95 834.9 L216.45 835.5 Q217.95 837.4 219.95 838.9 225.5 849.05 216.95 842.4 L216.95 842.9 Q215.4 847.05 211.2 844.55 210.95 844.4 210.95 843.9 206.25 837.15 202.45 835.95 L202.95 836.9 Q203.9 847 198.4 835.7 197.65 834.2 195.95 833.9 187.75 827.85 191.4 835.7 191.45 835.9 191.95 835.9 193.35 840.8 191.15 845 L190.95 845.9 Q198.05 855.8 197 866.85 L196.95 864.9 Q195.25 862.6 192.5 866.95 L191.95 865.9 Q189.5 858.85 186 854.45 L185.95 855.9 Q188 864.2 185.85 863.1 L184.95 862.9 Q184.95 851.4 178.2 846.6 L177.95 845.9 Q177.05 850.7 176.95 854.15 L176.95 853.9 Q174.85 845.05 169.95 839.4 L169.95 839.9 Q171.85 845.65 169.2 850.05 168.95 850.4 168.95 850.9 170.9 867.5 171.95 884.9 L171.95 885.9 Q179.85 889.05 182.45 897.75 L182.95 897.9 Q186.5 900.85 192 901.8 L192.95 901.9 199.75 910.1 199.95 910.9 Q261.2 910.15 319.85 913.55 333.5 914.35 347.9 916.35 391 922.35 431.95 925.9 437.5 920.45 440.75 912.85 L440.95 911.9 Q452 908.9 458.7 915.15 L458.95 915.9 Q461.25 925.25 469 922.1 L469.95 921.9 Q475.3 922.05 476.4 926.8 L476.95 926.9 Q484.5 931.8 491.95 931.9 L492.95 931.9 Q496.6 926.6 501.95 927.8 L502.9 927.9 Q511.55 941.75 534.85 942.8 544.1 943.25 553.9 945.05 629.2 959.1 707.1 969.4 L729.9 970.6 Q801.3 968.55 864.7 977.3 873.75 978.5 881.45 981.3 887.5 983.55 891.95 983.15 975.45 976 1064.85 974.95 1106.75 974.45 1143.6 979.5 L1148.9 980.65 Q1151.75 981.45 1153.85 982.9 1187.95 972 1232.75 970.55 1270.2 969.3 1305.7 971.4 1326.6 972.6 1346.8 975.9 L1364.6 965.5 Q1364.8 965.4 1364.8 964.9 1386.9 965 1406.8 962.95 L1407.8 962.9 Q1415.25 967.2 1417.65 959.85 L1417.8 958.9 Q1424.35 953.25 1429.55 961.05 L1429.8 961.9 Q1435.5 959.6 1440.85 961.75 L1441.8 961.9 Q1441.45 971.25 1450.8 970.9 L1451.8 970.9 Q1455.95 964.55 1461.05 959.15 1461.3 958.9 1461.8 958.9 1468.35 957.8 1472.15 964.7 L1472.8 964.9 1616.9 932.5 Q1642.15 926.8 1668.8 923.4 1695.35 920.05 1720.55 914.95 1720.75 914.9 1720.75 913.9 1728.6 917 1735.75 916 L1736.75 915.9 Q1744 908.15 1761.85 909.3 1786.25 910.9 1810.75 910.5 1818.7 910.4 1822.75 905.9 L1854.7 906.85 1855.7 906.9 1855.7 906.2 1874.4 906.6 1875 906.6 1886.2 906.65 1892.65 906.65 1897.9 906.6 1900.3 906.35 1900.9 906.2 Q1904.8 905.15 1906.9 901.2 L1907.15 900.45 1907.4 899.7 1907.65 898.95 1907.9 898.2 1907.9 897.45 1907.9 896.7 1907.9 895.95 1907.65 895.2 1907.5 894.65 1911.7 889.9 1912.6 889.7 Q1919.45 886.4 1927.7 888.9 L1927.75 887.9 Q1930.7 857.55 1925.7 830.9 L1924.5 836.05 Q1922.7 845.75 1919.7 843.9 L1918.85 842.85 1918.25 841.95 Q1915.95 848.5 1914.7 846.9 L1914.8 843.9 Q1914.9 842.3 1914.4 843.55 1910.5 853.65 1908.7 846.9 L1909.4 845.8 1909.7 844.9 Q1907.35 848.8 1904.05 857.15 L1903.9 856.95 1903.15 856.2 1902.4 855.45 1902.3 855.4 1901.95 855.1 1901.4 854.7 1901.1 854.45 Q1902.1 846.65 1900.7 838.9 L1900.7 838.4 Q1897.8 839.5 1894.7 845.9 L1894.95 846.7 Q1891.5 836.75 1887.7 846.9 L1887.75 847.25 1886.2 847.55 1884.8 847.95 Q1878.5 845.15 1873.6 847.7 L1872.7 847.9 Q1868.65 851.35 1870.55 846.85 L1870.7 845.9 Q1874.85 843.05 1877.2 838.9 L1876.7 838.9 Q1866.45 843.45 1864.25 852.8 L1863.7 852.9 Q1857.05 854.7 1858.6 847.9 L1858.7 846.9 Q1868.4 842.1 1874.8 834 L1879.7 827.9 Q1885.8 825.95 1890.85 823.15 L1891.7 822.9 Q1905.7 811.9 1913.5 799.75 L1913.7 798.9 Q1909.2 797.85 1906.95 799.3 1906.7 799.4 1906.7 799.9 1903.45 805.15 1898.55 808.7 L1897.7 808.9 Q1896.6 799.55 1891.65 808.9 1890.45 811.15 1888.7 812.9 1888.5 809.75 1886.65 809.1 L1885.7 808.9 Q1878.95 813.65 1874.75 819.45 L1874.7 817.9 Q1875.3 809.8 1869.15 820.6 1867.8 823 1864.7 823.9 1861.8 819.65 1857.45 824.65 L1856.7 824.9 Q1862.05 814.3 1866.15 807.55 L1866.2 806.9 1866.7 806.9 Q1867.75 802.45 1873.7 802.4 L1873.7 801.9 Q1879.95 797.3 1880.65 789.9 L1880.7 788.9 Q1877.9 787.2 1873.4 793.7 1871 797.15 1872.7 793.9 1873.4 787.7 1865.95 795.15 L1865.8 795.45 Q1867.1 787.9 1875.5 782.55 L1875.7 781.9 Q1890.5 775.7 1904 767.75 L1909.7 763.9 Q1911.4 758.55 1904.95 765.15 1904.7 765.4 1904.7 765.9 1900 759.4 1896.3 767.75 L1895.7 767.9 Q1892.25 764.25 1889.45 767.95 1889 768.55 1889.2 766.4 L1888.7 766.9 Q1884.1 774.25 1885.6 767.9 L1885.7 766.9 Q1880 768.55 1872.7 772.4 L1872.7 771.9 1879.1 760.6 1879.2 759.9 1879.7 759.9 Q1882.75 756.6 1887.8 758.75 L1888.7 758.9 Q1902.7 754.9 1911.45 745.7 L1911.7 744.9 Q1909.05 741.95 1903.7 745.35 1902.85 745.9 1904.7 743.9 1904.15 741.3 1897.3 746.35 1894.45 748.45 1896.7 745.9 1896.7 739.4 1888.05 746.05 L1889.7 742.9 Q1883.6 746.35 1886.5 741.8 L1886.7 740.9 Q1900.7 732.9 1915.65 725.85 1923.05 722.4 1920.7 718.9 1914.65 718.95 1912.35 716.6 L1911.6 717.6 Q1909.8 720 1907.7 721.9 1906.15 717.45 1905.35 717.95 L1899.7 720.9 Q1901.85 715.35 1893.7 717.45 L1893.7 716.95 Q1899.1 714.3 1903.45 710.65 L1903.7 709.95 Q1911.2 707.4 1916.9 703.15 L1917.7 702.95 Q1926.35 692.55 1928.65 675.9 L1928.7 674.95 Q1932.1 683.05 1934.6 691.95 L1934.7 692.95 Q1943.8 702.85 1953.45 712.2 L1953.7 712.95 M1334.8 174 Q1355.55 172.25 1378.8 172.95 L1379.8 173 1379.8 145 1379.8 144 1404.8 144 1405.8 144 1405.8 176 1405.8 177 Q1429 158.7 1450.8 144.5 L1450.8 145 Q1453.55 150.85 1451.25 161.1 1444.2 192.4 1439.5 225.1 1438.7 230.4 1435.8 233 1430.05 228.7 1428 219.35 1423.1 196.7 1416.8 174 L1406.6 181.75 1405.8 182 Q1406.55 202.25 1403.4 219.7 L1401.8 220 1398.8 220 Q1392.25 225.5 1393.15 240.05 1394.1 255.15 1396.6 267.8 1396.8 268.95 1398.8 268.95 1409.3 268.5 1407.5 282.2 1407.1 285.2 1407.55 289 1409.2 302 1410.8 309.95 1408.8 312.45 1403.8 312 L1402.8 311.95 Q1376.55 304.7 1345.85 301.45 1311.05 297.75 1280.2 288.65 1272.8 286.45 1265.75 283.05 1230.35 265.9 1186.8 257.2 1172.05 254.25 1160.85 247.95 1170.15 246.3 1181.6 245 1181.8 244.95 1181.8 242.95 L1181.8 240 Q1187.95 233.6 1202.9 234.55 1206.15 234.8 1204.8 229 1213.45 224.1 1228.8 225 L1228.8 224 1228.8 219 Q1234.95 212.6 1249.85 214.55 1253.35 215 1252.8 211 1258.6 209.25 1263.35 206.25 L1264.1 205.1 Q1264.3 204.5 1264.8 204 1270.85 199.05 1283.8 200 L1283.8 199 1283.8 194 Q1284.15 189.85 1287.85 189.1 L1288.8 189 1332.8 189 1333.8 189 Q1333.15 180.8 1334.7 174.95 L1334.8 174 M1373.55 357.35 Q1382.6 359.1 1391.15 361.95 1400.3 364.95 1406.8 369.95 1446.8 369.95 1486.7 368.5 L1486.8 366.95 Q1484.1 353.8 1495.8 354.9 L1496.8 354.95 Q1500.2 348.4 1499.05 336.95 1498.6 332.8 1499.75 329.95 1507.35 327.65 1514.8 329.85 L1515.75 329.95 Q1518.25 353.95 1515.8 377.95 L1515.75 378.95 Q1509.4 382.1 1510.4 394.1 1511.8 409.95 1511.75 425.95 L1481.8 425.95 1480.8 425.95 1480.8 402.95 1480.8 401.95 Q1391.3 401.95 1301.8 401.2 1256.4 400.85 1209.8 400.95 1211.9 385.4 1207.05 376.85 1206.8 376.45 1206.8 375.95 1197.7 376.1 1200.35 363.85 1200.75 362 1199.8 360.95 1181.25 357.55 1157.85 357.7 1090.6 358.2 1025.85 359.95 1025.65 369.75 1022.45 376.75 1022.35 376.95 1021.85 376.95 1012.35 382 1015.75 400 L1015.85 400.95 Q926.35 400.95 836.85 401.6 834.15 401.6 833.85 399.95 843.2 397.3 847.2 390.05 848.15 388.25 849.85 387.95 857.15 383.75 868.85 383.45 L868.85 382.95 Q873.4 376 885.85 376.15 887.6 376.15 886.85 372.95 894.95 369.5 904.9 368.45 907.6 368.15 907.85 365.95 907.4 360 911.9 359.05 L912.85 358.95 Q928.05 362.15 930.75 352.9 L930.85 351.95 Q938.35 347.95 949.65 346.5 949.85 346.45 949.85 344.95 L949.85 342.95 Q958.7 338.8 971.85 338.3 976 338.1 974.85 331.95 980.5 328.15 989.8 327.45 L989.85 326.95 Q994.5 319.15 1009.95 321.1 1016.3 321.95 1015.85 314.95 1023.75 310.85 1035.65 309.4 1037.55 309.2 1036.85 304.95 1044.75 300.9 1056.85 300.65 1062.85 300.5 1063.85 294.95 1070.55 290.7 1081.7 289.5 L1081.85 287.95 1081.85 285.95 Q1088.35 282 1098.85 281.95 L1099.85 281.95 Q1169.9 301.35 1231.4 328.65 1251.3 337.45 1273.55 343.8 1296.45 350.35 1324.8 351.65 1350.45 352.8 1373.55 357.35 M1492.8 467.95 Q1504.8 465.55 1516.8 467.85 L1517.75 467.95 Q1520.25 492.95 1517.3 517.9 L1516.75 517.95 Q1508.85 521.55 1510.05 536.1 1511.75 557.95 1511.6 579.95 1511 644.7 1513.75 706.9 L1514.75 706.95 Q1522.7 708 1521.75 720.1 1519.75 744.4 1519.4 768.9 1519.05 792.65 1521.2 813.85 1521.25 814.4 1521.75 814.9 1529.3 817.9 1531.65 825.95 L1531.75 826.9 Q1546.6 826.6 1554.55 838.05 L1554.75 838.9 Q1550.3 845.95 1540.9 848.4 1540.75 848.4 1540.75 848.9 1532 848.15 1528 852.15 1527.75 852.4 1527.75 852.9 1530.15 857.3 1527.4 861.7 L1526.75 861.9 Q1523.95 864.05 1520.65 865.7 L1519.75 865.9 Q1508.1 863.2 1498.7 866.75 L1497.75 866.9 Q1493.4 866.85 1489.75 866 L1488.8 865.9 1477.95 871.3 Q1477.8 871.4 1477.8 871.9 L1449.75 870.95 1448.8 870.9 Q1441.55 873.15 1433.75 874.8 L1432.8 874.9 Q1426.5 879.65 1425.8 889.9 L1425.8 890.9 Q1424.95 894.05 1420.8 893.9 L1419.8 893.9 Q1411.45 892.7 1407.45 887.15 1407.3 886.9 1406.8 886.9 L1400.5 893.65 1399.8 893.9 Q1390.9 891.3 1386.45 884.15 1386.3 883.9 1385.8 883.9 1316.8 889.4 1241.8 888.9 L1240.8 888.9 Q1234.35 891.95 1230.45 897.65 L1229.8 897.9 Q1213.2 895.5 1195.45 890.1 1186 887.25 1173.8 886.95 1084.3 884.95 1003.7 893.7 976.55 896.6 946.85 896.75 898.35 896.9 853.85 893.9 849.7 896.25 845.75 898.7 L844.85 898.9 Q842.05 904.6 834.85 905.8 L833.85 905.9 Q831.9 902.4 829.55 899.15 829.4 898.9 828.9 898.9 L799.65 897.85 Q798.7 897.7 796.9 898.9 791.2 900.65 789.05 893.85 L788.9 892.9 731.1 882.8 Q656.4 869.35 576.9 859.9 569.1 866.6 554.7 862.65 550.3 861.45 542.4 863.65 L536.9 864.25 Q532.95 864.35 530.9 862.9 528.85 855.95 521.3 860.95 L518.9 860.9 Q518 855.3 516.45 850.05 516.4 849.9 515.9 849.9 506.75 848.6 504.1 840.85 L503.9 839.9 Q506.4 832.65 491.6 836.8 487.35 838.05 485.95 834.9 483.1 826.75 470.95 826.9 467.45 826.95 467.95 821.9 470.4 818.35 473.7 815.6 L473.95 814.9 Q485.05 812.55 495 809.05 L495.95 808.9 Q499.4 797.4 510.95 794.05 L511.9 793.9 Q515.85 788.85 521.1 785.15 521.4 784.9 521.9 784.9 521.15 747.65 524.45 713.05 L525.9 712.95 Q537.6 714.1 535.35 699.7 533.9 690.45 533.9 680.95 L533.9 623.95 Q522.1 615.3 511.7 605.2 511.4 604.95 510.9 604.95 L494.5 652.8 493.95 652.95 Q489.2 647.15 488.8 636 487.95 614.9 484.95 593.2 483.95 585.95 487.95 580.95 509.85 597.55 532.65 618.2 L532.9 618.95 Q534.65 572.7 532.9 524 L531.9 523.95 526.9 523.95 Q520.3 519.1 521.05 504.85 522.15 484.7 523.9 466.95 534.15 465.2 546.85 466.45 L546.9 466.95 Q547.95 478.45 550.7 489.5 550.95 490.45 552.9 490.95 552.95 495.95 556.05 497.75 L556.9 497.95 Q565.95 497.9 571.7 501.3 571.9 501.45 571.9 501.95 573.6 510.25 572.95 520.95 L572.9 521.95 751.9 521.95 Q789.9 521.95 827.9 522.95 L871.9 522.95 Q826.5 550.3 803.2 559.5 779.85 568.65 738.65 589.3 697.4 609.95 647.9 641.95 632.95 640.45 623.5 645.15 622.9 645.45 622.9 646.95 617.9 647.9 613.05 649.4 612.9 649.45 612.9 649.95 612.9 683.95 614.4 717.85 L615.9 717.95 Q625.55 716.3 623 726.95 L622.9 727.9 801.9 727.95 947.85 727.9 947.85 757.9 947.85 758.9 1100.85 758.9 1101.85 758.9 1101.85 728.9 1101.85 727.9 Q1182.3 727.9 1262.8 729.45 L1262.8 730.9 Q1263.45 740.3 1277 738.4 1287.8 736.9 1298.8 737.1 1331.55 737.7 1361.7 734.95 L1361.8 733.9 Q1361.65 724.8 1374 726 L1414.8 727.9 1414.8 648.95 1414.8 647.95 1365.8 647.95 1364.8 647.95 Q1324.55 619.65 1285.75 589.7 1284.75 588.9 1284.75 586.95 1284.75 585.6 1268.75 578.95 L1267.8 578.95 Q1225.8 562.1 1206.45 550.05 1187.1 538 1146.8 517.95 L1206.8 520.1 Q1296.3 521.95 1385.8 521.95 1425.25 521.95 1464.8 520.95 L1464.8 519.95 1464.8 513.95 Q1465.25 510.4 1467.85 509.15 L1468.8 508.95 1478.8 508.95 1479.8 508.95 Q1481.2 500.4 1487.85 497.15 L1488.8 496.95 Q1493.8 493.95 1492.4 483.85 1491.15 474.85 1492.8 467.95 M1305 705 L1295 705 1295 645 1305 645 1305 705 M1143.85 187 Q1081.05 213.7 1019.45 241.15 L895.1 296.5 Q865.25 309.85 834.85 322.95 833.1 310.2 833.85 294.95 L833.85 293.95 690.9 293.95 689.9 293.95 689.9 308.95 689.9 309.95 649.9 309.95 648.9 309.95 648.9 263.95 648.9 262.95 Q657.15 263.7 662.95 262.1 L663.9 261.95 Q665.65 236.2 664.4 208 L663.9 208 Q659.1 204.8 649.9 205.9 L648.9 206 648.9 142 648.9 141 674.9 141 675.9 141 675.9 171 675.9 172 Q695.85 170.55 710.75 174.45 L710.9 175 Q711.9 181 713.35 186.85 L713.9 187 760.9 187 761.9 187 761.9 212 761.9 213 843.85 213 844.85 213 Q842.4 188.5 846.75 164.3 846.9 163.5 848.85 163 859.45 162.4 857.35 175 L857.85 175 Q868.4 173.45 866.95 184 L866.85 185 Q884.85 186 902.65 188.45 902.9 188.5 902.85 190 901.9 197.45 906 199.75 L906.85 200 Q932.6 200.7 955.75 198.05 956.85 197.95 956.85 196 955.45 188.6 959 186.2 L959.85 186 Q1049.35 186 1138.85 185.3 1142.55 185.25 1143.85 187 M876.85 106 Q868.1 107.75 856.85 107 L855.85 107 Q858.25 121.85 851.65 127.75 L850.85 128 Q845.8 128.1 844.95 123.95 L844.85 123 844.85 108 844.85 107 Q755.4 107 665.9 107.65 656.65 107.75 649.9 106 L756.65 46.6 756.9 46 Q816.8 75.6 875.95 105.8 L876.85 106 M661.05 362.55 L689.9 363.95 Q689.15 397.7 691.85 428.85 691.9 429.45 692.9 429.95 705 429.85 704.9 441.95 L704.9 442.95 Q716.5 446.35 732.9 445.95 777.4 444.95 821.9 444.95 L821.9 462.95 821.9 463.95 700.9 463.95 699.9 463.95 670.65 434.2 669.9 433.95 669.9 402.95 669.9 401.95 566.9 401.95 565.9 401.95 565.9 419.95 565.9 420.95 534.9 420.95 533.9 420.95 Q534.65 399.2 531.5 380.2 L529.9 379.95 526.9 379.95 Q521.95 369.45 523.2 351.9 523.9 342.45 523.9 332.95 530.9 327.5 541.95 330.85 L542.9 330.95 Q544.6 342.8 543.95 356.95 L543.9 357.95 Q555.25 356.1 560.15 360.7 L560.9 360.95 Q559.05 368.8 563.95 369.85 L564.9 369.95 Q608.15 370.7 648.9 368.45 L648.9 367.95 Q650.45 361.5 661.05 362.55 M847.85 585.95 L859.85 585.95 860.85 585.95 Q869.2 583.75 870.35 574 L870.85 573.95 Q875.8 569.9 884.65 568.45 886.6 568.15 885.85 563.95 893.05 560.65 901.5 557.85 903.55 557.15 902.85 552.95 911.85 549.95 920.25 545.75 920.85 545.45 920.85 543.95 L920.85 541.95 Q924.15 537.7 932.85 538.9 L933.85 538.95 964.65 519.6 964.85 518.95 978.85 518.95 979.85 518.95 Q982.4 523.95 991.95 523.5 1023.35 521.95 1054.85 521.95 1056.4 517.05 1064.85 518.85 L1065.85 518.95 Q1073.8 525.5 1084.3 530.2 1084.85 530.45 1084.85 531.95 1094.55 531.7 1098.6 537.1 L1098.85 537.95 Q1098.4 546.65 1113.85 544.05 1119.15 543.15 1119.85 546.95 1120.9 552.85 1122.3 558.85 L1122.85 558.95 Q1134.2 557.1 1139.05 561.7 L1139.85 561.95 Q1139.4 568.8 1140.3 571.8 L1140.85 571.95 Q1149.9 568.4 1155.1 573.7 L1155.85 573.95 Q1154.1 583.6 1162.9 583 1163.8 582.9 1164.8 583.95 1165.1 591.7 1176 590.25 1179.5 589.8 1179.8 593.95 1184.95 595.8 1188.85 598.9 1190.55 600.2 1189.8 603.95 1193.85 604.45 1200.45 607.7 1202.2 608.55 1201.8 611.95 1203 615.1 1209.65 616.05 1211.05 616.2 1210.8 618.95 1213.65 620.65 1223.7 621.35 1225.3 621.45 1226.8 622.95 1225.2 630.6 1228 632.7 L1228.8 632.95 Q1238.5 631.25 1242.1 635.7 L1242.8 635.95 Q1244.1 643.15 1250.85 644.8 L1251.8 644.95 Q1253.2 655.5 1262.65 658.4 L1262.8 658.95 1102.85 658.95 1101.85 658.95 1101.85 612.95 1101.85 611.95 948.85 611.95 947.85 611.95 947.85 657.95 947.85 658.95 Q858.35 658.95 768.9 660.2 757.95 660.4 752.35 656.3 751.9 655.95 751.9 654.95 759.25 645.8 771.9 642.05 L772.9 641.95 Q773.95 633 784.9 633.9 L785.9 633.95 Q787.15 629.35 787.85 620.95 L787.9 619.95 Q796.5 619.05 804.45 616.6 804.9 616.45 804.9 614.95 L804.9 611.95 Q811 605.55 825.9 606.45 L825.9 604.95 825.9 602.95 Q834.6 599.65 843.7 596.5 L843.85 595.95 Q844.15 589.7 847.6 586.65 L847.85 585.95 M720 634 L720 694 710 694 710 634 720 634 M1156.55 424.7 L1155.85 424.95 Q1117.8 427.45 1079.85 425 L1078.85 424.95 Q1077.15 420.1 1077.8 412.95 L1077.85 411.95 Q1117.85 409.45 1157.6 413.9 L1158.85 414.95 Q1159.4 421.55 1156.55 424.7 M1043.85 592.95 Q1044.5 590.85 1043.25 590.15 1036.6 586.65 1025.9 586 1005.15 584.75 993.85 591.95 994.9 601.4 1009.05 599.45 1019.85 597.95 1030.65 599.3 1042.75 600.85 1043.85 592.95 M995.85 560.95 L995.35 560.9 Q994.45 548 983.85 556.95 L984.1 557.7 Q993.75 568.55 998.85 583.95 L999.85 583.9 Q1020.4 582.8 1038.85 582.95 L1039.4 582.8 Q1042.95 573.05 1047.85 564.95 1047.85 564.45 1048.05 564.35 1052.55 562.15 1053.85 556.95 L1053.2 556.75 Q1049.55 550.2 1042.85 554.95 L1042.75 555.95 Q1041.7 563.5 1034.85 568.95 L1034.35 568.85 Q1033.15 561.15 1030.85 554.95 1030.85 554.45 1031 554.4 1037.4 552.4 1034.85 545.95 L1033.95 545.7 Q1027.3 541.75 1022.85 547.95 L1022.95 548.9 Q1025.45 560.75 1018.85 566.95 L1018.25 566.75 Q1015.7 561.1 1013.85 554.95 L1013.35 554.95 Q1018.35 549 1011.85 544.95 L1010.85 544.85 Q1002.1 543.1 1003.85 551.95 1004.1 553.65 1004.7 554.6 1008.05 560.2 1002.85 568.95 L1002.6 568.25 Q998.7 565.05 995.85 560.95"/>
  </g>
</svg>