<svg xmlns="http://www.w3.org/2000/svg" xmlns:xlink="http://www.w3.org/1999/xlink" width="2000" height="1000">
  <defs/>
  <g>
    <path stroke="none" fill="#000001" d="M2000 20 L0 20 0 0 2000 0 2000 20 M1624.75 172 L1624.75 309.95 1624.75 310.95 Q1580.4 277.35 1537.55 242.2 L1536.75 241.95 Q1497.45 272.15 1459.6 303.7 L1458.8 303.95 Q1447.4 291.35 1435.05 279.7 1434.8 279.45 1434.8 278.95 1484.65 239.35 1534.05 199.05 1535 198.25 1536.75 198 1570.15 223.1 1601.95 249.75 L1602.75 249.95 Q1604.5 212.75 1603.75 173 L1603.75 172 1623.75 172 1624.75 172 M1696.75 172 L1696.75 324.95 1696.75 325.95 Q1746.85 365.35 1796.35 405.45 1842.1 442.55 1888.7 478.95 1847.5 480.7 1803.75 479.95 L1802.75 479.95 1802.75 536.95 1802.75 537.95 1775.75 537.95 1774.75 537.95 1774.75 486.95 1774.75 485.95 1749.75 485.95 1748.75 485.95 Q1707.05 533.75 1664.85 581 L1634.75 614.95 Q1620.55 615.7 1609.35 612.1 1608.7 611.9 1608.7 609.95 L1608.75 605.95 Q1621.5 607.7 1621.7 594.95 L1623.75 594.9 1627.75 594.95 Q1624.1 580.75 1635.75 581.9 L1636.75 581.95 Q1641.8 579.45 1641.7 569.95 L1643.75 569.95 Q1654.05 570.75 1650.85 557.9 1649.6 552.75 1654.75 553.95 1666.4 555.1 1664.7 540.95 L1666.75 540.95 Q1677.05 541.75 1674 528.9 1673 524.7 1677.75 525.95 1688.05 526.75 1686.7 513.95 L1688.75 513.95 Q1699.25 514.45 1696.35 500.8 1696 499.25 1698.75 499.95 1713.25 502.95 1709.85 487.95 L1709.75 486.95 Q1715 485.2 1722.75 485.9 L1723.75 485.95 Q1724.75 462.45 1724.75 437.95 L1724.75 436.95 1779.75 436.95 1780.75 436.95 1681.7 357 Q1677.6 353.65 1672.75 350.95 L1672.75 173 1672.75 172 1695.75 172 1696.75 172 M1395.8 353.95 Q1346.75 394.4 1296.85 434.05 L1287.8 440.95 Q1375.55 442.7 1465.8 442.2 L1564.75 441.95 1564.75 455.95 1564.75 456.95 1607.75 456.95 1608.75 456.95 Q1594.75 469.95 1580 482.25 1579.75 482.45 1579.75 482.95 L1409.8 482.95 1408.8 482.95 Q1412.4 494.7 1411.3 505.9 L1410.8 505.95 Q1405.3 511.9 1399.55 506.2 1399.3 505.95 1398.8 505.95 1399.35 493.95 1402.25 484.1 L1402.8 483.95 Q1351.05 482.2 1296.8 482.95 L1295.8 482.95 1295.8 536.95 1295.8 537.95 1269.8 537.95 1268.8 537.95 1268.8 480.95 1268.8 479.95 Q1226.8 479.95 1184.8 479.45 L1184.8 478.95 Q1235.15 439.8 1284.65 399.75 1328 364.7 1371.8 329.95 L1395.55 353.2 1395.8 353.95 M1579 546 L1579 656 1569 656 1569 546 1579 546 M1356.8 683.45 L1608.8 683.45 1608.8 715.95 1459.8 715.95 1295.8 715.95 1295.8 881.9 1295.8 882.9 1433.85 882.9 1433.85 883.4 1665.75 883.4 Q1666.05 897.95 1664.8 910.9 L1664.75 911.9 1485.8 911.9 1306.8 911.9 1264.8 911.9 1189.05 859.55 Q1188.8 859.4 1188.8 858.9 L1154.85 858.9 1153.85 858.9 1153.85 834.9 1153.85 833.9 1241.8 833.9 1242.8 833.9 1242.8 756.9 1242.8 755.9 1267.8 755.9 1268.8 755.9 1268.8 679.95 1268.8 678.95 1089.85 678.95 1023.85 678.95 1023.85 741.9 1023.85 742.9 1004.85 742.9 1003.85 742.9 1003.85 621.95 1003.85 620.95 Q1013.85 620.95 1023.8 621.45 L1023.85 621.95 Q1025.8 628.45 1036.95 627.6 L1081.85 625.95 1260.8 625.95 1268.8 625.95 1268.8 606.95 1268.8 605.95 1294.8 605.95 1295.8 605.95 1295.9 638.25 1356.8 638.25 1356.8 683.45 M1775.8 664.9 Q1774.75 631.45 1774.75 597.95 L1801.75 597.95 1802.75 597.95 1802.75 776.9 1802.75 854.9 1880.7 854.9 1881.7 854.9 1881.7 910.9 1881.7 911.9 1731.75 911.9 1730.75 911.9 Q1727.65 900.05 1728.7 883.9 L1728.75 882.9 Q1743 883.65 1754.25 880.3 L1751.75 880.9 Q1744.45 882.7 1743.8 877.9 L1743.75 876.9 1743.75 779.9 1743.75 778.9 1773.75 778.9 1774.75 778.9 1774.75 716.95 1774.75 715.95 1741.75 715.95 1740.75 715.95 Q1753.4 699.1 1770.3 686.65 1771.25 685.95 1772.75 685.95 1776.2 677.9 1775.8 664.9 M1639 686 L1639 856 1629 856 1629 686 1639 686 M1926.7 984.9 L1952.7 984.9 1952.7 855.9 1952.7 854.9 1998.7 854.9 1999.7 854.9 1999.7 855.9 1999.7 999.9 1968.7 999.9 1789.75 999.9 1610.75 999.9 1431.8 999.9 1252.8 999.9 1073.85 999.9 894.85 999.9 715.9 999.9 536.9 999.9 357.95 999.9 178.95 999.9 0 999.9 0 998.9 0 871.9 Q17.65 884.7 46 881.95 L47 881.9 Q68.45 889.95 97 890.9 L98 890.9 Q114.55 880.5 136.85 875.45 L137 874.9 Q141.45 867.35 147.75 861.65 L148 860.9 Q163.75 856.2 181 853 L181.95 852.9 Q183.85 849.8 186.75 847.6 L186.95 846.9 Q197 837.35 212 841.8 L212.95 841.9 Q217.8 846.55 220.8 853 L220.95 853.9 Q230.7 857.15 240.05 860.75 L240.95 860.9 Q246.3 865.6 248.8 872.95 L248.95 873.9 Q252.55 872.5 254.7 869.7 L254.95 868.9 Q261.1 867.05 267.95 866 L268.95 865.9 Q270.95 861.4 276.9 860.4 L276.95 859.9 Q279.8 842.75 276.45 822 L275.95 821.9 Q274.75 831.2 271.4 832.7 271 832.9 270.95 830.9 269.45 834.65 268.65 833.45 266.95 830.8 265.95 836.9 262.95 835.4 262.15 839.95 260.7 848.8 259.95 841.9 259.3 840.2 257.95 840.45 L258.55 839.15 Q261.35 832.7 257.95 826.9 255.15 838 250.95 830.4 L250.95 830.9 Q248.3 840.15 246.45 832.25 246.35 831.8 245.65 833.35 L246.1 831.95 Q246.45 830.95 246.95 829.9 243.35 827.9 238.6 835 L237.75 835.75 Q236.35 834.8 237.95 834.9 243.15 824.05 235.2 834.1 234.95 834.4 234.95 834.9 231 833.1 234.7 829.65 L234.95 828.9 Q240.3 824.25 244.7 818.7 L244.95 817.9 Q251.5 817 253.8 811.85 L253.95 810.9 Q256.5 810.45 258.15 809.15 L258.95 808.9 Q264.25 802.7 267.45 794.9 L266.95 794.9 Q260.3 797.75 255.95 802.4 L255.95 801.9 Q254.7 797.75 250.85 804.85 248.05 809.9 249.95 803.9 246.45 801.55 244.1 809.25 243.1 812.55 239.95 812.9 240.95 802.75 235.55 813.7 235.45 813.9 234.95 813.9 232.3 815.15 227.95 815.4 L227.95 814.9 234.8 800.85 234.95 799.9 Q244.1 796 243.95 786.9 L243.95 785.9 Q239.4 787.4 234.75 791.65 L233.95 791.9 Q235 784.95 242.75 779.6 L242.95 778.9 Q250.85 775.35 259.05 772.1 L259.95 771.9 Q265.8 766.4 263.95 763.4 L263.95 763.9 Q260.5 769.95 257.65 765.6 L257.4 766.4 Q256.65 768.55 254.95 768.9 252.85 765.85 250.95 768.45 L250.65 768.35 Q249.05 768 248.95 770.9 247.3 769.25 246.65 769.5 243.6 770.85 239.95 771.9 237 773.9 239.35 770.15 239.45 769.9 239.95 769.9 243.65 765.75 243.45 761.9 L243.95 761.9 Q258.9 760.35 265.7 750.75 L265.95 749.9 Q263.8 749.75 261.45 748.4 L261.4 748.05 Q261.1 746.65 258.95 748.9 255.9 754 253.65 749.6 L252.65 750.6 Q250.95 752.25 249.95 749.9 245.35 748.65 251.7 742.65 L251.95 741.9 Q268 738 272.45 727.9 L271.95 727.9 Q267.4 724.2 266.3 726.15 262.5 732.65 262.95 726.9 257.15 729.25 257.25 726.85 L254.95 726.9 Q253.8 724.65 260.75 720.55 L260.95 719.9 Q264.9 718.35 268.1 716.15 L268.95 715.95 Q277.05 707.5 278.45 691.95 L278.95 691.95 Q285.6 716.3 299.95 726.9 L299.05 726.6 297.95 725.9 Q296.5 733.95 289.2 726.65 288.95 726.4 288.95 725.9 284.55 722.2 286.8 729.95 L286.95 730.9 299.7 743.15 299.95 743.9 Q308.1 746.3 311.75 753.05 L311.95 753.9 Q308.3 752.8 308.1 754.1 307.8 755.65 303.95 753.9 301.45 754.75 298 752.25 296.05 750.8 294.95 748.9 293.7 752.65 299 754.75 L299.95 754.9 316.45 775.9 315.95 775.9 Q310.1 773.45 305.65 768.15 305.45 767.9 304.95 767.9 302.7 772.65 298.7 766.8 298.3 766.2 298.95 768.25 299.9 771.2 298.95 768.9 296.3 773.05 293.95 763.95 292.9 760 292.95 765.9 287.45 761.15 288.85 767.95 L288.95 768.9 Q297.2 773.65 299 777.85 L297.95 776.9 Q299.45 782.95 309.55 786.2 315.3 788.05 319.25 792.55 321.5 795.15 318.95 792.9 309.85 787.7 308.2 790.1 307.95 790.4 307.95 790.9 304.05 787.35 303.45 792.9 L303.95 792.9 Q309.45 798.95 318 801.75 L318.95 801.9 324.2 807.65 324.95 807.9 Q327.45 813.8 328.45 819.9 L327.95 819.9 Q324.8 821.25 321.9 817.25 317.2 810.7 317.95 815.9 315.35 818 316.6 819.35 320.1 823.25 318.95 826.9 316 823.1 313.7 825.65 L312.95 825.9 Q308.4 819.1 307.6 819.8 L306.95 821.9 Q305.95 825.45 301.9 817.95 300.85 816 297.95 815.9 300.95 821.55 298.45 825.9 L298.95 825.9 Q303.85 838.65 301.2 843.05 300.95 843.4 300.95 843.9 297.5 841.35 294.95 834.4 L294.95 835.9 Q296.45 845.65 293.5 833.75 291.95 827.45 288.95 827.9 288.7 834.1 286.75 825.75 286.2 823.2 284.95 821.9 283.5 836.5 284.9 856.9 L284.95 857.9 Q291.95 858.9 298 860.75 L298.95 860.9 Q301.7 865.65 306.75 868.3 L306.95 868.9 346.95 863.95 347.95 863.9 347.95 791.9 347.95 790.9 Q350.4 787.4 352.35 783.1 352.45 782.9 352.95 782.9 358.45 787.95 357.95 798.9 L357.95 799.9 Q363 799.95 365.7 797.65 L365.95 796.9 Q396.7 796.15 424.95 797.9 L425.95 797.9 Q427.05 818.5 428.9 834.8 L429.75 835.3 431.95 836.9 Q433.35 841.45 426.95 838.45 L426.95 839.9 Q431.5 843.35 440.95 843.15 463.2 842.65 482.7 839.45 482.95 839.45 482.95 837.9 481.45 829.45 486.75 827.45 L486.95 826.9 Q494.65 826.15 499.75 828.35 L499.9 828.9 Q504.9 835.45 504.25 849 503.65 860.65 501 869.65 L499.9 869.9 Q494.9 866.45 496.4 855.85 498.4 841.95 493.45 833.8 492.9 832.9 490.95 832.9 485.1 839.4 492.95 841.75 L493.95 841.9 Q495.7 874.65 494.95 909.9 L494.95 910.9 Q535.65 905.65 573.3 915.45 578.9 916.9 584.8 916.15 L643.05 909.55 Q653.8 908.5 663.7 910.8 686.7 916.1 714.9 915.8 731.6 915.6 745.85 911.75 772.05 904.65 797.9 911.9 L797.9 834.9 797.9 833.9 715.05 829.95 713.9 828.9 Q720.45 822.5 736 823.35 764.4 824.9 792.85 824 803.65 823.65 809.9 826.9 810.3 834.55 816.15 840.65 L816.9 840.9 845.85 841.95 846.85 841.9 Q854.25 834.8 857.35 828.9 L856.85 828.9 Q845.85 831.4 845.35 823.9 L845.85 823.9 Q880.35 820.9 916.85 819.95 L917.85 819.9 Q938 806.55 957.1 797.5 958.5 796.8 957.85 798.9 960.15 803 952.4 806.95 936.55 815.1 921.85 824.9 919.75 832.55 921.75 840.95 L921.85 841.9 Q964.6 842.65 1004.8 840.4 L1004.85 839.9 Q1007.75 833.3 1019.95 834.1 L1074.85 835.9 Q1074.85 853.9 1075.35 871.9 L1075.85 871.9 1173.3 953.35 1210.8 984.9 1389.8 984.9 1568.75 984.9 1747.75 984.9 1926.7 984.9 M1189 659.15 Q1183.05 663.15 1177.8 667.95 L1177.85 668.45 Q1191.35 668.95 1204.8 668.95 1204.8 668.45 1204.6 668.25 1197.5 663.2 1189.8 658.95 L1189 659.15 M1150 659.15 L1138.85 667.95 1138.85 668.45 Q1152.35 668.95 1165.8 668.95 L1165.6 668.25 Q1158.55 663.2 1150.85 658.95 L1150 659.15 M1166.8 645.95 Q1166.8 646.45 1167.05 646.65 1174.1 652.2 1182.8 655.95 L1183.6 655.7 Q1189.4 651 1194.8 645.95 L1193.8 645.95 1166.8 645.95 M1227.95 659.15 Q1222.05 663.15 1216.8 667.95 L1216.85 668.45 Q1230.35 668.95 1243.8 668.95 1243.8 668.45 1243.6 668.25 1236.5 663.2 1228.8 658.95 L1227.95 659.15 M1223.05 655.3 Q1229.2 651.3 1233.8 645.95 L1232.8 645.95 1205.8 645.95 Q1205.8 646.45 1206.05 646.6 1213.45 652.3 1222.8 655.95 1222.8 655.45 1223.05 655.3 M1243.8 645.95 Q1243.8 646.45 1244.05 646.6 1251.6 651.7 1259.8 655.95 L1260.75 655.75 Q1266.1 653.7 1268.8 648.95 L1268.65 648.35 Q1258.8 644.45 1243.8 645.95 M1033.85 658.95 L1033 659.15 Q1028.25 662.3 1023.85 665.95 1023.85 666.45 1024 666.5 1033.9 670.4 1048.85 668.95 L1048.6 668.25 Q1041.55 663.2 1033.85 658.95 M1038.85 645.95 L1037.85 645.95 1023.85 645.95 1023.8 646.95 Q1023.1 654.15 1024.85 658.95 1024.85 658.45 1025.1 658.25 1032.25 652.35 1038.85 645.95 M1111 659.15 Q1105.05 663.15 1099.85 667.95 L1099.85 668.45 Q1113.35 668.95 1126.85 668.95 L1126.6 668.25 Q1119.55 663.2 1111.85 658.95 L1111 659.15 M1126.85 645.95 L1127.05 646.65 Q1134.65 652.65 1144.85 655.95 L1145.05 655.25 Q1150.95 651.1 1155.85 645.95 L1154.85 645.95 1126.85 645.95 M1072 659.15 Q1066.05 663.15 1060.85 667.95 L1060.85 668.45 Q1074.35 668.95 1087.85 668.95 L1087.6 668.25 Q1080.55 663.2 1072.85 658.95 L1072 659.15 M1077.85 645.95 L1076.85 645.95 1049.85 645.95 Q1049.85 646.45 1050.1 646.65 1057.1 652.2 1065.85 655.95 L1066.65 655.7 Q1072.45 651 1077.85 645.95 M1088.85 645.95 Q1088.85 646.45 1089.1 646.6 1096.45 652.3 1105.85 655.95 1105.85 655.45 1106.05 655.3 1112.2 651.3 1116.85 645.95 L1115.85 645.95 1088.85 645.95 M517.9 186 Q535.35 178.6 547.15 188.75 L547.9 189 Q553.3 197.55 549.1 208.05 L548.9 209 Q557.25 210.65 562.15 215.75 L562.9 216 Q568.65 234.45 556.15 244.3 555.9 244.45 555.9 244.95 557.35 255.85 553.1 265.05 L552.9 265.95 Q543.25 276.05 527.85 271.1 L526.9 270.95 Q525.5 276.05 523.15 280.1 522.9 280.45 522.9 280.95 519.6 284.65 514.05 286.4 513.9 286.45 513.9 286.95 501 287.4 493.75 282.2 L492.95 281.95 Q489.45 278.45 487.15 273.85 L486.95 272.95 Q482.25 277.3 478.15 282.2 L477.95 282.95 Q472.6 284.65 467.85 286.8 L466.95 286.95 Q457.75 285.15 452.65 279.2 452.45 278.95 451.95 278.95 450.9 275.5 449.15 272.85 L448.95 271.95 Q434.65 276.25 420.85 270.15 L419.95 269.95 Q413.55 264.35 414.85 255.95 L414.95 254.95 Q409.55 253.35 404.85 251.15 L403.95 250.95 Q389.1 261.85 371.8 252.2 371.45 251.95 370.95 251.95 365.85 247.05 362.15 240.85 L361.95 240 Q358.1 242.65 356.15 247.05 L355.95 247.95 Q352.3 250.3 349.2 253.25 348.95 253.45 348.95 253.95 L339.9 256.8 338.95 256.95 Q329.85 255.05 323.75 250.2 323.45 249.95 322.95 249.95 321.7 246.25 319.2 243.75 318.95 243.45 318.95 242.95 303.2 245.7 292.2 245.7 L291.95 242.95 Q288.05 237 286.3 248.9 285.95 251.45 284.95 253.95 279.1 260.45 269.95 259.05 L268.95 258.95 Q252.8 250.7 260.85 231.95 261.95 229.45 263.95 228 270 225.55 274.9 221.65 276.6 220.3 273.95 221 266.85 222 266.1 216.2 265.95 215 263.95 214 255.65 207.8 255.95 193 L255.95 192 Q257.65 189.15 258.8 185.9 L258.95 185 Q262.35 181.35 266.75 178.6 266.95 178.5 266.95 178 256.7 160.9 268.7 146.75 L268.95 146 Q275.95 141.5 285 139.1 L285.95 139 Q290.55 141.4 296.95 141.5 L296.95 141 Q303.1 116.85 333.85 122.65 342.2 124.25 345.95 131 348.6 131.1 350.75 125.9 L350.95 125 355.7 120.75 355.95 120 Q375.05 108.85 393.1 120.75 L393.95 121 Q399.45 126.5 400.45 136.95 L400.95 137 Q417.45 129.4 432.05 137.75 L432.95 138 Q438.2 143.7 438.9 154 L438.95 155 Q437.8 159.3 436.1 163.05 435.95 163.5 435.95 164 442.25 166.15 448 168.8 L448.95 169 Q450.4 171 452.2 172.75 L452.95 173 Q468.15 171.75 472.75 181.1 L472.95 182 Q476.05 179.6 477.75 175.9 L477.95 175 Q493.1 161.3 512.05 171.75 L512.9 172 Q518.5 177.9 517.95 185 L517.9 186 M251.9 246.8 L250.95 246.95 Q238.7 244.25 225.05 242.5 L224.95 241.95 Q240.3 237.8 254.95 238.45 L254.95 239 Q255.7 245.2 251.9 246.8 M255.75 229.2 L254.95 229 Q247.3 216.1 239.2 203.85 238.95 203.5 238.95 203 252.25 212.7 262.45 225 L261.95 225 Q258.55 231.4 255.75 229.2 M282.95 259.95 Q287.05 257.55 289.35 253.2 289.45 252.95 289.95 252.95 298.15 266.75 306.75 280.1 L306.95 280.95 283.2 260.7 Q282.95 260.45 282.95 259.95 M267.95 262.95 Q282.5 261.35 277.45 275.5 275.6 280.6 275.05 286 274.45 291.45 272.95 295.95 270.75 279.7 268.05 263.95 L267.95 262.95 M258.95 254.95 Q263.05 260.15 262.2 261.2 261.95 261.45 261.95 261.95 249.9 272.9 238.95 279.45 L238.95 278.95 Q247.95 266.5 257.8 254.65 257.95 254.45 258.95 254.95 M210 676.05 L210 816.05 200 816.05 200 676.05 210 676.05 M600.9 931.9 L600.9 932.4 Q646.65 933.65 689.9 931.9 L688.95 931.75 Q645.05 919.5 600.9 931.9 M494.95 915.9 L494.95 918.9 Q494.95 920.4 495.25 920.5 502.05 922 512.9 920.9 524.45 919.75 536.55 923.25 573.5 933.9 611.9 924.95 651.45 915.75 690.05 926.3 699.45 928.85 709.7 927.9 738.75 925.25 767.9 920.9 777.45 919.5 787.55 922.9 797.6 926.35 797.9 918.9 L797.75 915.9 Q797.6 914.25 795.9 914.25 L777.85 913.95 Q755.1 913.15 737.5 917.15 703.95 924.8 672.2 915.9 654.1 910.8 632.05 914.7 613.5 918 593.85 920.2 572.75 922.6 553.45 917 525.8 909 494.95 915.9 M561.9 931.9 L560.95 931.75 Q529.5 921.8 494.95 927.9 495.45 929.9 496.2 930 528.95 934.4 561.9 931.9 M433.9 816.05 Q436.7 816.4 436.95 809.9 439.7 814.15 441.75 819 L441.95 819.9 Q442.75 829.75 439.1 831.35 438.95 831.4 438.95 831.9 440.25 837.75 434.9 830.85 L433.95 831.9 Q430.35 834.45 432.75 826.15 L432.9 825.15 Q432.45 822.9 430.95 820.9 437.85 821.95 432.95 815.9 L433.9 816.05 M773.85 934.4 Q788.9 934.9 796.9 929.9 L797.4 929.4 Q790.55 926.7 781.85 926.3 754.5 925 729.9 931.9 L773.85 934.4 M915.85 840.9 L915.75 839.95 Q914.5 833.85 914.85 825.9 L913.85 825.95 867.85 827.9 867.6 828.65 854.85 840.9 854.9 841.4 Q886.6 842.65 915.85 840.9"/>
  </g>
</svg>