<svg xmlns="http://www.w3.org/2000/svg" xmlns:xlink="http://www.w3.org/1999/xlink" width="2000" height="1000">
  <defs/>
  <g>
    <path stroke="none" fill="#000001" d="M643 19.15 L597 19.15 398 19.15 199 19.15 0 19.15 0 18.15 0 0.15 199 0.15 398 0.15 597 0.15 796 0.15 995 0.15 1194 0.15 1393 0.15 1592 0.15 1791 0.15 1990 0 Q2005.2 -0.05 2000 20.15 L1959 20.15 1760 20.15 1561 20.15 1362 20.15 1163 20.15 964 20.15 Q904.25 18.4 842 18.7 L643 19.15 M1283 212.15 L1283 211.15 1283 198.15 Q1295.05 185.75 1302.8 169.05 L1303 168.15 Q1386.25 165.45 1459.65 174.95 1469.85 176.3 1480.1 179.85 1486.9 182.25 1494 184.15 1495.75 195.9 1500.8 204.3 L1501 205.15 Q1477.9 221.05 1448.95 231 L1448 231.15 Q1428 268.15 1375 272.1 L1374 272.15 1373 272.15 1369 272.15 Q1352.25 253.9 1326.2 247.25 1296.9 239.8 1284 218.15 L1284.1 217.15 Q1284.7 213.45 1283 212.15 M1297 619.15 Q1297.3 620.85 1300 620.25 L1301 620.15 1301.95 620.3 Q1317.5 625.65 1327 637.15 L1326.8 637.8 Q1305.1 651.25 1283 664.15 L1282.25 663.9 Q1268.3 648.8 1249 639.15 1242.25 636.95 1233.85 639.7 1213.8 646.3 1195 647.15 L1194.15 647.35 Q1185.35 652.5 1177 658.15 1174.2 656.5 1170.3 655.25 1160.9 652.25 1148.75 655.25 1108.1 665.25 1082.4 692.6 L1075.6 700.3 Q1050.05 731.2 1008 745.15 L1007.05 745 Q992.9 739.85 981.85 738 976.05 737.95 959.7 742.95 927.75 752.65 895 761.15 836 762.65 798.65 784.85 766.7 803.85 723 810.15 L722.95 809.65 713 809.15 712 809.15 678 809.15 677 809.15 585 809.15 584 809.15 503 809.15 503 808.65 Q491 808.15 479 808.15 L440.15 809.95 Q416.5 812.15 407 802.15 416.6 788.8 422.45 772.3 422.5 772.15 423 772.15 505.35 776.85 579.05 753.3 L580 753.15 Q583.95 746.1 591.1 742.35 L592 742.15 595 742.15 596 742.15 Q608.15 745 622 746.1 L623 746.15 626.9 745.7 627 745.15 Q632.1 742.25 639 741.2 L640 741.15 644.9 740.65 645 740.15 Q646.3 738.95 649 739.1 L650 739.15 682 739.15 683 739.15 Q707.3 741.25 730.05 733.3 L731 733.15 Q726.55 716.6 723.1 699.15 L723 698.15 Q744.3 720.85 768 740.65 L768 740.15 Q768.9 727.6 765.1 710.15 765 709.65 761 704.15 791 719.15 817.1 733.95 L818 734.15 Q880.9 717.55 929.15 686.4 929.5 686.15 930 686.15 934.35 627.5 978.8 608.75 979 608.65 979 608.15 939.55 601.6 919.25 575.95 919 575.65 919 575.15 931.25 558.4 954.05 552.3 L955 552.15 Q951.15 544.95 950.05 535.15 L950 534.15 950 533.15 950 530.15 950 529.15 950 525.15 Q969.5 499.15 980.45 464.3 980.5 464.15 981 464.15 975.9 436.75 976 404.15 L976 403.15 Q977.75 400.9 977.05 396.15 L977 395.15 977.1 394.15 Q978.95 385.6 977 378.15 L976.75 377.35 Q952.95 347.25 938 308.15 953.2 284.35 987.95 279.65 L988 279.15 Q1030.9 289.35 1073.05 276.3 L1074 276.15 1077 276.15 1078 276.15 1079 276.25 Q1097.5 279.15 1110 288.15 L1109.9 289.1 Q1103.65 315.35 1087 331.15 L1086.95 331.65 Q1025.7 337.35 1013 391.15 1013 391.65 1013.25 392 1034.05 424.15 1056 455.15 L1055.8 456.05 Q1038.5 486.65 1010 506.15 L1009.85 507.1 Q1003.55 525.2 996 542.15 998.9 551.8 1005.75 557.45 L1006 558.15 Q1009.45 569.75 1010 584.15 L1010 585.15 Q1025.7 604.45 1034.85 630.2 L1035 631.15 Q1035 633.15 1035.45 635.05 L1036 635.15 Q1048.85 663.8 1082.05 672.05 L1083 672.15 Q1084.3 673.85 1087.85 672.7 L1088 672.15 Q1110.85 657.5 1132.75 641.8 L1133 641.15 1196.7 622.5 Q1215.4 616.9 1242 617.1 1255.05 617.2 1269 615.15 L1281 615.15 1282 615.15 1283 615.15 Q1283.8 616.85 1287 616.25 L1288 616.15 Q1292.8 616.85 1296.15 618.9 L1297 619.15 M1375 727.65 L1375.25 726.8 Q1396.4 716.85 1417.1 705.9 L1423.45 702.55 1439.25 693.85 1443.3 694 1434.25 731.35 1434.7 732.45 Q1435.15 733.55 1435.75 734.4 1438.3 738.4 1442.75 737.4 L1445.25 736.5 Q1448.3 735.05 1450.3 732.25 1471.6 702.8 1495.3 675.3 1484.95 703.7 1479.1 733.35 L1478.4 733.85 Q1461.3 745.6 1446.35 757.9 1417.95 763.9 1388.35 758.9 L1383.35 754.9 1379.35 753.9 1371.35 743.9 Q1371.25 739 1372.8 734.4 L1375 727.65 M1747 809.15 L1746 809.15 Q1666.85 811.8 1649 753.15 1659.6 751.2 1671 750.2 L1672 750.15 Q1686.3 759.85 1707 763.05 L1708 763.15 Q1709.75 764.85 1713.85 763.7 L1714 763.15 Q1716.75 763.4 1718.15 762.4 1718.5 762.15 1719 762.15 L1729 762.15 1730 762.15 Q1814.45 770.7 1882.05 795.95 1889.8 798.85 1889 810.15 1887.8 819.9 1878.95 817.3 L1878 817.15 Q1873.15 813.55 1865 813.15 L1864 813.15 1863.9 812.65 1858 812.15 1858 813.15 1857 813.2 Q1817.75 817.8 1784 808.15 L1783 808.15 1747 808.15 1747 809.15 M1131 964.15 L1131 963.15 Q1131.1 953.05 1129 945.15 1171.05 946.65 1210.45 953.45 1237.55 958.1 1259.35 966.8 1271.5 971.65 1278 983.15 1293.65 968.3 1311.75 955.8 L1312 955.15 Q1385.65 940.4 1437.55 971.55 1445.7 976.4 1454 980.15 1535.45 959.15 1620.15 954.05 1632.3 953.3 1643.25 956.2 1655.25 959.4 1665 964.15 1674.05 931.2 1685 906.15 L1688 908.15 Q1699.9 909 1703.9 892.1 L1704 891.15 Q1711.95 909.2 1717.45 930.05 L1718 930.15 Q1723.85 905.5 1730.05 886.1 L1732 886.15 Q1734.75 900.9 1748.05 905 L1749 905.15 Q1759.35 917.8 1773.5 927.35 1785.05 935.1 1796.2 944.15 1806.85 952.8 1819 960.15 1840.7 928.35 1861.35 895.4 1861.5 895.15 1862 895.15 1909.75 917.35 1946.25 950.9 L1947 951.15 Q1966.4 924.05 1995.65 912.8 1997.45 912.1 2000 913.15 L2000 914.15 2000 1000.15 1990 1000.15 1791 1000.15 1592 1000.15 1393 1000.15 1194 1000.15 995 1000.15 796 1000.15 597 1000.15 398 1000.15 199 1000.15 0 1000.15 0 999.15 0 932.15 Q1.45 915.3 19.45 922.5 39.25 930.4 59.05 936 79 941.65 101 945.15 146.5 924.65 197.05 909.3 L198 909.15 Q226.3 935.85 265.05 951.95 L266 952.15 Q298.9 942.05 336 936.25 L337 936.15 343 936.15 344 936.15 Q387.1 951.55 432.05 965 L433 965.15 Q462.25 935.9 504.05 919.3 L505 919.15 653.9 969.5 663 972.15 Q663.8 973.85 666.85 972.7 L667 972.15 Q707.1 962.3 741.1 946.35 L742 946.15 Q790.25 965.9 845.55 976.15 855.95 978.1 865.1 975.55 905.15 964.3 949 957.15 950.3 958.85 954 958.25 L955 958.15 971 958.15 972 958.15 Q973.3 959.85 977 959.25 L978 959.15 Q1007.8 957.95 1036 955.2 L1037 955.15 1045 955.15 1046 955.15 Q1059.7 953.4 1060.95 964.15 L1061 965.15 1060 965.15 1060 969.15 1060 970.15 1059.9 971.1 1058 978.15 Q1066.2 992.95 1092 993 1117.9 993.05 1131 983.15 1132.75 980.4 1132.05 975.15 L1132 974.15 1132 973.15 1132 972.15 1132.05 971.15 Q1132.75 966.4 1131 964.15 M667 153.15 L667.95 153.25 Q741.9 172.55 808 145.15 L808.1 145.65 Q815.8 147.35 824 148.15 832 144.65 839.45 140.2 865.2 124.9 885 135.15 L886 136.15 Q906.5 116.15 929 93.15 937 100.15 940.7 109.45 953.75 142.4 972 168.15 L972 169.15 Q972.2 187.8 962 196.15 L940.05 205.3 Q921.95 212.6 899.95 218.55 812 242.45 729.05 215.95 715.15 211.5 701.6 210.05 615.7 200.95 522 203.15 L522 202.65 Q479.5 202.15 437 202.15 370.95 199.1 316.7 205.8 269.2 211.65 270 259.15 L270 259.65 Q253.75 250.9 238 241.15 L237.45 241 Q234.9 233.85 241 225.15 L240.4 223.05 Q224.75 229.9 206 245.15 L205.1 244.95 Q188.75 237.4 185 241.15 L184.3 240.9 Q176 230.3 168 234.15 L166.8 235.45 Q152.45 226.7 136 207.15 L136 206.15 Q135.5 195.15 130 189.15 140.6 169.75 160.1 159.35 L161 159.15 175 159.15 176 159.15 Q228.45 160.65 271.05 146.2 280 143.15 289.85 144.45 297.2 145.45 302 150.15 334.2 145.35 356 130.65 L356 131.15 Q377.55 149.6 414.75 154.25 418.85 154.8 424 156.15 441.7 152 462 154.1 L463 154.15 Q463.8 155.85 467 155.25 L468 155.15 484 155.15 485 155.15 Q485.3 156.85 488 156.25 L489 156.15 544 154.15 545 154.15 565 154.15 566 154.15 Q614.1 154.25 661 153.15 L662 153.15 666 153.15 667 153.15 M968.65 733.15 L968 733.15 Q968.8 734.85 972 734.25 L973 734.15 972.9 733.65 968.65 733.15 M135 825.15 L135 824.15 135 816.15 172.35 758.4 Q172.5 758.15 173 758.15 188.8 765.15 207.95 763.65 L208 763.15 Q217.45 755.1 217.5 737.15 L218 737.15 Q223.8 726.45 236.05 722.3 L237 722.15 Q266.85 733.8 284.25 752.9 L285 753.15 Q296.4 745.4 308.75 759.35 L309 760.15 Q315 757.65 323 757.2 L324 757.15 Q324.3 758.85 327 758.25 L328 758.15 Q363.95 758.2 386.85 766.6 L387 767.15 367.2 805.25 367 806.15 Q353.85 811 335 810.15 L334 810.15 333 810.15 320 810.15 320 811.15 319 811.15 298 811.15 297 811.15 283 811.15 283 812.15 Q282.5 812.15 282.3 812.4 264.6 832.9 243 823.15 L242.95 822.65 230 822.15 230 823.15 Q201.7 827.85 178.85 835.8 152.7 844.85 143 868.15 L143 868.65 Q133.7 860.45 135 836.15 L135 835.15 135 825.15"/>
    <path stroke="none" fill="#000002" d="M1814 176.15 Q1816.25 177.9 1820.9 176.7 L1821 176.15 Q1823 176.15 1823.05 176.5 1826.95 199.15 1802 210.15 L1802 210.65 Q1771.6 211.9 1747 218.15 L1746 218.15 1740 218.15 1740 219.15 1739.05 219 Q1687.9 203.85 1648 235.15 1648 234.65 1647.8 234.55 1624.15 222 1601 209.15 L1600.9 208.15 Q1598.05 192.6 1592 180.15 1598.45 176.1 1603.3 170.4 1603.5 170.15 1604 170.15 1701.55 168.15 1789.45 153.85 1804.1 151.45 1817 153.3 1822.1 154.05 1823 159.15 1824.8 170.95 1814.2 175.55 L1814 176.15"/>
    <path stroke="none" fill="#3d3d3d" d="M1814 176.15 L1820 176.15 1821 176.15 1820.9 176.7 Q1816.25 177.9 1814 176.15 M949 957.15 L954.9 957.65 955 958.15 954 958.25 Q950.3 958.85 949 957.15 M972 958.15 L977.9 958.65 978 959.15 977 959.25 Q973.3 959.85 972 958.15"/>
    <path stroke="none" fill="#2f2f35" d="M1740 219.15 L1740 218.15 1746 218.15 1747 218.15 1746.95 218.65 1740 219.15"/>
    <path stroke="none" fill="#3d3d3e" d="M1374 272.15 L1373.85 272.7 Q1370.3 273.85 1369 272.15 L1373 272.15 1374 272.15"/>
    <path stroke="none" fill="#010203" d="M1325 601.15 Q1353.45 607.15 1371.25 613.5 1372.95 614.1 1374 613.15 1379.75 591.45 1391.75 609.3 L1392 610.15 Q1402.45 611.05 1406.45 595.25 L1407 595.15 1417.25 604.9 1418 605.15 Q1431.8 606.4 1443 604.65 L1443 605.15 Q1452.75 616.4 1472 617.65 L1472 617.15 Q1468.1 597.15 1464.5 587.15 L1465 587.15 Q1465.3 588.85 1468 588.25 L1469 588.15 1486 588.15 1487 588.15 1493 588.15 1494 588.15 1495 588.2 Q1516 591.15 1516 610.15 1513.45 617.9 1510.6 613.2 1500.55 596.55 1484 606.15 L1484 607.15 1484 618.15 1484 619.15 1483.85 620.1 Q1474.05 648.15 1448 622.15 L1447.15 622.35 Q1435.25 629.4 1425 638.15 L1424.85 639.1 Q1419.75 654.9 1409 665.15 L1408.1 664.95 Q1386.1 654.05 1361 646.15 L1360.75 645.3 Q1341 617.15 1310 600.15 1314.65 597.8 1319.1 599.95 L1320 600.15 Q1320.8 601.85 1324 601.25 L1325 601.15"/>
    <path stroke="none" fill="#444444" d="M1465 587.15 L1468.9 587.6 1469 588.15 1468 588.25 Q1465.3 588.85 1465 587.15 M950 534.15 L949.45 534.05 Q949 532.15 949 530.15 L950 530.15 950 533.15 950 534.15"/>
    <path stroke="none" fill="#424242" d="M1487 588.15 L1487 587.15 1493.95 587.65 1494 588.15 1493 588.15 1487 588.15 M337 936.15 L337 935.15 343.95 935.65 344 936.15 343 936.15 337 936.15"/>
    <path stroke="none" fill="#2d3239" d="M1320 600.15 L1324.9 600.65 1325 601.15 1324 601.25 Q1320.8 601.85 1320 600.15"/>
    <path stroke="none" fill="#2d3138" d="M1297 619.15 L1300.9 619.6 1301 620.15 1300 620.25 Q1297.3 620.85 1297 619.15"/>
    <path stroke="none" fill="#000102" d="M1375 727.65 L1372.8 734.4 Q1371.25 739 1371.35 743.9 L1379.35 753.9 1383.35 754.9 1388.35 758.9 Q1417.95 763.9 1446.35 757.9 1461.3 745.6 1478.4 733.85 1476.6 742.4 1475.1 751.15 L1475 752.15 Q1510.7 735.35 1552.05 724.3 L1553 724.15 Q1563.1 787.55 1601.45 809.15 L1598 809.15 1592 809.15 1591 809.15 1432 809.15 Q1406.4 805.25 1385.6 797.15 1363.45 788.55 1339.7 792.95 1288.25 802.5 1273 763.15 1293.95 755.1 1311.15 743.4 1311.5 743.15 1312 743.15 1345.65 738.05 1375 727.65 M1442.75 737.4 Q1438.3 738.4 1435.75 734.4 1439.3 737 1442.75 737.4"/>
    <path stroke="none" fill="#404040" d="M643 19.15 L842 18.7 Q904.25 18.4 964 20.15 902.5 20.15 841 20.45 740.75 20.9 643 19.15 M1284 218.15 L1283.5 218.05 Q1283 215.15 1283 212.15 1284.7 213.45 1284.1 217.15 L1284 218.15 M1484 607.15 Q1485.7 611.9 1484.5 619.05 L1484 619.15 1484 618.15 1484 607.15 M723 810.15 L722 810.2 Q716.25 810.9 713 809.15 L722.95 809.65 723 810.15 M678 809.15 L678 809.65 Q630.25 810.9 585 809.15 L677 809.15 678 809.15 M503 809.15 L502 809.2 Q489.25 809.9 479 808.15 491 808.15 503 808.65 L503 809.15 M592 742.15 L592 741.15 595.9 741.6 596 742.15 595 742.15 592 742.15 M1432 809.15 L1591 809.15 1592 809.15 1592 809.65 Q1510.75 810.9 1432 809.15 M1708 763.15 L1713 763.15 1714 763.15 1713.85 763.7 Q1709.75 764.85 1708 763.15 M1719 762.15 L1719 761.15 1729.95 761.65 1730 762.15 1729 762.15 1719 762.15 M1864 813.15 L1863 813.15 1858 813.15 1858 812.15 1863.9 812.65 1864 813.15 M1784 808.15 L1784 808.65 Q1765.5 809.15 1747 809.15 L1747 808.15 1783 808.15 1784 808.15 M1132 972.15 L1131.5 972.1 Q1131 968.15 1131 964.15 1132.75 966.4 1132.05 971.15 L1132 972.15 M667 153.15 L666 153.15 662 153.15 662 152.15 666.9 152.65 667 153.15 M566 154.15 L565 154.15 545 154.15 545 153.15 Q555.5 153.15 566 153.65 L566 154.15 M489 156.15 L488 156.25 Q485.3 156.85 485 155.15 L488.9 155.6 489 156.15 M468 155.15 L467 155.25 Q463.8 155.85 463 154.15 L467.9 154.65 468 155.15 M437 202.15 Q479.5 202.15 522 202.65 L522 203.15 521 203.15 Q477.75 203.9 437 202.15 M298 811.15 L297.95 811.65 283 812.15 283 811.15 297 811.15 298 811.15 M243 823.15 L242 823.15 230 823.15 230 822.15 242.95 822.65 243 823.15"/>
    <path stroke="none" fill="#030304" d="M1942 858.15 Q1956.55 866.65 1968.1 872.95 L1969 873.15 Q1970 860.15 1972.5 846.25 L1973 846.15 Q1989.65 852 1990 874.15 L1990 875.15 Q1978.45 883.1 1965.2 889.55 L1965 890.15 Q1947.6 887.1 1938 876.65 L1938 877.15 Q1940.65 895.1 1929 893.25 L1928 893.15 Q1918.9 882.75 1906.2 875.75 1906 875.65 1906 875.15 1924 867.15 1941.8 858.75 1942 858.65 1942 858.15"/>
    <path stroke="none" fill="#010102" d="M1143 163.15 Q1192.2 158.6 1229.2 174.95 1234.05 177.1 1236 183.15 1214.5 191.15 1213.5 220.15 L1213 220.15 Q1196 234.65 1176.85 246.9 L1176 247.15 Q1163.2 237.45 1152.25 225.9 L1152 225.15 Q1153.95 185.2 1124.15 176.7 1124 176.65 1124 176.15 1131.65 168.3 1142.8 163.7 L1143 163.15"/>
    <path stroke="none" fill="#35353a" d="M1074 276.15 L1074 275.15 1077.9 275.6 1078 276.15 1077 276.15 1074 276.15"/>
    <path stroke="none" fill="#3f3f3f" d="M976 403.15 L976 402.15 976 395.15 977 395.15 977.05 396.15 Q977.75 400.9 976 403.15"/>
    <path stroke="none" fill="#020203" d="M1203 390.15 Q1202.5 390.15 1202.35 390.4 1191.75 406.9 1176 418.15 L1175.1 417.95 Q1153.95 408.45 1148 425.15 1143.5 431 1130.75 421.95 1123.5 416.8 1110 417.15 1120.65 403.8 1135.15 394.4 L1136 394.15 Q1148.75 397.45 1157.2 404.9 L1158 405.15 Q1176.7 393.85 1192.25 379.4 1192.5 379.15 1193 379.15 1203.35 381.75 1210.75 387.45 L1211 388.15 1210.95 388.65 1203 389.15 1203 390.15 M1177 754.15 L1178 754.25 Q1186.25 755.9 1188 764.15 1186.45 765.6 1185.4 765.9 L1124 782.15 1123 782.1 Q1102.7 778.95 1092 766.15 1098.5 763.15 1103.25 758.4 1103.5 758.15 1104 758.15 1109.9 742.5 1123.8 734.75 L1124 734.15 Q1144.05 746.6 1169.05 754 L1170 754.15 Q1172.25 755.9 1176.9 754.7 L1177 754.15 M501 883.15 Q518.8 872.05 538.3 869.2 540.85 868.85 544 870.15 546.95 882.2 559.05 885.05 L560 885.15 Q565 893.5 547.95 899 L547 899.15 Q535.4 896.25 526.2 890.8 L526 890.15 Q489.9 896.7 470 881.65 L470 882.15 Q466.9 890.05 460.8 894.9 L460 895.15 Q428.9 880.55 389 881.65 L389 881.15 Q415.8 865.6 441.9 869.65 L442 870.15 Q443.15 882.4 451.05 879.3 L452 879.15 Q460.5 875.15 468.15 870.35 L469 870.15 Q474.25 869.9 482.05 872 L483 872.15 Q490.25 878.9 500.05 882.95 L501 883.15"/>
    <path stroke="none" fill="#3e3e3e" d="M1131 983.15 L1131 982.15 1131 974.15 1132 974.15 1132.05 975.15 Q1132.75 980.4 1131 983.15 M1211 388.15 L1211.5 388.15 Q1209.9 391.5 1203 390.15 L1203 389.15 1210.95 388.65 1211 388.15"/>
    <path stroke="none" fill="#2e3136" d="M650 739.15 L650 738.15 Q666.5 738.15 683 738.65 L683 739.15 682 739.15 650 739.15"/>
    <path stroke="none" fill="#343439" d="M1083 672.15 L1087 672.15 1088 672.15 1087.85 672.7 Q1084.3 673.85 1083 672.15"/>
    <path stroke="none" fill="#36363a" d="M1035 631.15 Q1036.7 631.45 1036.1 634.15 L1036 635.15 1035.45 635.05 Q1035 633.15 1035 631.15"/>
    <path stroke="none" fill="#37373b" d="M968.65 733.15 L972.9 733.65 973 734.15 972 734.25 Q968.8 734.85 968 733.15 L968.65 733.15"/>
    <path stroke="none" fill="#2d3237" d="M1283 615.15 L1287.9 615.65 1288 616.15 1287 616.25 Q1283.8 616.85 1283 615.15"/>
    <path stroke="none" fill="#2d3137" d="M1269 615.15 L1269 614.15 1281.95 614.65 1282 615.15 1281 615.15 1269 615.15"/>
    <path stroke="none" fill="#282b32" d="M1170 754.15 L1176 754.15 1177 754.15 1176.9 754.7 Q1172.25 755.9 1170 754.15"/>
    <path stroke="none" fill="#414141" d="M176 159.15 L175 159.15 161 159.15 161 158.15 175.95 158.65 176 159.15 M334 810.15 L333.95 810.65 320 811.15 320 810.15 333 810.15 334 810.15 M135 836.15 L134.5 836.1 Q134 830.65 134 825.15 L135 825.15 135 835.15 135 836.15"/>
    <path stroke="none" fill="#3c3c3c" d="M1061 965.15 L1061.1 966.15 Q1061.7 969.35 1060 970.15 L1060 969.15 1060 965.15 1061 965.15 M324 757.15 L327.9 757.6 328 758.15 327 758.25 Q324.3 758.85 324 757.15"/>
    <path stroke="none" fill="#333339" d="M640 741.15 L640 740.15 644 740.15 645 740.15 644.9 740.65 640 741.15"/>
    <path stroke="none" fill="#33333a" d="M623 746.15 L623 745.15 626 745.15 627 745.15 626.9 745.7 623 746.15"/>
    <path stroke="none" fill="#010103" d="M990 812.15 L1002.75 822.45 1003 823.15 Q993.75 838.55 980.1 835.65 L980 835.15 Q964.25 847.9 955.15 872.2 955 872.65 955 873.15 951.55 856.6 952.5 835.15 L952 835.15 Q921.2 846.35 894 855.65 L894 855.15 Q895.4 838.45 908.95 833.05 922.9 827.55 927 812.15 957 804.4 989.05 812.05 L990 812.15"/>
    <path stroke="none" fill="#434343" d="M1037 955.15 L1037 954.15 1045.95 954.65 1046 955.15 1045 955.15 1037 955.15"/>
    <path stroke="none" fill="#383838" d="M663 972.15 L666 972.15 667 972.15 666.85 972.7 Q663.8 973.85 663 972.15"/>
  </g>
</svg>