<svg xmlns="http://www.w3.org/2000/svg" xmlns:xlink="http://www.w3.org/1999/xlink" width="2000" height="1000">
  <defs/>
  <g>
    <path stroke="none" fill="#000001" d="M1997.65 3.2 Q2001.7 10.3 1998.75 18.15 L1722.9 18.15 1706.95 34.15 1681.6 38.1 Q1679.7 33.55 1675.4 31 1673.65 29.95 1671.65 29.6 1666.45 28.85 1661.55 30.25 1654.6 39.55 1655.05 51.15 1655.45 61.4 1658.55 70.25 L1618.6 106.1 1601 65.15 1580 57.15 1573 39.8 Q1559.85 36.8 1549.7 28.15 1546.5 25.4 1544.05 22.15 1399.85 -3.35 1254.1 15.45 L1231.35 17.9 Q1089.3 24.15 947.3 15.45 906 13.4 864.75 15.1 835.25 16.25 808.8 27.05 803 29.45 796.6 30.3 755.75 35.75 719.6 55.7 716.75 57.25 714.45 60.05 L709.55 65.55 Q703.65 65.85 699.2 69.65 695.6 72.75 694.9 77.55 694.5 80.55 694.5 83.6 686.5 92.25 675.35 95.95 666.1 99.05 656.2 99.1 652.5 93.3 653.9 86.5 654.95 81.6 658.6 78.15 650.25 61.45 633.6 49.15 L624.6 22.15 Q593.4 13.9 561.65 20.15 554.55 26.8 543.25 28.9 524.5 32.6 507.15 32.25 L531.6 76.65 Q522.1 99.05 498.4 102.6 L494 103 485 102.6 483.15 102.35 Q431.4 93.7 385.3 118.1 337.25 91.7 283.45 81.15 L272.85 60.15 241.85 74.15 Q183 66.15 126.85 80.7 L106.55 45.25 Q75 75.4 32.55 86.1 16.85 79.55 0 83.15 L0 0.15 485 0.15 494 0.15 1690.45 0 Q1842.15 -0.05 1993.7 0.8 1996.25 0.8 1997.65 3.2 M1949.8 746.05 L1950.2 749.3 Q1951.4 760.15 1944.8 768.05 1939.8 782.1 1944.8 796.05 L1940.8 815.05 Q1865.35 818.9 1790.9 808.05 L1761.9 814.05 Q1790.25 793.65 1823.85 784.05 L1802.95 756.5 1832.8 746.5 1834.85 730.05 1846.4 714.15 Q1852.3 716.8 1858 719.9 1901.25 743.1 1949.8 746.05 M1970.8 473.4 Q1963.65 467.85 1956.3 473.05 L1923.8 467.1 1930.45 461.75 Q1937.55 455.7 1946.7 456.2 1964.8 457.95 1977.35 443.2 L1995.75 437.1 1995.9 470.95 1992.6 468.9 Q1987.65 465.4 1982.15 468 1975.9 471 1972.75 475.1 L1970.8 473.4 M1969.75 192.1 L1967.75 164.75 1906.35 148.25 Q1893.7 157.65 1877.8 155.5 1874.9 155.1 1872.35 153.95 1849.9 144.15 1825.15 138.9 1821.35 134.65 1816.65 131.35 1807.8 125.25 1797.4 123.2 1792.95 125.55 1788.5 127 1768.55 133.5 1748.9 126.15 1788.3 104.65 1833.25 101.95 L1834.85 100.15 1864.25 95.75 1863.85 94.7 Q1863.4 93.9 1863.55 93.65 1864.7 92 1866.8 91.6 L1868.5 91.45 Q1870.15 91.3 1871.4 92.15 L1874.35 96.15 1942.8 104.15 1945.15 102.15 Q1968.75 84.35 1998.75 89.15 L1998.8 201.6 Q1998.75 220.85 1997.6 240.05 L1996.5 239.95 1996.3 239.85 Q1994 232.75 1989.5 226.4 1985 220.05 1979.75 215.1 1979.9 211.65 1979.4 208.4 1978.55 203 1975.05 198.8 L1969.75 192.1 M1317.2 294.1 Q1313.9 304.25 1309 313.9 1300.6 330.25 1289.3 344.65 L1283.2 432.1 Q1280.25 433.85 1277.85 436.35 1275.55 438.8 1274.35 441.85 1272.95 445.2 1272.75 448.75 1272.45 453.5 1273.2 458.1 1255.15 457.55 1237.35 459.65 1204.35 463.95 1178.7 485.05 L1144.3 470.1 1116.3 417.1 Q1112.5 416.15 1109.15 414.3 1106 412.55 1103.35 410.1 1100.7 407.75 1098.75 404.8 1096.4 401.25 1095.3 397.1 L1105.3 389.1 1115.3 354.6 1115.4 354.3 Q1121.6 351.2 1126.7 346.4 1130.85 342.5 1133.95 337.75 1137.3 332.5 1139.3 326.6 L1166.8 311.2 1222.25 335.1 Q1233.85 324.95 1247.2 317.35 1280.65 298.65 1317.2 294.1 M1311.2 69.15 Q1307.1 83.8 1299.25 97 1284.35 122.1 1259.25 136.75 1267.25 149.6 1271.75 164.4 1273.6 170.5 1273.2 175.1 L1241.2 164.1 1210.75 172.05 1199.75 160.15 Q1207.05 148.2 1198.85 136.55 1197.65 134.9 1196.1 133.55 1194.2 132 1192.3 130.6 L1237.8 102.25 Q1240.45 104.65 1244.3 105.75 1247.2 106.6 1249.7 105.2 1280.8 87.75 1311.2 69.15 M1142.75 148.1 L1142.3 145.95 1141.6 144.25 1140.5 142.75 1139.1 141.5 1137.35 140.5 Q1136.1 139.8 1135.5 141.05 L1112.65 207.65 1114.7 207.5 1116.95 206.15 1119.45 203.65 1122 199.95 1125.05 194.9 Q1127.25 191.4 1129.25 190.6 1120.3 209.55 1103.65 222.5 1086.45 235.85 1065.35 241.1 1045.55 234.55 1034.3 217.15 1016.4 189.45 1007.3 157.85 L997.4 123.1 970.4 120.15 992.35 97.6 995.4 98.1 1009.5 98.85 Q1016.05 98.55 1022.2 96.6 1028.55 94.7 1033.9 91.25 1054.45 98.95 1075.95 103.55 1113.2 111.85 1150.3 112.15 L1142.65 153.2 1142.85 150.5 1142.75 148.1 M1812.7 942.1 Q1828.15 944.55 1843.35 948.25 1862 952.75 1880.35 948.4 1892.4 944.9 1905 943.65 1921.45 942 1937.75 944.2 L1947.65 943.7 Q1963.6 939.7 1974.35 927.1 L1998.75 934 1998.75 1000 0 999 0 884 Q2.9 886.95 5.2 890.3 L8.5 895.8 Q13.5 904.95 15.65 915 L15.9 915.1 Q27.6 925.4 42.9 921.7 44.4 921.35 45.6 920.5 50.7 916.85 56.35 914.1 67.85 908.65 80.55 907.4 85.2 906.95 89.4 905 101.25 899.55 113.95 899 120.15 906.3 127.6 912.55 142.3 924.95 160.3 931.9 183.75 940.95 208.85 942 239.45 965 277.4 971.9 L283.7 972.05 Q294.1 971 304.35 968.25 329.5 961.3 351.95 948.3 359.85 943.7 366.45 937.5 384.55 920.65 408.75 917 L429.7 897.45 490.3 968.95 528.25 939.1 Q545.75 949.65 564.3 958.75 607.55 980.05 654.6 991 L678.6 980 Q696.15 985.6 713.55 977 L718.9 979.95 Q725.85 983.75 733.35 986.2 749.05 991.1 765.5 992 793.5 973.35 825.5 963 L828.05 965.05 Q837.4 973.05 840.45 985 L894.3 982.55 Q949 978.55 1002.35 966 L1030.35 983 Q1053.7 983.3 1077.05 982.25 1124.6 980.15 1171.25 971 L1175.95 965.9 Q1181.65 959.9 1189.15 956.6 1204.1 950.15 1220.25 953 1230.6 945.6 1239.55 936.75 1259.9 916.65 1273.15 891.5 L1281.5 892.25 Q1311 898.6 1337.1 913.6 L1340.15 958 1377.15 975 Q1442.35 976.4 1507.05 983.55 L1509.85 983.45 Q1516.9 980.95 1523.2 976.45 1534.95 968.2 1549.45 969.2 1555.95 970.05 1560.85 966.25 1567.85 960.9 1568.65 952.05 1585.7 951.8 1602.55 954.25 1636.45 958.95 1665.5 976.95 L1694.95 973 1728.85 932.45 1737.75 932.9 Q1775.35 936.6 1812.7 942.1 M1740.35 587.15 L1739.9 587.05 Q1713.35 583.7 1694.95 565.05 1706.5 560.4 1718.85 559.3 1757.75 557.7 1780.9 588.05 L1773.35 605 Q1754.2 600.9 1740.35 587.15 M1939.1 583.2 Q1943.45 587.45 1942.95 593.3 1940.7 619.1 1928.8 643.05 L1930.05 645.25 Q1938.65 660.9 1952.8 671.05 L1912.8 676.05 Q1893.2 662.9 1880.8 643.05 L1880.8 627.05 1882.65 627.6 1886 628.25 1894.55 627.85 Q1899.1 626.55 1901.75 622.5 1901.85 616.2 1904.7 610.9 1905.9 608.65 1907.95 607.25 1919.25 599.3 1927.15 588.45 1932.15 581.5 1939.1 583.2 M1528.05 778.05 Q1534 768.25 1545.05 765.05 1579.6 779.35 1603.95 807.6 L1601.35 809.15 Q1582.8 817.95 1572 801.05 L1543.05 804.05 1541.6 803.1 Q1529.1 793.8 1528.05 778.05 M1430.1 690.55 L1414.1 668.05 Q1445.55 682.55 1457.75 715.05 L1461.35 715.85 Q1467.85 717.7 1472.2 722.85 1475 726.1 1475.1 729.05 1471.95 736.35 1464.2 738.05 1457 739.8 1450.15 737.45 1450 728.75 1444.65 721.85 1440.6 716.6 1434.1 715.05 1430.45 709.5 1429.25 703 1428.1 696.7 1430.1 690.55 M1423.1 471.1 L1427.1 455.1 1451.1 443.1 1439.1 459.1 1436.1 481.1 1414.2 497.6 1415.2 500.45 Q1418.8 509.15 1414.25 517 1409.25 525.65 1400.35 524.1 L1400.1 523.7 Q1395.55 489.9 1423.1 471.1 M1565 587.05 L1586 568.05 Q1615.2 550.8 1646.5 563 1649.6 574.55 1644.8 586.25 1642.85 591.1 1639.95 595.05 1637 596.65 1633.9 597.45 1627.4 598.75 1621.6 595.65 1619.45 594.5 1617.45 593.15 L1596.5 599 1565 587.05 M1022.35 128.15 Q1023.1 160.1 1035.45 189 1038.9 197.05 1045.3 202.75 1067.25 222.3 1097.3 220.1 1123 192.05 1123.7 155.3 1123.85 146.2 1118.8 138.4 L1115.3 133.15 Q1087 141.1 1065.3 158.75 L1049.35 145.15 Q1035.35 141.1 1025 130.9 L1022.35 128.15 M1016 132.7 Q1011.15 127.8 1004.35 126.15 1006.1 182.65 1044.1 223.7 1048.75 228.7 1055.1 230.75 1071.2 235.5 1086.3 228.1 1045.7 220.2 1030.3 182.1 1024.4 163.8 1021.9 144.85 1021 137.75 1016 132.7 M920.5 638.8 L916.15 639 Q897.6 639.6 894.45 623.05 L994.35 618 Q998.7 614.9 1005.9 615.35 1017.3 616 1028.05 612.1 1041.65 607.1 1047 622.05 1103 621.05 1158.25 629.7 1150.6 634.35 1141.5 636.9 1136.75 638.15 1131.95 638.8 1109.4 641.8 1095.3 659.05 L1089.7 678 Q1073.7 677.7 1057.8 678.55 1049.35 679.15 1041.2 680.95 1017.9 685.65 997.9 671.1 L952.45 673.45 Q949.95 643.95 920.5 638.8 M657.6 783.05 Q671.95 784.35 685.15 779.15 689.15 777.5 692.4 774.6 714.1 755.4 736.55 737.05 L745.55 723.05 Q782.95 710.7 822.5 713.05 L820.5 763.05 848.45 771.05 875.4 812.6 842.55 842.6 Q821.8 841.55 801.6 848.5 790.85 852.15 783.35 860.7 774.15 871.25 770.9 886 L725.85 879.8 Q708.4 877.6 691 877.15 672.25 876.25 656.45 868.7 L655.6 864 Q648.75 857.15 639.2 855.6 L628.6 854 Q631.5 850.8 633.55 847 635.35 843.55 635.9 839.65 636.65 834.6 636.2 830.1 L657.6 783.05 M682.15 436.1 Q682.55 436.15 682.55 437.1 669.65 449.75 651 450.9 635.95 451.95 623.8 461.1 602.05 477.35 596.65 504.05 546.85 514 524.05 559 L445.75 533.45 Q443.9 527.5 441.4 521.7 431.55 498.75 413.3 481.95 L412.85 481.55 Q413.95 476.95 415.65 472.7 426.75 445.2 448.3 425.2 L448.55 425.25 Q469 443.55 494 450.65 508.55 454.75 524.65 455.1 L534.1 449.5 Q554.15 437.1 569.25 419.2 L586.25 429.05 606.1 428.45 Q644.75 427.8 682.15 436.1 M649.35 291.6 Q664 286.55 679.45 288.05 687.05 288.95 694.5 286.25 716.3 278.7 734.55 293.1 731 296.65 726.55 298.4 716.15 302.4 706.05 297.15 L699.4 299.7 Q690.15 302.8 682.05 297.2 657.95 307.5 632.65 306.25 637.85 295.6 649.35 291.6 M801.5 220.1 L803.25 220.7 Q815.45 224.25 818.5 236.1 L811.5 235.8 804.1 236.45 Q778.2 242.55 756.65 228.55 761.7 223.2 769.45 221.9 773.5 221.15 777.15 222.75 790.05 228.75 801.5 220.1 M672.7 196.55 L686.9 187.35 718.55 185.75 Q720.45 190.8 720.9 196.35 721.5 204.15 716 210.05 L714 209.45 Q701.3 204.95 689.05 211.05 L672.7 196.55 M830.55 117.55 Q857.75 106.3 887.9 102.35 893.75 101.7 899.5 100.4 915.8 96.65 929.05 102.5 929.8 104.3 930 106.2 930.5 111.15 928.75 115.65 927.75 118.3 925.25 119.9 L920.3 121.35 Q906.45 122.1 893.95 116.2 L864.45 130.15 830.55 117.55 M1019.35 332.1 L1019.15 334.25 Q1017.55 348.55 1007.45 358.7 1009.9 382.95 1026.3 400.7 1026 404 1023.85 406.05 1007.5 421.6 988.85 436.05 962.8 430.55 955.4 456.1 962 470.35 956.9 484.9 954.95 487 952.25 487.35 946.15 488.15 941.4 487.1 935.3 504.45 919.9 514 L890.9 474.2 854.5 540.6 Q834.9 539.5 814.75 535.6 794.1 531.8 782.5 513.05 L743.55 501.05 Q737.9 491.15 736.55 479.8 736 475.45 736.65 471.25 740.25 448.9 760.45 438.5 L769.5 386.1 781.45 369.6 Q805 357.3 823.45 337.55 825.5 318.35 839.65 305.8 841.95 303.75 844.8 302.85 858.7 298.15 865.45 286.1 864.85 282.65 865.1 279.35 865.85 270.05 874.45 266.5 873.2 249.1 869.3 232.05 865.3 214.45 857.05 198.55 852.15 189.2 852.65 186.2 855.7 187.1 858.75 187.3 866.45 187.4 871.05 181.2 892.45 175.55 908.4 189.7 910 200.3 903.55 208.65 904.4 215.95 906.4 222.85 917.3 260.25 954.4 269.1 964.25 283.1 965.4 300.1 L1004.25 304.95 1004.3 305.45 Q1003.25 324.25 1019.35 332.1 M959.4 660.05 L961.15 659.4 Q975.2 654.05 984.75 642.3 L985 642.15 985.2 642.05 984.9 641.25 Q983.05 638.6 980 637.5 973.05 634.7 965.4 635.05 L925.4 635.05 Q931.75 637.7 937.6 641.2 950.05 648.65 959 660 L959.4 660.05 M950.85 759.15 Q937 759.9 925.8 751.9 919.6 747.35 917.45 740.05 L970.4 737.05 973.55 738.15 Q1009.7 748.05 1044.35 733.05 1080 743.35 1116.3 740.05 L1088.4 775.6 1069.35 779.05 1043.35 801.05 1010.35 802.05 1002.15 796.65 Q988.25 788 972.4 784.05 L950.85 759.15 M1120.3 636.05 Q1124.45 635.15 1119.85 635.05 L1118.3 635.05 Q1090.75 633.1 1063.6 638.5 L1057.35 640.05 1088.25 666.65 Q1092.1 657.55 1100.55 649.3 1107.9 642.1 1117.6 638.7 1120.2 637.85 1120.3 636.05 M123.85 687.25 Q142.2 694.55 161.9 692.05 L171.9 662.05 Q177.5 659.55 182.05 655.65 197 642.95 199.85 623.05 L204.1 621.25 Q233.55 608.05 256.85 586.05 267.05 618.35 261.85 652.05 L276.95 664.3 277.2 663.8 Q277.65 662.45 277.7 661.05 277.7 659.85 277.25 658.75 276.8 657.65 275.95 656.9 L273.55 654.7 Q274.6 651.95 276.2 649.75 277.2 648.3 276.6 646.75 274 640.1 266.35 637.85 L282.9 632.05 281.45 630.65 Q280.5 630.15 284.4 629.3 287.7 628.8 290.7 630 292.95 631 293.95 629.45 L289.15 625.45 308.15 619.6 304.3 615.45 334.3 602.85 323.7 634.85 318.8 631.25 316.3 634.85 Q318.35 637.75 318.3 641.3 318.25 644.4 316.25 646.75 314.05 649.3 314.25 652.9 314.4 655.6 314.05 658.3 L308.8 651.8 305.3 658.85 302.75 674.2 Q301.9 673.85 301.7 673.1 301.1 670.4 300 667.9 297.65 662.8 292.3 660.85 L279.9 667.65 305.45 724.05 Q258.45 734.2 213.35 755 L179.9 746.05 Q165.15 751 155.35 763 L144.7 763.4 Q131.55 763.45 119.95 757.45 L117.95 727.05 88 739.65 82.95 713.05 Q95.05 694.4 113.5 682.15 118.45 685 123.85 687.25 M167.35 463.85 Q174.45 472.7 180.85 481.95 195.05 502.45 205.85 525.05 175.75 533.35 145.35 540.15 136.1 542.15 130.9 550.05 129.85 563.6 132.05 577.05 134.25 590.25 139.85 602.6 130.45 605.8 119.6 606.65 104.8 608.25 90.85 603.8 73.8 598.5 58.95 595.05 54.1 583.6 45.65 574.15 39.1 566.9 31.1 561.5 34.7 557.45 39.3 554.05 53 543.75 68.95 537.45 75.5 524.9 77.45 510.85 79.5 496.1 76.45 481.95 L74.8 475.6 76.35 474.3 Q79 472.3 80.35 468.95 81.05 467.3 81.1 465.55 81.15 463.55 80.35 461.8 L77.95 456.1 103.95 443.5 151.9 469.1 160.9 455.6 167.35 463.85 M265.7 383.95 Q267.35 378.8 267.85 373.1 283.4 371.35 297.5 377.85 302.4 380.1 304.7 383.95 306.65 387.35 306.55 392 300.45 391.3 292.75 391.8 283.9 392.8 279.85 400.65 L280.85 412 Q276.95 413.25 273.1 411.15 264.15 406.55 256.95 399.55 L256.95 399.2 Q262.9 392.3 265.7 383.95 M100.95 223.1 L92.95 242.1 74.45 250.1 41.45 237.15 37.05 215.6 37.05 215.55 Q69.9 211.9 100.95 223.1 M129.55 246.95 Q131.7 243.95 132.2 240.4 133.9 228.1 142.9 221.1 202 204.35 261.8 219.25 L268.75 220.1 Q283.8 219.8 297.8 222.1 268.65 255.55 228.35 274.05 197.95 264.85 173.35 284.05 172.85 298.75 166.85 313.1 166.1 314.9 164.7 316.1 148.85 329.7 136.35 347.05 132.45 330.1 138.9 312.6 L106.05 271.55 111.95 259.1 Q122.85 256.05 129.55 246.95 M494 150 Q512.1 151.7 530.4 150.2 567.3 147.75 601.6 134.15 L601.4 142.05 Q600.95 156.7 606.25 170.1 L585.65 247.1 Q587.65 252 589.1 256.95 599.25 291.15 585.65 324.1 556.55 328.6 528.45 337.05 512 341.95 499.7 328.1 498.15 320.8 495.15 313.75 L494 311.25 Q490.4 303.7 485 297.45 481.3 293.2 476.8 289.55 478.7 284.3 481.6 279.4 L485 274.05 Q489.1 268 494 262.75 502.45 253.75 513.25 247.15 L459.7 223.1 Q457.35 219.2 455.55 215.1 446.15 194.1 444.7 171.1 453.15 168.65 460.2 163.4 469.1 156.9 474.3 147.2 L485 148.95 494 150 M283.4 661.8 Q286 661 282.4 659.2 281.85 658.95 281.3 658.85 L283.4 661.8 M584.65 444.1 L590.65 491.05 Q607.5 459.65 641 446.75 L645.6 445.1 584.65 444.1 M1159.25 874 L1158.25 879.3 Q1156.75 889.1 1165.2 893.6 L1122.8 910.95 1102.8 897.05 1079.75 912.95 989.4 914 980.85 908.1 Q961.05 908.15 943.3 899.5 941 898.4 939.35 896.6 923.35 878.65 903.55 864.45 L925.95 847.1 926.4 847 Q943 849.45 948.4 865 981.5 888 1021.6 881.1 1024.95 880.55 1028.15 881.05 1034.75 882.45 1041.5 884.2 1070 892 1098.75 886.05 1119 881.95 1137.95 873.95 1149.65 869 1159.25 874 M416.75 682.05 Q439.4 659.4 471.7 657.05 L497.7 641.05 531.65 649.05 Q545 643.25 559.15 640.85 573.7 638.45 588.45 638.65 602.95 638.8 614.6 646.05 614.65 650.85 612.6 655.15 605.8 669.5 589.7 672.7 586.6 676.25 585.25 681.05 583.45 687.55 585.65 694.05 578.65 702.05 569.85 708.25 566.9 710.35 564.95 713.15 538.6 751 515.7 791.05 507.05 780.45 495.1 773.5 482.45 766.2 468.45 762.15 447.05 755.85 428.25 766 425.7 764.8 423.35 762.7 407.4 748.6 401.75 728.05 L403.2 725.8 Q415.3 705.65 416.75 682.05"/>
    <path stroke="none" fill="#020204" d="M1621.8 282.25 Q1625 276.4 1625 268.1 L1617 269.1 1606 287.1 1610 289.1 1614 288.1 Q1618.55 288.1 1621.8 282.25 M1645.95 259.1 L1630.45 268.05 Q1629.5 269.85 1629.05 272.75 1628.15 278.95 1623.75 283.35 1617.3 289.9 1608 290.1 1599.15 308.8 1582.45 321.05 L1560 316.1 1557 320.6 Q1552.95 326.3 1546.75 329.05 1535.85 334 1524.1 328.5 L1536.05 318.1 Q1540.45 298 1554.05 283.1 L1607.55 257.2 1645.95 259.1 M1607 270.1 L1606 270.1 1601 271.1 1598.7 272.3 1596 272.1 1596 276.1 1603.1 284.55 1610 272.1 1610.2 272.1 Q1610.8 267 1607 270.1 M1601.95 291.65 L1589.95 274.5 Q1569.4 287.05 1562 310.1 L1575 319.1 1579 320.1 Q1596.85 311.65 1601.9 292.05 L1601.95 291.65"/>
    <path stroke="none" fill="#35353c" d="M1610 272.1 Q1610.2 269.55 1607.7 270 L1607 270.1 Q1610.8 267 1610.2 272.1 L1610 272.1"/>
    <path stroke="none" fill="#767680" d="M1118.3 635.05 L1119.85 635.05 Q1124.45 635.15 1120.3 636.05 L1118.3 635.05"/>
  </g>
</svg>