<svg xmlns:dc="http://purl.org/dc/elements/1.1/" xmlns:cc="http://creativecommons.org/ns#" xmlns:rdf="http://www.w3.org/1999/02/22-rdf-syntax-ns#" xmlns:svg="http://www.w3.org/2000/svg" xmlns="http://www.w3.org/2000/svg" xmlns:sodipodi="http://sodipodi.sourceforge.net/DTD/sodipodi-0.dtd" xmlns:inkscape="http://www.inkscape.org/namespaces/inkscape" width="16px" height="16px" viewBox="0 0 16 16" id="svg2" version="1.1" inkscape:version="0.91 r13725" sodipodi:docname="140.svg">
  <defs id="defs4"></defs>
  <sodipodi:namedview id="base" pagecolor="#C2C2DA" bordercolor="#666666" borderopacity="1.0" inkscape:pageopacity="0.0" inkscape:pageshadow="2" inkscape:zoom="32" inkscape:cx="2.141052" inkscape:cy="6.1286855" inkscape:document-units="px" inkscape:current-layer="layer1" showgrid="true" inkscape:window-width="1366" inkscape:window-height="715" inkscape:window-x="-8" inkscape:window-y="-8" inkscape:window-maximized="1" units="px">
    <inkscape:grid type="xygrid" id="grid3360"></inkscape:grid>
  </sodipodi:namedview>
  
  <g inkscape:label="Layer 1" inkscape:groupmode="layer" id="layer1" transform="translate(0,-1036.3622)" style="fill: #C2C2DA;">
    <path style="color: rgb(0, 0, 0); font: medium sans-serif; text-indent: 0px; text-align: start; text-decoration: none solid rgb(0, 0, 0); letter-spacing: normal; word-spacing: normal; text-transform: none; direction: ltr; writing-mode: lr-tb; baseline-shift: baseline; text-anchor: start; white-space: normal; clip-rule: nonzero; display: inline; overflow: visible; visibility: visible; opacity: 1; isolation: auto; mix-blend-mode: normal; color-interpolation: sRGB; color-interpolation-filters: linearRGB; fill: #C2C2DA; fill-opacity: 1; fill-rule: nonzero; stroke: none; stroke-width: 1; stroke-linecap: butt; stroke-linejoin: miter; stroke-miterlimit: 4; stroke-dasharray: none; stroke-dashoffset: 0; stroke-opacity: 1; color-rendering: auto; image-rendering: auto; shape-rendering: auto; text-rendering: auto;" d="M 3 3 L 3 5 L 1 5 L 1 5.5 L 1 13 L 13 13 L 13 11 L 15 11 L 15 3 L 3 3 z M 4.9667969 4 L 13.029297 4 L 11.371094 5 L 6.6328125 5 L 4.9667969 4 z M 13.996094 4 L 14 4 L 14 4.0078125 L 13.996094 4 z M 14 4.5820312 L 14 10 L 13 10 L 13 5.1855469 L 14 4.5820312 z M 4 4.5859375 L 4.6894531 5 L 4 5 L 4 4.5859375 z M 2.9667969 6 L 11.025391 6 L 6.9960938 8.4179688 L 2.9667969 6 z M 11.996094 6 L 12 6 L 12 6.0078125 L 11.996094 6 z M 12 6.5820312 L 12 12 L 2 12 L 2 6.5859375 L 6.9960938 9.5839844 L 12 6.5820312 z " transform="translate(0,1036.3622)" id="rect4596"></path>
  </g>

	
	
	<metadata>
		<rdf:rdf xmlns:rdf="http://www.w3.org/1999/02/22-rdf-syntax-ns#" xmlns:rdfs="http://www.w3.org/2000/01/rdf-schema#" xmlns:dc="http://purl.org/dc/elements/1.1/">
			<rdf:description about="https://iconscout.com/legal#licenses" dc:title="Main, Message, Envelope, Email, Text, Multiple, Combo" dc:description="Main, Message, Envelope, Email, Text, Multiple, Combo" dc:publisher="Iconscout" dc:date="2016-12-14" dc:format="image/svg+xml" dc:language="en">
				<dc:creator>
					<rdf:bag>
						<rdf:li>Chamestudio</rdf:li>
					</rdf:bag>
				</dc:creator>
			</rdf:description>
		</rdf:rdf>
    </metadata></svg>